<svg width="14" height="14" viewBox="0 0 14 14" fill="none" xmlns="http://www.w3.org/2000/svg">
<path d="M6.15001 7.7001L5.15001 6.71676C5.02778 6.59454 4.8889 6.53343 4.73334 6.53343C4.57778 6.53343 4.4389 6.59454 4.31667 6.71676C4.19445 6.83899 4.13334 6.98065 4.13334 7.14177C4.13334 7.30288 4.19445 7.44454 4.31667 7.56676L5.73334 8.98343C5.85556 9.10565 5.99445 9.16677 6.15001 9.16677C6.30556 9.16677 6.44445 9.10565 6.56667 8.98343L9.68334 5.86676C9.80556 5.74454 9.86667 5.60288 9.86667 5.44176C9.86667 5.28065 9.80556 5.13899 9.68334 5.01676C9.56112 4.89454 9.42223 4.83343 9.26667 4.83343C9.11112 4.83343 8.97223 4.89454 8.85001 5.01676L6.15001 7.7001ZM7.00001 13.4001C6.12223 13.4001 5.29445 13.2334 4.51667 12.9001C3.7389 12.5668 3.05834 12.1084 2.47501 11.5251C1.89167 10.9418 1.43334 10.2612 1.10001 9.48343C0.766673 8.70565 0.600006 7.87788 0.600006 7.0001C0.600006 6.11121 0.766673 5.28065 1.10001 4.50843C1.43334 3.73621 1.89167 3.05843 2.47501 2.4751C3.05834 1.89176 3.7389 1.43343 4.51667 1.1001C5.29445 0.766764 6.12223 0.600098 7.00001 0.600098C7.8889 0.600098 8.71945 0.766764 9.49167 1.1001C10.2639 1.43343 10.9417 1.89176 11.525 2.4751C12.1083 3.05843 12.5667 3.73621 12.9 4.50843C13.2333 5.28065 13.4 6.11121 13.4 7.0001C13.4 7.87788 13.2333 8.70565 12.9 9.48343C12.5667 10.2612 12.1083 10.9418 11.525 11.5251C10.9417 12.1084 10.2639 12.5668 9.49167 12.9001C8.71945 13.2334 7.8889 13.4001 7.00001 13.4001ZM7.00001 12.2001C8.44445 12.2001 9.67223 11.6945 10.6833 10.6834C11.6945 9.67232 12.2 8.44454 12.2 7.0001C12.2 5.55565 11.6945 4.32788 10.6833 3.31676C9.67223 2.30565 8.44445 1.8001 7.00001 1.8001C5.55556 1.8001 4.32778 2.30565 3.31667 3.31676C2.30556 4.32788 1.80001 5.55565 1.80001 7.0001C1.80001 8.44454 2.30556 9.67232 3.31667 10.6834C4.32778 11.6945 5.55556 12.2001 7.00001 12.2001Z" fill="white"/>
</svg>
