<svg width="22" height="25" viewBox="0 0 22 25" fill="none" xmlns="http://www.w3.org/2000/svg">
<path d="M11.0007 24.3336C9.53867 24.3336 8.16901 24.0572 6.89167 23.5046C5.61434 22.9519 4.50056 22.2004 3.55034 21.2499C2.5999 20.2997 1.84834 19.1861 1.29567 17.9092C0.743008 16.6324 0.466675 15.2629 0.466675 13.8009C0.466675 12.3389 0.743008 10.9692 1.29567 9.69191C1.84834 8.41458 2.5999 7.3008 3.55034 6.35058C4.50056 5.40013 5.61423 4.64858 6.89134 4.09591C8.16823 3.54324 9.53779 3.26691 11 3.26691H11.3873L10.2127 2.09258C10.0282 1.90791 9.93379 1.70146 9.92934 1.47324C9.92512 1.24502 10.0133 1.03869 10.194 0.854242C10.3911 0.669576 10.5982 0.581465 10.8153 0.589909C11.0325 0.598576 11.229 0.690909 11.405 0.866909L13.928 3.37724C14.1469 3.58791 14.2563 3.83369 14.2563 4.11458C14.2563 4.39569 14.1469 4.64558 13.928 4.86424L11.464 7.34124C11.2793 7.52591 11.0751 7.62035 10.8513 7.62458C10.6273 7.6288 10.4168 7.53858 10.2197 7.35391C10.039 7.16946 9.94745 6.96446 9.94501 6.73891C9.94234 6.51357 10.029 6.31691 10.205 6.14891L11.354 5.00024H11C8.57779 5.00024 6.50556 5.86135 4.78334 7.58358C3.06112 9.3058 2.20001 11.378 2.20001 13.8002C2.20001 16.2225 3.06112 18.2947 4.78334 20.0169C6.50556 21.7391 8.57779 22.6002 11 22.6002C13.4222 22.6002 15.4945 21.7391 17.2167 20.0169C18.9389 18.2947 19.8 16.2225 19.8 13.8002C19.8 13.5547 19.8825 13.3489 20.0473 13.1829C20.2122 13.0167 20.4165 12.9336 20.66 12.9336C20.9038 12.9336 21.1102 13.0167 21.2793 13.1829C21.4487 13.3489 21.5333 13.5547 21.5333 13.8002C21.5333 15.2625 21.257 16.632 20.7043 17.9089C20.1517 19.186 19.4001 20.2997 18.4497 21.2499C17.4995 22.2004 16.3859 22.9519 15.109 23.5046C13.8321 24.0572 12.4627 24.3336 11.0007 24.3336ZM7.28767 11.9952H6.36467C6.19445 11.9952 6.05101 11.939 5.93434 11.8266C5.81745 11.7144 5.75901 11.5725 5.75901 11.4009C5.75901 11.2291 5.81479 11.0869 5.92634 10.9742C6.03812 10.8616 6.17934 10.8052 6.35001 10.8052H7.86534C8.03601 10.8052 8.17979 10.8614 8.29667 10.9736C8.41334 11.0856 8.47167 11.2272 8.47167 11.3986V16.1876C8.47167 16.3589 8.41556 16.503 8.30334 16.6199C8.19112 16.7368 8.04923 16.7952 7.87767 16.7952C7.70745 16.7952 7.56656 16.739 7.45501 16.6266C7.34345 16.5141 7.28767 16.372 7.28767 16.2002V11.9952ZM11.1283 16.7952C10.9017 16.7952 10.7117 16.7186 10.5583 16.5652C10.405 16.4119 10.3283 16.2219 10.3283 15.9952V11.6052C10.3283 11.3786 10.405 11.1886 10.5583 11.0352C10.7117 10.8819 10.9017 10.8052 11.1283 10.8052H14.1743C14.401 10.8052 14.591 10.8819 14.7443 11.0352C14.8977 11.1886 14.9743 11.3786 14.9743 11.6052V15.9952C14.9743 16.2219 14.8977 16.4119 14.7443 16.5652C14.591 16.7186 14.401 16.7952 14.1743 16.7952H11.1283ZM11.6717 15.6052H13.6307C13.682 15.6052 13.7206 15.5925 13.7463 15.5669C13.7719 15.5414 13.7847 15.5029 13.7847 15.4516V12.1489C13.7847 12.0976 13.7719 12.0591 13.7463 12.0336C13.7206 12.008 13.682 11.9952 13.6307 11.9952H11.6717C11.6206 11.9952 11.5821 12.008 11.5563 12.0336C11.5308 12.0591 11.518 12.0976 11.518 12.1489V15.4516C11.518 15.5029 11.5308 15.5414 11.5563 15.5669C11.5821 15.5925 11.6206 15.6052 11.6717 15.6052Z" fill="white"/>
</svg>
