<svg width="22" height="22" viewBox="0 0 22 22" fill="none" xmlns="http://www.w3.org/2000/svg">
<path d="M4.74855 17.2515H1.33322C1.08766 17.2515 0.881886 17.169 0.715886 17.0041C0.549664 16.8392 0.466553 16.6349 0.466553 16.3911C0.466553 16.1476 0.549664 15.9411 0.715886 15.7718C0.881886 15.6027 1.08766 15.5181 1.33322 15.5181H5.41022C5.71378 15.5181 5.96833 15.6208 6.17389 15.8261C6.37922 16.0317 6.48189 16.2862 6.48189 16.5898V20.6668C6.48189 20.9124 6.39944 21.1181 6.23455 21.2841C6.06989 21.4504 5.86566 21.5335 5.62189 21.5335C5.37811 21.5335 5.17166 21.4504 5.00255 21.2841C4.83322 21.1181 4.74855 20.9124 4.74855 20.6668V17.2515ZM17.2639 17.2515V20.6668C17.2639 20.9124 17.1814 21.1181 17.0166 21.2841C16.8517 21.4504 16.6474 21.5335 16.4039 21.5335C16.1601 21.5335 15.9537 21.4504 15.7846 21.2841C15.6152 21.1181 15.5306 20.9124 15.5306 20.6668V16.5898C15.5306 16.2862 15.6333 16.0317 15.8389 15.8261C16.0442 15.6208 16.2988 15.5181 16.6026 15.5181H20.6792C20.9248 15.5181 21.1307 15.6006 21.2969 15.7655C21.4629 15.9301 21.5459 16.1344 21.5459 16.3781C21.5459 16.6219 21.4629 16.8284 21.2969 16.9975C21.1307 17.1668 20.9248 17.2515 20.6792 17.2515H17.2639ZM4.74855 4.7488V1.33346C4.74855 1.08791 4.831 0.88213 4.99589 0.71613C5.16078 0.549907 5.36511 0.466797 5.60889 0.466797C5.85244 0.466797 6.05889 0.549907 6.22822 0.71613C6.39733 0.88213 6.48189 1.08791 6.48189 1.33346V5.41046C6.48189 5.71402 6.37922 5.96857 6.17389 6.17413C5.96833 6.37946 5.71378 6.48213 5.41022 6.48213H1.33322C1.08766 6.48213 0.881886 6.39968 0.715886 6.2348C0.549664 6.07013 0.466553 5.86591 0.466553 5.62213C0.466553 5.37835 0.549664 5.17191 0.715886 5.0028C0.881886 4.83346 1.08766 4.7488 1.33322 4.7488H4.74855ZM17.2639 4.7488H20.6792C20.9248 4.7488 21.1307 4.83124 21.2969 4.99613C21.4629 5.16102 21.5459 5.36535 21.5459 5.60913C21.5459 5.85269 21.4629 6.05913 21.2969 6.22846C21.1307 6.39757 20.9248 6.48213 20.6792 6.48213H16.6026C16.2988 6.48213 16.0442 6.37946 15.8389 6.17413C15.6333 5.96857 15.5306 5.71402 15.5306 5.41046V1.33346C15.5306 1.08791 15.613 0.88213 15.7779 0.71613C15.9428 0.549907 16.147 0.466797 16.3906 0.466797C16.6343 0.466797 16.8409 0.549907 17.0102 0.71613C17.1793 0.88213 17.2639 1.08791 17.2639 1.33346V4.7488Z" fill="white"/>
</svg>
