<svg width="26" height="26" viewBox="0 0 26 26" fill="none" xmlns="http://www.w3.org/2000/svg">
<path d="M10.3986 17.4666C10.6423 17.4666 10.8487 17.3837 11.0179 17.2179C11.1872 17.052 11.2718 16.8465 11.2718 16.6013V9.40943C11.2718 9.16426 11.1894 8.95694 11.0245 8.7875C10.8597 8.61808 10.6554 8.53337 10.4117 8.53337C10.168 8.53337 9.96155 8.61629 9.79233 8.78213C9.62311 8.94798 9.5385 9.15349 9.5385 9.39867V16.5906C9.5385 16.8357 9.62092 17.043 9.78577 17.2125C9.95061 17.3819 10.1549 17.4666 10.3986 17.4666ZM15.5883 17.4666C15.832 17.4666 16.0384 17.3837 16.2077 17.2179C16.3769 17.052 16.4615 16.8465 16.4615 16.6013V9.40943C16.4615 9.16426 16.3791 8.95694 16.2142 8.7875C16.0494 8.61808 15.8451 8.53337 15.6014 8.53337C15.3577 8.53337 15.1513 8.61629 14.9821 8.78213C14.8128 8.94798 14.7282 9.15349 14.7282 9.39867V16.5906C14.7282 16.8357 14.8106 17.043 14.9755 17.2125C15.1403 17.3819 15.3446 17.4666 15.5883 17.4666ZM13.0114 25.1333C11.3423 25.1333 9.77028 24.8175 8.29543 24.186C6.82057 23.5544 5.52965 22.6854 4.4227 21.579C3.31572 20.4725 2.44631 19.1826 1.81447 17.7094C1.18262 16.2362 0.866699 14.662 0.866699 12.987C0.866699 11.3119 1.18248 9.7425 1.81403 8.27877C2.44559 6.81501 3.31459 5.52966 4.42103 4.4227C5.5275 3.31572 6.81735 2.44631 8.2906 1.81447C9.76384 1.18262 11.338 0.866699 13.013 0.866699C14.6881 0.866699 16.2575 1.18248 17.7212 1.81403C19.185 2.44559 20.4703 3.31459 21.5773 4.42103C22.6843 5.5275 23.5537 6.81476 24.1855 8.2828C24.8174 9.75084 25.1333 11.3194 25.1333 12.9886C25.1333 14.6577 24.8175 16.2297 24.186 17.7046C23.5544 19.1794 22.6854 20.4703 21.579 21.5773C20.4725 22.6843 19.1852 23.5537 17.7172 24.1855C16.2492 24.8174 14.6806 25.1333 13.0114 25.1333ZM13 23.4C15.8889 23.4 18.3444 22.3889 20.3667 20.3667C22.3889 18.3444 23.4 15.8889 23.4 13C23.4 10.1111 22.3889 7.65556 20.3667 5.63333C18.3444 3.61111 15.8889 2.6 13 2.6C10.1111 2.6 7.65555 3.61111 5.63333 5.63333C3.61111 7.65556 2.6 10.1111 2.6 13C2.6 15.8889 3.61111 18.3444 5.63333 20.3667C7.65555 22.3889 10.1111 23.4 13 23.4Z" fill="white"/>
</svg>
