<svg width="26" height="26" viewBox="0 0 26 26" fill="none" xmlns="http://www.w3.org/2000/svg">
<path d="M11.359 17.2205L16.9 13.6897C17.1632 13.5231 17.2948 13.2917 17.2948 12.9956C17.2948 12.6994 17.1632 12.471 16.9 12.3103L11.359 8.77953C11.0821 8.61884 10.8086 8.61384 10.5385 8.76453C10.2684 8.91524 10.1334 9.15016 10.1334 9.46927V16.5307C10.1334 16.8498 10.2684 17.0848 10.5385 17.2355C10.8086 17.3862 11.0821 17.3812 11.359 17.2205ZM13.0114 25.1333C11.3423 25.1333 9.77028 24.8175 8.29543 24.186C6.82057 23.5544 5.52965 22.6854 4.4227 21.579C3.31572 20.4725 2.44631 19.1826 1.81447 17.7094C1.18262 16.2362 0.866699 14.662 0.866699 12.987C0.866699 11.3119 1.18248 9.7425 1.81403 8.27877C2.44559 6.81501 3.31459 5.52966 4.42103 4.4227C5.5275 3.31572 6.81735 2.44631 8.2906 1.81447C9.76384 1.18262 11.338 0.866699 13.013 0.866699C14.6881 0.866699 16.2575 1.18248 17.7212 1.81403C19.185 2.44559 20.4703 3.31459 21.5773 4.42103C22.6843 5.5275 23.5537 6.81476 24.1855 8.2828C24.8174 9.75084 25.1333 11.3194 25.1333 12.9886C25.1333 14.6577 24.8175 16.2297 24.186 17.7046C23.5544 19.1794 22.6854 20.4703 21.579 21.5773C20.4725 22.6843 19.1852 23.5537 17.7172 24.1855C16.2492 24.8174 14.6806 25.1333 13.0114 25.1333ZM13 23.4C15.8889 23.4 18.3444 22.3889 20.3667 20.3667C22.3889 18.3444 23.4 15.8889 23.4 13C23.4 10.1111 22.3889 7.65556 20.3667 5.63333C18.3444 3.61111 15.8889 2.6 13 2.6C10.1111 2.6 7.65555 3.61111 5.63333 5.63333C3.61111 7.65556 2.6 10.1111 2.6 13C2.6 15.8889 3.61111 18.3444 5.63333 20.3667C7.65555 22.3889 10.1111 23.4 13 23.4Z" fill="white"/>
</svg>
