<svg width="22" height="25" viewBox="0 0 22 25" fill="none" xmlns="http://www.w3.org/2000/svg">
<path d="M7.28767 11.9952H6.36467C6.19445 11.9952 6.05101 11.939 5.93434 11.8266C5.81745 11.7144 5.75901 11.5725 5.75901 11.4009C5.75901 11.2291 5.81479 11.0869 5.92634 10.9742C6.03812 10.8616 6.17934 10.8052 6.35001 10.8052H7.86534C8.03601 10.8052 8.17979 10.8614 8.29667 10.9736C8.41334 11.0856 8.47167 11.2272 8.47167 11.3986V16.1876C8.47167 16.3589 8.41556 16.503 8.30334 16.6199C8.19112 16.7368 8.04923 16.7952 7.87767 16.7952C7.70745 16.7952 7.56656 16.739 7.45501 16.6266C7.34345 16.5141 7.28767 16.372 7.28767 16.2002V11.9952ZM11.1283 16.7952C10.9017 16.7952 10.7117 16.7186 10.5583 16.5652C10.405 16.4119 10.3283 16.2219 10.3283 15.9952V11.6052C10.3283 11.3786 10.405 11.1886 10.5583 11.0352C10.7117 10.8819 10.9017 10.8052 11.1283 10.8052H14.1743C14.401 10.8052 14.591 10.8819 14.7443 11.0352C14.8977 11.1886 14.9743 11.3786 14.9743 11.6052V15.9952C14.9743 16.2219 14.8977 16.4119 14.7443 16.5652C14.591 16.7186 14.401 16.7952 14.1743 16.7952H11.1283ZM11.6717 15.6052H13.6307C13.682 15.6052 13.7206 15.5925 13.7463 15.5669C13.7719 15.5414 13.7847 15.5029 13.7847 15.4516V12.1489C13.7847 12.0976 13.7719 12.0591 13.7463 12.0336C13.7206 12.008 13.682 11.9952 13.6307 11.9952H11.6717C11.6206 11.9952 11.5821 12.008 11.5563 12.0336C11.5308 12.0591 11.518 12.0976 11.518 12.1489V15.4516C11.518 15.5029 11.5308 15.5414 11.5563 15.5669C11.5821 15.5925 11.6206 15.6052 11.6717 15.6052ZM11.0007 24.3336C9.53867 24.3336 8.16901 24.0572 6.89167 23.5046C5.61434 22.9519 4.50056 22.2004 3.55034 21.2499C2.5999 20.2997 1.84834 19.186 1.29567 17.9089C0.743008 16.632 0.466675 15.2625 0.466675 13.8002C0.466675 13.5547 0.549119 13.3489 0.714008 13.1829C0.878897 13.0167 1.08312 12.9336 1.32667 12.9336C1.57045 12.9336 1.7769 13.0167 1.94601 13.1829C2.11534 13.3489 2.20001 13.5547 2.20001 13.8002C2.20001 16.2225 3.06112 18.2947 4.78334 20.0169C6.50556 21.7391 8.57779 22.6002 11 22.6002C13.4222 22.6002 15.4945 21.7391 17.2167 20.0169C18.9389 18.2947 19.8 16.2225 19.8 13.8002C19.8 11.378 18.9389 9.3058 17.2167 7.58358C15.4945 5.86135 13.4179 5.00024 10.987 5.00024H10.646L11.795 6.14891C11.971 6.32513 12.0632 6.52946 12.0717 6.76191C12.0803 6.99435 11.9943 7.2028 11.8137 7.38724C11.6166 7.57191 11.406 7.66213 11.182 7.65791C10.9582 7.65369 10.754 7.55924 10.5693 7.37458L8.07201 4.86424C7.85312 4.65358 7.74367 4.4078 7.74367 4.12691C7.74367 3.8458 7.85312 3.59591 8.07201 3.37724L10.595 0.866909C10.771 0.690909 10.9676 0.598576 11.1847 0.589909C11.4018 0.581465 11.6089 0.669576 11.806 0.854242C11.9867 1.03869 12.0749 1.24502 12.0707 1.47324C12.0662 1.70146 11.9718 1.90791 11.7873 2.09258L10.6127 3.26691H11C12.4622 3.26691 13.8318 3.54324 15.1087 4.09591C16.3858 4.64858 17.4995 5.40013 18.4497 6.35058C19.4001 7.3008 20.1517 8.41435 20.7043 9.69124C21.257 10.9681 21.5333 12.3376 21.5333 13.7996C21.5333 15.2616 21.257 16.6312 20.7043 17.9086C20.1517 19.1859 19.4001 20.2997 18.4497 21.2499C17.4995 22.2004 16.3859 22.9519 15.109 23.5046C13.8321 24.0572 12.4627 24.3336 11.0007 24.3336Z" fill="white"/>
</svg>
