<svg width="24" height="26" viewBox="0 0 24 26" fill="none" xmlns="http://www.w3.org/2000/svg">
<path d="M10.7563 25.1334C10.5239 25.1334 10.3257 25.0714 10.1617 24.9474C9.99744 24.8236 9.89055 24.6523 9.841 24.4334L9.31533 21.5384C8.736 21.3299 8.14755 21.0625 7.55 20.736C6.95266 20.4094 6.41722 20.0341 5.94366 19.6104L3.2 20.5924C3.00333 20.6437 2.79911 20.6338 2.58733 20.5627C2.37533 20.4918 2.21888 20.3607 2.118 20.1694L0.848663 17.964C0.747774 17.7727 0.713663 17.5753 0.746329 17.3717C0.778774 17.1684 0.872774 16.9915 1.02833 16.841L3.22566 14.941C3.17277 14.6317 3.12877 14.3159 3.09366 13.9937C3.05855 13.6715 3.041 13.3445 3.041 13.0127C3.041 12.6898 3.05855 12.3694 3.09366 12.0514C3.12877 11.7334 3.17277 11.4026 3.22566 11.059L1.02833 9.15903C0.872774 9.00859 0.780885 8.82948 0.752663 8.6217C0.724441 8.41414 0.760774 8.21459 0.861663 8.02303L2.118 5.85637C2.21888 5.67348 2.37533 5.54448 2.58733 5.46937C2.79911 5.39403 3.00333 5.38203 3.2 5.43337L5.93066 6.4027C6.43 5.97026 6.96766 5.59292 7.54366 5.2707C8.11966 4.94848 8.706 4.67881 9.30266 4.4617L9.841 1.5667C9.89055 1.34781 9.99744 1.17648 10.1617 1.0527C10.3257 0.9287 10.5239 0.866699 10.7563 0.866699H13.2437C13.4761 0.866699 13.6743 0.9287 13.8383 1.0527C14.0026 1.17648 14.1094 1.34781 14.159 1.5667L14.6847 4.47436C15.3069 4.70859 15.891 4.97825 16.437 5.28337C16.9832 5.58848 17.5102 5.96159 18.018 6.4027L20.813 5.43337C21.0094 5.38203 21.2137 5.39403 21.4257 5.46937C21.6377 5.54448 21.794 5.67348 21.8947 5.85637L23.1513 8.03603C23.2522 8.22737 23.2863 8.42481 23.2537 8.62837C23.2212 8.8317 23.1272 9.00859 22.9717 9.15903L20.723 11.0974C20.793 11.4238 20.8413 11.7418 20.868 12.0514C20.8944 12.3607 20.9077 12.6769 20.9077 13C20.9077 13.3145 20.8922 13.6265 20.8613 13.936C20.8307 14.2454 20.7889 14.5761 20.736 14.9284L22.946 16.841C23.1016 16.9915 23.1978 17.1684 23.2347 17.3717C23.2713 17.5753 23.2392 17.7727 23.1383 17.964L21.8947 20.1564C21.794 20.3479 21.6356 20.4791 21.4193 20.55C21.2031 20.6209 20.9967 20.6307 20.8 20.5794L18.018 19.5974C17.5102 20.0385 16.979 20.4158 16.4243 20.7294C15.8697 21.0431 15.2898 21.3086 14.6847 21.5257L14.159 24.4334C14.1094 24.6523 14.0026 24.8236 13.8383 24.9474C13.6743 25.0714 13.4761 25.1334 13.2437 25.1334H10.7563ZM11.4 23.4H12.5873L13.2333 20.0617C14.0693 19.9061 14.8411 19.6258 15.5487 19.2207C16.2564 18.8154 16.8941 18.2777 17.4617 17.6077L20.6743 18.7L21.2873 17.7L18.7283 15.454C18.8617 15.042 18.965 14.6368 19.0383 14.2384C19.1119 13.8401 19.1487 13.4274 19.1487 13C19.1487 12.564 19.1119 12.1513 19.0383 11.7617C18.965 11.3719 18.8617 10.9753 18.7283 10.5717L21.3127 8.30003L20.7 7.30003L17.4487 8.37937C16.958 7.76914 16.329 7.24226 15.5617 6.7987C14.7941 6.35514 14.0138 6.06837 13.2207 5.93837L12.6 2.60003H11.3873L10.7793 5.9257C9.94355 6.06414 9.16544 6.33803 8.445 6.74736C7.72433 7.15692 7.08022 7.70092 6.51266 8.37937L3.3 7.30003L2.68733 8.30003L5.23333 10.546C5.1 10.9069 4.99444 11.2971 4.91666 11.7167C4.83889 12.1363 4.8 12.5683 4.8 13.0127C4.8 13.4487 4.83889 13.8723 4.91666 14.2834C4.99444 14.6945 5.09577 15.0847 5.22066 15.454L2.68733 17.7L3.3 18.7L6.5 17.6334C7.05044 18.2863 7.68588 18.8175 8.40633 19.227C9.127 19.6364 9.91377 19.9188 10.7667 20.0744L11.4 23.4ZM11.9487 17.1334C13.1024 17.1334 14.0798 16.7329 14.8807 15.932C15.6816 15.1311 16.082 14.1538 16.082 13C16.082 11.8463 15.6816 10.8689 14.8807 10.068C14.0798 9.26714 13.1024 8.8667 11.9487 8.8667C10.8033 8.8667 9.82811 9.26714 9.023 10.068C8.21789 10.8689 7.81533 11.8463 7.81533 13C7.81533 14.1538 8.21789 15.1311 9.023 15.932C9.82811 16.7329 10.8033 17.1334 11.9487 17.1334Z" fill="white"/>
</svg>
