<svg width="22" height="20" viewBox="0 0 22 20" fill="none" xmlns="http://www.w3.org/2000/svg">
<path d="M19.5951 9.97812C19.5951 8.24834 19.115 6.67145 18.1548 5.24746C17.1946 3.82323 15.9345 2.75412 14.3745 2.04012C14.1369 1.92634 13.9575 1.76001 13.8361 1.54112C13.7148 1.32245 13.711 1.0989 13.8248 0.870455C13.9348 0.625344 14.1257 0.461789 14.3975 0.379789C14.6692 0.297567 14.9335 0.312566 15.1901 0.424789C17.0668 1.28012 18.559 2.56923 19.6668 4.29212C20.7743 6.01479 21.3281 7.91879 21.3281 10.0041C21.3281 12.0892 20.7743 13.9863 19.6668 15.6955C18.559 17.4046 17.0668 18.6868 15.1901 19.5421C14.9335 19.6543 14.6692 19.6693 14.3975 19.5871C14.1257 19.5051 13.9348 19.3416 13.8248 19.0965C13.711 18.868 13.7148 18.6445 13.8361 18.4258C13.9575 18.2069 14.1369 18.0406 14.3745 17.9268C15.9345 17.2128 17.1946 16.142 18.1548 14.7145C19.115 13.2867 19.5951 11.7079 19.5951 9.97812ZM5.08745 12.5335H1.74379C1.44001 12.5335 1.18545 12.4307 0.980119 12.2251C0.774785 12.0198 0.672119 11.7652 0.672119 11.4615V8.53879C0.672119 8.23501 0.774785 7.98046 0.980119 7.77512C1.18545 7.56957 1.44001 7.46679 1.74379 7.46679H5.08745L9.04379 3.51046C9.3189 3.23534 9.63679 3.17379 9.99745 3.32579C10.3581 3.47779 10.5385 3.74935 10.5385 4.14046V15.8565C10.5385 16.2476 10.3581 16.5197 9.99745 16.6728C9.63679 16.8259 9.3189 16.7649 9.04379 16.4898L5.08745 12.5335ZM16.1385 10.0015C16.1385 10.7221 15.9769 11.4705 15.6538 12.2465C15.3309 13.0225 14.8545 13.619 14.2245 14.0361C14.0578 14.1403 13.8872 14.1531 13.7128 14.0745C13.5386 13.9958 13.4515 13.8461 13.4515 13.6255V6.37479C13.4515 6.15412 13.5386 6.00446 13.7128 5.92579C13.8872 5.84712 14.0578 5.85923 14.2245 5.96212C14.8545 6.3499 15.3309 6.9399 15.6538 7.73212C15.9769 8.52457 16.1385 9.28101 16.1385 10.0015ZM8.80512 6.20012L5.80512 9.20012H2.40512V10.8001H5.80512L8.80512 13.8001V6.20012Z" fill="white"/>
</svg>
