<svg width="23" height="23" viewBox="0 0 23 23" fill="none" xmlns="http://www.w3.org/2000/svg">
<path d="M17.6102 18.8308C17.3913 18.9693 17.1571 19.101 16.9076 19.2258C16.658 19.3505 16.3905 19.4753 16.1049 19.6002C15.8794 19.6908 15.6439 19.6908 15.3986 19.6002C15.1532 19.5095 14.9921 19.3556 14.9152 19.1385C14.8384 18.913 14.8529 18.6886 14.9589 18.4655C15.0649 18.2424 15.2307 18.0856 15.4562 17.9952C15.682 17.8976 15.8945 17.798 16.0936 17.6962C16.2927 17.5946 16.4452 17.4976 16.5512 17.4052L11.7179 12.9385V15.9002C11.7179 16.2882 11.5376 16.5578 11.1769 16.7092C10.8162 16.8603 10.4982 16.7983 10.2229 16.5232L6.26657 12.5668H2.92291C2.62379 12.5668 2.37046 12.463 2.16291 12.2552C1.95513 12.0476 1.85124 11.7942 1.85124 11.4948V8.57218C1.85124 8.27284 1.95513 8.0194 2.16291 7.81184C2.37046 7.60407 2.62379 7.50018 2.92291 7.50018H6.24624L0.397238 1.61818C0.212794 1.43351 0.118349 1.22929 0.113905 1.00551C0.109683 0.781509 0.204127 0.572955 0.397238 0.379844C0.590572 0.186511 0.797016 0.0898438 1.01657 0.0898438C1.23635 0.0898438 1.44279 0.186511 1.63591 0.379844L21.7999 20.5438C21.9846 20.7285 22.079 20.9272 22.0832 21.1398C22.0875 21.3527 21.993 21.5557 21.7999 21.7488C21.6068 21.942 21.4003 22.0385 21.1806 22.0385C20.961 22.0385 20.7547 21.942 20.5616 21.7488L17.6102 18.8308ZM20.7742 10.0335C20.7742 8.29507 20.2943 6.71129 19.3346 5.28218C18.3748 3.85307 17.1128 2.78729 15.5486 2.08484C15.3144 1.96351 15.1366 1.7934 15.0152 1.57451C14.8939 1.35584 14.8913 1.13362 15.0076 0.907843C15.1153 0.660065 15.2996 0.495178 15.5602 0.413177C15.8209 0.330955 16.0795 0.350621 16.3359 0.472176C18.1906 1.31818 19.6828 2.59373 20.8126 4.29884C21.9426 6.00396 22.5076 7.9044 22.5076 10.0002C22.5076 10.8311 22.4088 11.6336 22.2112 12.4078C22.0139 13.1823 21.7178 13.9216 21.3229 14.6258C21.1707 14.9421 20.986 15.1365 20.7689 15.2092C20.552 15.2818 20.3376 15.2754 20.1256 15.1898C19.9136 15.1045 19.7541 14.9571 19.6472 14.7475C19.5403 14.5382 19.5433 14.3293 19.6562 14.1208C20.0205 13.5106 20.2978 12.861 20.4882 12.1718C20.6789 11.483 20.7742 10.7702 20.7742 10.0335ZM15.4152 5.99518C16.0152 6.44807 16.4824 7.04807 16.8166 7.79518C17.1508 8.54207 17.3179 9.28818 17.3179 10.0335C17.3179 10.2524 17.3072 10.4691 17.2859 10.6835C17.2644 10.898 17.2255 11.0993 17.1692 11.2875C17.1077 11.4977 16.9654 11.6311 16.7422 11.6875C16.5191 11.7437 16.3204 11.6847 16.1459 11.5105L14.9589 10.3232C14.8562 10.2207 14.7759 10.108 14.7179 9.98484C14.6597 9.86173 14.6306 9.71984 14.6306 9.55918V6.40518C14.6306 6.19496 14.7199 6.0484 14.8986 5.96551C15.0772 5.88262 15.2495 5.89251 15.4152 5.99518ZM9.58957 4.95418C9.48713 4.85151 9.43802 4.71984 9.44224 4.55918C9.44646 4.39851 9.49991 4.26695 9.60257 4.16451L10.2229 3.54384C10.4982 3.26873 10.8162 3.20673 11.1769 3.35784C11.5376 3.50918 11.7179 3.77884 11.7179 4.16684V5.78984C11.7179 6.02251 11.6008 6.18107 11.3666 6.26551C11.1324 6.35018 10.9391 6.31218 10.7869 6.15151L9.58957 4.95418ZM9.98457 13.8335V11.2052L7.37957 8.60018L6.77957 9.23351H3.58457V10.8335H6.98457L9.98457 13.8335Z" fill="white"/>
</svg>
