<svg width="22" height="22" viewBox="0 0 22 22" fill="none" xmlns="http://www.w3.org/2000/svg">
<path d="M2.2001 19.8001H5.61553C5.86109 19.8001 6.06691 19.8825 6.233 20.0474C6.39911 20.2122 6.48216 20.4165 6.48216 20.6602C6.48216 20.9039 6.39911 21.1103 6.233 21.2795C6.06691 21.4488 5.86109 21.5334 5.61553 21.5334H1.5386C1.23493 21.5334 0.980386 21.4307 0.774963 21.2252C0.569519 21.0198 0.466797 20.7653 0.466797 20.4616V16.3847C0.466797 16.1391 0.54923 15.9333 0.714097 15.7672C0.878941 15.6011 1.08321 15.518 1.3269 15.518C1.57059 15.518 1.77704 15.6011 1.94626 15.7672C2.11549 15.9333 2.2001 16.1391 2.2001 16.3847V19.8001ZM19.8129 19.8001V16.3847C19.8129 16.1391 19.8954 15.9333 20.0602 15.7672C20.225 15.6011 20.4293 15.518 20.673 15.518C20.9167 15.518 21.1231 15.6011 21.2924 15.7672C21.4616 15.9333 21.5462 16.1391 21.5462 16.3847V20.4616C21.5462 20.7653 21.4435 21.0198 21.2381 21.2252C21.0326 21.4307 20.7781 21.5334 20.4744 21.5334H16.3975C16.1519 21.5334 15.9461 21.451 15.78 21.2861C15.6139 21.1213 15.5308 20.917 15.5308 20.6733C15.5308 20.4296 15.6139 20.2232 15.78 20.0539C15.9461 19.8847 16.1519 19.8001 16.3975 19.8001H19.8129ZM2.2001 2.2001V5.61553C2.2001 5.86109 2.11767 6.06691 1.95283 6.233C1.78799 6.39911 1.58372 6.48216 1.34003 6.48216C1.09634 6.48216 0.889886 6.39911 0.720663 6.233C0.551419 6.06691 0.466797 5.86109 0.466797 5.61553V1.5386C0.466797 1.23493 0.569519 0.980386 0.774963 0.774963C0.980386 0.569519 1.23493 0.466797 1.5386 0.466797H5.61553C5.86109 0.466797 6.06691 0.54923 6.233 0.714097C6.39911 0.878942 6.48216 1.08321 6.48216 1.3269C6.48216 1.57059 6.39911 1.77704 6.233 1.94626C6.06691 2.11549 5.86109 2.2001 5.61553 2.2001H2.2001ZM19.8129 2.2001H16.3975C16.1519 2.2001 15.9461 2.11767 15.78 1.95283C15.6139 1.78799 15.5308 1.58372 15.5308 1.34003C15.5308 1.09634 15.6139 0.889887 15.78 0.720664C15.9461 0.55142 16.1519 0.466797 16.3975 0.466797H20.4744C20.7781 0.466797 21.0326 0.569519 21.2381 0.774963C21.4435 0.980386 21.5462 1.23493 21.5462 1.5386V5.61553C21.5462 5.86109 21.4638 6.06691 21.2989 6.233C21.1341 6.39911 20.9298 6.48216 20.6861 6.48216C20.4424 6.48216 20.236 6.39911 20.0668 6.233C19.8975 6.06691 19.8129 5.86109 19.8129 5.61553V2.2001Z" fill="white"/>
</svg>
