<svg width="44" height="44" viewBox="0 0 44 44" fill="none" xmlns="http://www.w3.org/2000/svg">
<rect width="44" height="44" rx="8" fill="#EBEBEB"/>
<mask id="mask0_710_648" style="mask-type:alpha" maskUnits="userSpaceOnUse" x="10" y="10" width="24" height="24">
<rect x="10" y="10" width="24" height="24" fill="#D9D9D9"/>
</mask>
<g mask="url(#mask0_710_648)">
<path d="M15.7077 29.8999C15.2656 29.8999 14.8871 29.7425 14.5723 29.4277C14.2574 29.1128 14.1 28.7343 14.1 28.2922V15.7077C14.1 15.2656 14.2574 14.8871 14.5723 14.5723C14.8871 14.2574 15.2656 14.1 15.7077 14.1H28.2923C28.7344 14.1 29.1129 14.2574 29.4277 14.5723C29.7425 14.8871 29.9 15.2656 29.9 15.7077V28.2922C29.9 28.7343 29.7425 29.1128 29.4277 29.4277C29.1129 29.7425 28.7344 29.8999 28.2923 29.8999H15.7077ZM15.7077 28.5999H28.2923C28.382 28.5999 28.4557 28.5711 28.5134 28.5134C28.5711 28.4557 28.6 28.382 28.6 28.2922V17.2H15.4V28.2922C15.4 28.382 15.4288 28.4557 15.4865 28.5134C15.5442 28.5711 15.618 28.5999 15.7077 28.5999ZM17.85 21.7249C17.6658 21.7249 17.5115 21.6631 17.3869 21.5395C17.2623 21.4158 17.2 21.2626 17.2 21.0799C17.2 20.8971 17.2623 20.7423 17.3869 20.6154C17.5115 20.4884 17.6658 20.425 17.85 20.425H26.15C26.3342 20.425 26.4885 20.4868 26.6131 20.6104C26.7377 20.7341 26.8 20.8873 26.8 21.07C26.8 21.2528 26.7377 21.4076 26.6131 21.5346C26.4885 21.6615 26.3342 21.7249 26.15 21.7249H17.85ZM17.85 25.3499C17.6658 25.3499 17.5115 25.2881 17.3869 25.1645C17.2623 25.0408 17.2 24.8876 17.2 24.7049C17.2 24.5221 17.2623 24.3673 17.3869 24.2404C17.5115 24.1134 17.6658 24.05 17.85 24.05H22.55C22.7342 24.05 22.8885 24.1118 23.0131 24.2354C23.1377 24.3591 23.2 24.5123 23.2 24.695C23.2 24.8778 23.1377 25.0326 23.0131 25.1596C22.8885 25.2865 22.7342 25.3499 22.55 25.3499H17.85Z" fill="#5C5551"/>
</g>
</svg>
