<svg width="72" height="72" viewBox="0 0 72 72" fill="none" xmlns="http://www.w3.org/2000/svg">
<g clip-path="url(#clip0_2026_24437)">
<path fill-rule="evenodd" clip-rule="evenodd" d="M12.15 2.25C10.4103 2.25 9 3.6603 9 5.4V66.6C9 68.3397 10.4103 69.75 12.15 69.75H59.85C61.5897 69.75 63 68.3397 63 66.6V20.25H49.5C47.0147 20.25 45 18.2353 45 15.75V2.25H12.15Z" fill="#EA426B"/>
<path d="M48.15 20.25H63L45 2.25V17.1C45 18.8397 46.4103 20.25 48.15 20.25Z" fill="#F07B97"/>
<path d="M45.0009 47.5198C46.0809 47.5198 48.6009 47.5198 48.6009 44.9998C48.6009 43.9198 48.2409 42.4798 45.0009 42.4798C43.5609 42.4798 42.1209 42.8398 40.6809 42.8398C38.8809 41.3998 37.0809 39.5998 36.0009 37.4398C37.0809 33.4798 37.0809 30.9598 36.3609 29.5198C36.0009 29.1598 35.2809 28.7998 34.5609 28.7998C33.4809 28.7998 32.7609 29.1598 32.4009 29.8798C31.3209 32.0398 33.1209 35.9998 33.8409 37.7998C32.7609 40.6798 31.6809 43.5598 30.2409 46.4398C23.4009 49.3198 23.4009 51.1198 23.4009 51.8398C23.4009 52.5598 23.7609 53.2798 24.4809 53.6398C24.8409 53.9998 25.2009 53.9998 25.5609 53.9998C27.3609 53.9998 29.1609 52.1998 31.6809 48.2398C34.5609 47.1598 37.0809 46.0798 39.9609 45.7198C41.4009 46.7998 43.2009 47.5198 45.0009 47.5198ZM34.9209 30.9598C35.2809 32.0398 35.2809 33.4798 34.9209 34.5598C34.2009 33.4798 34.2009 32.3998 34.2009 30.9598H34.9209ZM25.5609 51.8398C26.2809 50.7598 27.0009 50.3998 28.0809 49.6798C27.3609 50.7598 26.6409 51.4798 25.5609 51.8398ZM35.2809 41.0398C36.0009 42.1198 37.0809 43.5598 38.1609 44.6398H37.8009C36.3609 44.9998 34.5609 45.3598 33.1209 46.0798C33.8409 44.2798 34.5609 42.8398 35.2809 41.0398ZM44.6409 44.6398C46.0809 44.6398 46.4409 44.9998 46.4409 45.3598C46.0809 45.3598 45.3609 45.7198 45.0009 45.3598C44.2809 45.3598 43.5609 44.9998 42.8409 44.6398H44.6409Z" fill="white"/>
</g>
<defs>
<clipPath id="clip0_2026_24437">
<rect width="72" height="72" fill="white"/>
</clipPath>
</defs>
</svg>
