<svg width="32" height="32" viewBox="0 0 32 32" fill="none" xmlns="http://www.w3.org/2000/svg">
<rect width="32" height="32" rx="16" fill="white"/>
<path fill-rule="evenodd" clip-rule="evenodd" d="M12.6798 22.9985H10.3387C10.078 22.9985 9.86599 22.7884 9.86372 22.5277C9.84934 20.8803 9.85783 19.7662 9.88919 19.1856C9.9024 18.9406 10.1383 18.676 10.331 18.4781C11.0815 17.7074 11.8565 16.9604 12.621 16.2033C13.0014 15.8266 13.4608 15.6625 13.9923 15.665C15.0366 15.6698 16.0811 15.6714 17.1255 15.6644C18.0999 15.6579 18.8419 14.9388 18.8467 14.0113C18.8514 13.1274 18.1065 12.3555 17.1835 12.3358C16.1238 12.3132 15.0631 12.3209 14.0031 12.3304C13.4507 12.3353 13.1665 12.6308 13.1568 13.19C13.1467 13.7754 13.1589 14.3611 13.1516 14.9465C13.1451 15.4714 12.9565 15.6605 12.437 15.6651C11.7724 15.671 11.1078 15.6657 10.4431 15.6677C10.0131 15.669 9.80028 15.4523 9.79866 15.0276C9.7961 14.3473 9.79296 13.6667 9.80009 12.9864C9.80446 12.5622 10.0389 12.35 10.4564 12.3461C11.0576 12.3406 11.6591 12.3496 12.2603 12.3421C12.8903 12.3343 13.2268 12.0069 13.2418 11.376C13.2549 10.8226 13.2582 10.2681 13.2425 9.71472C13.2302 9.27755 13.4604 9.02325 13.8534 9.02505C15.2899 9.03161 16.7515 8.92312 18.1568 9.1495C20.5557 9.53584 22.2472 11.7452 22.2028 14.1264C22.1586 16.4953 20.4029 18.5217 18.0044 18.94C17.5874 19.0128 17.153 18.9993 16.7264 19.0022C15.5583 19.0098 14.39 19.0047 13.1548 19.0047V22.5236C13.1548 22.7859 12.9421 22.9985 12.6798 22.9985Z" fill="#1A130F"/>
<path fill-rule="evenodd" clip-rule="evenodd" d="M14.0029 12.3302C13.4505 12.335 13.1663 12.6305 13.1566 13.1898C13.1465 13.7751 13.1588 14.3608 13.1515 14.9462C13.1449 15.4711 12.9563 15.6602 12.4368 15.6648C11.7722 15.6707 11.1076 15.6655 10.4429 15.6675C10.0129 15.6687 9.8001 15.452 9.79848 15.0274C9.79592 14.347 9.79278 13.6665 9.79991 12.9861C9.80428 12.5619 10.0387 12.3497 10.4562 12.3458C11.0575 12.3403 11.6589 12.3493 12.2601 12.3418C12.8901 12.3341 13.2266 12.0066 13.2416 11.3757C13.2547 10.8223 15.063 12.3207 14.0029 12.3302Z" fill="#FF7D26"/>
<path fill-rule="evenodd" clip-rule="evenodd" d="M13.7854 9.00446H16.8252V12.3293H13.7854C13.4706 12.3293 13.2154 12.0741 13.2154 11.7593V9.57443C13.2154 9.25964 13.4706 9.00446 13.7854 9.00446Z" fill="#1A130F"/>
</svg>
