<svg width="44" height="44" viewBox="0 0 44 44" fill="none" xmlns="http://www.w3.org/2000/svg">
<rect width="44" height="44" rx="8" fill="#EBEBEB"/>
<mask id="mask0_710_640" style="mask-type:alpha" maskUnits="userSpaceOnUse" x="10" y="10" width="24" height="24">
<rect x="10" y="10" width="24" height="24" fill="#D9D9D9"/>
</mask>
<g mask="url(#mask0_710_640)">
<path d="M15.51 29.8999C15.1193 29.8999 14.7867 29.7608 14.512 29.4826C14.2373 29.2044 14.1 28.8699 14.1 28.4793C14.1 28.0886 14.2391 27.7559 14.5173 27.4812C14.7955 27.2065 15.13 27.0692 15.5207 27.0692C15.9113 27.0692 16.244 27.2083 16.5187 27.4865C16.7934 27.7647 16.9307 28.0992 16.9307 28.4899C16.9307 28.8806 16.7916 29.2132 16.5134 29.4879C16.2352 29.7626 15.9007 29.8999 15.51 29.8999ZM29.0863 29.8999C28.8556 29.8999 28.6647 29.8074 28.5135 29.6225C28.3624 29.4375 28.2739 29.2184 28.248 28.9653C28.1365 27.1935 27.7156 25.5363 26.9854 23.9936C26.2551 22.4509 25.2972 21.0825 24.1115 19.8884C22.9174 18.7027 21.549 17.7448 20.0063 17.0145C18.4636 16.2843 16.8064 15.8634 15.0346 15.7519C14.7815 15.7253 14.5624 15.6347 14.3775 15.48C14.1925 15.3253 14.1 15.133 14.1 14.9031C14.1 14.6686 14.2038 14.4729 14.4115 14.3161C14.6192 14.1592 14.8551 14.0942 15.1192 14.1212C17.1218 14.2494 18.9844 14.7202 20.7073 15.5336C22.4301 16.3471 23.9506 17.4147 25.2688 18.7365C26.587 20.0583 27.6528 21.5788 28.4663 23.298C29.2797 25.0173 29.7505 26.8782 29.8787 28.8807C29.9057 29.1448 29.8415 29.3807 29.6862 29.5884C29.5309 29.7961 29.331 29.8999 29.0863 29.8999ZM23.308 29.8999C23.0821 29.8999 22.8884 29.8111 22.7269 29.6336C22.5654 29.456 22.4724 29.2519 22.4481 29.0211C22.3404 28.0339 22.0817 27.1099 21.6721 26.249C21.2625 25.3881 20.7218 24.6217 20.05 23.9499C19.3782 23.2781 18.6118 22.7374 17.7509 22.3278C16.89 21.9182 15.966 21.6595 14.9788 21.5518C14.7481 21.5275 14.5439 21.4349 14.3663 21.274C14.1888 21.1132 14.1 20.9173 14.1 20.6863C14.1 20.4547 14.1872 20.2648 14.3615 20.1165C14.5359 19.9683 14.7384 19.9013 14.9692 19.9154C16.1871 20.0166 17.3275 20.3163 18.3904 20.8144C19.4532 21.3125 20.3935 21.9705 21.2115 22.7884C22.0294 23.6064 22.6874 24.5467 23.1855 25.6096C23.6836 26.6724 23.9833 27.8128 24.0845 29.0307C24.0986 29.2615 24.0304 29.464 23.8797 29.6384C23.729 29.8127 23.5385 29.8999 23.308 29.8999Z" fill="#5C5551"/>
</g>
</svg>
