<svg width="32" height="32" viewBox="0 0 32 32" fill="none" xmlns="http://www.w3.org/2000/svg">
<mask id="mask0_899_6470" style="mask-type:alpha" maskUnits="userSpaceOnUse" x="0" y="0" width="32" height="32">
<circle cx="16" cy="16" r="16" fill="#ACF878"/>
</mask>
<g mask="url(#mask0_899_6470)">
<circle cx="16" cy="16" r="15.5" fill="#FF7D26" fill-opacity="0.08" stroke="#FF7D26"/>
</g>
<path d="M11 11C11 10.558 11.1756 10.134 11.4882 9.82147C11.8007 9.50891 12.2246 9.33331 12.6667 9.33331H19.3333C19.7754 9.33331 20.1993 9.50891 20.5118 9.82147C20.8244 10.134 21 10.558 21 11V22.25C21 22.3254 20.9795 22.3993 20.9407 22.4639C20.902 22.5286 20.8464 22.5815 20.78 22.6171C20.7136 22.6527 20.6387 22.6696 20.5634 22.666C20.4881 22.6624 20.4152 22.6384 20.3525 22.5966L16 20.2508L11.6475 22.5966C11.5848 22.6384 11.5119 22.6624 11.4366 22.666C11.3613 22.6696 11.2864 22.6527 11.22 22.6171C11.1536 22.5815 11.098 22.5286 11.0593 22.4639C11.0205 22.3993 11 22.3254 11 22.25V11ZM12.6667 10.1666C12.4457 10.1666 12.2337 10.2544 12.0774 10.4107C11.9211 10.567 11.8333 10.779 11.8333 11V21.4716L15.7692 19.4033C15.8376 19.3578 15.9179 19.3335 16 19.3335C16.0821 19.3335 16.1624 19.3578 16.2308 19.4033L20.1667 21.4716V11C20.1667 10.779 20.0789 10.567 19.9226 10.4107C19.7663 10.2544 19.5543 10.1666 19.3333 10.1666H12.6667Z" fill="#FF8642"/>
<path d="M16 12.6667C16.1105 12.6667 16.2165 12.7106 16.2946 12.7887C16.3728 12.8668 16.4167 12.9728 16.4167 13.0833V14.3333H17.6667C17.7772 14.3333 17.8831 14.3772 17.9613 14.4554C18.0394 14.5335 18.0833 14.6395 18.0833 14.75C18.0833 14.8605 18.0394 14.9665 17.9613 15.0446C17.8831 15.1228 17.7772 15.1667 17.6667 15.1667H16.4167V16.4167C16.4167 16.5272 16.3728 16.6331 16.2946 16.7113C16.2165 16.7894 16.1105 16.8333 16 16.8333C15.8895 16.8333 15.7835 16.7894 15.7054 16.7113C15.6272 16.6331 15.5833 16.5272 15.5833 16.4167V15.1667H14.3333C14.2228 15.1667 14.1168 15.1228 14.0387 15.0446C13.9606 14.9665 13.9167 14.8605 13.9167 14.75C13.9167 14.6395 13.9606 14.5335 14.0387 14.4554C14.1168 14.3772 14.2228 14.3333 14.3333 14.3333H15.5833V13.0833C15.5833 12.9728 15.6272 12.8668 15.7054 12.7887C15.7835 12.7106 15.8895 12.6667 16 12.6667Z" fill="#FF8642"/>
</svg>
