<svg width="16" height="16" viewBox="0 0 16 16" fill="none" xmlns="http://www.w3.org/2000/svg">
<g clip-path="url(#clip0_899_6643)">
<path d="M14 1C14.2652 1 14.5196 1.10536 14.7071 1.29289C14.8946 1.48043 15 1.73478 15 2V14C15 14.2652 14.8946 14.5196 14.7071 14.7071C14.5196 14.8946 14.2652 15 14 15H2C1.73478 15 1.48043 14.8946 1.29289 14.7071C1.10536 14.5196 1 14.2652 1 14V2C1 1.73478 1.10536 1.48043 1.29289 1.29289C1.48043 1.10536 1.73478 1 2 1H14ZM2 0C1.46957 0 0.960859 0.210714 0.585786 0.585786C0.210714 0.960859 0 1.46957 0 2L0 14C0 14.5304 0.210714 15.0391 0.585786 15.4142C0.960859 15.7893 1.46957 16 2 16H14C14.5304 16 15.0391 15.7893 15.4142 15.4142C15.7893 15.0391 16 14.5304 16 14V2C16 1.46957 15.7893 0.960859 15.4142 0.585786C15.0391 0.210714 14.5304 0 14 0L2 0Z" fill="#FF8642"/>
<path d="M10.7475 5.02635C10.8846 4.89038 11.0698 4.81386 11.2629 4.81333C11.4561 4.81279 11.6416 4.88829 11.7795 5.0235C11.9174 5.1587 11.9966 5.34276 11.9999 5.53586C12.0032 5.72896 11.9303 5.9156 11.7971 6.05543L7.8847 10.946C7.81746 11.0185 7.7363 11.0766 7.64608 11.1169C7.55587 11.1573 7.45844 11.179 7.35963 11.1808C7.26082 11.1827 7.16265 11.1646 7.07101 11.1276C6.97936 11.0906 6.8961 11.0355 6.82623 10.9656L4.23395 8.37235C4.16173 8.30505 4.10381 8.2239 4.06363 8.13373C4.02346 8.04357 4.00186 7.94623 4.00011 7.84753C3.99837 7.74884 4.01653 7.6508 4.0535 7.55927C4.09047 7.46774 4.14549 7.3846 4.21529 7.3148C4.28509 7.245 4.36823 7.18997 4.45976 7.153C4.55129 7.11603 4.64932 7.09788 4.74802 7.09962C4.84671 7.10136 4.94405 7.12296 5.03421 7.16314C5.12438 7.20332 5.20553 7.26124 5.27282 7.33346L7.32508 9.38477L10.7289 5.04791C10.7349 5.04031 10.7405 5.03311 10.7475 5.02635Z" fill="#FF8642"/>
</g>
<defs>
<clipPath id="clip0_899_6643">
<rect width="16" height="16" fill="white"/>
</clipPath>
</defs>
</svg>
