<svg width="20" height="20" viewBox="0 0 20 20" fill="none" xmlns="http://www.w3.org/2000/svg">
<path fill-rule="evenodd" clip-rule="evenodd" d="M10 7.5C10.1326 7.5 10.2598 7.55268 10.3536 7.64645C10.4473 7.74021 10.5 7.86739 10.5 8V9.5H12C12.1326 9.5 12.2598 9.55268 12.3536 9.64645C12.4473 9.74021 12.5 9.86739 12.5 10C12.5 10.1326 12.4473 10.2598 12.3536 10.3536C12.2598 10.4473 12.1326 10.5 12 10.5H10.5V12C10.5 12.1326 10.4473 12.2598 10.3536 12.3536C10.2598 12.4473 10.1326 12.5 10 12.5C9.86739 12.5 9.74021 12.4473 9.64645 12.3536C9.55268 12.2598 9.5 12.1326 9.5 12V10.5H8C7.86739 10.5 7.74021 10.4473 7.64645 10.3536C7.55268 10.2598 7.5 10.1326 7.5 10C7.5 9.86739 7.55268 9.74021 7.64645 9.64645C7.74021 9.55268 7.86739 9.5 8 9.5H9.5V8C9.5 7.86739 9.55268 7.74021 9.64645 7.64645C9.74021 7.55268 9.86739 7.5 10 7.5Z" fill="white"/>
<path d="M5 2H15C15.5304 2 16.0391 2.21071 16.4142 2.58579C16.7893 2.96086 17 3.46957 17 4V16C17 16.5304 16.7893 17.0391 16.4142 17.4142C16.0391 17.7893 15.5304 18 15 18H5C4.46957 18 3.96086 17.7893 3.58579 17.4142C3.21071 17.0391 3 16.5304 3 16V15H4V16C4 16.2652 4.10536 16.5196 4.29289 16.7071C4.48043 16.8946 4.73478 17 5 17H15C15.2652 17 15.5196 16.8946 15.7071 16.7071C15.8946 16.5196 16 16.2652 16 16V4C16 3.73478 15.8946 3.48043 15.7071 3.29289C15.5196 3.10536 15.2652 3 15 3H5C4.73478 3 4.48043 3.10536 4.29289 3.29289C4.10536 3.48043 4 3.73478 4 4V5H3V4C3 3.46957 3.21071 2.96086 3.58579 2.58579C3.96086 2.21071 4.46957 2 5 2Z" fill="white"/>
<path d="M3 7V6.5C3 6.36739 3.05268 6.24021 3.14645 6.14645C3.24021 6.05268 3.36739 6 3.5 6C3.63261 6 3.75979 6.05268 3.85355 6.14645C3.94732 6.24021 4 6.36739 4 6.5V7H4.5C4.63261 7 4.75979 7.05268 4.85355 7.14645C4.94732 7.24021 5 7.36739 5 7.5C5 7.63261 4.94732 7.75979 4.85355 7.85355C4.75979 7.94732 4.63261 8 4.5 8H2.5C2.36739 8 2.24021 7.94732 2.14645 7.85355C2.05268 7.75979 2 7.63261 2 7.5C2 7.36739 2.05268 7.24021 2.14645 7.14645C2.24021 7.05268 2.36739 7 2.5 7H3ZM3 10V9.5C3 9.36739 3.05268 9.24021 3.14645 9.14645C3.24021 9.05268 3.36739 9 3.5 9C3.63261 9 3.75979 9.05268 3.85355 9.14645C3.94732 9.24021 4 9.36739 4 9.5V10H4.5C4.63261 10 4.75979 10.0527 4.85355 10.1464C4.94732 10.2402 5 10.3674 5 10.5C5 10.6326 4.94732 10.7598 4.85355 10.8536C4.75979 10.9473 4.63261 11 4.5 11H2.5C2.36739 11 2.24021 10.9473 2.14645 10.8536C2.05268 10.7598 2 10.6326 2 10.5C2 10.3674 2.05268 10.2402 2.14645 10.1464C2.24021 10.0527 2.36739 10 2.5 10H3ZM3 13V12.5C3 12.3674 3.05268 12.2402 3.14645 12.1464C3.24021 12.0527 3.36739 12 3.5 12C3.63261 12 3.75979 12.0527 3.85355 12.1464C3.94732 12.2402 4 12.3674 4 12.5V13H4.5C4.63261 13 4.75979 13.0527 4.85355 13.1464C4.94732 13.2402 5 13.3674 5 13.5C5 13.6326 4.94732 13.7598 4.85355 13.8536C4.75979 13.9473 4.63261 14 4.5 14H2.5C2.36739 14 2.24021 13.9473 2.14645 13.8536C2.05268 13.7598 2 13.6326 2 13.5C2 13.3674 2.05268 13.2402 2.14645 13.1464C2.24021 13.0527 2.36739 13 2.5 13H3Z" fill="white"/>
</svg>
