<svg width="20" height="20" viewBox="0 0 20 20" fill="none" xmlns="http://www.w3.org/2000/svg">
<g clip-path="url(#clip0_442_12007)">
<path d="M13.742 12.3441C14.7103 11.0228 15.144 9.38459 14.9563 7.75725C14.7686 6.12991 13.9734 4.63344 12.7298 3.56723C11.4861 2.50102 9.88575 1.9437 8.24883 2.00678C6.61192 2.06985 5.05918 2.74866 3.90127 3.90741C2.74335 5.06615 2.06565 6.61938 2.00375 8.25633C1.94184 9.89329 2.50031 11.4933 3.56741 12.7361C4.6345 13.979 6.13154 14.7732 7.75902 14.9597C9.38649 15.1462 11.0244 14.7113 12.345 13.7421H12.344C12.374 13.7821 12.406 13.8201 12.442 13.8571L16.292 17.7071C16.4795 17.8947 16.7339 18.0002 16.9991 18.0003C17.2644 18.0004 17.5189 17.8951 17.7065 17.7076C17.8941 17.5201 17.9996 17.2657 17.9997 17.0005C17.9998 16.7352 17.8945 16.4807 17.707 16.2931L13.857 12.4431C13.8212 12.4069 13.7828 12.3745 13.742 12.3441ZM14 8.5001C14 9.22237 13.8577 9.93757 13.5813 10.6049C13.3049 11.2722 12.8998 11.8785 12.3891 12.3892C11.8784 12.8999 11.272 13.305 10.6048 13.5814C9.93747 13.8578 9.22227 14.0001 8.5 14.0001C7.77773 14.0001 7.06253 13.8578 6.39524 13.5814C5.72795 13.305 5.12163 12.8999 4.61091 12.3892C4.10019 11.8785 3.69506 11.2722 3.41866 10.6049C3.14226 9.93757 3 9.22237 3 8.5001C3 7.04141 3.57946 5.64246 4.61091 4.61101C5.64236 3.57956 7.04131 3.0001 8.5 3.0001C9.95869 3.0001 11.3576 3.57956 12.3891 4.61101C13.4205 5.64246 14 7.04141 14 8.5001Z" fill="white"/>
</g>
<defs>
<clipPath id="clip0_442_12007">
<rect width="16" height="16" fill="white" transform="translate(2 2)"/>
</clipPath>
</defs>
</svg>
