<svg width="20" height="20" viewBox="0 0 20 20" fill="none" xmlns="http://www.w3.org/2000/svg">
<path d="M16.161 4.13827C16.2603 4.03698 16.3788 3.95652 16.5095 3.90158C16.6403 3.84665 16.7807 3.81836 16.9225 3.81836C17.0643 3.81836 17.2047 3.84665 17.3354 3.90158C17.4662 3.95652 17.5847 4.03698 17.6839 4.13827C18.1 4.55864 18.1058 5.23792 17.6985 5.66556L9.09759 15.833C8.99994 15.9402 8.88143 16.0264 8.74933 16.0862C8.61723 16.1461 8.4743 16.1784 8.32929 16.1811C8.18428 16.1838 8.04024 16.1569 7.90599 16.1021C7.77173 16.0472 7.65007 15.9655 7.54847 15.8621L2.3149 10.5587C2.11306 10.3529 2 10.0761 2 9.78779C2 9.49951 2.11306 9.22272 2.3149 9.01688C2.41417 8.91559 2.53265 8.83512 2.6634 8.78019C2.79416 8.72526 2.93455 8.69697 3.07637 8.69697C3.2182 8.69697 3.35859 8.72526 3.48934 8.78019C3.6201 8.83512 3.73858 8.91559 3.83784 9.01688L8.27721 13.5158L16.1319 4.17027C16.141 4.15903 16.1507 4.14834 16.161 4.13827Z" fill="white"/>
</svg>
