<svg width="16" height="16" viewBox="0 0 16 16" fill="none" xmlns="http://www.w3.org/2000/svg">
<path d="M15.197 1.93053L15.7648 1.37074C15.9154 1.22016 16 1.01592 16 0.802963C16 0.590004 15.9154 0.385767 15.7648 0.235182C15.6142 0.0845976 15.41 0 15.197 0C14.9841 0 14.7798 0.0845976 14.6292 0.235182L13.5097 1.36275L11.2465 3.62587L6.20045 8.66392C5.3736 8.1184 4.37368 7.89923 3.39446 8.04887C2.41523 8.19851 1.52641 8.70632 0.900218 9.47389C0.27403 10.2415 -0.0449407 11.2141 0.00511094 12.2035C0.0551626 13.1928 0.470673 14.1283 1.17113 14.8288C1.87159 15.5292 2.80712 15.9447 3.79645 15.9948C4.78578 16.0448 5.75847 15.7259 6.52605 15.0997C7.29362 14.4735 7.80143 13.5847 7.95108 12.6055C8.10072 11.6262 7.88155 10.6263 7.33602 9.79948L11.8063 5.32121L13.5017 7.02455C13.5762 7.09859 13.6647 7.15722 13.7619 7.19709C13.8591 7.23695 13.9632 7.25728 14.0683 7.25691C14.1734 7.25654 14.2773 7.23547 14.3743 7.19492C14.4712 7.15437 14.5592 7.09512 14.6332 7.02056C14.7073 6.94599 14.7659 6.85758 14.8058 6.76036C14.8456 6.66314 14.866 6.55902 14.8656 6.45395C14.8652 6.34887 14.8442 6.2449 14.8036 6.14796C14.7631 6.05103 14.7038 5.96303 14.6292 5.88899L12.9339 4.19365L14.0695 3.06609L14.6292 3.62587C14.7033 3.70043 14.7913 3.75968 14.8882 3.80024C14.9852 3.84079 15.0891 3.86185 15.1942 3.86222C15.2993 3.8626 15.4034 3.84227 15.5006 3.8024C15.5978 3.76253 15.6863 3.70391 15.7608 3.62987C15.8354 3.55583 15.8946 3.46783 15.9352 3.3709C15.9757 3.27396 15.9968 3.16999 15.9972 3.06492C15.9975 2.95984 15.9772 2.85572 15.9373 2.7585C15.8975 2.66128 15.8389 2.57287 15.7648 2.49831L15.197 1.93053ZM4.00129 14.3977C3.52679 14.3977 3.06296 14.257 2.66843 13.9934C2.2739 13.7298 1.9664 13.3551 1.78482 12.9167C1.60324 12.4783 1.55573 11.996 1.6483 11.5306C1.74087 11.0652 1.96936 10.6377 2.30488 10.3022C2.6404 9.96671 3.06787 9.73822 3.53325 9.64566C3.99863 9.55309 4.481 9.6006 4.91938 9.78218C5.35776 9.96376 5.73244 10.2713 5.99606 10.6658C6.25967 11.0603 6.40038 11.5241 6.40038 11.9986C6.40038 12.6349 6.14762 13.2451 5.6977 13.695C5.24778 14.1449 4.63757 14.3977 4.00129 14.3977Z" fill="#A4A4A4"/>
</svg>
