<svg width="16" height="16" viewBox="0 0 16 16" fill="none" xmlns="http://www.w3.org/2000/svg">
<path d="M3.41283 2.26038C3.34485 2.18375 3.26234 2.12138 3.17008 2.07687C3.07782 2.03237 2.97765 2.00662 2.87536 2.00112C2.77308 1.99562 2.67072 2.01047 2.57421 2.04482C2.47771 2.07917 2.38898 2.13233 2.31318 2.20122C2.23737 2.27011 2.17599 2.35336 2.1326 2.44615C2.08921 2.53893 2.06466 2.63941 2.06038 2.74176C2.05611 2.8441 2.07219 2.94627 2.10769 3.04236C2.14319 3.13844 2.19741 3.22652 2.26721 3.3015L3.2993 4.44002C1.07708 5.91979 0.112715 8.04331 0.0662709 8.1433C0.0225702 8.24238 0 8.34948 0 8.45776C0 8.56605 0.0225702 8.67315 0.0662709 8.77223C0.090138 8.82512 0.655209 10.0791 1.90404 11.3273C3.57345 12.9948 5.67827 13.8759 8.00048 13.8759C9.1291 13.8822 10.2476 13.6629 11.2903 13.2309L12.5862 14.6564C12.725 14.8055 12.9169 14.8939 13.1205 14.9024C13.324 14.9109 13.5226 14.8389 13.6734 14.7019C13.8241 14.5649 13.9148 14.374 13.9257 14.1706C13.9367 13.9672 13.867 13.7677 13.7318 13.6153L3.41283 2.26038ZM8.00048 12.3278C6.09176 12.3278 4.42235 11.6356 3.03934 10.2713C2.49534 9.73269 2.02724 9.12245 1.64795 8.45744C1.9879 7.85689 2.86002 6.52872 4.3572 5.60048L10.1685 11.9936C9.46769 12.2174 8.73617 12.3302 8.00048 12.3278ZM15.9347 8.77223C15.9115 8.82448 15.3541 10.0623 14.1285 11.2983C14.0583 11.3762 13.9731 11.439 13.8779 11.483C13.7827 11.5269 13.6795 11.5511 13.5747 11.5539C13.4699 11.5568 13.3656 11.5384 13.2681 11.4997C13.1707 11.4611 13.0821 11.4031 13.0077 11.3291C12.9333 11.2552 12.8748 11.1669 12.8355 11.0697C12.7963 10.9725 12.7773 10.8683 12.7795 10.7634C12.7818 10.6586 12.8053 10.5553 12.8487 10.4599C12.8921 10.3644 12.9544 10.2788 13.0319 10.2081C13.5468 9.68468 13.9909 9.09612 14.353 8.45744C13.9739 7.79229 13.5058 7.18202 12.9616 6.64354C11.578 5.27924 9.90921 4.5871 8.00048 4.5871C7.78439 4.5871 7.56829 4.59613 7.35542 4.61419C7.25284 4.62518 7.1491 4.61555 7.05029 4.58587C6.95149 4.5562 6.85961 4.50707 6.78006 4.44137C6.70051 4.37568 6.6349 4.29474 6.58708 4.20333C6.53926 4.11191 6.51019 4.01186 6.50159 3.90905C6.49299 3.80624 6.50503 3.70275 6.537 3.60466C6.56897 3.50657 6.62023 3.41586 6.68775 3.33786C6.75528 3.25986 6.83772 3.19615 6.93023 3.15047C7.02273 3.10479 7.12343 3.07806 7.22641 3.07186C7.47992 3.04993 7.74246 3.03896 8.00048 3.03896C10.3227 3.03896 12.4275 3.92075 14.0956 5.58823C15.3438 6.83641 15.9089 8.09105 15.9328 8.1433C15.9768 8.24224 15.9997 8.34927 16 8.45756C16.0003 8.56585 15.9781 8.67302 15.9347 8.77223Z" fill="#A4A4A4"/>
</svg>
