<svg width="16" height="16" viewBox="0 0 16 16" fill="none" xmlns="http://www.w3.org/2000/svg">
<path d="M8.00003 3.33334C11.36 3.33334 14.3027 5.42668 15.3 8.45868C15.3447 8.5942 15.3447 8.74049 15.3 8.87601C14.3014 11.9067 11.36 14 8.00003 14C4.64003 14 1.69869 11.9067 0.700027 8.87601C0.655655 8.74089 0.655655 8.59513 0.700027 8.46001C1.69736 5.42668 4.64003 3.33334 8.00003 3.33334ZM8.00003 4.66668C5.21203 4.66668 2.78269 6.39601 1.96669 8.87601L2.04003 8.66934L2.17069 8.98934C3.06403 11.0093 5.06536 12.4293 7.39736 12.64L7.70403 12.66L8.00003 12.6667C10.7867 12.6667 13.2174 10.9387 14.0334 8.45868L13.9587 8.66668L13.94 8.61334C13.0774 6.36001 10.86 4.78668 8.29736 4.67334L8.00003 4.66668ZM8.00003 6.00001C8.35023 5.99998 8.69702 6.06894 9.02058 6.20294C9.34414 6.33694 9.63813 6.53336 9.88578 6.78099C10.1334 7.02861 10.3299 7.32259 10.4639 7.64614C10.5979 7.96969 10.6669 8.31647 10.6669 8.66668C10.6669 9.01689 10.5979 9.36367 10.4639 9.68721C10.3299 10.0108 10.1334 10.3047 9.88578 10.5524C9.63813 10.8 9.34414 10.9964 9.02058 11.1304C8.69702 11.2644 8.35023 11.3334 8.00003 11.3333C7.29282 11.3333 6.61459 11.0523 6.11454 10.5522C5.61449 10.0521 5.33356 9.37389 5.33356 8.66668C5.33356 7.95947 5.61449 7.28122 6.11454 6.78113C6.61459 6.28104 7.29282 6.00006 8.00003 6.00001ZM8.00003 7.33334C7.6464 7.33334 7.30727 7.47382 7.05722 7.72387C6.80717 7.97392 6.66669 8.31306 6.66669 8.66668C6.66669 9.0203 6.80717 9.35944 7.05722 9.60949C7.30727 9.85954 7.6464 10 8.00003 10C8.35365 10 8.69279 9.85954 8.94283 9.60949C9.19288 9.35944 9.33336 9.0203 9.33336 8.66668C9.33336 8.31306 9.19288 7.97392 8.94283 7.72387C8.69279 7.47382 8.35365 7.33334 8.00003 7.33334Z" fill="#A4A4A4"/>
</svg>
