<svg width="20" height="20" viewBox="0 0 20 20" fill="none" xmlns="http://www.w3.org/2000/svg">
<path fill-rule="evenodd" clip-rule="evenodd" d="M4 14.5C4 14.3674 4.05268 14.2402 4.14645 14.1464C4.24021 14.0527 4.36739 14 4.5 14H11.5C11.6326 14 11.7598 14.0527 11.8536 14.1464C11.9473 14.2402 12 14.3674 12 14.5C12 14.6326 11.9473 14.7598 11.8536 14.8536C11.7598 14.9473 11.6326 15 11.5 15H4.5C4.36739 15 4.24021 14.9473 4.14645 14.8536C4.05268 14.7598 4 14.6326 4 14.5ZM4 11.5C4 11.3674 4.05268 11.2402 4.14645 11.1464C4.24021 11.0527 4.36739 11 4.5 11H15.5C15.6326 11 15.7598 11.0527 15.8536 11.1464C15.9473 11.2402 16 11.3674 16 11.5C16 11.6326 15.9473 11.7598 15.8536 11.8536C15.7598 11.9473 15.6326 12 15.5 12H4.5C4.36739 12 4.24021 11.9473 4.14645 11.8536C4.05268 11.7598 4 11.6326 4 11.5ZM4 8.5C4 8.36739 4.05268 8.24021 4.14645 8.14645C4.24021 8.05268 4.36739 8 4.5 8H15.5C15.6326 8 15.7598 8.05268 15.8536 8.14645C15.9473 8.24021 16 8.36739 16 8.5C16 8.63261 15.9473 8.75979 15.8536 8.85355C15.7598 8.94732 15.6326 9 15.5 9H4.5C4.36739 9 4.24021 8.94732 4.14645 8.85355C4.05268 8.75979 4 8.63261 4 8.5ZM4 5.5C4 5.36739 4.05268 5.24021 4.14645 5.14645C4.24021 5.05268 4.36739 5 4.5 5H15.5C15.6326 5 15.7598 5.05268 15.8536 5.14645C15.9473 5.24021 16 5.36739 16 5.5C16 5.63261 15.9473 5.75979 15.8536 5.85355C15.7598 5.94732 15.6326 6 15.5 6H4.5C4.36739 6 4.24021 5.94732 4.14645 5.85355C4.05268 5.75979 4 5.63261 4 5.5Z" fill="white"/>
</svg>
