<svg width="160" height="160" viewBox="0 0 160 160" fill="none" xmlns="http://www.w3.org/2000/svg">
<path d="M78.0567 74.4804H107.023C107.945 74.4804 108.837 74.8613 109.479 75.5228L116.685 82.9999C117.527 83.8719 119 83.2806 119 82.0678V70.7218V42.2666C119 38.2575 115.753 35 111.734 35H76.914C73.6466 35 71.0005 37.6461 71.0005 40.9135V67.4243C71.0005 71.3232 74.1577 74.4804 78.0567 74.4804Z" fill="#202020"/>
<path d="M103.703 55.6168C103.703 56.9899 104.815 58.0925 106.178 58.0925C107.552 58.0925 108.654 56.9799 108.654 55.6168C108.654 54.2436 107.542 53.1411 106.178 53.1411C104.815 53.1411 103.703 54.2537 103.703 55.6168Z" fill="#0D0D0D"/>
<path d="M92.09 55.6173C92.09 56.9904 93.2026 58.0929 94.5657 58.0929C95.9389 58.0929 97.0414 56.9804 97.0414 55.6173C97.0414 54.2441 95.9288 53.1416 94.5657 53.1416C93.2026 53.1416 92.09 54.2542 92.09 55.6173Z" fill="#0D0D0D"/>
<path d="M82.6687 58.0929C81.3014 58.0929 80.193 56.9845 80.193 55.6173C80.193 54.25 81.3014 53.1416 82.6687 53.1416C84.0359 53.1416 85.1443 54.25 85.1443 55.6173C85.1443 56.9845 84.0359 58.0929 82.6687 58.0929Z" fill="#0D0D0D"/>
<g filter="url(#filter0_b_797_4125)">
<path d="M91.1798 114.299H54.9718C53.8192 114.299 52.7041 114.775 51.9023 115.602L42.8941 124.949C41.8417 126.039 40 125.299 40 123.783V109.601V74.0316C40 69.0201 44.0593 64.9482 49.0833 64.9482H92.6081C96.6924 64.9482 100 68.2558 100 72.3402V105.479C100 110.352 96.0535 114.299 91.1798 114.299Z" fill="url(#paint0_radial_797_4125)" fill-opacity="0.2"/>
<path d="M51.8212 115.523L51.8209 115.524L42.8129 124.87C41.8306 125.887 40.113 125.197 40.113 123.783V109.601V74.0316C40.113 69.0824 44.1218 65.0612 49.0833 65.0612H92.6081C96.63 65.0612 99.887 68.3182 99.887 72.3402V105.479C99.887 110.29 95.9911 114.186 91.1798 114.186H54.9718C53.7883 114.186 52.6441 114.675 51.8212 115.523Z" stroke="url(#paint1_radial_797_4125)" stroke-width="0.225931"/>
</g>
<path d="M59.1219 90.7196C59.1219 92.436 57.7312 93.8142 56.0273 93.8142C54.3108 93.8142 52.9327 92.4235 52.9327 90.7196C52.9327 89.0032 54.3234 87.625 56.0273 87.625C57.7312 87.625 59.1219 89.0157 59.1219 90.7196Z" fill="#FEF153"/>
<path d="M73.6382 90.7196C73.6382 92.436 72.2475 93.8142 70.5436 93.8142C68.8271 93.8142 67.449 92.4235 67.449 90.7196C67.449 89.0032 68.8397 87.625 70.5436 87.625C72.2475 87.625 73.6382 89.0157 73.6382 90.7196Z" fill="#FEF153"/>
<path d="M85.4148 93.8142C87.1239 93.8142 88.5094 92.4287 88.5094 90.7196C88.5094 89.0105 87.1239 87.625 85.4148 87.625C83.7057 87.625 82.3202 89.0105 82.3202 90.7196C82.3202 92.4287 83.7057 93.8142 85.4148 93.8142Z" fill="#FEF153"/>
<defs>
<filter id="filter0_b_797_4125" x="34.5071" y="59.4553" width="70.9859" height="71.5054" filterUnits="userSpaceOnUse" color-interpolation-filters="sRGB">
<feFlood flood-opacity="0" result="BackgroundImageFix"/>
<feGaussianBlur in="BackgroundImageFix" stdDeviation="2.74647"/>
<feComposite in2="SourceAlpha" operator="in" result="effect1_backgroundBlur_797_4125"/>
<feBlend mode="normal" in="SourceGraphic" in2="effect1_backgroundBlur_797_4125" result="shape"/>
</filter>
<radialGradient id="paint0_radial_797_4125" cx="0" cy="0" r="1" gradientUnits="userSpaceOnUse" gradientTransform="translate(46.6511 66.9044) rotate(45.3648) scale(77.5739 35.4091)">
<stop stop-color="white" stop-opacity="0.6"/>
<stop offset="1" stop-color="white" stop-opacity="0"/>
</radialGradient>
<radialGradient id="paint1_radial_797_4125" cx="0" cy="0" r="1" gradientUnits="userSpaceOnUse" gradientTransform="translate(100.272 82.88) rotate(-161.788) scale(57.3767 65.3694)">
<stop stop-color="white" stop-opacity="0.5"/>
<stop offset="0.539418" stop-color="white" stop-opacity="0.1"/>
<stop offset="1" stop-color="white" stop-opacity="0.5"/>
</radialGradient>
</defs>
</svg>
