<svg width="20" height="20" viewBox="0 0 20 20" fill="none" xmlns="http://www.w3.org/2000/svg">
<g clip-path="url(#clip0_509_3182)">
<path d="M19.9552 0.857258C20.0007 0.743678 20.0118 0.619252 19.9872 0.499407C19.9626 0.379562 19.9034 0.269567 19.8169 0.183059C19.7304 0.0965504 19.6204 0.0373335 19.5005 0.0127492C19.3807 -0.0118351 19.2563 -0.000705742 19.1427 0.0447576L0.95894 7.31851H0.95769L0.39269 7.54351C0.285677 7.58619 0.192546 7.65763 0.123584 7.74992C0.0546218 7.84221 0.012512 7.95177 0.00190634 8.06649C-0.00869933 8.18122 0.0126118 8.29664 0.0634858 8.40001C0.11436 8.50338 0.192816 8.59068 0.29019 8.65226L0.80269 8.97726L0.80394 8.97976L7.04769 12.9523L11.0202 19.196L11.0227 19.1985L11.3477 19.711C11.4095 19.808 11.4968 19.8861 11.6001 19.9366C11.7034 19.9872 11.8186 20.0083 11.9331 19.9975C12.0476 19.9868 12.157 19.9447 12.2491 19.8758C12.3412 19.807 12.4125 19.714 12.4552 19.6073L19.9552 0.857258ZM17.6639 3.21976L8.29644 12.5873L8.02769 12.1648C7.97845 12.0872 7.91272 12.0215 7.83519 11.9723L7.41269 11.7035L16.7802 2.33601L18.2527 1.74726L17.6652 3.21976H17.6639Z" fill="#565656"/>
</g>
<defs>
<clipPath id="clip0_509_3182">
<rect width="20" height="20" fill="white"/>
</clipPath>
</defs>
</svg>
