<svg width="24" height="24" viewBox="0 0 24 24" fill="none" xmlns="http://www.w3.org/2000/svg">
<mask id="mask0_131_7751" style="mask-type:alpha" maskUnits="userSpaceOnUse" x="0" y="0" width="24" height="24">
<rect width="24" height="24" fill="#D9D9D9"/>
</mask>
<g mask="url(#mask0_131_7751)">
<path d="M6.03847 17.5L4.2645 19.2739C4.01127 19.5272 3.72055 19.5845 3.39235 19.446C3.06413 19.3074 2.90002 19.0601 2.90002 18.7038V4.50773C2.90002 4.05759 3.05544 3.67711 3.36627 3.36628C3.67711 3.05544 4.05759 2.90002 4.50772 2.90002H19.4923C19.9424 2.90002 20.3229 3.05544 20.6337 3.36628C20.9446 3.67711 21.1 4.05759 21.1 4.50773V15.8923C21.1 16.3424 20.9446 16.7229 20.6337 17.0337C20.3229 17.3446 19.9424 17.5 19.4923 17.5H6.03847ZM11.35 10.85V13.5C11.35 13.6842 11.4118 13.8385 11.5355 13.9631C11.6591 14.0877 11.8123 14.15 11.9951 14.15C12.1778 14.15 12.3327 14.0877 12.4596 13.9631C12.5865 13.8385 12.65 13.6842 12.65 13.5V10.85H15.3C15.4842 10.85 15.6385 10.7882 15.7631 10.6645C15.8877 10.5409 15.95 10.3877 15.95 10.2049C15.95 10.0222 15.8877 9.86732 15.7631 9.7404C15.6385 9.61348 15.4842 9.55002 15.3 9.55002H12.65V6.9C12.65 6.71583 12.5882 6.56147 12.4645 6.4369C12.3409 6.31232 12.1877 6.25002 12.0049 6.25002C11.8222 6.25002 11.6673 6.31232 11.5404 6.4369C11.4135 6.56147 11.35 6.71583 11.35 6.9V9.55002H8.7C8.51583 9.55002 8.36147 9.61184 8.2369 9.73548C8.11232 9.85911 8.05002 10.0123 8.05002 10.1951C8.05002 10.3778 8.11232 10.5327 8.2369 10.6596C8.36147 10.7865 8.51583 10.85 8.7 10.85H11.35Z" fill="#FFEB3B"/>
<path d="M11.3504 10.8498V13.4999C11.3504 13.684 11.4122 13.8384 11.5359 13.963C11.6595 14.0875 11.8127 14.1498 11.9955 14.1498C12.1782 14.1498 12.3331 14.0875 12.46 13.963C12.5869 13.8384 12.6504 13.684 12.6504 13.4999V10.8498H15.3004C15.4846 10.8498 15.6389 10.788 15.7635 10.6644C15.8881 10.5407 15.9504 10.3875 15.9504 10.2048C15.9504 10.022 15.8881 9.86717 15.7635 9.74025C15.6389 9.61334 15.4846 9.54988 15.3004 9.54988H12.6504V6.89985C12.6504 6.71569 12.5885 6.56132 12.4649 6.43675C12.3413 6.31217 12.1881 6.24988 12.0053 6.24988C11.8225 6.24988 11.6677 6.31217 11.5408 6.43675C11.4139 6.56132 11.3504 6.71569 11.3504 6.89985V9.54988H8.70039C8.51622 9.54988 8.36186 9.6117 8.23729 9.73533C8.11271 9.85896 8.05042 10.0122 8.05042 10.1949C8.05042 10.3777 8.11271 10.5325 8.23729 10.6595C8.36186 10.7864 8.51622 10.8498 8.70039 10.8498H11.3504Z" fill="#1F1814"/>
</g>
</svg>
