<svg width="20" height="20" viewBox="0 0 20 20" fill="none" xmlns="http://www.w3.org/2000/svg">
<g clip-path="url(#clip0_131_8650)">
<path fill-rule="evenodd" clip-rule="evenodd" d="M0.916504 18.3332V9.99996C0.916504 4.98337 4.98327 0.916626 9.99985 0.916626C15.0164 0.916626 19.0832 4.98337 19.0832 9.99996C19.0832 15.0165 15.0164 19.0833 9.99985 19.0833H1.66757L1.6665 18.3333V19.0833C1.25229 19.0833 0.916504 18.7474 0.916504 18.3332ZM5.8335 6.75C5.41928 6.75 5.0835 7.08579 5.0835 7.5C5.0835 7.91421 5.41928 8.25 5.8335 8.25H13.3335C13.7477 8.25 14.0835 7.91421 14.0835 7.5C14.0835 7.08579 13.7477 6.75 13.3335 6.75H5.8335ZM5.0835 10.8334C5.0835 10.4192 5.41928 10.0834 5.8335 10.0834H13.3335C13.7477 10.0834 14.0835 10.4192 14.0835 10.8334C14.0835 11.2476 13.7477 11.5834 13.3335 11.5834H5.8335C5.41928 11.5834 5.0835 11.2476 5.0835 10.8334ZM5.8335 13.4166C5.41928 13.4166 5.0835 13.7524 5.0835 14.1666C5.0835 14.5808 5.41928 14.9166 5.8335 14.9166H10.0002C10.4144 14.9166 10.7502 14.5808 10.7502 14.1666C10.7502 13.7524 10.4144 13.4166 10.0002 13.4166H5.8335Z" fill="#8F8F8F"/>
</g>
<defs>
<clipPath id="clip0_131_8650">
<rect width="20" height="20" fill="white"/>
</clipPath>
</defs>
</svg>
