<svg width="20" height="20" viewBox="0 0 20 20" fill="none" xmlns="http://www.w3.org/2000/svg">
<path fill-rule="evenodd" clip-rule="evenodd" d="M6 1C5.44772 1 5 1.44772 5 2C5 2.55228 5.44772 3 6 3H14C14.5523 3 15 2.55228 15 2C15 1.44772 14.5523 1 14 1H6ZM0.93371 5.92875C0.971089 5.40545 1.40653 5 1.93117 5H18.0689C18.5936 5 19.029 5.40545 19.0664 5.92875L19.9235 17.9288C19.9649 18.5076 19.5064 19 18.9261 19H1.07403C0.493684 19 0.0352197 18.5076 0.0765674 17.9288L0.93371 5.92875ZM5.00004 8C5.00004 7.44772 5.44775 7 6.00004 7H14C14.5523 7 15 7.44772 15 8C15 8.55228 14.5523 9 14 9H6.00004C5.44775 9 5.00004 8.55228 5.00004 8Z" fill="#1F1814"/>
</svg>
