<svg width="20" height="20" viewBox="0 0 20 20" fill="none" xmlns="http://www.w3.org/2000/svg">
<path d="M19.2857 2.16431H14.1786C13.0826 2.16431 12.0112 2.47904 11.0893 3.07279L10 3.77145L8.91072 3.07279C7.99107 2.47904 6.91741 2.16431 5.82143 2.16431H0.714286C0.319196 2.16431 0 2.4835 0 2.87859V15.5572C0 15.9523 0.319196 16.2715 0.714286 16.2715H5.82143C6.91741 16.2715 7.98884 16.5862 8.91072 17.1799L9.90179 17.8183C9.9308 17.8362 9.96429 17.8473 9.99777 17.8473C10.0312 17.8473 10.0647 17.8384 10.0938 17.8183L11.0848 17.1799C12.0089 16.5862 13.0826 16.2715 14.1786 16.2715H19.2857C19.6808 16.2715 20 15.9523 20 15.5572V2.87859C20 2.4835 19.6808 2.16431 19.2857 2.16431ZM7.58929 10.9255C7.58929 11.017 7.51786 11.0929 7.4308 11.0929H3.28348C3.19643 11.0929 3.125 11.017 3.125 10.9255V9.921C3.125 9.82949 3.19643 9.75359 3.28348 9.75359H7.42857C7.51562 9.75359 7.58705 9.82949 7.58705 9.921V10.9255H7.58929ZM7.58929 7.80047C7.58929 7.89199 7.51786 7.96788 7.4308 7.96788H3.28348C3.19643 7.96788 3.125 7.89199 3.125 7.80047V6.796C3.125 6.70449 3.19643 6.62859 3.28348 6.62859H7.42857C7.51562 6.62859 7.58705 6.70449 7.58705 6.796V7.80047H7.58929ZM16.875 10.9255C16.875 11.017 16.8036 11.0929 16.7165 11.0929H12.5692C12.4821 11.0929 12.4107 11.017 12.4107 10.9255V9.921C12.4107 9.82949 12.4821 9.75359 12.5692 9.75359H16.7143C16.8013 9.75359 16.8728 9.82949 16.8728 9.921V10.9255H16.875ZM16.875 7.80047C16.875 7.89199 16.8036 7.96788 16.7165 7.96788H12.5692C12.4821 7.96788 12.4107 7.89199 12.4107 7.80047V6.796C12.4107 6.70449 12.4821 6.62859 12.5692 6.62859H16.7143C16.8013 6.62859 16.8728 6.70449 16.8728 6.796V7.80047H16.875Z" fill="#1F1814"/>
</svg>
