<svg width="18" height="18" viewBox="0 0 18 18" fill="none" xmlns="http://www.w3.org/2000/svg">
<path d="M1.83526 8.22884C1.82415 7.38871 1.97845 6.55462 2.28937 5.77419C2.60029 4.99375 3.06172 4.28226 3.64733 3.68033C4.23294 3.07841 4.93126 2.59783 5.70241 2.26605C6.47357 1.93427 7.30245 1.75778 8.14175 1.74666C8.98104 1.73553 9.8143 1.88999 10.594 2.20122C11.3736 2.51244 12.0844 2.97434 12.6857 3.56053C13.2871 4.14673 13.7672 4.84574 14.0986 5.61766C14.4301 6.38958 14.6064 7.21929 14.6175 8.05942C14.6399 9.75614 13.9881 11.3923 12.8054 12.6079C11.6227 13.8236 10.006 14.5191 8.311 14.5416C6.61597 14.5641 4.98145 13.9116 3.76701 12.7277C2.55258 11.5439 1.8577 9.92556 1.83526 8.22884ZM17.7374 16.4615L14.6205 13.3399C15.2937 12.4981 15.7945 11.5317 16.0945 10.496C16.3944 9.46036 16.4875 8.37567 16.3684 7.30396C16.2493 6.23224 15.9204 5.19453 15.4005 4.25011C14.8806 3.30569 14.1799 2.47309 13.3384 1.79988C11.6392 0.44026 9.47022 -0.188175 7.30829 0.0527792C5.14635 0.293733 3.16854 1.38434 1.8098 3.08477C0.543328 4.66304 -0.0958611 6.65409 0.0150314 8.67541C0.125924 10.6967 0.979076 12.6057 2.41058 14.0357C3.84209 15.4657 5.75097 16.3157 7.77051 16.4225C9.79004 16.5293 11.7778 15.8853 13.3518 14.6143L16.4673 17.7328C16.6328 17.8993 16.8568 17.9942 17.0914 17.9975C17.326 18.0008 17.5526 17.9121 17.7228 17.7504C17.8929 17.5887 17.9932 17.3668 18.002 17.1321C18.0109 16.8974 17.9278 16.6686 17.7704 16.4944L17.7374 16.4615Z" fill="#1F1814"/>
</svg>
