<svg width="24" height="24" viewBox="0 0 24 24" fill="none" xmlns="http://www.w3.org/2000/svg">
<path d="M23.7106 0.796596C23.4502 0.530568 23.0965 0.36298 22.7491 0.252645C22.3883 0.138063 21.9648 0.0636197 21.5003 0.0269508C20.57 -0.0464863 19.4103 0.0266009 18.1237 0.290058C15.5473 0.817602 12.3963 2.12193 9.47206 4.64953C6.54645 7.17833 4.72018 10.2353 3.83574 12.7849C3.39507 14.0553 3.17559 15.236 3.19197 16.187C3.20014 16.6612 3.2675 17.1161 3.42365 17.506C3.44839 17.5678 3.47593 17.6292 3.50646 17.6896C2.29611 19.396 1.16791 21.1148 0.119863 22.7972C-0.107283 23.1618 -0.00206132 23.6455 0.354881 23.8776C0.711826 24.1096 1.18533 24.0021 1.41247 23.6375C2.42297 22.0154 3.50158 20.3713 4.64968 18.7463C5.078 18.9591 5.57433 19.0394 6.08637 19.0202C6.85678 18.9913 7.73443 18.7385 8.67208 18.2844C10.5457 17.377 12.7876 15.6038 15.1257 12.8222L17.4033 10.4956C17.547 10.3488 17.6277 10.1497 17.6276 9.94206C17.6276 9.73443 17.5467 9.53533 17.4029 9.3886L16.3095 8.27296L18.276 8.58527C18.5199 8.62399 18.767 8.54037 18.94 8.36062C19.2729 8.01469 19.607 7.67211 19.9356 7.33522C20.9298 6.31567 21.8735 5.34799 22.5799 4.49756C23.0509 3.93042 23.457 3.36883 23.7099 2.83616C23.9556 2.31864 24.1274 1.67756 23.8781 1.0541C23.8396 0.957737 23.7827 0.870195 23.7106 0.796596ZM5.59936 17.4288C8.07781 14.0604 10.8614 10.8232 13.9629 8.09086L15.7779 9.94263L14.0217 11.7366C14.0078 11.7508 13.9945 11.7655 13.9817 11.7807C11.7304 14.4638 9.6449 16.0812 8.01573 16.8702C7.19942 17.2655 6.52976 17.4374 6.03013 17.4562C5.86006 17.4626 5.71786 17.4514 5.59936 17.4288ZM15.7525 6.60059C17.7184 5.05773 19.8035 3.72903 22.0106 2.6993C21.8511 2.93468 21.6513 3.19635 21.4116 3.48499C20.7484 4.28349 19.8692 5.18516 18.8894 6.18996C18.6401 6.44567 18.3842 6.70807 18.1237 6.97716L15.7525 6.60059ZM20.7717 1.56513C14.3903 4.721 9.06823 10.2002 4.72381 16.0166C4.73463 15.3214 4.90534 14.3874 5.2799 13.3077C6.07846 11.0056 7.75372 8.18504 10.4617 5.84433C13.1711 3.50242 16.0794 2.3049 18.4248 1.82465C19.3098 1.64344 20.1054 1.56626 20.7717 1.56513Z" fill="#3D3D3D"/>
</svg>
