<svg width="28" height="28" viewBox="0 0 28 28" fill="none" xmlns="http://www.w3.org/2000/svg">
<g clip-path="url(#clip0_227_13976)">
<path fill-rule="evenodd" clip-rule="evenodd" d="M22.2112 0.546707L22.1704 0.634783L22.1704 0.634789L22.1703 0.63485L20.6048 3.67839C20.5963 3.69517 20.6005 3.70355 20.6189 3.70355L24.4165 3.77765C24.4219 3.77765 24.4266 3.77599 24.4304 3.77324C24.4442 3.77217 24.4483 3.76512 24.4405 3.75102L24.4374 3.74486C24.4018 3.67205 24.3078 3.48611 24.1792 3.23367C24.1801 3.22482 24.1858 3.21656 24.1953 3.21277C24.5011 3.08555 24.8224 2.99328 25.1606 2.93736C25.3086 2.35997 25.3833 1.66374 25.2423 1.07237C25.1352 0.623599 24.8393 0.34399 24.3517 0.233545C23.874 0.334204 23.3879 0.489387 22.8947 0.699093C22.8884 0.702575 22.8827 0.703282 22.8778 0.701559C22.7078 0.373589 22.5773 0.12413 22.5256 0.0293177L22.517 0.0126544C22.5072 -0.0055202 22.4987 -0.0055202 22.4888 0.0126544L22.4845 0.0210472C22.4835 0.0223209 22.4826 0.0237393 22.4818 0.0253035L22.4531 0.0813122L22.2112 0.546707Z" fill="#827E75"/>
<path d="M19.9746 3.6477C19.8562 3.52887 19.6772 3.41004 19.4405 3.2912C18.0158 2.57541 16.4982 2.16019 14.8889 2.04275C14.0279 1.97704 13.1655 2.005 12.3045 2.12943L11.4745 2.27343C10.8305 2.41183 10.2034 2.59777 9.59328 2.83265C8.9958 3.06472 8.42086 3.34293 7.86565 3.66588C6.90742 4.22789 6.0422 4.90874 5.27139 5.70702C4.26666 6.74577 3.47612 7.92572 2.89836 9.24687C1.58503 12.2876 1.58362 15.7338 2.90823 18.7801C3.57476 17.8406 4.26243 16.9263 4.97405 16.0372C4.63304 14.4993 4.67531 12.981 5.09947 11.4823C6.01401 8.37029 8.45186 5.97964 11.6084 5.13103L12.5229 4.9395C13.0612 4.85282 13.6023 4.81367 14.1449 4.82346C14.786 4.83324 15.4216 4.90874 16.05 5.04994C16.6123 5.15899 17.0971 5.37149 17.5071 5.68605C18.0186 6.0789 18.1271 6.59758 17.8326 7.24067C18.5217 6.7192 19.1995 6.21032 19.8632 5.71681C20.0084 5.60776 20.1394 5.44279 20.2564 5.21911C20.4875 4.58859 20.3931 4.06432 19.9746 3.6477ZM14.0829 4.73538C14.0829 4.73678 14.0829 4.73678 14.0815 4.73818C14.0815 4.73678 14.0815 4.73678 14.0829 4.73538ZM14.173 4.77313C14.173 4.77453 14.1716 4.77732 14.173 4.77872C14.1716 4.77732 14.173 4.77592 14.173 4.77313ZM14.1801 4.78711C14.1787 4.78711 14.1787 4.78711 14.1801 4.78711C14.1787 4.78571 14.1773 4.78431 14.1759 4.78292C14.1773 4.78431 14.1773 4.78571 14.1801 4.78711ZM14.0815 4.74377C14.0815 4.74517 14.0829 4.74657 14.0843 4.74936C14.0829 4.74796 14.0829 4.74796 14.0815 4.74657C14.08 4.74377 14.0815 4.74377 14.0815 4.74377ZM14.0843 4.75076C14.0871 4.75216 14.0885 4.75356 14.0927 4.75356C14.0899 4.75356 14.0871 4.75216 14.0843 4.75076Z" fill="url(#paint0_linear_227_13976)"/>
<path d="M27.9238 2.01061C27.7096 1.17458 27.2051 0.601378 26.4132 0.291013C25.748 0.0659277 25.0604 0.0673258 24.3516 0.236489C24.8391 0.346934 25.1351 0.626543 25.2422 1.07531C25.3831 1.66669 25.3084 2.36291 25.1604 2.9403C25.0406 3.48694 24.8546 4.01959 24.601 4.53547C24.1191 5.5127 23.5808 6.43122 22.9861 7.28961L22.4703 8.04176C21.436 9.47615 20.3312 10.8574 19.1574 12.1842L18.4965 12.9265C17.6538 13.859 16.7858 14.7691 15.891 15.6541L13.828 17.6379L12.8514 18.5201C11.9749 19.3044 11.0801 20.0551 10.1698 20.7709C9.5413 22.0809 10.935 22.7436 11.9425 22.9575C12.0355 22.8932 12.1003 22.8456 12.137 22.8163C13.4278 21.7845 14.6777 20.7066 15.8867 19.5798L17.4622 18.0783C18.3584 17.1961 19.2321 16.2972 20.0846 15.3787L21.4064 13.9066L23.0129 11.994C23.7231 11.1035 24.4192 10.1822 25.0984 9.2301L25.1717 9.11546L25.2873 8.9449C25.8946 8.06413 26.4442 7.15261 26.9374 6.21033C27.5757 4.97725 28.2253 3.41284 27.9238 2.01061ZM21.4107 13.8297C21.4092 13.8283 21.4078 13.8269 21.4064 13.8255C21.4078 13.8255 21.4078 13.8255 21.4092 13.8269C21.4107 13.8283 21.4107 13.8297 21.4107 13.8297ZM20.0607 12.7602C20.0593 12.7602 20.0579 12.7616 20.0565 12.763C20.0579 12.763 20.0593 12.7616 20.0607 12.7602ZM20.0522 12.7657L20.0508 12.7671C20.0522 12.7671 20.0522 12.7671 20.0522 12.7657ZM20.048 12.7755C20.048 12.7769 20.048 12.7769 20.048 12.7783C20.0466 12.7769 20.048 12.7769 20.048 12.7755ZM19.4449 12.3939C19.4421 12.3953 19.4406 12.3981 19.4392 12.4009C19.4421 12.3981 19.4435 12.3953 19.4449 12.3939ZM19.4294 12.4232C19.4294 12.4288 19.4294 12.433 19.4308 12.4386C19.4294 12.4344 19.4294 12.4288 19.4294 12.4246V12.4232ZM19.1137 12.275C19.1123 12.2778 19.1109 12.2806 19.1081 12.2834C19.1095 12.2792 19.1123 12.2764 19.1137 12.275ZM19.1053 12.289C19.1039 12.2918 19.1039 12.2946 19.1024 12.2974C19.1024 12.2946 19.1039 12.2918 19.1053 12.289ZM19.0996 12.3058C19.0996 12.3086 19.0982 12.3114 19.0982 12.3142C19.0996 12.3114 19.0996 12.3086 19.0996 12.3058ZM19.1151 12.3785C19.1165 12.3813 19.1179 12.3827 19.1194 12.3855C19.1194 12.3841 19.1179 12.3841 19.1179 12.3827C19.1165 12.3799 19.1151 12.3785 19.1151 12.3785ZM19.101 12.3407C19.101 12.3435 19.1025 12.3463 19.1039 12.3505C19.1025 12.3477 19.101 12.3449 19.101 12.3407ZM20.0734 12.7602C20.0776 12.7616 20.0804 12.763 20.0832 12.7643C20.0804 12.7616 20.0776 12.7602 20.0734 12.7602ZM25.2915 8.868C25.2929 8.8694 25.2957 8.868 25.2971 8.868C25.2957 8.868 25.2943 8.868 25.2915 8.868ZM25.2985 8.86521L25.2999 8.86381C25.2999 8.86521 25.2999 8.86521 25.2985 8.86521Z" fill="url(#paint1_linear_227_13976)"/>
<path d="M17.5088 5.68591C17.1002 5.37135 16.614 5.15885 16.0517 5.0498C15.3176 5.62859 14.6003 6.22416 13.9 6.83371L13.3884 7.27968C11.8271 8.66514 10.3249 10.1107 8.87911 11.6164C7.54041 13.0075 6.2623 14.4502 5.04338 15.9448C5.00252 15.9783 4.97856 16.0091 4.97433 16.037C4.26271 16.9262 3.57504 17.8405 2.9085 18.78L2.37725 19.5755C2.02919 20.1053 1.7079 20.6338 1.41198 21.1622C0.876497 22.1073 0.388927 23.1587 0.131051 24.2142C-0.374837 26.2106 0.583391 27.9511 2.82818 27.8938C3.08183 27.8784 3.36507 27.8365 3.67791 27.7694C3.28193 27.6953 3.01137 27.5038 2.86341 27.1948C2.57876 26.5964 2.68022 25.6891 2.84932 25.0726C3.0001 24.2771 3.36507 23.5152 3.72723 22.8217C4.739 20.9959 5.99738 19.2595 7.30649 17.6462C8.17735 16.5739 9.08344 15.5323 10.0234 14.5215L10.9351 13.5513L12.7698 11.7059C13.7027 10.7972 14.6623 9.9122 15.6487 9.051L15.7262 8.9853C16.428 8.37435 17.1312 7.79276 17.8329 7.23914C18.1274 6.59604 18.0189 6.07876 17.5088 5.68591ZM3.68777 22.763C3.68354 22.7644 3.68072 22.7672 3.67932 22.77C3.68213 22.7672 3.68495 22.7644 3.68777 22.763ZM3.71454 22.6805C3.71454 22.6791 3.71314 22.6763 3.71173 22.6749C3.71173 22.6763 3.71314 22.6791 3.71454 22.6805ZM3.7075 22.6749C3.70609 22.6749 3.70609 22.6735 3.70468 22.6749C3.70609 22.6735 3.7075 22.6749 3.7075 22.6749ZM1.44157 21.2252C1.44016 21.2266 1.43875 21.228 1.43875 21.2308C1.43875 21.2294 1.43875 21.2294 1.44016 21.228C1.44016 21.2266 1.44157 21.2252 1.44157 21.2252ZM1.43593 21.2643C1.43593 21.2657 1.43734 21.2671 1.43875 21.2685C1.43734 21.2671 1.43734 21.2657 1.43593 21.2643ZM1.43452 21.2559C1.43452 21.2587 1.43452 21.2601 1.43452 21.2629C1.43452 21.2615 1.43452 21.2587 1.43452 21.2559ZM1.44016 21.2699C1.44298 21.2727 1.4458 21.2741 1.45002 21.2741H1.44862C1.44439 21.2741 1.44157 21.2713 1.44016 21.2699ZM3.68495 22.7994L3.68636 22.8008C3.68636 22.8008 3.68636 22.7994 3.68495 22.7994ZM5.52391 16.2272C5.5225 16.2244 5.51968 16.2216 5.51827 16.2202C5.51968 16.223 5.52109 16.2244 5.52391 16.2272ZM5.53095 16.2453C5.53095 16.2425 5.52954 16.2383 5.52813 16.2355C5.52954 16.2383 5.52954 16.2411 5.53095 16.2453ZM5.07016 15.9462C5.07157 15.9462 5.07157 15.9475 5.07157 15.9475C5.07016 15.9462 5.06875 15.9448 5.06593 15.9448C5.06734 15.9462 5.06875 15.9462 5.07016 15.9462ZM5.48868 16.2062C5.49009 16.2062 5.49149 16.2076 5.49431 16.2076C5.49009 16.2062 5.48445 16.2062 5.48022 16.2062C5.48163 16.2048 5.48445 16.2048 5.48868 16.2062ZM5.50981 16.2146C5.507 16.2132 5.50418 16.2118 5.50136 16.2104C5.50559 16.2118 5.5084 16.2132 5.50981 16.2146ZM9.7232 12.2833C9.72179 12.2833 9.71897 12.2819 9.71756 12.2819C9.71897 12.2819 9.72038 12.2819 9.7232 12.2833ZM9.71616 12.2819C9.71334 12.2819 9.71052 12.2819 9.7077 12.2833C9.71052 12.2819 9.71334 12.2805 9.71616 12.2819ZM9.70065 12.2889C9.69924 12.2917 9.69784 12.2945 9.69784 12.2973C9.69784 12.2931 9.69924 12.2917 9.70065 12.2889ZM10.9013 13.5219V13.5233C10.9013 13.5233 10.9013 13.5233 10.9013 13.5219ZM10.9027 13.5261C10.9027 13.5261 10.9041 13.5275 10.9055 13.5275C10.9041 13.5261 10.9027 13.5261 10.9027 13.5261Z" fill="url(#paint2_linear_227_13976)"/>
<path d="M25.0983 9.22705C24.4177 10.1791 23.723 11.1004 23.0127 11.991C23.0311 11.9938 23.0423 12.005 23.048 12.0287C23.3115 13.2674 23.327 14.5075 23.0931 15.7489C22.9324 16.5556 22.6717 17.3245 22.311 18.0571C21.8939 18.8917 21.3626 19.6481 20.7158 20.3247L20.0098 20.9888C19.4166 21.4921 18.767 21.9171 18.0596 22.261C16.5165 22.9978 14.8847 23.2942 13.1641 23.1488C12.7512 23.1096 12.3454 23.0453 11.9438 22.9544C10.9363 22.7405 9.54259 22.0765 10.1711 20.7679C9.56514 21.2278 8.96906 21.6766 8.37863 22.117C8.15739 22.282 8.00661 22.412 7.9291 22.5071C7.47676 23.0509 7.55004 23.8855 8.03056 24.3651C8.14189 24.4769 8.30676 24.5873 8.52659 24.6978C10.522 25.6974 12.6484 26.1196 14.9059 25.9658C16.1177 25.8735 17.2873 25.6093 18.4175 25.1745C18.86 25.0026 19.2869 24.8068 19.7012 24.5873C20.4185 24.2085 21.0878 23.7611 21.7107 23.2494L22.5252 22.5168C23.0677 21.9814 23.5539 21.4026 23.9837 20.7819C24.498 20.0381 24.9208 19.2482 25.2533 18.4122C25.5873 17.5622 25.824 16.687 25.9621 15.7853C26.289 13.5204 26.0016 11.3353 25.0983 9.22705ZM18.2019 22.2918C18.2005 22.2904 18.1991 22.2876 18.1977 22.2862C18.1991 22.2876 18.2005 22.289 18.2019 22.2918ZM18.1948 22.282C18.1934 22.2806 18.192 22.2806 18.1906 22.2792C18.192 22.2806 18.1934 22.282 18.1948 22.282ZM18.1864 22.2778C18.185 22.2778 18.1836 22.2778 18.1821 22.2778C18.1836 22.2764 18.185 22.2764 18.1864 22.2778ZM18.0891 22.2848L18.0906 22.2834C18.0891 22.2848 18.0891 22.2848 18.0891 22.2848ZM18.092 22.2792C18.092 22.2778 18.092 22.2764 18.092 22.2736C18.092 22.275 18.0934 22.275 18.0934 22.2764C18.092 22.2778 18.092 22.2778 18.092 22.2792ZM18.0906 22.2722C18.0891 22.2694 18.0877 22.268 18.0849 22.268C18.0863 22.268 18.0877 22.2694 18.0906 22.2722ZM18.1751 22.2764C18.1723 22.2764 18.1681 22.2778 18.1652 22.2792C18.1681 22.2764 18.1709 22.2764 18.1751 22.2764ZM22.0348 21.7521C22.0348 21.7507 22.0362 21.7479 22.0362 21.7465C22.0362 21.7479 22.0362 21.7493 22.0348 21.7521ZM22.0376 21.7367C22.0376 21.7353 22.0376 21.7325 22.0376 21.7311C22.0376 21.7325 22.0376 21.7339 22.0376 21.7367ZM22.0348 21.7228C22.0334 21.72 22.032 21.7172 22.0306 21.7144C22.0306 21.7158 22.032 21.7158 22.0334 21.7172C22.0334 21.7186 22.0334 21.72 22.0348 21.7228ZM22.0263 21.7102C22.0235 21.7074 22.0221 21.706 22.0193 21.7032C22.0221 21.7046 22.0249 21.7074 22.0263 21.7102ZM22.0151 21.7004C22.0122 21.699 22.0094 21.6976 22.0052 21.6962C22.008 21.6976 22.0122 21.699 22.0151 21.7004ZM22.001 21.6948C21.9953 21.6948 21.9911 21.6948 21.9855 21.6948C21.9897 21.6948 21.9953 21.6948 22.001 21.6948ZM20.8821 20.2157C20.8807 20.2143 20.8779 20.2129 20.8736 20.2129C20.8779 20.2115 20.8807 20.2129 20.8821 20.2157ZM23.1903 15.5895C23.1889 15.5881 23.1875 15.5881 23.1875 15.5867C23.1889 15.5867 23.1903 15.5881 23.1903 15.5895Z" fill="url(#paint3_linear_227_13976)"/>
<path fill-rule="evenodd" clip-rule="evenodd" d="M5.6735 24.2729L7.38704 24.3065C7.40395 24.3065 7.40959 24.3148 7.40113 24.3302L6.53732 26.0121L6.49504 26.1029L5.5199 27.9889C5.51427 27.9987 5.50299 28.0015 5.49313 27.9973C5.49031 27.9959 5.48608 27.9931 5.48467 27.9889L5.13944 27.3152C5.1314 27.3068 5.12091 27.3053 5.10865 27.3108C4.62672 27.5108 4.15042 27.6645 3.67976 27.7708C3.28379 27.6967 3.01323 27.5052 2.86527 27.1962C2.58062 26.5978 2.68208 25.6905 2.85118 25.074C3.18656 25.0041 3.50925 24.9132 3.81927 24.7999C3.83336 24.7958 3.83336 24.7776 3.81927 24.7468C3.82031 24.7463 3.82135 24.7457 3.82238 24.7452L3.57245 24.2575C3.56258 24.2393 3.56822 24.231 3.58936 24.231L5.6735 24.2729Z" fill="#827E75"/>
</g>
<defs>
<linearGradient id="paint0_linear_227_13976" x1="17.8179" y1="3.18206" x2="3.18151" y2="17.1821" gradientUnits="userSpaceOnUse">
<stop stop-color="#1A130F"/>
<stop offset="1" stop-color="#605B50"/>
</linearGradient>
<linearGradient id="paint1_linear_227_13976" x1="27.1876" y1="0.792675" x2="11.2795" y2="21.1486" gradientUnits="userSpaceOnUse">
<stop stop-color="#1A130F"/>
<stop offset="1" stop-color="#605B50"/>
</linearGradient>
<linearGradient id="paint2_linear_227_13976" x1="17.1818" y1="5.72734" x2="1.27268" y2="26.091" gradientUnits="userSpaceOnUse">
<stop stop-color="#605B50"/>
<stop offset="1" stop-color="#1A130F"/>
</linearGradient>
<linearGradient id="paint3_linear_227_13976" x1="25.2587" y1="9.72439" x2="15.0077" y2="28.0667" gradientUnits="userSpaceOnUse">
<stop stop-color="#605B50"/>
<stop offset="1" stop-color="#1A130F"/>
</linearGradient>
<clipPath id="clip0_227_13976">
<rect width="28" height="28" fill="white"/>
</clipPath>
</defs>
</svg>
