<svg width="136" height="94" viewBox="0 0 136 94" fill="none" xmlns="http://www.w3.org/2000/svg">
<path d="M80.8643 4.02498V0.777832" stroke="#5C5551" stroke-width="0.888889"/>
<path d="M85.4648 4.02498L87.359 0.777832" stroke="#5C5551" stroke-width="0.888889"/>
<path d="M88.4404 8.35436L92.2288 7.27197" stroke="#5C5551" stroke-width="0.888889"/>
<path d="M33.509 46.2378C29.5402 49.1242 20.8451 55.7087 17.8145 58.9558" stroke="#5C5551" stroke-width="0.888889"/>
<path d="M11.3214 64.3682C7.08208 68.2467 -0.747134 77.3568 1.85058 82.7687C4.44829 88.1806 28.5491 79.9725 40.2748 75.192" stroke="#5C5551" stroke-width="0.888889"/>
<path d="M5.63867 90.8865C7.35244 92.3297 12.0763 93.5949 18.3566 93.0512C30.5 92 39.4631 86.8275 43.2514 84.1216" stroke="#5C5551" stroke-width="0.888889"/>
<path d="M90.876 14.0371C99.1742 10.5193 117.557 3.80853 124.7 5.10739" stroke="#5C5551" stroke-width="0.888889"/>
<path d="M128.76 13.2251C127.136 18.637 118.207 27.8373 103.595 38.1199" stroke="#5C5551" stroke-width="0.888889"/>
<path d="M133.63 15.6606C135.705 17.3744 136.065 24.1032 120.912 37.3083" stroke="#5C5551" stroke-width="0.888889"/>
<path d="M105.759 49.485C108.014 48.0418 112.74 44.7225 113.606 42.9907" stroke="#5C5551" stroke-width="0.888889"/>
<path d="M107.924 13.7668C111.442 12.5942 118.694 10.9526 119.559 13.7668C120.425 16.581 113.426 22.8768 109.818 25.6729" stroke="#5C5551" stroke-width="0.888889"/>
<path d="M78.9702 7.81348L35.1338 19.1785L52.1813 79.792" stroke="#5C5551" stroke-width="0.888889"/>
<path d="M76.2643 13.7666L85.7351 10.79C87.379 16.6496 88.8416 21.8633 90.214 26.7552M59.2168 82.498L102.512 70.5917C101.934 68.5323 101.379 66.5526 100.842 64.6386" stroke="#5C5551" stroke-width="0.888889"/>
<path d="M30.5332 19.9902L45.6865 76.8154" stroke="#5C5551" stroke-width="0.888889"/>
<path d="M50.0176 47.8613L66.5239 43.5317" stroke="#5C5551" stroke-width="0.888889"/>
<path d="M51.0986 53.5439L68.4167 49.2144" stroke="#5C5551" stroke-width="0.888889"/>
<path d="M52.7227 58.956L70.3113 54.6265" stroke="#5C5551" stroke-width="0.888889"/>
<path d="M54.3457 64.9089L63.5459 62.7441" stroke="#5C5551" stroke-width="0.888889"/>
<path d="M57.3228 77.6273L55.6992 70.8624L72.7467 65.9917L74.9115 72.486L57.3228 77.6273Z" fill="#64605D"/>
<path d="M54.3466 38.3909L51.6406 28.3788L62.1938 25.6729L64.6292 35.1437L54.3466 38.3909Z" fill="#B2B0AF"/>
<path d="M58.7724 28.3784C58.7724 32.1528 55.5945 35.24 51.6401 35.24C47.6858 35.24 44.5079 32.1528 44.5079 28.3784C44.5079 24.6039 47.6858 21.5167 51.6401 21.5167C55.5945 21.5167 58.7724 24.6039 58.7724 28.3784Z" stroke="#5C5551" stroke-width="0.888889"/>
<path d="M29.1804 57.8735C23.3175 62.2933 11.8623 71.9445 12.9447 75.1917C14.027 78.4388 24.2195 75.1015 29.1804 73.0269" stroke="#5C5551" stroke-width="0.888889"/>
<path d="M13.757 65.9912L10.2393 60.5793L16.1923 57.0615L19.1689 62.2028L13.757 65.9912Z" fill="#64605D"/>
<path d="M21.6031 78.1685L19.9795 80.0626C20.8815 82.047 23.2266 84.3922 24.0384 83.851C24.8502 83.3098 24.4894 79.341 24.0384 78.1685H21.6031Z" fill="#B2B0AF" stroke="white" stroke-width="0.811787"/>
<path d="M116.582 44.0731L114.417 39.2024L119.017 37.0376L116.582 44.0731Z" fill="#64605D"/>
<path d="M131.29 8.08375C131.29 9.93054 129.793 11.4277 127.947 11.4277C126.1 11.4277 124.603 9.93054 124.603 8.08375C124.603 6.23697 126.1 4.73985 127.947 4.73985C129.793 4.73985 131.29 6.23697 131.29 8.08375Z" stroke="#5C5551" stroke-width="0.888889"/>
<path d="M97.1967 41.638C97.1967 48.566 91.5806 54.1822 84.6526 54.1822C77.7247 54.1822 72.1085 48.566 72.1085 41.638C72.1085 34.7101 77.7247 29.0939 84.6526 29.0939C91.5806 29.0939 97.1967 34.7101 97.1967 41.638Z" stroke="#5C5551" stroke-width="0.888889"/>
<rect x="-0.628538" width="5.21842" height="20.0651" rx="2.60921" transform="matrix(0.707106 -0.707108 0.707106 0.707108 88.2563 48.0433)" fill="#64605D" stroke="white" stroke-width="0.888889"/>
</svg>
