<svg width="18" height="18" viewBox="0 0 18 18" fill="none" xmlns="http://www.w3.org/2000/svg">
<path d="M17.998 3.77665C17.985 3.59107 17.8876 3.42235 17.7345 3.32345L12.7168 0.0881716C12.5124 -0.0433106 12.2517 -0.026439 12.0648 0.13006L8.99967 2.69222L5.93454 0.13006C5.74818 -0.0258572 5.48525 -0.0433106 5.28256 0.0887534L0.26485 3.32403C0.111706 3.42293 0.0137392 3.59107 0.0013526 3.77724C-0.011034 3.96341 0.0621596 4.14376 0.200102 4.2636L3.10702 6.78736L0.616742 8.80905C0.474296 8.92366 0.394346 9.10343 0.401666 9.2896C0.408985 9.47577 0.501885 9.64681 0.652213 9.75095L2.95669 11.3386C2.84352 11.4451 2.77089 11.5969 2.77089 11.768V14.1015C2.77089 14.304 2.8728 14.4913 3.03889 14.5972L8.70408 17.9139C8.79416 17.9715 8.89664 18 8.99911 18C9.10158 18 9.20405 17.9709 9.2947 17.9139L14.8934 14.5972C15.0601 14.4907 15.1615 14.3034 15.1615 14.1015V11.3648C15.1615 11.3276 15.1569 11.2903 15.1508 11.2548L17.3336 9.75153C17.4839 9.64855 17.5768 9.47751 17.5842 9.29134C17.5915 9.10517 17.5121 8.92657 17.3702 8.81137L14.8906 6.79085L17.7992 4.26593C17.9372 4.14608 18.0115 3.96573 17.9985 3.77956L17.998 3.77665ZM12.9527 6.7926L8.99967 9.35185L5.04665 6.7926L8.99967 4.13445L12.9527 6.7926ZM1.51871 3.88719L5.53817 1.29478L8.04308 3.38861L4.04333 6.07876L1.51871 3.88719ZM4.03658 7.51168L8.01268 10.0861L5.75944 11.8686L1.92353 9.22676L4.03658 7.51168ZM3.89751 11.9844L5.46948 13.0671C5.66879 13.2044 5.93229 13.1957 6.12372 13.045L8.40061 11.2444V16.3861L3.89751 13.774V11.9844ZM14.0354 13.774L9.52666 16.4228V11.1909L11.8604 13.0444C11.9606 13.1241 12.0828 13.1648 12.2039 13.1648C12.3131 13.1648 12.4218 13.1328 12.5163 13.0671L14.0354 12.0205V13.774ZM16.0634 9.2256L12.2275 11.8675L9.98497 10.0866L13.9616 7.51168L16.0634 9.2256ZM13.9554 6.07876L9.95513 3.38861L12.4606 1.29478L16.4801 3.88719L13.9554 6.07876Z" fill="#5C5C5C"/>
</svg>
