<svg width="90" height="90" viewBox="0 0 90 90" fill="none" xmlns="http://www.w3.org/2000/svg">
<g clip-path="url(#clip0_1337_11436)">
<g clip-path="url(#clip1_1337_11436)">
<path d="M85.1245 79.9999H4.87545C2.73221 79.9999 1 78.463 1 76.5615V20.4186C1 18.5171 2.73221 16.9802 4.87545 16.9802H85.1245C87.2678 16.9802 89 18.5171 89 20.4186V76.5615C89 78.4544 87.258 79.9999 85.1245 79.9999Z" fill="#85C6FF"/>
<path d="M45.0493 33.5955H1V13.8706C1 11.73 2.73418 10 4.87978 10H35.0264C36.7411 10 38.2498 11.1143 38.7397 12.7563L45.0493 33.5955Z" fill="#4093E5"/>
<path d="M85.1245 80H4.87545C2.73221 80 1 78.2716 1 76.1331V26.1562C1 24.0177 2.73221 22.2893 4.87545 22.2893H85.1245C87.2678 22.2893 89 24.0177 89 26.1562V76.1331C89 78.2618 87.258 80 85.1245 80Z" fill="#51AEFF"/>
<mask id="mask0_1337_11436" style="mask-type:alpha" maskUnits="userSpaceOnUse" x="29" y="35" width="32" height="32">
<rect x="29" y="35" width="32" height="32" fill="#D9D9D9"/>
</mask>
<g mask="url(#mask0_1337_11436)">
<path d="M39.3998 62.2H36.1998C35.5554 62.2 34.9942 61.9612 34.5165 61.4834C34.0387 61.0056 33.7998 60.4445 33.7998 59.8V51C33.7998 49.4445 34.0965 47.9875 34.6898 46.6289C35.2831 45.2704 36.0847 44.0882 37.0944 43.0823C38.1041 42.0763 39.2907 41.2778 40.6544 40.6867C42.018 40.0956 43.472 39.8 45.0165 39.8C46.5609 39.8 48.0124 40.0956 49.3709 40.6867C50.7294 41.2778 51.9117 42.0763 52.9176 43.0823C53.9235 44.0882 54.722 45.2704 55.3131 46.6289C55.9043 47.9875 56.1998 49.4445 56.1998 51V59.8C56.1998 60.4445 55.9648 61.0056 55.4948 61.4834C55.0248 61.9612 54.4598 62.2 53.7998 62.2H50.5998C49.9398 62.2 49.3748 61.9648 48.9048 61.4942C48.4348 61.0236 48.1998 60.4579 48.1998 59.7971V54.9912C48.1998 54.3304 48.4348 53.7667 48.9048 53.3C49.3748 52.8334 49.9398 52.6 50.5998 52.6H53.7998V51C53.7998 48.5486 52.9467 46.4691 51.2405 44.7615C49.5343 43.0539 47.4566 42.2 45.0072 42.2C42.5578 42.2 40.4776 43.0539 38.7665 44.7615C37.0554 46.4691 36.1998 48.5486 36.1998 51V52.6H39.3998C40.0598 52.6 40.6248 52.8353 41.0948 53.3059C41.5648 53.7765 41.7998 54.3422 41.7998 55.003V59.8089C41.7998 60.4697 41.5648 61.0334 41.0948 61.5C40.6248 61.9667 40.0598 62.2 39.3998 62.2ZM39.3998 55H36.1998V59.8H39.3998V55ZM50.5998 55V59.8H53.7998V55H50.5998Z" fill="#357BBF"/>
</g>
</g>
</g>
<defs>
<clipPath id="clip0_1337_11436">
<rect width="90" height="90" fill="white"/>
</clipPath>
<clipPath id="clip1_1337_11436">
<rect width="90" height="90" fill="white"/>
</clipPath>
</defs>
</svg>
