<svg width="90" height="90" viewBox="0 0 90 90" fill="none" xmlns="http://www.w3.org/2000/svg">
<g clip-path="url(#clip0_1337_11410)">
<g clip-path="url(#clip1_1337_11410)">
<path d="M85.1245 79.9999H4.87545C2.73221 79.9999 1 78.463 1 76.5615V20.4186C1 18.5171 2.73221 16.9802 4.87545 16.9802H85.1245C87.2678 16.9802 89 18.5171 89 20.4186V76.5615C89 78.4544 87.258 79.9999 85.1245 79.9999Z" fill="#85C6FF"/>
<path d="M45.0493 33.5955H1V13.8706C1 11.73 2.73418 10 4.87978 10H35.0264C36.7411 10 38.2498 11.1143 38.7397 12.7563L45.0493 33.5955Z" fill="#4093E5"/>
<path d="M85.1245 80H4.87545C2.73221 80 1 78.2716 1 76.1331V26.1562C1 24.0177 2.73221 22.2893 4.87545 22.2893H85.1245C87.2678 22.2893 89 24.0177 89 26.1562V76.1331C89 78.2618 87.258 80 85.1245 80Z" fill="#51AEFF"/>
<mask id="mask0_1337_11410" style="mask-type:alpha" maskUnits="userSpaceOnUse" x="29" y="35" width="32" height="32">
<rect x="29" y="35" width="32" height="32" fill="#D9D9D9"/>
</mask>
<g mask="url(#mask0_1337_11410)">
<path d="M36.1998 62.2C35.5398 62.2 34.9748 61.9612 34.5048 61.4834C34.0348 61.0056 33.7998 60.4445 33.7998 59.8V42.2C33.7998 41.5556 34.0348 40.9945 34.5048 40.5167C34.9748 40.0389 35.5398 39.8 36.1998 39.8H53.7998C54.4598 39.8 55.0248 40.0389 55.4948 40.5167C55.9648 40.9945 56.1998 41.5556 56.1998 42.2V59.8C56.1998 60.4445 55.9648 61.0056 55.4948 61.4834C55.0248 61.9612 54.4598 62.2 53.7998 62.2H36.1998ZM36.1998 59.8H53.7998V42.2H36.1998V59.8ZM38.9998 57.4H51.0063C51.2464 57.4 51.422 57.2889 51.5331 57.0667C51.6443 56.8445 51.622 56.6334 51.4665 56.4334L47.8665 51.6334C47.7498 51.4556 47.5942 51.3667 47.3998 51.3667C47.2054 51.3667 47.0498 51.4556 46.9331 51.6334L43.7998 55.8L41.8665 53.2334C41.7498 53.0556 41.5942 52.9667 41.3998 52.9667C41.2054 52.9667 41.0498 53.0556 40.9331 53.2334L38.5392 56.4342C38.3796 56.6337 38.3581 56.8445 38.4748 57.0667C38.5915 57.2889 38.7665 57.4 38.9998 57.4ZM40.1998 47.8C40.6442 47.8 41.022 47.6445 41.3331 47.3334C41.6442 47.0223 41.7998 46.6445 41.7998 46.2C41.7998 45.7556 41.6442 45.3778 41.3331 45.0667C41.022 44.7556 40.6442 44.6 40.1998 44.6C39.7554 44.6 39.3776 44.7556 39.0665 45.0667C38.7554 45.3778 38.5998 45.7556 38.5998 46.2C38.5998 46.6445 38.7554 47.0223 39.0665 47.3334C39.3776 47.6445 39.7554 47.8 40.1998 47.8Z" fill="#357BBF"/>
</g>
</g>
</g>
<defs>
<clipPath id="clip0_1337_11410">
<rect width="90" height="90" fill="white"/>
</clipPath>
<clipPath id="clip1_1337_11410">
<rect width="90" height="90" fill="white"/>
</clipPath>
</defs>
</svg>
