<svg width="90" height="90" viewBox="0 0 90 90" fill="none" xmlns="http://www.w3.org/2000/svg">
<g clip-path="url(#clip0_1337_11490)">
<g clip-path="url(#clip1_1337_11490)">
<path d="M85.1245 79.9999H4.87545C2.73221 79.9999 1 78.463 1 76.5615V20.4186C1 18.5171 2.73221 16.9802 4.87545 16.9802H85.1245C87.2678 16.9802 89 18.5171 89 20.4186V76.5615C89 78.4544 87.258 79.9999 85.1245 79.9999Z" fill="#85C6FF"/>
<path d="M45.0493 33.5955H1V13.8706C1 11.73 2.73418 10 4.87978 10H35.0264C36.7411 10 38.2498 11.1143 38.7397 12.7563L45.0493 33.5955Z" fill="#4093E5"/>
<path d="M85.1245 80H4.87545C2.73221 80 1 78.2716 1 76.1331V26.1562C1 24.0177 2.73221 22.2893 4.87545 22.2893H85.1245C87.2678 22.2893 89 24.0177 89 26.1562V76.1331C89 78.2618 87.258 80 85.1245 80Z" fill="#51AEFF"/>
<mask id="mask0_1337_11490" style="mask-type:alpha" maskUnits="userSpaceOnUse" x="29" y="35" width="32" height="32">
<rect x="29" y="35" width="32" height="32" fill="#D9D9D9"/>
</mask>
<g mask="url(#mask0_1337_11490)">
<path d="M37.8004 59.8V61C37.8004 61.34 37.6861 61.6251 37.4574 61.8551C37.2288 62.0851 36.9454 62.2 36.6074 62.2C36.2694 62.2 35.9837 62.0851 35.7504 61.8551C35.5171 61.6251 35.4004 61.34 35.4004 61V41C35.4004 40.66 35.5147 40.375 35.7434 40.145C35.972 39.915 36.2554 39.8 36.5934 39.8C36.9314 39.8 37.2158 39.915 37.4465 40.145C37.6772 40.375 37.7926 40.66 37.7926 41V42.2H40.2004V41C40.2004 40.66 40.3153 40.375 40.545 40.145C40.7747 39.915 41.0594 39.8 41.3991 39.8H48.591C48.9306 39.8 49.2158 39.915 49.4465 40.145C49.6772 40.375 49.7926 40.66 49.7926 41V42.2H52.2004V41C52.2004 40.66 52.3147 40.375 52.5434 40.145C52.772 39.915 53.0554 39.8 53.3934 39.8C53.7314 39.8 54.0171 39.915 54.2504 40.145C54.4837 40.375 54.6004 40.66 54.6004 41V61C54.6004 61.34 54.4861 61.6251 54.2574 61.8551C54.0288 62.0851 53.7454 62.2 53.4074 62.2C53.0694 62.2 52.785 62.0851 52.5543 61.8551C52.3235 61.6251 52.2082 61.34 52.2082 61V59.8H49.8004V61C49.8004 61.34 49.6855 61.6251 49.4558 61.8551C49.226 62.0851 48.9413 62.2 48.6017 62.2H41.4098C41.0702 62.2 40.785 62.0851 40.5543 61.8551C40.3235 61.6251 40.2082 61.34 40.2082 61V59.8H37.8004ZM37.8004 57.4H40.2004V54.7334H37.8004V57.4ZM37.8004 52.3334H40.2004V49.6667H37.8004V52.3334ZM37.8004 47.2667H40.2004V44.6H37.8004V47.2667ZM49.8004 57.4H52.2004V54.7334H49.8004V57.4ZM49.8004 52.3334H52.2004V49.6667H49.8004V52.3334ZM49.8004 47.2667H52.2004V44.6H49.8004V47.2667ZM42.6004 59.8H47.4004V42.2H42.6004V59.8Z" fill="#357BBF"/>
</g>
</g>
</g>
<defs>
<clipPath id="clip0_1337_11490">
<rect width="90" height="90" fill="white"/>
</clipPath>
<clipPath id="clip1_1337_11490">
<rect width="90" height="90" fill="white"/>
</clipPath>
</defs>
</svg>
