<svg width="90" height="90" viewBox="0 0 90 90" fill="none" xmlns="http://www.w3.org/2000/svg">
<g clip-path="url(#clip0_1337_11509)">
<path d="M85.1245 79.9999H4.87545C2.73221 79.9999 1 78.463 1 76.5615V20.4186C1 18.5171 2.73221 16.9802 4.87545 16.9802H85.1245C87.2678 16.9802 89 18.5171 89 20.4186V76.5615C89 78.4544 87.258 79.9999 85.1245 79.9999Z" fill="#85C6FF"/>
<path d="M45.0493 33.5955H1V13.8706C1 11.73 2.73418 10 4.87978 10H35.0264C36.7411 10 38.2498 11.1143 38.7397 12.7563L45.0493 33.5955Z" fill="#4093E5"/>
<path d="M85.1245 80H4.87545C2.73221 80 1 78.2716 1 76.1331V26.1562C1 24.0177 2.73221 22.2893 4.87545 22.2893H85.1245C87.2678 22.2893 89 24.0177 89 26.1562V76.1331C89 78.2618 87.258 80 85.1245 80Z" fill="#51AEFF"/>
<mask id="mask0_1337_11509" style="mask-type:alpha" maskUnits="userSpaceOnUse" x="29" y="35" width="32" height="32">
<rect x="29" y="35" width="32" height="32" fill="#D9D9D9"/>
</mask>
<g mask="url(#mask0_1337_11509)">
<path d="M43.7996 52.1V43.9C42.2218 44.2778 40.9607 45.0555 40.0163 46.2333C39.0718 47.4111 38.5441 48.7333 38.4329 50.2H36.9996C35.8949 50.2 34.952 50.5911 34.171 51.3734C33.3901 52.1557 32.9996 53.1001 32.9996 54.2067C32.9996 55.3133 33.3901 56.2555 34.171 57.0333C34.952 57.8111 35.8949 58.2 36.9996 58.2H53.7996C54.6956 58.2 55.4529 57.8914 56.0716 57.2742C56.6903 56.657 56.9996 55.9014 56.9996 55.0075C56.9996 54.1136 56.6903 53.3555 56.0716 52.7333C55.4529 52.1111 54.6956 51.8 53.7996 51.8H51.3996V49.4C51.3996 48.6222 51.2107 47.8667 50.8329 47.1333C50.4552 46.4 49.9107 45.7333 49.1996 45.1333V42.3667C50.5996 43.0333 51.7163 43.9986 52.5496 45.2625C53.3829 46.5263 53.7996 47.9055 53.7996 49.4C55.3552 49.4 56.6774 49.9444 57.7663 51.0333C58.8552 52.1222 59.3996 53.4333 59.3996 54.9667C59.3996 56.5444 58.8496 57.8778 57.7496 58.9667C56.6496 60.0555 55.3329 60.6 53.7996 60.6H36.9996C35.2218 60.6 33.7107 59.9722 32.4663 58.7167C31.2218 57.4611 30.5996 55.9444 30.5996 54.1667C30.5996 52.4111 31.1774 50.9111 32.3329 49.6667C33.4885 48.4222 34.8996 47.8 36.5663 47.8C37.0107 46.0889 37.9607 44.6222 39.4163 43.4C40.8718 42.1778 42.3329 41.5667 43.7996 41.5667C44.4596 41.5667 45.0246 41.7833 45.4946 42.2167C45.9646 42.65 46.1996 43.2111 46.1996 43.9V52.1L47.2663 51.0333C47.5107 50.7889 47.7959 50.6667 48.1218 50.6667C48.4478 50.6667 48.7292 50.7889 48.9663 51.0333C49.2107 51.2778 49.3329 51.5611 49.3329 51.8833C49.3329 52.2055 49.2107 52.4889 48.9663 52.7333L45.8283 55.8713C45.587 56.1126 45.3087 56.2333 44.9935 56.2333C44.6784 56.2333 44.4026 56.1111 44.1663 55.8667L41.0329 52.7333C40.7885 52.4889 40.6718 52.2055 40.6829 51.8833C40.6941 51.5611 40.8218 51.2778 41.0663 51.0333C41.3107 50.7889 41.5941 50.6667 41.9163 50.6667C42.2385 50.6667 42.5218 50.7889 42.7663 51.0333L43.7996 52.1Z" fill="#357BBF"/>
</g>
</g>
<defs>
<clipPath id="clip0_1337_11509">
<rect width="90" height="90" fill="white"/>
</clipPath>
</defs>
</svg>
