<svg width="90" height="90" viewBox="0 0 90 90" fill="none" xmlns="http://www.w3.org/2000/svg">
<g clip-path="url(#clip0_1337_11548)">
<path d="M85.1245 79.9999H4.87545C2.73221 79.9999 1 78.463 1 76.5615V20.4186C1 18.5171 2.73221 16.9802 4.87545 16.9802H85.1245C87.2678 16.9802 89 18.5171 89 20.4186V76.5615C89 78.4544 87.258 79.9999 85.1245 79.9999Z" fill="#85C6FF"/>
<path d="M45.0493 33.5955H1V13.8706C1 11.73 2.73418 10 4.87978 10H35.0264C36.7411 10 38.2498 11.1143 38.7397 12.7563L45.0493 33.5955Z" fill="#4093E5"/>
<path d="M85.1245 80H4.87545C2.73221 80 1 78.2716 1 76.1331V26.1562C1 24.0177 2.73221 22.2893 4.87545 22.2893H85.1245C87.2678 22.2893 89 24.0177 89 26.1562V76.1331C89 78.2618 87.258 80 85.1245 80Z" fill="#51AEFF"/>
<mask id="mask0_1337_11548" style="mask-type:alpha" maskUnits="userSpaceOnUse" x="29" y="35" width="32" height="32">
<rect x="29" y="35" width="32" height="32" fill="#D9D9D9"/>
</mask>
<g mask="url(#mask0_1337_11548)">
<path d="M41.3991 59H48.591C48.9306 59 49.2171 58.8856 49.4504 58.657C49.6837 58.4283 49.8004 58.145 49.8004 57.807C49.8004 57.469 49.6855 57.1833 49.4558 56.95C49.226 56.7166 48.9413 56.6 48.6017 56.6H41.4098C41.0702 56.6 40.7837 56.7143 40.5504 56.9429C40.3171 57.1716 40.2004 57.4549 40.2004 57.7929C40.2004 58.1309 40.3153 58.4166 40.545 58.65C40.7747 58.8833 41.0594 59 41.3991 59ZM41.3991 54.2H48.591C48.9306 54.2 49.2171 54.0856 49.4504 53.857C49.6837 53.6283 49.8004 53.345 49.8004 53.007C49.8004 52.669 49.6855 52.3833 49.4558 52.15C49.226 51.9166 48.9413 51.8 48.6017 51.8H41.4098C41.0702 51.8 40.7837 51.9143 40.5504 52.1429C40.3171 52.3716 40.2004 52.6549 40.2004 52.9929C40.2004 53.3309 40.3153 53.6166 40.545 53.85C40.7747 54.0833 41.0594 54.2 41.3991 54.2ZM37.791 63.8C37.1306 63.8 36.5671 63.565 36.1004 63.095C35.6337 62.625 35.4004 62.06 35.4004 61.4V40.6C35.4004 39.94 35.6354 39.375 36.1054 38.905C36.5754 38.435 37.1404 38.2 37.8004 38.2H47.2004C47.5164 38.2 47.8177 38.2555 48.1041 38.3666C48.3905 38.4777 48.6559 38.6555 48.9004 38.9L53.9004 43.9C54.1448 44.1444 54.3226 44.4098 54.4337 44.6963C54.5448 44.9827 54.6004 45.2839 54.6004 45.6V61.4C54.6004 62.06 54.3653 62.625 53.895 63.095C53.4247 63.565 52.8594 63.8 52.1991 63.8H37.791ZM46.6004 45V40.6H37.8004V61.4H52.2004V46.2H47.8004C47.4604 46.2 47.1754 46.085 46.9454 45.855C46.7154 45.625 46.6004 45.34 46.6004 45Z" fill="#357BBF"/>
</g>
</g>
<defs>
<clipPath id="clip0_1337_11548">
<rect width="90" height="90" fill="white"/>
</clipPath>
</defs>
</svg>
