<svg width="19" height="17" viewBox="0 0 19 17" fill="none" xmlns="http://www.w3.org/2000/svg">
<path fill-rule="evenodd" clip-rule="evenodd" d="M17.3291 12.5232V12.523L17.8943 12.8314L16.6859 15.0497L16.6866 15.0501L16.655 15.1079C16.4928 15.4046 16.3492 15.6674 16.2055 15.8764C16.0449 16.1118 15.8576 16.3214 15.5914 16.4777C15.3259 16.6332 15.0502 16.6959 14.7667 16.7242C14.4962 16.75 14.1698 16.75 13.7978 16.75V15.4615C14.1955 15.4615 14.4472 15.4607 14.6396 15.4418C14.8183 15.4237 14.8913 15.3945 14.9385 15.3662C14.9858 15.3396 15.045 15.2915 15.143 15.148C15.2494 14.9917 15.3679 14.7771 15.5551 14.4337L15.5544 14.4333L16.763 12.2146L17.3291 12.5232ZM2.15934 14.8446L2.34855 14.7417V14.7415L2.91376 14.4333L1.70518 12.2146C1.57997 11.9955 1.46419 11.7711 1.35815 11.542C1.2967 11.3969 1.28783 11.3299 1.28856 11.2852H1.28858C1.28858 11.2397 1.29889 11.1735 1.36503 11.0284C1.43538 10.8733 1.54587 10.6814 1.72127 10.3767L1.72837 10.3644L6.3944 2.29078L8.55634 5.68811L3.26397 15.0515C3.17246 14.9052 3.06599 14.7111 2.91462 14.4333L1.78371 15.0499L1.78351 15.0495L2.15934 14.8446ZM1.78229 15.0497L2.34855 14.7409V14.7415L2.15934 14.8446L1.78229 15.0497ZM1.78335 15.0496V15.0501L1.78371 15.0499L1.78497 15.0522L1.78497 15.0522L1.78499 15.0523C1.95869 15.3723 2.11196 15.6547 2.26437 15.8764C2.425 16.1118 2.61226 16.3214 2.87854 16.4777C3.14396 16.6332 3.41969 16.6959 3.70315 16.7242C3.97352 16.75 4.29878 16.75 4.67122 16.75H4.67208H13.797V15.4615H4.67208H4.67122L4.51238 15.4615L6.69713 11.5962H12.6514C12.6638 11.5965 12.6762 11.5965 12.6886 11.5962H16.9649C17.0083 11.5962 17.0512 11.5918 17.0931 11.5833C17.0247 11.7347 16.9214 11.9248 16.7639 12.2145L16.7639 12.2146L16.7639 12.2146L16.7639 12.2146L17.8951 12.8314L17.9069 12.8098C18.0627 12.524 18.2007 12.2708 18.2963 12.0471C18.3993 11.8057 18.4724 11.5541 18.4681 11.268H18.4689C18.4607 10.999 18.3951 10.7348 18.2765 10.4932C18.1753 10.2715 18.0294 10.0199 17.8648 9.73607L17.8648 9.73604L17.8648 9.73597L17.8556 9.72016L16.8388 10.3077H16.8379L17.8548 9.72016V9.7193L13.1806 1.63108L13.1819 1.63034L13.1594 1.59149L13.1594 1.59147L13.1594 1.59143C12.9901 1.29905 12.8404 1.04067 12.6923 0.836646C12.5339 0.602029 12.3256 0.405234 12.0824 0.260274C11.8222 0.111672 11.5533 0.0515433 11.275 0.0249151C11.0196 -4.42054e-05 10.7142 -2.28497e-05 10.3659 1.51298e-06H10.3658L10.3319 4.83846e-06V1.28847H10.3319C10.7184 1.28847 10.9632 1.28847 11.1505 1.30736C11.3248 1.32454 11.397 1.35203 11.4434 1.37952C11.4898 1.40529 11.5482 1.45167 11.6469 1.58911C11.7543 1.73851 11.8745 1.94457 12.0651 2.2742L12.0644 2.27457L16.707 10.3077H13.0241L7.29793 1.30941L7.31772 1.30736C7.50583 1.28932 7.74978 1.28847 8.13718 1.28847H10.331V4.83846e-06H8.13718H8.13632C7.77555 4.83846e-06 7.45773 4.81465e-06 7.19317 0.025774C6.91572 0.0515433 6.64686 0.111672 6.38659 0.260274L6.38681 0.260656C6.14397 0.40531 5.93597 0.601669 5.77758 0.835787C5.62748 1.04426 5.47576 1.30616 5.30356 1.60342L5.28796 1.63034L6.37216 2.25584L6.37266 2.25662L5.2871 1.63034L0.613424 9.7193L0.596844 9.74797C0.435266 10.0274 0.292207 10.2748 0.192527 10.4932C0.0834369 10.7329 0.00355225 10.9828 0.000116349 11.268C-0.00331955 11.5541 0.0696933 11.8057 0.17277 12.0471C0.268303 12.2709 0.406349 12.524 0.562183 12.8099L0.573911 12.8314L1.78229 15.0497L1.78249 15.0501L1.78335 15.0496ZM11.4961 10.3077L9.34022 6.91993L7.4254 10.3077H11.4961ZM17.5194 11.2801C17.5192 11.2803 17.5191 11.2805 17.519 11.2807L18.4519 11.2682L17.5194 11.2801ZM1.78335 15.0496L1.78351 15.0495L1.78335 15.0492V15.0496ZM0.613424 9.7193L1.72837 10.3635V10.3644L0.613424 9.72016V9.7193Z" fill="#5C5C5C"/>
</svg>
