<svg width="150" height="32" viewBox="0 0 150 32" fill="none" xmlns="http://www.w3.org/2000/svg">
<g clip-path="url(#clip0_707_28392)">
<path d="M12.3219 10.292H17.8231V11.9423C17.8231 14.0691 16.099 15.7931 13.9723 15.7931H12.3219V10.292Z" fill="white"/>
<path d="M18.3732 11.9423V10.292H29.3754V15.7931H22.2239C20.0972 15.7931 18.3732 14.0691 18.3732 11.9423Z" fill="white"/>
<path d="M18.3732 20.194C18.3732 18.0673 20.0972 16.3432 22.2239 16.3432H23.8743V24.5949H18.3732V20.194Z" fill="white"/>
<path d="M36 16C36 7.71573 29.2843 1 21 1C12.7157 1 6 7.71573 6 16C6 24.2843 12.7157 31 21 31C29.2843 31 36 24.2843 36 16Z" fill="#FEF153"/>
<g clip-path="url(#clip1_707_28392)">
<path fill-rule="evenodd" clip-rule="evenodd" d="M26.0272 7.76305L26.0022 7.81698L26.0022 7.81698L26.0021 7.81702L25.0436 9.68041C25.0385 9.69068 25.041 9.69581 25.0523 9.69581L27.3774 9.74118C27.3806 9.74118 27.3835 9.74017 27.3859 9.73848C27.3943 9.73782 27.3968 9.73351 27.3921 9.72488L27.3901 9.72104C27.3683 9.67642 27.3108 9.56262 27.2321 9.40813C27.2326 9.40272 27.2361 9.39765 27.2419 9.39534C27.4292 9.31745 27.6259 9.26095 27.8329 9.22672C27.9235 8.87321 27.9692 8.44695 27.883 8.08489C27.8174 7.81013 27.6362 7.63894 27.3377 7.57132C27.0452 7.63295 26.7476 7.72796 26.4456 7.85635C26.4418 7.85848 26.4383 7.85891 26.4353 7.85786C26.3312 7.65711 26.2514 7.50441 26.2197 7.44633L26.2144 7.43608C26.2084 7.42495 26.2032 7.42495 26.1971 7.43608L26.1945 7.44121C26.1939 7.442 26.1933 7.44286 26.1928 7.44382L26.1752 7.47824L26.0272 7.76305Z" fill="#827E75"/>
<path d="M24.6581 9.66168C24.5856 9.58892 24.476 9.51617 24.3311 9.44341C23.4589 9.00517 22.5297 8.75095 21.5444 8.67905C21.0173 8.63882 20.4893 8.65594 19.9621 8.73212L19.454 8.82028C19.0597 8.90502 18.6758 9.01886 18.3022 9.16266C17.9364 9.30475 17.5844 9.47508 17.2445 9.6728C16.6578 10.0169 16.1281 10.4337 15.6561 10.9225C15.041 11.5584 14.557 12.2809 14.2033 13.0897C13.3992 14.9514 13.3983 17.0613 14.2093 18.9264C14.6174 18.3512 15.0384 17.7914 15.4741 17.2471C15.2653 16.3055 15.2912 15.376 15.5509 14.4584C16.1108 12.5531 17.6034 11.0894 19.5359 10.5698L20.0959 10.4526C20.4254 10.3995 20.7567 10.3755 21.0889 10.3815C21.4814 10.3875 21.8705 10.4337 22.2553 10.5202C22.5996 10.587 22.8963 10.7171 23.1474 10.9096C23.4606 11.1502 23.527 11.4677 23.3467 11.8615C23.7686 11.5422 24.1836 11.2306 24.5899 10.9285C24.6788 10.8617 24.759 10.7607 24.8306 10.6238C24.9721 10.2377 24.9143 9.91675 24.6581 9.66168ZM21.0509 10.3276C21.0509 10.3285 21.0509 10.3285 21.0501 10.3293C21.0501 10.3285 21.0501 10.3285 21.0509 10.3276ZM21.1061 10.3507C21.1061 10.3516 21.1053 10.3533 21.1061 10.3541C21.1053 10.3533 21.1061 10.3524 21.1061 10.3507ZM21.1104 10.3593C21.1096 10.3593 21.1096 10.3593 21.1104 10.3593C21.1096 10.3584 21.1087 10.3576 21.1079 10.3567C21.1087 10.3576 21.1087 10.3584 21.1104 10.3593ZM21.0501 10.3327C21.0501 10.3336 21.0509 10.3344 21.0518 10.3362C21.0509 10.3353 21.0509 10.3353 21.0501 10.3344C21.0492 10.3327 21.0501 10.3327 21.0501 10.3327ZM21.0518 10.337C21.0535 10.3379 21.0544 10.3387 21.057 10.3387C21.0552 10.3387 21.0535 10.3379 21.0518 10.337Z" fill="url(#paint0_linear_707_28392)"/>
<path d="M29.5249 8.65921C29.3937 8.14736 29.0849 7.79642 28.6 7.6064C28.1928 7.46859 27.7717 7.46945 27.3378 7.57302C27.6363 7.64064 27.8175 7.81183 27.883 8.08658C27.9693 8.44865 27.9236 8.87491 27.833 9.22841C27.7597 9.56309 27.6458 9.8892 27.4905 10.205C27.1954 10.8034 26.8659 11.3657 26.5018 11.8913L26.186 12.3518C25.5528 13.23 24.8764 14.0756 24.1577 14.8879L23.7531 15.3424C23.2371 15.9133 22.7057 16.4706 22.1578 17.0124L20.8948 18.227L20.2969 18.7671C19.7602 19.2472 19.2124 19.7069 18.6551 20.1451C18.2703 20.9472 19.1235 21.3529 19.7404 21.4838C19.7973 21.4445 19.837 21.4154 19.8595 21.3974C20.6497 20.7657 21.415 20.1058 22.1552 19.4159L23.1198 18.4966C23.6685 17.9565 24.2034 17.4061 24.7254 16.8438L25.5346 15.9424L26.5182 14.7715C26.953 14.2263 27.3792 13.6622 27.795 13.0793L27.8399 13.0091L27.9107 12.9047C28.2825 12.3655 28.619 11.8074 28.9209 11.2305C29.3118 10.4755 29.7095 9.51772 29.5249 8.65921ZM25.5372 15.8954C25.5364 15.8945 25.5355 15.8937 25.5346 15.8928C25.5355 15.8928 25.5355 15.8928 25.5364 15.8937C25.5372 15.8945 25.5372 15.8954 25.5372 15.8954ZM24.7107 15.2406C24.7098 15.2406 24.709 15.2414 24.7081 15.2423C24.709 15.2423 24.7098 15.2414 24.7107 15.2406ZM24.7055 15.244L24.7047 15.2448C24.7055 15.2448 24.7055 15.2448 24.7055 15.244ZM24.7029 15.25C24.7029 15.2508 24.7029 15.2508 24.7029 15.2517C24.7021 15.2508 24.7029 15.2508 24.7029 15.25ZM24.3337 15.0163C24.332 15.0172 24.3311 15.0189 24.3302 15.0206C24.332 15.0189 24.3328 15.0172 24.3337 15.0163ZM24.3242 15.0343C24.3242 15.0377 24.3242 15.0403 24.3251 15.0437C24.3242 15.0411 24.3242 15.0377 24.3242 15.0351V15.0343ZM24.1309 14.9436C24.1301 14.9453 24.1292 14.947 24.1275 14.9487C24.1284 14.9461 24.1301 14.9444 24.1309 14.9436ZM24.1258 14.9521C24.1249 14.9538 24.1249 14.9555 24.124 14.9573C24.124 14.9555 24.1249 14.9538 24.1258 14.9521ZM24.1223 14.9624C24.1223 14.9641 24.1215 14.9658 24.1215 14.9675C24.1223 14.9658 24.1223 14.9641 24.1223 14.9624ZM24.1318 15.0069C24.1327 15.0086 24.1335 15.0095 24.1344 15.0112C24.1344 15.0103 24.1335 15.0103 24.1335 15.0095C24.1327 15.0078 24.1318 15.0069 24.1318 15.0069ZM24.1232 14.9838C24.1232 14.9855 24.124 14.9872 24.1249 14.9898C24.124 14.9881 24.1232 14.9864 24.1232 14.9838ZM24.7185 15.2406C24.7211 15.2414 24.7228 15.2423 24.7245 15.2431C24.7228 15.2414 24.7211 15.2406 24.7185 15.2406ZM27.9132 12.8576C27.9141 12.8585 27.9158 12.8576 27.9167 12.8576C27.9158 12.8576 27.915 12.8576 27.9132 12.8576ZM27.9176 12.8559L27.9184 12.8551C27.9184 12.8559 27.9184 12.8559 27.9176 12.8559Z" fill="url(#paint1_linear_707_28392)"/>
<path d="M23.1483 10.9095C22.8981 10.7169 22.6004 10.5868 22.2562 10.52C21.8067 10.8744 21.3676 11.239 20.9388 11.6122L20.6256 11.8853C19.6697 12.7335 18.75 13.6185 17.8648 14.5404C17.0452 15.3921 16.2627 16.2754 15.5164 17.1904C15.4914 17.2109 15.4767 17.2298 15.4741 17.2469C15.0384 17.7913 14.6174 18.3511 14.2093 18.9263L13.8841 19.4133C13.671 19.7377 13.4742 20.0612 13.2931 20.3848C12.9652 20.9634 12.6667 21.6071 12.5088 22.2533C12.1991 23.4756 12.7858 24.5412 14.1601 24.5062C14.3154 24.4967 14.4888 24.4711 14.6804 24.43C14.4379 24.3846 14.2723 24.2673 14.1817 24.0782C14.0074 23.7118 14.0695 23.1563 14.1731 22.7789C14.2654 22.2918 14.4888 21.8253 14.7106 21.4008C15.33 20.2829 16.1005 19.2198 16.902 18.2321C17.4351 17.5756 17.9899 16.9379 18.5653 16.319L19.1235 15.725L20.2468 14.5952C20.818 14.0388 21.4055 13.497 22.0094 12.9697L22.0569 12.9295C22.4865 12.5555 22.9171 12.1994 23.3467 11.8604C23.527 11.4667 23.4606 11.15 23.1483 10.9095ZM14.6864 21.3648C14.6838 21.3657 14.6821 21.3674 14.6812 21.3691C14.683 21.3674 14.6847 21.3657 14.6864 21.3648ZM14.7028 21.3143C14.7028 21.3135 14.7019 21.3118 14.7011 21.3109C14.7011 21.3118 14.7019 21.3135 14.7028 21.3143ZM14.6985 21.3109C14.6976 21.3109 14.6976 21.3101 14.6968 21.3109C14.6976 21.3101 14.6985 21.3109 14.6985 21.3109ZM13.3112 20.4233C13.3103 20.4242 13.3095 20.425 13.3095 20.4267C13.3095 20.4259 13.3095 20.4259 13.3103 20.425C13.3103 20.4242 13.3112 20.4233 13.3112 20.4233ZM13.3077 20.4473C13.3077 20.4481 13.3086 20.449 13.3095 20.4498C13.3086 20.449 13.3086 20.4481 13.3077 20.4473ZM13.3069 20.4421C13.3069 20.4438 13.3069 20.4447 13.3069 20.4464C13.3069 20.4456 13.3069 20.4438 13.3069 20.4421ZM13.3103 20.4507C13.312 20.4524 13.3138 20.4533 13.3164 20.4533H13.3155C13.3129 20.4533 13.3112 20.4515 13.3103 20.4507ZM14.6847 21.3871L14.6855 21.3879C14.6855 21.3879 14.6855 21.3871 14.6847 21.3871ZM15.8106 17.3633C15.8097 17.3616 15.808 17.3599 15.8071 17.359C15.808 17.3607 15.8088 17.3616 15.8106 17.3633ZM15.8149 17.3744C15.8149 17.3727 15.814 17.3701 15.8132 17.3684C15.814 17.3701 15.814 17.3719 15.8149 17.3744ZM15.5328 17.1913C15.5336 17.1913 15.5336 17.1921 15.5336 17.1921C15.5328 17.1913 15.5319 17.1904 15.5302 17.1904C15.531 17.1913 15.5319 17.1913 15.5328 17.1913ZM15.789 17.3505C15.7899 17.3505 15.7907 17.3513 15.7925 17.3513C15.7899 17.3505 15.7864 17.3505 15.7838 17.3505C15.7847 17.3496 15.7864 17.3496 15.789 17.3505ZM15.8019 17.3556C15.8002 17.3547 15.7985 17.3539 15.7968 17.353C15.7994 17.3539 15.8011 17.3547 15.8019 17.3556ZM18.3816 14.9487C18.3807 14.9487 18.379 14.9478 18.3781 14.9478C18.379 14.9478 18.3798 14.9478 18.3816 14.9487ZM18.3773 14.9478C18.3755 14.9478 18.3738 14.9478 18.3721 14.9487C18.3738 14.9478 18.3755 14.947 18.3773 14.9478ZM18.3678 14.9521C18.3669 14.9538 18.366 14.9555 18.366 14.9572C18.366 14.9547 18.3669 14.9538 18.3678 14.9521ZM19.1028 15.707V15.7079C19.1028 15.7079 19.1028 15.7079 19.1028 15.707ZM19.1037 15.7096C19.1037 15.7096 19.1046 15.7105 19.1054 15.7105C19.1046 15.7096 19.1037 15.7096 19.1037 15.7096Z" fill="url(#paint2_linear_707_28392)"/>
<path d="M27.795 13.0776C27.3783 13.6605 26.953 14.2246 26.5182 14.7698C26.5294 14.7716 26.5363 14.7784 26.5397 14.7929C26.7011 15.5513 26.7106 16.3105 26.5673 17.0706C26.469 17.5645 26.3094 18.0353 26.0885 18.4838C25.8331 18.9948 25.5079 19.4578 25.1119 19.8721L24.6797 20.2787C24.3164 20.5868 23.9187 20.847 23.4856 21.0576C22.5409 21.5087 21.5418 21.6902 20.4884 21.6011C20.2356 21.5772 19.9871 21.5378 19.7413 21.4822C19.1244 21.3512 18.2711 20.9446 18.6559 20.1435C18.2849 20.4251 17.92 20.6998 17.5585 20.9694C17.4231 21.0704 17.3307 21.1501 17.2833 21.2083C17.0063 21.5412 17.0512 22.0522 17.3454 22.3458C17.4136 22.4143 17.5145 22.4819 17.6491 22.5495C18.8707 23.1615 20.1726 23.42 21.5548 23.3259C22.2967 23.2694 23.0128 23.1076 23.7047 22.8414C23.9756 22.7361 24.2371 22.6163 24.4907 22.4819C24.9298 22.2499 25.3397 21.976 25.721 21.6628L26.2197 21.2142C26.5518 20.8864 26.8495 20.5321 27.1126 20.152C27.4275 19.6967 27.6863 19.213 27.8899 18.7012C28.0944 18.1808 28.2394 17.645 28.3239 17.0929C28.5241 15.7062 28.3481 14.3684 27.795 13.0776ZM23.5727 21.0764C23.5719 21.0756 23.571 21.0739 23.5702 21.073C23.571 21.0739 23.5719 21.0747 23.5727 21.0764ZM23.5684 21.0704C23.5676 21.0696 23.5667 21.0696 23.5658 21.0687C23.5667 21.0696 23.5676 21.0704 23.5684 21.0704ZM23.5633 21.0679C23.5624 21.0679 23.5615 21.0679 23.5607 21.0679C23.5615 21.067 23.5624 21.067 23.5633 21.0679ZM23.5037 21.0722L23.5046 21.0713C23.5037 21.0722 23.5037 21.0722 23.5037 21.0722ZM23.5054 21.0687C23.5054 21.0679 23.5054 21.067 23.5054 21.0653C23.5054 21.0662 23.5063 21.0662 23.5063 21.067C23.5054 21.0679 23.5054 21.0679 23.5054 21.0687ZM23.5046 21.0645C23.5037 21.0627 23.5029 21.0619 23.5011 21.0619C23.502 21.0619 23.5029 21.0627 23.5046 21.0645ZM23.5563 21.067C23.5546 21.067 23.552 21.0679 23.5503 21.0687C23.552 21.067 23.5538 21.067 23.5563 21.067ZM25.9194 20.746C25.9194 20.7452 25.9203 20.7435 25.9203 20.7426C25.9203 20.7435 25.9203 20.7443 25.9194 20.746ZM25.9211 20.7366C25.9211 20.7358 25.9211 20.7341 25.9211 20.7332C25.9211 20.7341 25.9211 20.7349 25.9211 20.7366ZM25.9194 20.7281C25.9186 20.7264 25.9177 20.7246 25.9168 20.7229C25.9168 20.7238 25.9177 20.7238 25.9186 20.7246C25.9186 20.7255 25.9186 20.7264 25.9194 20.7281ZM25.9142 20.7204C25.9125 20.7187 25.9117 20.7178 25.9099 20.7161C25.9117 20.7169 25.9134 20.7187 25.9142 20.7204ZM25.9073 20.7144C25.9056 20.7135 25.9039 20.7127 25.9013 20.7118C25.903 20.7127 25.9056 20.7135 25.9073 20.7144ZM25.8987 20.7109C25.8953 20.7109 25.8927 20.7109 25.8892 20.7109C25.8918 20.7109 25.8953 20.7109 25.8987 20.7109ZM25.2137 19.8054C25.2128 19.8045 25.2111 19.8036 25.2085 19.8036C25.2111 19.8028 25.2128 19.8036 25.2137 19.8054ZM26.6269 16.973C26.626 16.9722 26.6252 16.9722 26.6252 16.9713C26.626 16.9713 26.6269 16.9722 26.6269 16.973Z" fill="url(#paint3_linear_707_28392)"/>
<path fill-rule="evenodd" clip-rule="evenodd" d="M15.902 22.2893L16.9511 22.3099C16.9614 22.3099 16.9649 22.315 16.9597 22.3244L16.4308 23.3541L16.405 23.4098L15.8079 24.5644C15.8045 24.5704 15.7976 24.5722 15.7915 24.5696C15.7898 24.5687 15.7872 24.567 15.7864 24.5644L15.575 24.152C15.5701 24.1468 15.5637 24.1459 15.5561 24.1493C15.2611 24.2717 14.9695 24.3659 14.6813 24.4309C14.4389 24.3855 14.2732 24.2683 14.1826 24.0791C14.0084 23.7128 14.0705 23.1573 14.174 22.7798C14.3794 22.737 14.5769 22.6814 14.7667 22.612C14.7754 22.6095 14.7754 22.5983 14.7667 22.5795C14.7674 22.5792 14.768 22.5788 14.7686 22.5785L14.6156 22.2799C14.6096 22.2688 14.613 22.2637 14.626 22.2637L15.902 22.2893Z" fill="#827E75"/>
</g>
<path d="M56.054 7.53523V10.3323H51.665V22.1094H48.389V10.3323H44V7.53523H56.054ZM55.8455 16.6625C55.8455 15.681 55.9925 14.8258 56.2865 14.0967C56.594 13.3537 56.993 12.7367 57.4835 12.2461C57.9733 11.7554 58.5335 11.3838 59.1635 11.1314C59.807 10.8791 60.4655 10.7529 61.1375 10.7529C62.7051 10.7529 63.944 11.2366 64.8546 12.204C65.7643 13.1574 66.2196 14.5664 66.2196 16.4311C66.2196 16.6134 66.2121 16.8167 66.1986 17.041C66.1843 17.2513 66.1701 17.4406 66.1566 17.6088H59.0585C59.1283 18.2538 59.429 18.7655 59.9615 19.1441C60.4933 19.5226 61.2073 19.7119 62.1035 19.7119C62.6773 19.7119 63.2376 19.6628 63.7836 19.5647C64.3431 19.4525 64.7983 19.3193 65.1486 19.1651L65.5686 21.7098C65.4006 21.7939 65.1763 21.878 64.8966 21.9621C64.6161 22.0463 64.3011 22.1163 63.9516 22.1725C63.6156 22.2425 63.2511 22.2986 62.8595 22.3407C62.4673 22.3828 62.075 22.4038 61.6835 22.4038C60.689 22.4038 59.8213 22.2566 59.0795 21.9621C58.3513 21.6677 57.7423 21.2681 57.2525 20.7634C56.7763 20.2446 56.4193 19.6347 56.1815 18.9338C55.9573 18.2328 55.8455 17.4757 55.8455 16.6625ZM63.1955 15.4637C63.1813 15.1973 63.1325 14.938 63.0485 14.6856C62.978 14.4332 62.8596 14.2089 62.6915 14.0126C62.537 13.8164 62.3345 13.6551 62.0825 13.5289C61.844 13.4027 61.5433 13.3396 61.1795 13.3396C60.8293 13.3396 60.5285 13.4027 60.2765 13.5289C60.0245 13.6411 59.8145 13.7953 59.6465 13.9916C59.4785 14.1878 59.345 14.4192 59.2475 14.6856C59.1635 14.938 59.1005 15.1973 59.0585 15.4637H63.1955ZM75.2908 13.8233C75.0111 13.7533 74.6818 13.6831 74.3038 13.613C73.9258 13.5289 73.5201 13.4869 73.0858 13.4869C72.8901 13.4869 72.6523 13.5079 72.3718 13.5499C72.1063 13.578 71.9031 13.613 71.7628 13.6551V22.1094H68.6338V11.6362C69.1941 11.4399 69.8518 11.2576 70.6078 11.0894C71.3781 10.9071 72.2323 10.816 73.1698 10.816C73.3378 10.816 73.5411 10.83 73.7788 10.858C74.0173 10.8721 74.2551 10.9001 74.4928 10.9422C74.7313 10.9702 74.9691 11.0122 75.2068 11.0683C75.4453 11.1104 75.6478 11.1665 75.8158 11.2366L75.2908 13.8233ZM83.5626 16.2419C83.5626 15.2324 83.4291 14.5174 83.1636 14.0967C82.9116 13.6761 82.4706 13.4658 81.8406 13.4658C81.6441 13.4658 81.4416 13.4799 81.2316 13.5079C81.0216 13.5219 80.8183 13.543 80.6226 13.571V22.1094H77.4936V11.4259C77.7591 11.3558 78.0673 11.2856 78.4176 11.2156C78.7813 11.1314 79.1593 11.0614 79.5516 11.0053C79.9573 10.9352 80.3706 10.8861 80.7906 10.858C81.2106 10.816 81.6231 10.795 82.0296 10.795C82.8276 10.795 83.4711 10.9001 83.9616 11.1104C84.4656 11.3067 84.8781 11.5451 85.2006 11.8254C85.6484 11.503 86.1591 11.2506 86.7336 11.0683C87.3216 10.8861 87.8601 10.795 88.3506 10.795C89.2326 10.795 89.9534 10.9211 90.5136 11.1735C91.0874 11.4118 91.5426 11.7554 91.8786 12.204C92.2146 12.6526 92.4456 13.1854 92.5716 13.8023C92.6976 14.4192 92.7606 15.1062 92.7606 15.8633V22.1094H89.6316V16.2419C89.6316 15.2324 89.4981 14.5174 89.2326 14.0967C88.9806 13.6761 88.5396 13.4658 87.9096 13.4658C87.7416 13.4658 87.5031 13.5079 87.1956 13.592C86.9016 13.6761 86.6564 13.7813 86.4606 13.9075C86.5581 14.2299 86.6211 14.5735 86.6496 14.938C86.6774 15.2885 86.6916 15.667 86.6916 16.0736V22.1094H83.5626V16.2419ZM98.7306 22.1094H95.6016V11.0473H98.7306V22.1094ZM99.0246 7.85068C99.0246 8.42549 98.8356 8.88118 98.4576 9.21767C98.0939 9.54011 97.6596 9.70137 97.1556 9.70137C96.6516 9.70137 96.2106 9.54011 95.8326 9.21767C95.4689 8.88118 95.2866 8.42549 95.2866 7.85068C95.2866 7.27588 95.4689 6.82718 95.8326 6.50473C96.2106 6.16824 96.6516 6 97.1556 6C97.6596 6 98.0939 6.16824 98.4576 6.50473C98.8356 6.82718 99.0246 7.27588 99.0246 7.85068ZM108.749 16.6625C108.749 15.6951 108.532 14.9239 108.098 14.3491C107.664 13.7603 107.02 13.4658 106.166 13.4658C105.886 13.4658 105.627 13.4799 105.389 13.5079C105.151 13.5219 104.955 13.543 104.801 13.571V19.2282C104.997 19.3544 105.249 19.4595 105.557 19.5436C105.879 19.6278 106.201 19.6698 106.523 19.6698C108.007 19.6698 108.749 18.6673 108.749 16.6625ZM111.941 16.5783C111.941 17.4336 111.836 18.2117 111.626 18.9127C111.416 19.6137 111.108 20.2166 110.702 20.7213C110.296 21.2261 109.792 21.6187 109.19 21.8991C108.588 22.1794 107.895 22.3197 107.111 22.3197C106.677 22.3197 106.271 22.2776 105.893 22.1935C105.515 22.1094 105.151 21.9902 104.801 21.836V26H101.672V11.4259C101.952 11.3417 102.274 11.2646 102.638 11.1945C103.002 11.1104 103.38 11.0403 103.772 10.9842C104.178 10.9281 104.584 10.8861 104.99 10.858C105.41 10.816 105.809 10.795 106.187 10.795C107.097 10.795 107.909 10.9352 108.623 11.2156C109.337 11.482 109.939 11.8675 110.429 12.3722C110.919 12.8629 111.29 13.4658 111.542 14.1809C111.808 14.8959 111.941 15.6951 111.941 16.5783ZM118.567 19.9222C118.875 19.9222 119.169 19.9152 119.449 19.9012C119.729 19.8871 119.953 19.8661 120.121 19.8381V17.4616C119.995 17.4336 119.806 17.4055 119.554 17.3775C119.302 17.3495 119.071 17.3354 118.861 17.3354C118.567 17.3354 118.287 17.3565 118.021 17.3985C117.769 17.4265 117.545 17.4896 117.349 17.5878C117.153 17.686 116.999 17.8191 116.887 17.9874C116.775 18.1556 116.719 18.3659 116.719 18.6183C116.719 19.109 116.88 19.4525 117.202 19.6488C117.538 19.8311 117.993 19.9222 118.567 19.9222ZM118.315 10.7529C119.239 10.7529 120.009 10.858 120.625 11.0683C121.241 11.2787 121.731 11.5801 122.095 11.9727C122.473 12.3653 122.739 12.8419 122.893 13.4027C123.047 13.9636 123.124 14.5874 123.124 15.2744V21.7939C122.676 21.8921 122.053 22.0042 121.255 22.1304C120.457 22.2706 119.491 22.3407 118.357 22.3407C117.643 22.3407 116.992 22.2776 116.404 22.1514C115.83 22.0252 115.333 21.8219 114.913 21.5415C114.493 21.2471 114.171 20.8686 113.947 20.4059C113.723 19.9432 113.611 19.3754 113.611 18.7024C113.611 18.0575 113.737 17.5107 113.989 17.062C114.255 16.6134 114.605 16.2559 115.039 15.9895C115.473 15.7231 115.97 15.5338 116.53 15.4217C117.09 15.2955 117.671 15.2324 118.273 15.2324C118.679 15.2324 119.036 15.2534 119.344 15.2955C119.666 15.3235 119.925 15.3656 120.121 15.4217V15.1272C120.121 14.5945 119.96 14.1668 119.638 13.8444C119.316 13.5219 118.756 13.3607 117.958 13.3607C117.426 13.3607 116.901 13.4027 116.383 13.4869C115.865 13.5569 115.417 13.6621 115.039 13.8023L114.64 11.2787C114.822 11.2225 115.046 11.1665 115.312 11.1104C115.592 11.0403 115.893 10.9842 116.215 10.9422C116.537 10.8861 116.873 10.844 117.223 10.816C117.587 10.7739 117.951 10.7529 118.315 10.7529ZM129.124 19.8591C129.698 19.8591 130.105 19.803 130.342 19.6909C130.58 19.5787 130.699 19.3613 130.699 19.0389C130.699 18.7865 130.546 18.5693 130.237 18.387C129.929 18.1907 129.46 17.9733 128.83 17.735C128.341 17.5527 127.892 17.3635 127.486 17.1672C127.094 16.9709 126.758 16.7396 126.478 16.4732C126.199 16.1928 125.981 15.8633 125.827 15.4848C125.674 15.1062 125.596 14.6505 125.596 14.1178C125.596 13.0803 125.981 12.2601 126.751 11.6572C127.522 11.0543 128.578 10.7529 129.922 10.7529C130.594 10.7529 131.239 10.816 131.854 10.9422C132.47 11.0543 132.961 11.1805 133.324 11.3207L132.778 13.7603C132.415 13.6341 132.016 13.5219 131.581 13.4238C131.161 13.3256 130.685 13.2766 130.153 13.2766C129.173 13.2766 128.683 13.5499 128.683 14.0967C128.683 14.2229 128.704 14.3351 128.746 14.4332C128.788 14.5314 128.872 14.6295 128.998 14.7277C129.124 14.8118 129.292 14.9099 129.502 15.0221C129.727 15.1202 130.006 15.2324 130.342 15.3586C131.029 15.6109 131.596 15.8633 132.043 16.1157C132.491 16.354 132.841 16.6204 133.093 16.9148C133.36 17.1952 133.541 17.5107 133.639 17.8612C133.751 18.2117 133.807 18.6183 133.807 19.081C133.807 20.1746 133.394 21.0017 132.568 21.5626C131.756 22.1234 130.601 22.4038 129.103 22.4038C128.123 22.4038 127.304 22.3197 126.646 22.1514C126.002 21.9832 125.554 21.8429 125.302 21.7308L125.827 19.1861C126.359 19.3964 126.905 19.5647 127.465 19.6909C128.026 19.803 128.578 19.8591 129.124 19.8591ZM139.317 19.8591C139.891 19.8591 140.297 19.803 140.535 19.6909C140.773 19.5787 140.892 19.3613 140.892 19.0389C140.892 18.7865 140.738 18.5693 140.43 18.387C140.122 18.1907 139.653 17.9733 139.023 17.735C138.533 17.5527 138.085 17.3635 137.679 17.1672C137.287 16.9709 136.951 16.7396 136.671 16.4732C136.391 16.1928 136.174 15.8633 136.02 15.4848C135.866 15.1062 135.789 14.6505 135.789 14.1178C135.789 13.0803 136.174 12.2601 136.944 11.6572C137.714 11.0543 138.771 10.7529 140.115 10.7529C140.787 10.7529 141.431 10.816 142.047 10.9422C142.663 11.0543 143.153 11.1805 143.517 11.3207L142.971 13.7603C142.607 13.6341 142.208 13.5219 141.774 13.4238C141.354 13.3256 140.878 13.2766 140.346 13.2766C139.366 13.2766 138.876 13.5499 138.876 14.0967C138.876 14.2229 138.897 14.3351 138.939 14.4332C138.981 14.5314 139.065 14.6295 139.191 14.7277C139.317 14.8118 139.485 14.9099 139.695 15.0221C139.919 15.1202 140.199 15.2324 140.535 15.3586C141.221 15.6109 141.788 15.8633 142.236 16.1157C142.684 16.354 143.034 16.6204 143.286 16.9148C143.552 17.1952 143.734 17.5107 143.832 17.8612C143.944 18.2117 144 18.6183 144 19.081C144 20.1746 143.587 21.0017 142.761 21.5626C141.949 22.1234 140.794 22.4038 139.296 22.4038C138.316 22.4038 137.497 22.3197 136.839 22.1514C136.195 21.9832 135.747 21.8429 135.495 21.7308L136.02 19.1861C136.552 19.3964 137.098 19.5647 137.658 19.6909C138.218 19.803 138.771 19.8591 139.317 19.8591Z" fill="#1F1814"/>
</g>
<defs>
<linearGradient id="paint0_linear_707_28392" x1="23.3377" y1="9.37659" x2="14.3766" y2="17.948" gradientUnits="userSpaceOnUse">
<stop stop-color="#1A130F"/>
<stop offset="1" stop-color="#605B50"/>
</linearGradient>
<linearGradient id="paint1_linear_707_28392" x1="29.0741" y1="7.91354" x2="19.3345" y2="20.3764" gradientUnits="userSpaceOnUse">
<stop stop-color="#1A130F"/>
<stop offset="1" stop-color="#605B50"/>
</linearGradient>
<linearGradient id="paint2_linear_707_28392" x1="22.948" y1="10.9348" x2="13.2078" y2="23.4024" gradientUnits="userSpaceOnUse">
<stop stop-color="#605B50"/>
<stop offset="1" stop-color="#1A130F"/>
</linearGradient>
<linearGradient id="paint3_linear_707_28392" x1="27.8932" y1="13.3821" x2="21.6172" y2="24.6121" gradientUnits="userSpaceOnUse">
<stop stop-color="#605B50"/>
<stop offset="1" stop-color="#1A130F"/>
</linearGradient>
<clipPath id="clip0_707_28392">
<rect width="150" height="32" fill="white"/>
</clipPath>
<clipPath id="clip1_707_28392">
<rect width="17.1429" height="17.1429" fill="white" transform="translate(12.4286 7.42847)"/>
</clipPath>
</defs>
</svg>
