<svg width="72" height="72" viewBox="0 0 72 72" fill="none" xmlns="http://www.w3.org/2000/svg">
<g id="Ebook">
<path id="Subtract" d="M9 9C9 5.27208 12.0221 2.25 15.75 2.25H60.75C61.9926 2.25 63 3.25736 63 4.5V67.5C63 68.7426 61.9926 69.75 60.75 69.75H15.75C12.0221 69.75 9 66.7279 9 63V9Z" fill="#FF9059"/>
<path id="Rectangle 22873" d="M13.5 61.875C13.5 60.011 15.011 58.5 16.875 58.5H56.25C57.4926 58.5 58.5 59.5074 58.5 60.75V63C58.5 64.2426 57.4926 65.25 56.25 65.25H16.875C15.011 65.25 13.5 63.739 13.5 61.875Z" fill="white"/>
<path id="Rectangle 22874" d="M45 2.25H58.5V24.75L51.75 20.25L45 24.75V2.25Z" fill="#FFC3A6"/>
</g>
</svg>
