<svg width="72" height="72" viewBox="0 0 72 72" fill="none" xmlns="http://www.w3.org/2000/svg">
<g id="&#230;&#156;&#170;&#231;&#159;&#165;&#230;&#150;&#135;&#228;&#187;&#182;">
<path id="Subtract" fill-rule="evenodd" clip-rule="evenodd" d="M12.15 2.25C10.4103 2.25 9 3.6603 9 5.4V66.6C9 68.3397 10.4103 69.75 12.15 69.75H59.85C61.5897 69.75 63 68.3397 63 66.6V20.25H49.5C47.0147 20.25 45 18.2353 45 15.75V2.25H12.15Z" fill="#E0E0E0"/>
<path id="Rectangle 4311" d="M48.15 20.25H63L45 2.25V17.1C45 18.8397 46.4103 20.25 48.15 20.25Z" fill="#CACACA"/>
<path id="?" d="M29.824 33.2688C29.8069 33.5753 30.0598 33.8236 30.3668 33.8236H32.2218C32.5325 33.8236 32.7795 33.5703 32.8213 33.2624C33.0214 31.7862 34.0346 30.7101 35.8407 30.7101C37.3832 30.7101 38.7972 31.4813 38.7972 33.338C38.7972 34.7662 37.9545 35.4232 36.6263 36.423C35.1124 37.5227 33.9126 38.8081 33.9983 40.8933L34.005 41.3811C34.0092 41.6887 34.2598 41.9359 34.5675 41.9359H36.3923C36.7029 41.9359 36.9548 41.6841 36.9548 41.3734V41.1361C36.9548 39.5222 37.5689 39.0509 39.2256 37.7941C40.5967 36.7515 42.0249 35.5946 42.0249 33.1666C42.0249 29.7675 39.1542 28.125 36.0121 28.125C33.1612 28.125 30.0367 29.4539 29.824 33.2688ZM33.3271 46.2349C33.3271 47.4346 34.284 48.3201 35.5979 48.3201C36.969 48.3201 37.9117 47.4346 37.9117 46.2349C37.9117 44.9923 36.969 44.1211 35.5979 44.1211C34.284 44.1211 33.3271 44.9923 33.3271 46.2349Z" fill="white"/>
</g>
</svg>
