<svg width="72" height="72" viewBox="0 0 72 72" fill="none" xmlns="http://www.w3.org/2000/svg">
<g id="&#232;&#167;&#134;&#233;&#162;&#145;">
<path id="Subtract" fill-rule="evenodd" clip-rule="evenodd" d="M12.15 2.25C10.4103 2.25 9 3.6603 9 5.4V66.6C9 68.3397 10.4103 69.75 12.15 69.75H59.85C61.5897 69.75 63 68.3397 63 66.6V20.25H49.5C47.0147 20.25 45 18.2353 45 15.75V2.25H12.15Z" fill="#4CC5C3"/>
<path id="Rectangle 4311" d="M48.15 20.25H63L45 2.25V17.1C45 18.8397 46.4103 20.25 48.15 20.25Z" fill="#82D6D5"/>
<path id="Vector" d="M44.2791 28.8002L32.0391 32.0402C30.5991 32.7602 29.5191 33.8402 29.5191 35.2802V46.8002C29.5191 46.8002 28.4391 46.0802 26.6391 46.4402C24.1191 46.8002 21.5991 48.9602 21.5991 51.1202C21.5991 53.2802 24.1191 54.3602 26.6391 54.0002C29.5191 53.6402 31.6791 51.8402 31.6791 49.6802V38.5202C31.6791 37.8002 33.1191 37.0802 33.1191 37.0802L43.5591 34.2002C43.5591 34.2002 44.6391 33.8402 44.6391 34.9202V43.9202C44.6391 43.9202 43.5591 43.2002 41.7591 43.5602C38.8791 43.9202 36.7191 45.7202 36.7191 47.8802C36.7191 50.0402 39.2391 51.4802 41.7591 51.1202C44.2791 50.7602 46.7991 48.9602 46.7991 46.8002V30.6002C46.7991 29.1602 45.3591 28.4402 44.2791 28.8002Z" fill="white"/>
</g>
</svg>
