<svg width="72" height="72" viewBox="0 0 72 72" fill="none" xmlns="http://www.w3.org/2000/svg">
<g id="&#232;&#167;&#134;&#233;&#162;&#145;">
<path id="Subtract" fill-rule="evenodd" clip-rule="evenodd" d="M12.15 2.25C10.4103 2.25 9 3.6603 9 5.4V66.6C9 68.3397 10.4103 69.75 12.15 69.75H59.85C61.5897 69.75 63 68.3397 63 66.6V20.25H49.5C47.0147 20.25 45 18.2353 45 15.75V2.25H12.15Z" fill="#FAA239"/>
<path id="Rectangle 4311" d="M48.15 20.25H63L45 2.25V17.1C45 18.8397 46.4103 20.25 48.15 20.25Z" fill="#FCBE74"/>
<g id="Group 40211">
<path id="Vector" d="M48.5991 41.85C48.5991 48.7758 42.925 54.45 35.9991 54.45C29.0732 54.45 23.3991 48.7758 23.3991 41.85C23.3991 34.9241 29.0732 29.25 35.9991 29.25C42.925 29.25 48.5991 34.9241 48.5991 41.85Z" stroke="white" stroke-width="3.6"/>
<path id="Vector_2" d="M41.7584 42.5697L41.3984 42.9297L34.9184 47.2497C34.1984 47.6097 33.1184 47.6097 32.7584 46.8897C32.3984 46.8897 32.3984 46.5297 32.3984 46.1697V37.1697C32.3984 36.4497 33.1184 35.7297 33.8384 35.7297C34.1984 35.7297 34.5584 36.0897 34.5584 36.0897L41.3984 40.7697C42.1184 41.1297 42.1184 41.8497 41.7584 42.5697Z" fill="white"/>
</g>
</g>
</svg>
