<svg width="20" height="20" viewBox="0 0 20 20" fill="none" xmlns="http://www.w3.org/2000/svg">
<circle cx="10" cy="10" r="9.5" fill="#5BCCF3" stroke="#5BCCF3"/>
<g clip-path="url(#clip0_524_5508)">
<path d="M13.6966 6.48296C13.7561 6.42219 13.8272 6.37391 13.9057 6.34095C13.9841 6.30799 14.0683 6.29102 14.1534 6.29102C14.2385 6.29102 14.3228 6.30799 14.4012 6.34095C14.4797 6.37391 14.5508 6.42219 14.6103 6.48296C14.8599 6.73518 14.8634 7.14275 14.619 7.39934L9.4585 13.4998C9.39991 13.5641 9.32881 13.6158 9.24955 13.6517C9.17029 13.6877 9.08453 13.707 8.99753 13.7087C8.91052 13.7103 8.8241 13.6942 8.74354 13.6612C8.66299 13.6283 8.59 13.5793 8.52903 13.5172L5.38889 10.3352C5.26779 10.2117 5.19995 10.0456 5.19995 9.87268C5.19995 9.6997 5.26779 9.53363 5.38889 9.41013C5.44845 9.34935 5.51954 9.30107 5.59799 9.26812C5.67644 9.23516 5.76068 9.21818 5.84578 9.21818C5.93087 9.21818 6.01511 9.23516 6.09356 9.26812C6.17201 9.30107 6.2431 9.34935 6.30266 9.41013L8.96628 12.1095L13.6791 6.50216C13.6845 6.49542 13.6904 6.489 13.6966 6.48296Z" fill="#0D0D0D"/>
</g>
<defs>
<clipPath id="clip0_524_5508">
<rect width="9.6" height="9.6" fill="white" transform="translate(5.19995 5.19995)"/>
</clipPath>
</defs>
</svg>
