<svg width="32" height="32" viewBox="0 0 32 32" fill="none" xmlns="http://www.w3.org/2000/svg">
<rect width="32" height="32" rx="7.31429" fill="url(#paint0_linear_95_8625)"/>
<rect width="32" height="32" rx="8" fill="url(#paint1_linear_95_8625)"/>
<circle cx="16" cy="15.9999" r="11.6571" fill="url(#paint2_linear_95_8625)"/>
<circle cx="16.0001" cy="15.9997" r="6.87621" fill="url(#paint3_linear_95_8625)"/>
<path fill-rule="evenodd" clip-rule="evenodd" d="M16.7478 17.068C16.7247 16.8576 16.8522 16.6633 17.0364 16.5589C17.6748 16.1973 18.1057 15.5118 18.1057 14.7256C18.1057 13.5628 17.163 12.6201 16.0002 12.6201C14.8373 12.6201 13.8947 13.5628 13.8947 14.7256C13.8947 15.491 14.3031 16.161 14.9138 16.5296C15.0909 16.6365 15.2114 16.8278 15.188 17.0333L14.9784 18.871C14.9475 19.1422 15.1596 19.38 15.4326 19.38H16.4915C16.7637 19.38 16.9756 19.1435 16.9459 18.8729L16.7478 17.068Z" fill="#3B3530"/>
<circle cx="16.0174" cy="16.0173" r="9.61739" transform="rotate(-180 16.0174 16.0173)" stroke="#CECECE" stroke-width="0.457143" stroke-dasharray="0.23 0.91"/>
<defs>
<linearGradient id="paint0_linear_95_8625" x1="30.8" y1="32" x2="0" y2="0" gradientUnits="userSpaceOnUse">
<stop stop-color="#FFEB3B"/>
<stop offset="1" stop-color="#FFF68D"/>
</linearGradient>
<linearGradient id="paint1_linear_95_8625" x1="30.8" y1="32" x2="3.07692" y2="1.84615" gradientUnits="userSpaceOnUse">
<stop stop-color="#FFE03B"/>
<stop offset="1" stop-color="#FFF68D"/>
</linearGradient>
<linearGradient id="paint2_linear_95_8625" x1="16" y1="4.34277" x2="16" y2="27.6571" gradientUnits="userSpaceOnUse">
<stop stop-color="#313131"/>
<stop offset="1" stop-color="#414141"/>
</linearGradient>
<linearGradient id="paint3_linear_95_8625" x1="16.0001" y1="9.12354" x2="16.2768" y2="22.8747" gradientUnits="userSpaceOnUse">
<stop stop-color="#FFF485"/>
<stop offset="1" stop-color="#FFE449"/>
</linearGradient>
</defs>
</svg>
