<svg width="18" height="18" viewBox="0 0 18 18" fill="none" xmlns="http://www.w3.org/2000/svg">
<path d="M6.75 9C7.64511 9 8.50355 8.64442 9.13649 8.01149C9.76942 7.37855 10.125 6.52011 10.125 5.625C10.125 4.72989 9.76942 3.87145 9.13649 3.23851C8.50355 2.60558 7.64511 2.25 6.75 2.25C5.85489 2.25 4.99645 2.60558 4.36351 3.23851C3.73058 3.87145 3.375 4.72989 3.375 5.625C3.375 6.52011 3.73058 7.37855 4.36351 8.01149C4.99645 8.64442 5.85489 9 6.75 9ZM1.125 15.75C1.125 15.75 0 15.75 0 14.625C0 13.5 1.125 10.125 6.75 10.125C12.375 10.125 13.5 13.5 13.5 14.625C13.5 15.75 12.375 15.75 12.375 15.75H1.125ZM12.375 3.9375C12.375 3.78832 12.4343 3.64524 12.5398 3.53975C12.6452 3.43426 12.7883 3.375 12.9375 3.375H17.4375C17.5867 3.375 17.7298 3.43426 17.8352 3.53975C17.9407 3.64524 18 3.78832 18 3.9375C18 4.08668 17.9407 4.22976 17.8352 4.33525C17.7298 4.44074 17.5867 4.5 17.4375 4.5H12.9375C12.7883 4.5 12.6452 4.44074 12.5398 4.33525C12.4343 4.22976 12.375 4.08668 12.375 3.9375ZM12.9375 6.75C12.7883 6.75 12.6452 6.80926 12.5398 6.91475C12.4343 7.02024 12.375 7.16332 12.375 7.3125C12.375 7.46168 12.4343 7.60476 12.5398 7.71025C12.6452 7.81574 12.7883 7.875 12.9375 7.875H17.4375C17.5867 7.875 17.7298 7.81574 17.8352 7.71025C17.9407 7.60476 18 7.46168 18 7.3125C18 7.16332 17.9407 7.02024 17.8352 6.91475C17.7298 6.80926 17.5867 6.75 17.4375 6.75H12.9375ZM15.1875 10.125C15.0383 10.125 14.8952 10.1843 14.7898 10.2898C14.6843 10.3952 14.625 10.5383 14.625 10.6875C14.625 10.8367 14.6843 10.9798 14.7898 11.0852C14.8952 11.1907 15.0383 11.25 15.1875 11.25H17.4375C17.5867 11.25 17.7298 11.1907 17.8352 11.0852C17.9407 10.9798 18 10.8367 18 10.6875C18 10.5383 17.9407 10.3952 17.8352 10.2898C17.7298 10.1843 17.5867 10.125 17.4375 10.125H15.1875ZM15.1875 13.5C15.0383 13.5 14.8952 13.5593 14.7898 13.6648C14.6843 13.7702 14.625 13.9133 14.625 14.0625C14.625 14.2117 14.6843 14.3548 14.7898 14.4602C14.8952 14.5657 15.0383 14.625 15.1875 14.625H17.4375C17.5867 14.625 17.7298 14.5657 17.8352 14.4602C17.9407 14.3548 18 14.2117 18 14.0625C18 13.9133 17.9407 13.7702 17.8352 13.6648C17.7298 13.5593 17.5867 13.5 17.4375 13.5H15.1875Z" fill="#0D0D0D"/>
</svg>
