<svg width="24" height="24" viewBox="0 0 24 24" fill="none" xmlns="http://www.w3.org/2000/svg">
<path fill-rule="evenodd" clip-rule="evenodd" d="M12.1607 4.60069C12.0577 4.57062 11.9483 4.5706 11.8454 4.60065L5.65491 6.40729C5.41496 6.47732 5.25 6.6973 5.25 6.94726V10.6505C5.25 14.7878 7.89789 18.4608 11.8231 19.7683C11.9385 19.8068 12.0633 19.8068 12.1787 19.7683C16.1029 18.4607 18.75 14.7886 18.75 10.6522V6.94726C18.75 6.69735 18.5851 6.47741 18.3452 6.40733L12.1607 4.60069ZM15.9602 10.2662C16.1799 10.0465 16.1799 9.69033 15.9602 9.47066C15.7406 9.25099 15.3844 9.25099 15.1648 9.47066L11.2993 13.3361L9.21025 11.247C8.99058 11.0273 8.63443 11.0273 8.41476 11.247C8.19508 11.4667 8.19508 11.8228 8.41475 12.0425L10.9016 14.5294C11.0071 14.6349 11.1502 14.6941 11.2993 14.6941C11.4485 14.6941 11.5916 14.6349 11.6971 14.5294L15.9602 10.2662Z" fill="#B2B0AF"/>
</svg>
