<svg width="24" height="24" viewBox="0 0 24 24" fill="none" xmlns="http://www.w3.org/2000/svg">
<mask id="mask0_1410_12139" style="mask-type:alpha" maskUnits="userSpaceOnUse" x="0" y="0" width="24" height="24">
<rect width="24" height="24" fill="#D9D9D9"/>
</mask>
<g mask="url(#mask0_1410_12139)">
<path d="M10.3308 21.5C10.1231 21.5 9.94554 21.433 9.79811 21.299C9.65068 21.165 9.56029 20.9942 9.52696 20.7865L9.26158 18.5038C9.04363 18.3974 8.78978 18.2634 8.50003 18.1019C8.21028 17.9403 7.96284 17.7839 7.75771 17.6326L5.64426 18.5384C5.44683 18.6153 5.25516 18.622 5.06926 18.5586C4.88336 18.4951 4.73848 18.373 4.63463 18.1923L2.95583 15.2731C2.85838 15.0923 2.82729 14.9064 2.86256 14.7154C2.89781 14.5243 2.99748 14.3686 3.16158 14.2481L4.96928 12.8808C4.96287 12.7487 4.95485 12.6035 4.94523 12.4452C4.93562 12.2868 4.93081 12.1417 4.93081 12.0096C4.93081 11.884 4.93562 11.7436 4.94523 11.5884C4.95485 11.4333 4.96287 11.2769 4.96928 11.1192L3.16158 9.75188C2.99748 9.63138 2.89621 9.47561 2.85776 9.28457C2.81929 9.09356 2.85198 8.90767 2.95583 8.7269L4.63463 5.82695C4.73848 5.64618 4.88176 5.52407 5.06446 5.4606C5.24714 5.39713 5.4372 5.40387 5.63463 5.4808L7.74808 6.37695C7.97245 6.21925 8.22149 6.06123 8.49521 5.9029C8.76894 5.74455 9.02119 5.60897 9.25196 5.49615L9.52696 3.21348C9.56029 3.00578 9.65068 2.83494 9.79811 2.70098C9.94554 2.56699 10.1231 2.5 10.3308 2.5H13.6596C13.8673 2.5 14.0465 2.56699 14.1971 2.70098C14.3477 2.83494 14.4397 3.00578 14.4731 3.21348L14.7384 5.50578C14.9884 5.63141 15.2391 5.76698 15.4904 5.9125C15.7417 6.05802 15.9827 6.21283 16.2135 6.37695L18.3654 5.4808C18.5628 5.40387 18.7529 5.39553 18.9356 5.4558C19.1183 5.51605 19.2615 5.63656 19.3654 5.81733L21.0442 8.7269C21.148 8.90767 21.1807 9.09356 21.1423 9.28457C21.1038 9.47561 21.0025 9.63138 20.8384 9.75188L19.0173 11.148C19.0365 11.2929 19.0477 11.4397 19.0509 11.5884C19.0541 11.7371 19.0557 11.8743 19.0557 12C19.0557 12.1192 19.0525 12.2532 19.0461 12.4019C19.0397 12.5506 19.0333 12.707 19.0269 12.8712L20.8288 14.2481C20.9929 14.3686 21.0942 14.5243 21.1327 14.7154C21.1711 14.9064 21.1384 15.0923 21.0346 15.2731L19.3558 18.2019C19.2519 18.3826 19.1086 18.5015 18.926 18.5586C18.7433 18.6156 18.5532 18.6057 18.3558 18.5288L16.2135 17.623C15.9827 17.7871 15.7385 17.9451 15.4808 18.0971C15.2231 18.249 14.9756 18.3814 14.7384 18.4942L14.4731 20.7865C14.4397 20.9942 14.3477 21.165 14.1971 21.299C14.0465 21.433 13.8673 21.5 13.6596 21.5H10.3308ZM11.9615 15.075C12.8103 15.075 13.5349 14.7746 14.1356 14.174C14.7362 13.5734 15.0365 12.8487 15.0365 12C15.0365 11.1513 14.7362 10.4266 14.1356 9.82595C13.5349 9.22532 12.8103 8.925 11.9615 8.925C11.1193 8.925 10.3962 9.22532 9.79233 9.82595C9.1885 10.4266 8.88658 11.1513 8.88658 12C8.88658 12.8487 9.1885 13.5734 9.79233 14.174C10.3962 14.7746 11.1193 15.075 11.9615 15.075Z" fill="#FFEB3B"/>
<path d="M11.9615 15.075C12.8103 15.075 13.5349 14.7747 14.1356 14.174C14.7362 13.5734 15.0365 12.8487 15.0365 12C15.0365 11.1513 14.7362 10.4266 14.1356 9.826C13.5349 9.22537 12.8103 8.92505 11.9615 8.92505C11.1193 8.92505 10.3962 9.22537 9.79235 9.826C9.18851 10.4266 8.8866 11.1513 8.8866 12C8.8866 12.8487 9.18851 13.5734 9.79235 14.174C10.3962 14.7747 11.1193 15.075 11.9615 15.075Z" fill="#1F1814"/>
</g>
</svg>
