<svg width="18" height="18" viewBox="0 0 18 18" fill="none" xmlns="http://www.w3.org/2000/svg">
<path fill-rule="evenodd" clip-rule="evenodd" d="M5.26479 16.8733H2.63104C2.33774 16.8733 2.09927 16.6369 2.09671 16.3436C2.08053 14.4902 2.09009 13.2369 2.12537 12.5838C2.14022 12.3081 2.40558 12.0104 2.62242 11.7878C3.4667 10.9208 4.33854 10.0804 5.19863 9.22867C5.62665 8.80483 6.14347 8.62026 6.74131 8.62304C7.91624 8.62849 9.09128 8.63031 10.2662 8.6224C11.3624 8.61513 12.1971 7.80613 12.2026 6.76264C12.2078 5.76832 11.3699 4.8999 10.3315 4.87777C9.13926 4.85234 7.94605 4.861 6.75349 4.87168C6.13204 4.87713 5.81228 5.20961 5.80138 5.83875C5.79005 6.49729 5.80384 7.15614 5.79561 7.81478C5.78824 8.40524 5.5761 8.61802 4.99163 8.62315C4.24396 8.62977 3.4963 8.6239 2.74853 8.62614C2.26473 8.62753 2.02534 8.38376 2.02352 7.90605C2.02063 7.14064 2.01711 6.37503 2.02512 5.60962C2.03004 5.13245 2.29379 4.8937 2.76349 4.88932C3.43987 4.88312 4.11647 4.89327 4.79285 4.88483C5.50161 4.87606 5.88015 4.50768 5.89703 3.79796C5.91178 3.17533 5.91552 2.55153 5.89789 1.92901C5.88399 1.43719 6.14294 1.1511 6.58506 1.15313C8.20115 1.16051 9.84546 1.03846 11.4264 1.29313C14.1252 1.72778 16.0281 4.21326 15.9782 6.89217C15.9284 9.55719 13.9533 11.8368 11.255 12.3075C10.7858 12.3894 10.2971 12.3742 9.81725 12.3774C8.50306 12.3859 7.18877 12.3803 5.79914 12.3803V16.339C5.79914 16.6341 5.5599 16.8733 5.26479 16.8733Z" fill="#0D0D0D"/>
<path fill-rule="evenodd" clip-rule="evenodd" d="M6.75331 4.87143C6.13186 4.87688 5.8121 5.20935 5.8012 5.8385C5.78987 6.49703 5.80366 7.15588 5.79543 7.81453C5.78805 8.40498 5.57592 8.61776 4.99144 8.62289C4.24378 8.62952 3.49612 8.62364 2.74834 8.62588C2.26454 8.62727 2.02515 8.3835 2.02334 7.90579C2.02045 7.14039 2.01692 6.37477 2.02494 5.60937C2.02986 5.13219 2.29361 4.89344 2.76331 4.88906C3.43969 4.88286 4.11628 4.89301 4.79267 4.88457C5.50143 4.87581 5.87996 4.50743 5.89685 3.7977C5.9116 3.17508 7.94587 4.86074 6.75331 4.87143Z" fill="#0D0D0D"/>
<path fill-rule="evenodd" clip-rule="evenodd" d="M6.50859 1.12999H9.92844V4.87045H6.50859C6.15446 4.87045 5.86737 4.58336 5.86737 4.22923V1.77121C5.86737 1.41707 6.15446 1.12999 6.50859 1.12999Z" fill="#0D0D0D"/>
</svg>
