<svg width="18" height="18" viewBox="0 0 18 18" fill="none" xmlns="http://www.w3.org/2000/svg">
<path d="M1.5 3.31251C1.5 2.81523 1.69754 2.33831 2.04917 1.98668C2.40081 1.63505 2.87772 1.4375 3.375 1.4375H14.625C15.1223 1.4375 15.5992 1.63505 15.9508 1.98668C16.3025 2.33831 16.5 2.81523 16.5 3.31251V10.8125C16.5 11.3098 16.3025 11.7867 15.9508 12.1384C15.5992 12.49 15.1223 12.6876 14.625 12.6876H12.2812C12.1357 12.6876 11.9922 12.7214 11.862 12.7865C11.7318 12.8516 11.6186 12.9461 11.5312 13.0626L9.75 15.4373C9.66267 15.5537 9.54944 15.6482 9.41926 15.7133C9.28909 15.7784 9.14554 15.8123 9 15.8123C8.85446 15.8123 8.71091 15.7784 8.58074 15.7133C8.45056 15.6482 8.33733 15.5537 8.25 15.4373L6.46875 13.0626C6.38142 12.9461 6.26819 12.8516 6.13801 12.7865C6.00784 12.7214 5.86429 12.6876 5.71875 12.6876H3.375C2.87772 12.6876 2.40081 12.49 2.04917 12.1384C1.69754 11.7867 1.5 11.3098 1.5 10.8125V3.31251ZM4.78125 4.25001C4.65693 4.25001 4.5377 4.2994 4.44979 4.38731C4.36189 4.47522 4.3125 4.59445 4.3125 4.71877C4.3125 4.84309 4.36189 4.96232 4.44979 5.05022C4.5377 5.13813 4.65693 5.18752 4.78125 5.18752H13.2188C13.3431 5.18752 13.4623 5.13813 13.5502 5.05022C13.6381 4.96232 13.6875 4.84309 13.6875 4.71877C13.6875 4.59445 13.6381 4.47522 13.5502 4.38731C13.4623 4.2994 13.3431 4.25001 13.2188 4.25001H4.78125ZM4.78125 6.59378C4.65693 6.59378 4.5377 6.64316 4.44979 6.73107C4.36189 6.81898 4.3125 6.93821 4.3125 7.06253C4.3125 7.18685 4.36189 7.30608 4.44979 7.39399C4.5377 7.48189 4.65693 7.53128 4.78125 7.53128H13.2188C13.3431 7.53128 13.4623 7.48189 13.5502 7.39399C13.6381 7.30608 13.6875 7.18685 13.6875 7.06253C13.6875 6.93821 13.6381 6.81898 13.5502 6.73107C13.4623 6.64316 13.3431 6.59378 13.2188 6.59378H4.78125ZM4.78125 8.93754C4.65693 8.93754 4.5377 8.98692 4.44979 9.07483C4.36189 9.16274 4.3125 9.28197 4.3125 9.40629C4.3125 9.53061 4.36189 9.64984 4.44979 9.73775C4.5377 9.82566 4.65693 9.87504 4.78125 9.87504H9.46875C9.59307 9.87504 9.7123 9.82566 9.80021 9.73775C9.88811 9.64984 9.9375 9.53061 9.9375 9.40629C9.9375 9.28197 9.88811 9.16274 9.80021 9.07483C9.7123 8.98692 9.59307 8.93754 9.46875 8.93754H4.78125Z" fill="#757873"/>
</svg>
