<svg width="16" height="16" viewBox="0 0 16 16" fill="none" xmlns="http://www.w3.org/2000/svg">
<g id="content_copy">
<mask id="mask0_374_2506" style="mask-type:alpha" maskUnits="userSpaceOnUse" x="0" y="0" width="16" height="16">
<rect id="Bounding box" width="16" height="16" fill="#D9D9D9"/>
</mask>
<g mask="url(#mask0_374_2506)">
<path id="content_copy_2" d="M5.9999 12C5.6699 12 5.3874 11.8825 5.1524 11.6475C4.9174 11.4125 4.7999 11.13 4.7999 10.8V2.80001C4.7999 2.47001 4.9174 2.18751 5.1524 1.95251C5.3874 1.71751 5.6699 1.60001 5.9999 1.60001H12.3999C12.7299 1.60001 13.0124 1.71751 13.2474 1.95251C13.4824 2.18751 13.5999 2.47001 13.5999 2.80001V10.8C13.5999 11.13 13.4824 11.4125 13.2474 11.6475C13.0124 11.8825 12.7299 12 12.3999 12H5.9999ZM5.9999 10.8H12.3999V2.80001H5.9999V10.8ZM3.5999 14.4C3.2699 14.4 2.9874 14.2825 2.7524 14.0475C2.5174 13.8125 2.3999 13.53 2.3999 13.2V4.60001C2.3999 4.43001 2.45706 4.28751 2.57139 4.17251C2.68572 4.05751 2.82739 4.00001 2.99639 4.00001C3.1654 4.00001 3.30824 4.05751 3.4249 4.17251C3.54157 4.28751 3.5999 4.43001 3.5999 4.60001V13.2H10.5999C10.7699 13.2 10.9124 13.2572 11.0274 13.3715C11.1424 13.4858 11.1999 13.6275 11.1999 13.7965C11.1999 13.9655 11.1424 14.1083 11.0274 14.225C10.9124 14.3417 10.7699 14.4 10.5999 14.4H3.5999Z" fill="#5C5551"/>
</g>
</g>
</svg>
