<svg width="16" height="16" viewBox="0 0 16 16" fill="none" xmlns="http://www.w3.org/2000/svg">
<path fill-rule="evenodd" clip-rule="evenodd" d="M2.7 0.5C2.3134 0.5 2 0.813401 2 1.2V14.8C2 15.1866 2.3134 15.5 2.7 15.5H13.3C13.6866 15.5 14 15.1866 14 14.8V4.5H11C10.4477 4.5 10 4.05228 10 3.5V0.5H2.7Z" fill="#38AFFF"/>
<path d="M10.7 4.5H14L10 0.5V3.8C10 4.1866 10.3134 4.5 10.7 4.5Z" fill="#74C7FF"/>
<path d="M5.375 8.75C5.16789 8.75 5 8.58211 5 8.375C5 8.16789 5.16789 8 5.375 8H10.625C10.8321 8 11 8.16789 11 8.375C11 8.58211 10.8321 8.75 10.625 8.75H5.375ZM5 9.875C5 9.66789 5.16789 9.5 5.375 9.5H10.625C10.8321 9.5 11 9.66789 11 9.875C11 10.0821 10.8321 10.25 10.625 10.25H5.375C5.16789 10.25 5 10.0821 5 9.875ZM5.375 11.75C5.16789 11.75 5 11.5821 5 11.375C5 11.1679 5.16789 11 5.375 11H8.375C8.58211 11 8.75 11.1679 8.75 11.375C8.75 11.5821 8.58211 11.75 8.375 11.75H5.375Z" fill="white"/>
</svg>
