<svg width="16" height="16" viewBox="0 0 16 16" fill="none" xmlns="http://www.w3.org/2000/svg">
<path fill-rule="evenodd" clip-rule="evenodd" d="M2.7 0.5C2.3134 0.5 2 0.813401 2 1.2V14.8C2 15.1866 2.3134 15.5 2.7 15.5H13.3C13.6866 15.5 14 15.1866 14 14.8V4.5H11C10.4477 4.5 10 4.05228 10 3.5V0.5H2.7Z" fill="#FAA239"/>
<path d="M10.7 4.5H14L10 0.5V3.8C10 4.1866 10.3134 4.5 10.7 4.5Z" fill="#FCBE74"/>
<path d="M10.8008 9.29766C10.8008 10.8367 9.53987 12.0977 8.00078 12.0977C6.4617 12.0977 5.20078 10.8367 5.20078 9.29766C5.20078 7.75857 6.4617 6.49766 8.00078 6.49766C9.53987 6.49766 10.8008 7.75857 10.8008 9.29766Z" stroke="white" stroke-width="0.8"/>
<path d="M9.28117 9.4575L9.20117 9.5375L7.76117 10.4975C7.60117 10.5775 7.36117 10.5775 7.28117 10.4175C7.20117 10.4175 7.20117 10.3375 7.20117 10.2575V8.2575C7.20117 8.0975 7.36117 7.9375 7.52117 7.9375C7.60117 7.9375 7.68117 8.0175 7.68117 8.0175L9.20117 9.0575C9.36117 9.1375 9.36117 9.2975 9.28117 9.4575Z" fill="white"/>
</svg>
