<svg width="16" height="16" viewBox="0 0 16 16" fill="none" xmlns="http://www.w3.org/2000/svg">
<path fill-rule="evenodd" clip-rule="evenodd" d="M8.4165 1.47958C8.17302 1.2848 7.82706 1.2848 7.58358 1.47958L2.58358 5.47958C2.42543 5.6061 2.33337 5.79764 2.33337 6.00016V14.0002C2.33337 14.3684 2.63185 14.6668 3.00004 14.6668H6.33223C5.96457 14.6662 5.66671 14.368 5.66671 14.0002V9.66683C5.66671 9.29864 5.96518 9.00016 6.33337 9.00016H9.66671C10.0349 9.00016 10.3334 9.29864 10.3334 9.66683V14.0002C10.3334 14.368 10.0355 14.6662 9.66785 14.6668H13C13.3682 14.6668 13.6667 14.3684 13.6667 14.0002V6.00016C13.6667 5.79764 13.5746 5.6061 13.4165 5.47958L8.4165 1.47958Z" fill="#3377FF"/>
<path d="M3 14H13" stroke="#3377FF" stroke-width="1.33333" stroke-linecap="round"/>
</svg>
