<svg width="16" height="16" viewBox="0 0 16 16" fill="none" xmlns="http://www.w3.org/2000/svg">
<path fill-rule="evenodd" clip-rule="evenodd" d="M2.7 0.5C2.3134 0.5 2 0.813401 2 1.2V14.8C2 15.1866 2.3134 15.5 2.7 15.5H13.3C13.6866 15.5 14 15.1866 14 14.8V4.5H11C10.4477 4.5 10 4.05228 10 3.5V0.5H2.7Z" fill="#9C73F3"/>
<path d="M10.7 4.5H14L10 0.5V3.8C10 4.1866 10.3134 4.5 10.7 4.5Z" fill="#BA9DF7"/>
<path d="M7.25 8.10714C7.25 8.40301 6.99816 8.64286 6.6875 8.64286C6.37684 8.64286 6.125 8.40301 6.125 8.10714C6.125 7.81128 6.37684 7.57143 6.6875 7.57143C6.99816 7.57143 7.25 7.81128 7.25 8.10714Z" fill="white"/>
<path d="M5.75 6.5C5.33579 6.5 5 6.8198 5 7.21429V10.7857C5 11.1802 5.33579 11.5 5.75 11.5H10.25C10.6642 11.5 11 11.1802 11 10.7857V7.21429C11 6.8198 10.6642 6.5 10.25 6.5H5.75ZM10.25 6.85714C10.4571 6.85714 10.625 7.01704 10.625 7.21429V9.53572L9.20885 8.84029C9.13667 8.80591 9.04948 8.81939 8.99242 8.87374L7.60111 10.1988L6.60401 9.56571C6.52964 9.51849 6.43062 9.52783 6.36742 9.58802L5.375 10.4286V7.21429C5.375 7.01704 5.54289 6.85714 5.75 6.85714H10.25Z" fill="white"/>
</svg>
