<svg width="16" height="16" viewBox="0 0 16 16" fill="none" xmlns="http://www.w3.org/2000/svg">
<path fill-rule="evenodd" clip-rule="evenodd" d="M2.7 0.5C2.3134 0.5 2 0.813401 2 1.2V14.8C2 15.1866 2.3134 15.5 2.7 15.5H13.3C13.6866 15.5 14 15.1866 14 14.8V4.5H11C10.4477 4.5 10 4.05228 10 3.5V0.5H2.7Z" fill="#4CC5C3"/>
<path d="M10.7 4.5H14L10 0.5V3.8C10 4.1866 10.3134 4.5 10.7 4.5Z" fill="#82D6D5"/>
<path d="M5.75 6.57422C5.5429 6.57422 5.375 6.74211 5.375 6.94922V11.4492C5.375 11.6564 5.5429 11.8242 5.75 11.8242H10.25C10.4571 11.8242 10.625 11.6564 10.625 11.4492V6.94922C10.625 6.74211 10.4571 6.57422 10.25 6.57422H8.56252C8.35541 6.57422 8.18752 6.74211 8.18752 6.94922V8.63673H8.93752C9.01336 8.63673 9.08173 8.68241 9.11075 8.75248C9.13977 8.82254 9.12373 8.90319 9.0701 8.95681L8.1326 9.89432C8.05937 9.96754 7.94065 9.96754 7.86743 9.89432L6.92993 8.95681C6.8763 8.90319 6.86026 8.82254 6.88928 8.75248C6.9183 8.68241 6.98667 8.63673 7.06251 8.63673H7.81251V6.94922C7.81251 6.53501 8.1483 6.19922 8.56252 6.19922H10.25C10.6642 6.19922 11 6.53501 11 6.94922V11.4492C11 11.8635 10.6642 12.1992 10.25 12.1992H5.75C5.33579 12.1992 5 11.8635 5 11.4492V6.94922C5 6.53501 5.33579 6.19922 5.75 6.19922H6.68751C6.79106 6.19922 6.87501 6.28317 6.87501 6.38672C6.87501 6.49027 6.79106 6.57422 6.68751 6.57422H5.75Z" fill="white" stroke="white" stroke-width="0.25" stroke-linecap="round" stroke-linejoin="round"/>
</svg>
