<svg width="96" height="96" viewBox="0 0 96 96" fill="none" xmlns="http://www.w3.org/2000/svg">
<path fill-rule="evenodd" clip-rule="evenodd" d="M16.2 3C13.8804 3 12 4.8804 12 7.2V88.8C12 91.1196 13.8804 93 16.2 93H79.8C82.1196 93 84 91.1196 84 88.8V27H66C62.6863 27 60 24.3137 60 21V3H16.2Z" fill="#4CC5C3"/>
<path d="M64.2 27H84L60 3V22.8C60 25.1196 61.8804 27 64.2 27Z" fill="#82D6D5"/>
<path d="M59.0388 38.4002L42.7188 42.7202C40.7988 43.6802 39.3588 45.1202 39.3588 47.0402V62.4001C39.3588 62.4001 37.9188 61.4401 35.5188 61.9201C32.1588 62.4001 28.7988 65.2801 28.7988 68.1601C28.7988 71.0401 32.1588 72.4801 35.5188 72.0001C39.3588 71.5201 42.2388 69.1201 42.2388 66.2401V51.3602C42.2388 50.4002 44.1588 49.4401 44.1588 49.4401L58.0788 45.6002C58.0788 45.6002 59.5188 45.1201 59.5188 46.5601V58.5601C59.5188 58.5601 58.0788 57.6001 55.6788 58.0801C51.8388 58.5601 48.9588 60.9602 48.9588 63.8402C48.9588 66.7202 52.3188 68.6401 55.6788 68.1601C59.0388 67.6801 62.3988 65.2801 62.3988 62.4001V40.8002C62.3988 38.8802 60.4788 37.9202 59.0388 38.4002Z" fill="white"/>
</svg>
