<svg width="20" height="20" viewBox="0 0 20 20" fill="none" xmlns="http://www.w3.org/2000/svg">
<g id="Group 1321315206">
<g id="translate">
<mask id="mask0_131_9395" style="mask-type:alpha" maskUnits="userSpaceOnUse" x="0" y="0" width="20" height="20">
<rect id="Bounding box" width="20" height="20" fill="#D9D9D9"/>
</mask>
<g mask="url(#mask0_131_9395)">
<path id="translate_2" d="M12.29 15.1458L11.5122 17.22C11.4688 17.3297 11.3993 17.4177 11.3039 17.484C11.2084 17.5502 11.1012 17.5833 10.9824 17.5833C10.7687 17.5833 10.6116 17.4989 10.5112 17.3301C10.4108 17.1613 10.3958 16.9866 10.4663 16.8061L13.5176 8.88462C13.5684 8.76924 13.6418 8.6763 13.738 8.60579C13.8341 8.53527 13.941 8.50001 14.0585 8.50001H14.4992C14.6167 8.50001 14.7235 8.53527 14.8197 8.60579C14.9158 8.6763 14.9893 8.76924 15.04 8.88462L18.1122 16.8189C18.1827 17.0048 18.1603 17.1787 18.0452 17.3405C17.93 17.5024 17.7729 17.5833 17.5739 17.5833C17.4456 17.5833 17.3315 17.5467 17.2316 17.4735C17.1317 17.4004 17.062 17.3087 17.0224 17.1987L16.2632 15.1458H12.29ZM7.4439 11.242L3.90544 14.7548C3.79007 14.8755 3.66454 14.9311 3.52886 14.9215C3.39318 14.9118 3.26765 14.8493 3.15226 14.734C3.03153 14.6133 2.97117 14.4877 2.97117 14.3574C2.97117 14.227 3.03153 14.1015 3.15226 13.9808L6.71157 10.4551C6.2169 9.92736 5.7356 9.35738 5.26765 8.7452C4.79969 8.13302 4.43271 7.54435 4.16669 6.97918H5.45032C5.66292 7.38622 5.9276 7.79675 6.24438 8.21076C6.56116 8.62476 6.961 9.10099 7.4439 9.63945C8.10525 8.91723 8.67551 8.22678 9.15467 7.56812C9.63384 6.90947 9.99629 6.2201 10.242 5.50001H2.11863C1.96488 5.50001 1.83617 5.44859 1.73249 5.34574C1.62881 5.24291 1.57697 5.11524 1.57697 4.96274C1.57697 4.81026 1.62881 4.68113 1.73249 4.57537C1.83618 4.46959 1.9649 4.4167 2.11863 4.4167H6.95836V3.27889C6.95836 3.12517 7.00978 2.99646 7.11261 2.89276C7.21546 2.78908 7.34312 2.73724 7.49561 2.73724C7.64811 2.73724 7.77724 2.78908 7.88301 2.89276C7.98877 2.99646 8.04165 3.12517 8.04165 3.27889V4.4167H12.8814C13.0351 4.4167 13.1638 4.46813 13.2675 4.57097C13.3712 4.67382 13.423 4.80149 13.423 4.95397C13.423 5.10647 13.3712 5.2356 13.2675 5.34137C13.1638 5.44713 13.0351 5.50001 12.8814 5.50001H11.4337C11.1574 6.39424 10.7374 7.23024 10.1739 8.00801C9.61031 8.78579 8.94444 9.59616 8.17626 10.4391L10.1282 12.3782L9.69711 13.4952L7.4439 11.242ZM12.6698 14.1234H15.8878L14.3205 9.88941L12.6698 14.1234Z" fill="#5C5551"/>
</g>
</g>
</g>
</svg>
