<svg width="96" height="96" viewBox="0 0 96 96" fill="none" xmlns="http://www.w3.org/2000/svg">
<path fill-rule="evenodd" clip-rule="evenodd" d="M16.2 3C13.8804 3 12 4.8804 12 7.2V88.8C12 91.1196 13.8804 93 16.2 93H79.8C82.1196 93 84 91.1196 84 88.8V27H66C62.6863 27 60 24.3137 60 21V3H16.2Z" fill="#E0E0E0"/>
<path d="M64.2 27H84L60 3V22.8C60 25.1196 61.8804 27 64.2 27Z" fill="#CACACA"/>
<path d="M39.7653 44.3584C39.7426 44.7671 40.0797 45.0981 40.489 45.0981H42.9625C43.3767 45.0981 43.706 44.7604 43.7617 44.3499C44.0285 42.3815 45.3795 40.9468 47.7877 40.9468C49.8443 40.9468 51.7296 41.9751 51.7296 44.4507C51.7296 46.355 50.606 47.231 48.835 48.564C46.8165 50.0303 45.2169 51.7441 45.3311 54.5244L45.34 55.1748C45.3456 55.585 45.6797 55.9146 46.09 55.9146H48.523C48.9372 55.9146 49.273 55.5788 49.273 55.1646V54.8481C49.273 52.6963 50.0919 52.0679 52.3008 50.3921C54.129 49.002 56.0333 47.4595 56.0333 44.2222C56.0333 39.6899 52.2056 37.5 48.0162 37.5C44.2149 37.5 40.0489 39.2718 39.7653 44.3584ZM44.4361 61.6465C44.4361 63.2461 45.712 64.4268 47.4639 64.4268C49.2921 64.4268 50.5489 63.2461 50.5489 61.6465C50.5489 59.9897 49.2921 58.8281 47.4639 58.8281C45.712 58.8281 44.4361 59.9897 44.4361 61.6465Z" fill="white"/>
</svg>
