<svg width="20" height="20" viewBox="0 0 20 20" fill="none" xmlns="http://www.w3.org/2000/svg">
<g id="speaker_notes">
<mask id="mask0_131_9790" style="mask-type:alpha" maskUnits="userSpaceOnUse" x="0" y="0" width="20" height="20">
<rect id="Bounding box" width="20" height="20" fill="#D9D9D9"/>
</mask>
<g mask="url(#mask0_131_9790)">
<path id="speaker_notes_2" d="M5.81003 12.8075C5.98923 12.8075 6.14373 12.7441 6.27353 12.6172C6.40334 12.4903 6.46824 12.3372 6.46824 12.158C6.46824 11.9788 6.4048 11.8243 6.27793 11.6945C6.15104 11.5647 5.998 11.4998 5.8188 11.4998C5.6396 11.4998 5.48509 11.5633 5.35528 11.6902C5.22548 11.817 5.16058 11.9701 5.16058 12.1493C5.16058 12.3285 5.22401 12.483 5.35089 12.6128C5.47778 12.7426 5.63083 12.8075 5.81003 12.8075ZM5.81003 10.1536C5.98923 10.1536 6.14373 10.0902 6.27353 9.96334C6.40334 9.83645 6.46824 9.68341 6.46824 9.50421C6.46824 9.325 6.4048 9.1705 6.27793 9.04069C6.15104 8.91089 5.998 8.84598 5.8188 8.84598C5.6396 8.84598 5.48509 8.90942 5.35528 9.0363C5.22548 9.16318 5.16058 9.31623 5.16058 9.49542C5.16058 9.67463 5.22401 9.82914 5.35089 9.95894C5.47778 10.0887 5.63083 10.1536 5.81003 10.1536ZM5.81003 7.49982C5.98923 7.49982 6.14373 7.43638 6.27353 7.3095C6.40334 7.18262 6.46824 7.02957 6.46824 6.85036C6.46824 6.67116 6.4048 6.51666 6.27793 6.38686C6.15104 6.25704 5.998 6.19213 5.8188 6.19213C5.6396 6.19213 5.48509 6.25557 5.35528 6.38246C5.22548 6.50935 5.16058 6.66239 5.16058 6.84159C5.16058 7.0208 5.22401 7.1753 5.35089 7.30511C5.47778 7.43491 5.63083 7.49982 5.81003 7.49982ZM8.63812 12.6953H12.2503C12.404 12.6953 12.5327 12.6439 12.6364 12.541C12.7401 12.4382 12.792 12.3105 12.792 12.158C12.792 12.0055 12.7401 11.8764 12.6364 11.7707C12.5327 11.6649 12.404 11.612 12.2503 11.612H8.63812C8.48438 11.612 8.35567 11.6634 8.25199 11.7663C8.14831 11.8691 8.09647 11.9968 8.09647 12.1493C8.09647 12.3018 8.14831 12.4309 8.25199 12.5367C8.35567 12.6424 8.48438 12.6953 8.63812 12.6953ZM8.63812 10.0415H14.2503C14.404 10.0415 14.5328 9.99005 14.6364 9.88721C14.7401 9.78437 14.792 9.6567 14.792 9.50421C14.792 9.35171 14.7401 9.22258 14.6364 9.11682C14.5328 9.01105 14.404 8.95817 14.2503 8.95817H8.63812C8.48438 8.95817 8.35567 9.00959 8.25199 9.11242C8.14831 9.21527 8.09647 9.34294 8.09647 9.49542C8.09647 9.64792 8.14831 9.77705 8.25199 9.88282C8.35567 9.98858 8.48438 10.0415 8.63812 10.0415ZM8.63812 7.38763H14.2503C14.404 7.38763 14.5328 7.33621 14.6364 7.23336C14.7401 7.13053 14.792 7.00286 14.792 6.85036C14.792 6.69787 14.7401 6.56875 14.6364 6.46298C14.5328 6.35721 14.404 6.30432 14.2503 6.30432H8.63812C8.48438 6.30432 8.35567 6.35574 8.25199 6.45859C8.14831 6.56143 8.09647 6.6891 8.09647 6.84159C8.09647 6.99409 8.14831 7.12322 8.25199 7.22898C8.35567 7.33475 8.48438 7.38763 8.63812 7.38763ZM5.03237 15.5831L3.55405 17.0614C3.34303 17.2725 3.10076 17.3207 2.82726 17.206C2.55375 17.0914 2.41699 16.8849 2.41699 16.5863V4.75625C2.41699 4.38114 2.54651 4.06407 2.80553 3.80505C3.06456 3.54602 3.38163 3.4165 3.75674 3.4165H16.2439C16.619 3.4165 16.936 3.54602 17.1951 3.80505C17.4541 4.06407 17.5836 4.38114 17.5836 4.75625V14.2434C17.5836 14.6185 17.4541 14.9356 17.1951 15.1946C16.936 15.4536 16.619 15.5831 16.2439 15.5831H5.03237ZM4.58366 14.4998H16.2439C16.308 14.4998 16.3667 14.4731 16.4202 14.4197C16.4736 14.3663 16.5003 14.3075 16.5003 14.2434V4.75625C16.5003 4.69214 16.4736 4.63337 16.4202 4.57994C16.3667 4.52653 16.308 4.49982 16.2439 4.49982H3.75674C3.69263 4.49982 3.63386 4.52653 3.58043 4.57994C3.52701 4.63337 3.5003 4.69214 3.5003 4.75625V15.5912L4.58366 14.4998Z" fill="#1F1814"/>
</g>
</g>
</svg>
