<svg width="20" height="20" viewBox="0 0 20 20" fill="none" xmlns="http://www.w3.org/2000/svg">
<g id="stacks">
<mask id="mask0_131_9849" style="mask-type:alpha" maskUnits="userSpaceOnUse" x="0" y="0" width="20" height="20">
<rect id="Bounding box" width="20" height="20" fill="#D9D9D9"/>
</mask>
<g mask="url(#mask0_131_9849)">
<path id="stacks_2" d="M10 10.609C9.89907 10.609 9.80106 10.5964 9.70598 10.5713C9.61089 10.5462 9.51606 10.5112 9.42148 10.4663L2.66187 7.18269C2.53901 7.11859 2.4442 7.03407 2.37743 6.92913C2.31066 6.82418 2.27727 6.70907 2.27727 6.58377C2.27727 6.45848 2.31066 6.34216 2.37743 6.23479C2.4442 6.12742 2.53901 6.04168 2.66187 5.97759L9.42148 2.69394C9.51606 2.64907 9.61089 2.61408 9.70598 2.58898C9.80106 2.56387 9.89907 2.55132 10 2.55132C10.1009 2.55132 10.1989 2.56387 10.294 2.58898C10.3891 2.61408 10.4839 2.64907 10.5785 2.69394L17.3461 5.97759C17.469 6.04168 17.5638 6.1262 17.6306 6.23115C17.6974 6.33608 17.7307 6.45119 17.7307 6.57648C17.7307 6.70179 17.6974 6.81812 17.6306 6.92548C17.5638 7.03286 17.469 7.11859 17.3461 7.18269L10.5785 10.4663C10.4839 10.5112 10.3891 10.5462 10.294 10.5713C10.1989 10.5964 10.1009 10.609 10 10.609ZM10 9.52886L16.1026 6.58013L10 3.6314L3.90541 6.58013L10 9.52886ZM10 12.9487L16.6282 9.75163C16.6336 9.74628 16.7226 9.73452 16.8952 9.71636C17.0412 9.72705 17.1603 9.78254 17.2526 9.88282C17.3449 9.98308 17.391 10.104 17.391 10.2455C17.391 10.3447 17.3656 10.4372 17.3149 10.5232C17.2641 10.6092 17.188 10.6763 17.0865 10.7244L10.5785 13.8862C10.4839 13.9311 10.3891 13.9661 10.294 13.9912C10.1989 14.0163 10.1009 14.0288 10 14.0288C9.89907 14.0288 9.80106 14.0163 9.70598 13.9912C9.61089 13.9661 9.51606 13.9311 9.42148 13.8862L2.92148 10.7244C2.81999 10.6763 2.74254 10.6101 2.68912 10.5258C2.63569 10.4414 2.60898 10.3468 2.60898 10.242C2.60898 10.0989 2.65548 9.97825 2.74848 9.8799C2.84148 9.78156 2.9595 9.72705 3.10256 9.71636C3.15035 9.70568 3.19656 9.70333 3.24118 9.70932C3.2858 9.7153 3.332 9.72941 3.37979 9.75163L10 12.9487ZM10 16.3686L16.6282 13.1715C16.6336 13.1661 16.7226 13.1544 16.8952 13.1362C17.0412 13.1469 17.1603 13.2024 17.2526 13.3027C17.3449 13.4029 17.391 13.5239 17.391 13.6654C17.391 13.7645 17.3656 13.8571 17.3149 13.9431C17.2641 14.0291 17.188 14.0961 17.0865 14.1442L10.5785 17.3061C10.4839 17.3509 10.3891 17.3859 10.294 17.411C10.1989 17.4361 10.1009 17.4487 10 17.4487C9.89907 17.4487 9.80106 17.4361 9.70598 17.411C9.61089 17.3859 9.51606 17.3509 9.42148 17.3061L2.92148 14.1442C2.81999 14.0961 2.74254 14.0299 2.68912 13.9456C2.63569 13.8613 2.60898 13.7667 2.60898 13.6619C2.60898 13.5188 2.65548 13.3981 2.74848 13.2998C2.84148 13.2014 2.9595 13.1469 3.10256 13.1362C3.15035 13.1256 3.19656 13.1232 3.24118 13.1292C3.2858 13.1352 3.332 13.1493 3.37979 13.1715L10 16.3686Z" fill="#1C1B1F"/>
</g>
</g>
</svg>
