<svg width="24" height="24" viewBox="0 0 24 24" fill="none" xmlns="http://www.w3.org/2000/svg">
<g clip-path="url(#clip0_658_134)">
<rect width="24" height="24" rx="12" fill="#FEF153"/>
<rect width="24" height="24" fill="#FEF153"/>
<path d="M10.9475 7.14001C8.17108 7.14001 5.91992 9.40295 5.91992 12.1946C5.91992 14.36 7.27452 16.2072 9.17807 16.9268C10.29 16.3163 11.459 15.5629 12.6193 14.7053C11.9555 15.4773 10.9373 16.324 9.69885 17.0918C10.098 17.1945 10.5163 17.2492 10.9475 17.2492C13.7239 17.2492 15.9751 14.9863 15.9751 12.1946C15.9751 9.40295 13.7239 7.14001 10.9475 7.14001Z" fill="#1F1814"/>
<path d="M19.0806 6.26468C18.4094 5.37392 16.0126 5.98889 13.1123 7.63203C13.2538 7.69993 13.3917 7.77459 13.5255 7.85536C15.4521 6.89734 16.9732 6.60354 17.4424 7.22655C18.1924 8.2219 15.9748 11.1809 12.4894 13.8358C9.00369 16.4907 5.57014 17.8358 4.82018 16.8402C4.39126 16.2712 4.93285 15.0603 6.12613 13.6314C6.07939 13.4731 6.04034 13.3112 6.00929 13.1468C3.91177 15.346 2.84909 17.3061 3.48158 18.1454C4.41207 19.3805 8.65864 17.7219 12.966 14.4411C17.2737 11.1603 20.0111 7.49944 19.0806 6.26468Z" fill="#1F1814"/>
<path d="M17.0381 14.7125C17.0387 15.5778 17.7362 16.279 18.5969 16.2797C17.7362 16.2803 17.0387 16.9815 17.0381 17.8468C17.0374 16.9815 16.34 16.2803 15.4792 16.2797C16.34 16.279 17.0374 15.5778 17.0381 14.7125Z" fill="#1F1814"/>
<path d="M6.76287 5.15222C6.76319 5.76108 7.25388 6.2544 7.85948 6.25473C7.25388 6.25505 6.76319 6.74838 6.76287 7.35723C6.76255 6.74838 6.27186 6.25505 5.66626 6.25473C6.27186 6.2544 6.76255 5.76108 6.76287 5.15222Z" fill="#1F1814"/>
<path d="M16.2816 16.9495C15.007 18.2541 13.2328 19.0635 11.27 19.0635C9.94292 19.0635 8.70195 18.6934 7.64311 18.0504C7.4501 18.1347 7.25997 18.2139 7.07368 18.2866C7.04839 18.2966 7.02375 18.3056 6.99878 18.3153C8.37963 19.4316 10.1337 20.1 12.0436 20.1C13.9536 20.1 15.6449 19.4558 17.0139 18.3751C16.9358 17.8168 16.6695 17.3193 16.2816 16.9492V16.9495Z" fill="#1F1814"/>
<path d="M17.4985 15.2694C17.8378 15.7402 18.3404 16.0842 18.9229 16.2178C19.6697 14.9891 20.1002 13.5452 20.1002 12.0002C20.1002 10.6531 19.7727 9.38295 19.194 8.26532C18.9716 8.72357 18.6547 9.22945 18.2437 9.77909C18.1739 9.87242 18.1016 9.9667 18.0273 10.0613C18.2018 10.6776 18.2955 11.3279 18.2955 12.0002C18.2955 13.1799 18.0075 14.2921 17.4989 15.2694H17.4985Z" fill="#1F1814"/>
<path d="M17.0691 18.3308C17.7582 17.7773 18.3552 17.1128 18.8324 16.3636C17.9199 16.6105 17.2205 17.3786 17.0691 18.3308Z" fill="#1F1814"/>
<path d="M6.37416 6.93465C6.2759 6.81043 6.16163 6.69941 6.03423 6.6048C4.76093 8.03747 3.98633 9.92776 3.98633 12.0002C3.98633 12.8864 4.12845 13.7389 4.38996 14.537C4.46101 14.4433 4.53431 14.3494 4.60985 14.2548C4.37267 13.5468 4.24432 12.7886 4.24432 12.0002C4.24432 10.013 5.06085 8.21801 6.37449 6.93465H6.37416Z" fill="#1F1814"/>
<path d="M12.0431 3.90002C10.2006 3.90002 8.50323 4.52207 7.14575 5.56826C7.27187 5.72917 7.42455 5.86786 7.59739 5.9776C8.66584 5.31758 9.92345 4.93688 11.2694 4.93688C12.7629 4.93688 14.1473 5.40575 15.2855 6.20447C15.3537 6.1768 15.4212 6.14944 15.4885 6.12338C16.0598 5.90037 16.5771 5.74075 17.0377 5.64453C15.6648 4.55232 13.93 3.90002 12.0431 3.90002Z" fill="#1F1814"/>
</g>
<defs>
<clipPath id="clip0_658_134">
<rect width="24" height="24" rx="12" fill="white"/>
</clipPath>
</defs>
</svg>
