<svg xmlns="http://www.w3.org/2000/svg" width="20" height="20" viewBox="0 0 20 20" fill="none">
  <mask id="mask0_131_9062" style="mask-type:alpha" maskUnits="userSpaceOnUse" x="0" y="0" width="20" height="20">
    <rect width="20" height="20" fill="#D9D9D9"/>
  </mask>
  <g mask="url(#mask0_131_9062)">
    <path d="M7.75817 17.1649C7.63218 17.2909 7.41675 17.2017 7.41675 17.0235V13.5913H7.34464C5.99314 13.634 4.83396 13.2094 3.86708 12.3173C2.90019 11.4252 2.41675 10.3194 2.41675 9C2.41675 7.72864 2.8628 6.64825 3.75489 5.75883C4.64698 4.86942 5.7287 4.42471 7.00006 4.42471H8.69402L7.29014 3.02885L8.06416 2.25485L10.7757 4.96635L8.06416 7.67787L7.29014 6.90385L8.69402 5.50802H7.00006C6.02784 5.50802 5.20145 5.84696 4.52089 6.52483C3.84034 7.20272 3.50006 8.02778 3.50006 9C3.50006 9.98825 3.86304 10.8186 4.589 11.4912C5.31497 12.1637 6.1801 12.5 7.18437 12.5H8.50006V14.883L10.8751 12.5H13.0001C13.9723 12.5 14.8 12.1597 15.4832 11.4792C16.1665 10.7986 16.5081 9.97222 16.5081 9C16.5081 8.02778 16.1665 7.20139 15.4832 6.52083C14.8 5.84028 13.9723 5.5 13.0001 5.5H13.0802V4.41669H13.0001C14.2714 4.41669 15.3545 4.86273 16.2492 5.75483C17.144 6.64692 17.5914 7.72864 17.5914 9C17.5914 10.2714 17.144 11.3531 16.2492 12.2452C15.3545 13.1373 14.2714 13.5833 13.0001 13.5833H11.3398L7.75817 17.1649Z" fill="#51AEFF"/>
  </g>
</svg>
