<svg xmlns="http://www.w3.org/2000/svg" width="132" height="20" viewBox="0 0 132 20" fill="none">
  <mask id="mask0_131_9029" style="mask-type:alpha" maskUnits="userSpaceOnUse" x="56" y="0" width="20" height="20">
    <rect x="56" width="20" height="20" fill="#D9D9D9"/>
  </mask>
  <g mask="url(#mask0_131_9029)">
    <path d="M63.548 14.5833C63.1729 14.5833 62.8559 14.4538 62.5969 14.1948C62.3378 13.9357 62.2083 13.6187 62.2083 13.2436V3.75644C62.2083 3.38133 62.3378 3.06426 62.5969 2.80523C62.8559 2.5462 63.1729 2.41669 63.548 2.41669H71.0352C71.4103 2.41669 71.7273 2.5462 71.9864 2.80523C72.2454 3.06426 72.3749 3.38133 72.3749 3.75644V13.2436C72.3749 13.6187 72.2454 13.9357 71.9864 14.1948C71.7273 14.4538 71.4103 14.5833 71.0352 14.5833H63.548ZM63.548 13.5H71.0352C71.0993 13.5 71.158 13.4733 71.2115 13.4199C71.2649 13.3664 71.2916 13.3077 71.2916 13.2436V3.75644C71.2916 3.69233 71.2649 3.63356 71.2115 3.58013C71.158 3.52671 71.0993 3.5 71.0352 3.5H63.548C63.4839 3.5 63.4252 3.52671 63.3718 3.58013C63.3183 3.63356 63.2916 3.69233 63.2916 3.75644V13.2436C63.2916 13.3077 63.3183 13.3664 63.3718 13.4199C63.4252 13.4733 63.4839 13.5 63.548 13.5ZM60.9647 17.1666C60.5896 17.1666 60.2726 17.0371 60.0135 16.7781C59.7545 16.519 59.625 16.202 59.625 15.8269V5.79808C59.625 5.64435 59.6764 5.51564 59.7793 5.41196C59.8821 5.30828 60.0098 5.25644 60.1623 5.25644C60.3148 5.25644 60.4439 5.30828 60.5497 5.41196C60.6554 5.51564 60.7083 5.64435 60.7083 5.79808V15.8269C60.7083 15.891 60.735 15.9497 60.7884 16.0032C60.8419 16.0566 60.9006 16.0833 60.9647 16.0833H68.9935C69.1473 16.0833 69.276 16.1347 69.3796 16.2376C69.4833 16.3404 69.5352 16.4681 69.5352 16.6206C69.5352 16.7731 69.4833 16.9022 69.3796 17.008C69.276 17.1137 69.1473 17.1666 68.9935 17.1666H60.9647Z" fill="#5C5551"/>
  </g>
  <mask id="mask1_131_9029" style="mask-type:alpha" maskUnits="userSpaceOnUse" x="28" y="0" width="20" height="20">
    <rect x="28" width="20" height="20" fill="#D9D9D9"/>
  </mask>
  <g mask="url(#mask1_131_9029)">
    <path d="M38.0001 17.7083C37.0866 17.7083 36.2307 17.5356 35.4324 17.1902C34.6341 16.8448 33.9379 16.3751 33.3439 15.7811C32.75 15.1871 32.2803 14.491 31.9349 13.6927C31.5895 12.8943 31.4167 12.0384 31.4167 11.125C31.4167 10.9712 31.4682 10.8425 31.571 10.7389C31.6739 10.6352 31.8015 10.5833 31.954 10.5833C32.1065 10.5833 32.2357 10.6352 32.3414 10.7389C32.4472 10.8425 32.5001 10.9712 32.5001 11.125C32.5001 12.6389 33.0383 13.934 34.1146 15.0104C35.191 16.0868 36.4862 16.625 38.0001 16.625C39.5139 16.625 40.8091 16.0868 41.8855 15.0104C42.9619 13.934 43.5001 12.6389 43.5001 11.125C43.5001 9.6111 42.9619 8.31596 41.8855 7.23957C40.8091 6.16318 39.5112 5.62498 37.9919 5.62498H37.7789L38.4969 6.34294C38.6069 6.45298 38.6646 6.58065 38.6699 6.72594C38.6753 6.87123 38.6209 7.00157 38.5068 7.11696C38.3848 7.23234 38.2538 7.28869 38.1139 7.28603C37.9739 7.28336 37.8462 7.22433 37.7309 7.10894L36.17 5.54007C36.0332 5.40836 35.9649 5.25471 35.9649 5.07911C35.9649 4.90351 36.0332 4.74734 36.17 4.61059L37.7469 3.04169C37.8569 2.93165 37.9798 2.87396 38.1155 2.86861C38.2511 2.86328 38.38 2.9183 38.502 3.03367C38.6161 3.14906 38.6718 3.27807 38.6691 3.42069C38.6665 3.56332 38.6074 3.69232 38.4921 3.80769L37.7581 4.54167H38.0001C38.9135 4.54167 39.7694 4.71438 40.5677 5.0598C41.366 5.4052 42.0622 5.87489 42.6562 6.46886C43.2502 7.06285 43.7198 7.759 44.0652 8.55732C44.4107 9.35564 44.5834 10.2115 44.5834 11.125C44.5834 12.0384 44.4107 12.8943 44.0652 13.6927C43.7198 14.491 43.2502 15.1871 42.6562 15.7811C42.0622 16.3751 41.366 16.8448 40.5677 17.1902C39.7694 17.5356 38.9135 17.7083 38.0001 17.7083Z" fill="#5C5551"/>
  </g>
  <mask id="mask2_131_9029" style="mask-type:alpha" maskUnits="userSpaceOnUse" x="0" y="0" width="20" height="20">
    <rect width="20" height="20" fill="#D9D9D9"/>
  </mask>
  <g mask="url(#mask2_131_9029)">
    <path d="M15.3718 9.9863C15.3718 8.90519 15.0717 7.9196 14.4716 7.02953C13.8715 6.13946 13.084 5.47126 12.109 5.02493C11.9605 4.95382 11.8483 4.84989 11.7724 4.71314C11.6966 4.57639 11.6942 4.43664 11.7654 4.29391C11.8342 4.14071 11.9535 4.03848 12.1234 3.9872C12.2933 3.93592 12.4584 3.94529 12.6188 4.0153C13.7917 4.54998 14.7243 5.35568 15.4166 6.43239C16.1089 7.50911 16.4551 8.69911 16.4551 10.0024C16.4551 11.3057 16.1089 12.4914 15.4166 13.5596C14.7243 14.6277 13.7917 15.4292 12.6188 15.9638C12.4584 16.0339 12.2933 16.0432 12.1234 15.992C11.9535 15.9407 11.8342 15.8384 11.7654 15.6852C11.6942 15.5425 11.6966 15.4028 11.7724 15.266C11.8483 15.1293 11.9605 15.0253 12.109 14.9542C13.084 14.5079 13.8715 13.8386 14.4716 12.9464C15.0717 12.0541 15.3718 11.0674 15.3718 9.9863ZM6.30451 11.5833H4.21478C4.02498 11.5833 3.86589 11.5191 3.7375 11.3907C3.60912 11.2623 3.54492 11.1032 3.54492 10.9134V9.08655C3.54492 8.89676 3.60912 8.73767 3.7375 8.60928C3.86589 8.48088 4.02498 8.41668 4.21478 8.41668H6.30451L8.77726 5.94395C8.94926 5.77195 9.14796 5.73347 9.37338 5.82851C9.59881 5.92357 9.71153 6.0933 9.71153 6.33772V13.6603C9.71153 13.9047 9.59881 14.0747 9.37338 14.1705C9.14796 14.2662 8.94926 14.228 8.77726 14.056L6.30451 11.5833ZM13.2115 10.0009C13.2115 10.4513 13.1106 10.919 12.9087 11.4039C12.7067 11.8889 12.4089 12.2617 12.0152 12.5224C11.9111 12.5876 11.8045 12.5956 11.6955 12.5464C11.5866 12.4973 11.5321 12.4037 11.5321 12.2657V7.73424C11.5321 7.59626 11.5866 7.50269 11.6955 7.45353C11.8045 7.40439 11.9111 7.41196 12.0152 7.47624C12.4089 7.71859 12.7067 8.08735 12.9087 8.58253C13.1106 9.07773 13.2115 9.55052 13.2115 10.0009ZM8.62821 7.62499L6.75321 9.49999H4.62821V10.5H6.75321L8.62821 12.375V7.62499Z" fill="#5C5551"/>
  </g>
  <mask id="mask3_131_9029" style="mask-type:alpha" maskUnits="userSpaceOnUse" x="84" y="0" width="20" height="20">
    <rect x="84" width="20" height="20" fill="#D9D9D9"/>
  </mask>
  <g mask="url(#mask3_131_9029)">
    <path d="M96.29 15.1458L95.5121 17.22C95.4687 17.3297 95.3993 17.4177 95.3038 17.484C95.2083 17.5502 95.1011 17.5833 94.9823 17.5833C94.7686 17.5833 94.6116 17.4989 94.5112 17.3301C94.4107 17.1613 94.3958 16.9866 94.4663 16.8061L97.5176 8.88462C97.5683 8.76924 97.6418 8.6763 97.7379 8.60579C97.8341 8.53527 97.9409 8.50001 98.0584 8.50001H98.4991C98.6166 8.50001 98.7235 8.53527 98.8196 8.60579C98.9158 8.6763 98.9892 8.76924 99.04 8.88462L102.112 16.8189C102.183 17.0048 102.16 17.1787 102.045 17.3405C101.93 17.5024 101.773 17.5833 101.574 17.5833C101.445 17.5833 101.331 17.5467 101.232 17.4735C101.132 17.4004 101.062 17.3087 101.022 17.1987L100.263 15.1458H96.29ZM91.4438 11.242L87.9054 14.7548C87.79 14.8755 87.6645 14.9311 87.5288 14.9215C87.3931 14.9118 87.2676 14.8493 87.1522 14.734C87.0315 14.6133 86.9711 14.4877 86.9711 14.3574C86.9711 14.227 87.0315 14.1015 87.1522 13.9808L90.7115 10.4551C90.2168 9.92736 89.7355 9.35738 89.2676 8.7452C88.7996 8.13302 88.4326 7.54435 88.1666 6.97918H89.4503C89.6629 7.38622 89.9275 7.79675 90.2443 8.21076C90.5611 8.62476 90.9609 9.10099 91.4438 9.63945C92.1052 8.91723 92.6754 8.22678 93.1546 7.56812C93.6338 6.90947 93.9962 6.2201 94.2419 5.50001H86.1186C85.9648 5.50001 85.8361 5.44859 85.7324 5.34574C85.6287 5.24291 85.5769 5.11524 85.5769 4.96274C85.5769 4.81026 85.6287 4.68113 85.7324 4.57537C85.8361 4.46959 85.9648 4.4167 86.1186 4.4167H90.9583V3.27889C90.9583 3.12517 91.0097 2.99646 91.1126 2.89276C91.2154 2.78908 91.3431 2.73724 91.4956 2.73724C91.6481 2.73724 91.7772 2.78908 91.8829 2.89276C91.9887 2.99646 92.0416 3.12517 92.0416 3.27889V4.4167H96.8813C97.0351 4.4167 97.1638 4.46813 97.2674 4.57097C97.3711 4.67382 97.423 4.80149 97.423 4.95397C97.423 5.10647 97.3711 5.2356 97.2674 5.34137C97.1638 5.44713 97.0351 5.50001 96.8813 5.50001H95.4336C95.1573 6.39424 94.7374 7.23024 94.1738 8.00801C93.6103 8.78579 92.9444 9.59616 92.1762 10.4391L94.1281 12.3782L93.6971 13.4952L91.4438 11.242ZM96.6698 14.1234H99.8878L98.3204 9.88941L96.6698 14.1234Z" fill="#5C5551"/>
  </g>
  <mask id="mask4_131_9029" style="mask-type:alpha" maskUnits="userSpaceOnUse" x="112" y="0" width="20" height="20">
    <rect x="112" width="20" height="20" fill="#D9D9D9"/>
  </mask>
  <g mask="url(#mask4_131_9029)">
    <path d="M126.42 16.5032C125.674 16.5032 125.044 16.2457 124.529 15.7308C124.014 15.2158 123.756 14.5855 123.756 13.8397C123.756 13.094 124.014 12.4636 124.529 11.9487C125.044 11.4337 125.674 11.1763 126.42 11.1763C127.166 11.1763 127.796 11.4337 128.311 11.9487C128.826 12.4636 129.083 13.094 129.083 13.8397C129.083 14.5855 128.826 15.2158 128.311 15.7308C127.796 16.2457 127.166 16.5032 126.42 16.5032ZM126.422 15.4199C126.859 15.4199 127.231 15.2654 127.539 14.9566C127.846 14.6478 128 14.2749 128 13.838C128 13.4011 127.846 13.0288 127.537 12.7211C127.228 12.4134 126.855 12.2596 126.418 12.2596C125.981 12.2596 125.609 12.414 125.301 12.7228C124.994 13.0317 124.84 13.4045 124.84 13.8414C124.84 14.2783 124.994 14.6506 125.303 14.9583C125.612 15.266 125.985 15.4199 126.422 15.4199ZM121.555 14.3814H116.458C116.305 14.3814 116.176 14.3299 116.072 14.2268C115.969 14.1238 115.917 13.9961 115.917 13.8438C115.917 13.6915 115.969 13.5625 116.072 13.4567C116.176 13.351 116.305 13.2981 116.458 13.2981H121.555C121.708 13.2981 121.837 13.3496 121.94 13.4526C122.044 13.5556 122.096 13.6833 122.096 13.8356C122.096 13.9879 122.044 14.117 121.94 14.2227C121.837 14.3285 121.708 14.3814 121.555 14.3814ZM117.58 8.8237C116.834 8.8237 116.204 8.56624 115.689 8.05131C115.174 7.53637 114.917 6.90603 114.917 6.16026C114.917 5.4145 115.174 4.78415 115.689 4.26922C116.204 3.75429 116.834 3.49683 117.58 3.49683C118.326 3.49683 118.956 3.75429 119.471 4.26922C119.986 4.78415 120.244 5.4145 120.244 6.16026C120.244 6.90603 119.986 7.53637 119.471 8.05131C118.956 8.56624 118.326 8.8237 117.58 8.8237ZM117.582 7.74039C118.019 7.74039 118.391 7.58597 118.699 7.27714C119.006 6.9683 119.16 6.59544 119.16 6.15856C119.16 5.72165 119.006 5.34935 118.697 5.04166C118.388 4.73396 118.015 4.58012 117.578 4.58012C117.142 4.58012 116.769 4.73454 116.462 5.04339C116.154 5.35222 116 5.72508 116 6.16197C116 6.59886 116.154 6.97115 116.463 7.27885C116.772 7.58654 117.145 7.74039 117.582 7.74039ZM127.542 6.70191H122.446C122.292 6.70191 122.163 6.65039 122.06 6.54737C121.956 6.44434 121.904 6.31667 121.904 6.16437C121.904 6.01206 121.956 5.88303 122.06 5.77726C122.163 5.6715 122.292 5.61862 122.446 5.61862H127.542C127.695 5.61862 127.824 5.67013 127.928 5.77316C128.031 5.87619 128.083 6.00385 128.083 6.15616C128.083 6.30846 128.031 6.4375 127.928 6.54326C127.824 6.64903 127.695 6.70191 127.542 6.70191Z" fill="#5C5551"/>
  </g>
</svg>
