<svg xmlns="http://www.w3.org/2000/svg" width="32" height="32" viewBox="0 0 32 32" fill="none">
  <g clip-path="url(#clip0_402_37)">
    <rect width="32" height="32" rx="16" fill="white"/>
    <rect width="32" height="32" rx="16" fill="url(#paint0_linear_402_37)"/>
    <g opacity="0.9">
      <g filter="url(#filter0_i_402_37)">
        <path d="M5.63716 20.3238C5.16914 21.3013 4.84921 22.3479 4.69477 23.4513C6.15722 23.9761 7.26985 25.1041 7.38055 26.3181C7.49125 27.5322 6.56726 28.473 5.17662 28.7357C5.53658 29.8863 6.0544 31.0099 6.7101 32.0907L25.4343 33.8112C25.9024 32.8337 26.2223 31.787 26.3767 30.6837C24.9143 30.1588 23.8017 29.0309 23.691 27.8168C23.5803 26.6028 24.5042 25.662 25.8949 25.3993C25.5349 24.2487 25.0171 23.1251 24.3614 22.0443L5.63716 20.3238Z" fill="url(#paint1_linear_402_37)"/>
      </g>
      <path d="M24.3306 22.1022L5.67916 20.3884C5.22895 21.3364 4.91854 22.349 4.76368 23.4149C6.21385 23.9544 7.3292 25.0886 7.44183 26.3238C7.55446 27.559 6.62884 28.5056 5.25338 28.7854C5.60689 29.8981 6.10878 30.9853 6.74093 32.0328L25.3923 33.7466C25.8425 32.7986 26.153 31.786 26.3078 30.7201C24.8576 30.1806 23.7423 29.0464 23.6297 27.8112C23.5171 26.576 24.4427 25.6294 25.8181 25.3495C25.4646 24.2369 24.9627 23.1496 24.3306 22.1022Z" stroke="url(#paint2_linear_402_37)" stroke-width="0.123077"/>
    </g>
    <g opacity="0.9">
      <g filter="url(#filter1_i_402_37)">
        <path d="M6.52095 -1.73241C6.05293 -0.754866 5.733 0.291776 5.57856 1.3951C7.04101 1.91998 8.15363 3.04791 8.26434 4.26195C8.37504 5.476 7.45105 6.41679 6.06041 6.67951C6.42037 7.8301 6.93819 8.95372 7.59389 10.0345L26.3181 11.755C26.7861 10.7775 27.1061 9.73084 27.2605 8.62752C25.7981 8.10264 24.6854 6.97471 24.5747 5.76067C24.464 4.54663 25.388 3.60584 26.7787 3.34312C26.4187 2.19253 25.9009 1.06891 25.2452 -0.0118986L6.52095 -1.73241Z" fill="url(#paint3_linear_402_37)"/>
      </g>
      <path d="M25.2144 0.0460396L6.56295 -1.66778C6.11274 -0.719812 5.80233 0.29281 5.64746 1.35871C7.09764 1.89823 8.21299 3.03239 8.32562 4.26759C8.43824 5.50278 7.51263 6.4494 6.13717 6.72928C6.49067 7.84189 6.99257 8.92916 7.62472 9.97658L26.2761 11.6904C26.7263 10.7424 27.0367 9.72981 27.1916 8.66391C25.7414 8.12439 24.6261 6.99024 24.5135 5.75504C24.4008 4.51984 25.3264 3.57323 26.7019 3.29335C26.3484 2.18073 25.8465 1.09347 25.2144 0.0460396Z" stroke="url(#paint4_linear_402_37)" stroke-width="0.123077"/>
    </g>
    <g opacity="0.9" filter="url(#filter2_di_402_37)">
      <path d="M4.6848 25.725C4.19332 24.253 3.86999 22.683 3.73391 21.0341C5.3894 20.3014 6.67324 18.6586 6.83781 16.8537C7.00239 15.0488 5.99898 13.6161 4.45026 13.1778C4.89188 11.4759 5.50941 9.81941 6.27993 8.23138L27.3085 6.29913C27.8 7.7712 28.1233 9.34122 28.2594 10.9901C26.6039 11.7228 25.3201 13.3656 25.1555 15.1705C24.9909 16.9754 25.9943 18.4081 27.543 18.8463C27.1014 20.5483 26.4839 22.2048 25.7134 23.7928L4.6848 25.725Z" fill="url(#paint5_linear_402_37)"/>
      <path d="M25.6779 23.7353L4.73145 25.66C4.25297 24.2171 3.93627 22.6803 3.79937 21.0674C5.45499 20.3134 6.73375 18.6614 6.89909 16.848C7.06444 15.0347 6.06789 13.5918 4.52296 13.1318C4.95879 11.4663 5.56348 9.84482 6.3154 8.28889L27.2618 6.36418C27.7403 7.80706 28.057 9.34392 28.1939 10.9568C26.5383 11.7108 25.2595 13.3628 25.0942 15.1761C24.9289 16.9895 25.9254 18.4324 27.4703 18.8923C27.0345 20.5578 26.4298 22.1793 25.6779 23.7353Z" stroke="url(#paint6_linear_402_37)" stroke-width="0.123077"/>
    </g>
    <g opacity="0.9">
      <g filter="url(#filter3_i_402_37)">
        <path d="M4.6848 25.725C4.19332 24.253 3.86999 22.6829 3.73391 21.0341C5.3894 20.3014 6.67324 18.6585 6.83781 16.8537C7.00239 15.0488 5.99898 13.6161 4.45026 13.1778C4.89188 11.4759 5.50941 9.81941 6.27993 8.23137L27.3085 6.29912C27.8 7.77119 28.1233 9.34121 28.2594 10.9901C26.6039 11.7228 25.3201 13.3656 25.1555 15.1705C24.9909 16.9754 25.9943 18.4081 27.543 18.8463C27.1014 20.5483 26.4839 22.2047 25.7134 23.7928L4.6848 25.725Z" fill="url(#paint7_linear_402_37)"/>
      </g>
      <path d="M25.6779 23.7353L4.73145 25.66C4.25297 24.2171 3.93627 22.6802 3.79937 21.0674C5.45499 20.3134 6.73375 18.6614 6.89909 16.848C7.06444 15.0347 6.06789 13.5917 4.52296 13.1318C4.95879 11.4663 5.56348 9.84481 6.3154 8.28888L27.2618 6.36417C27.7403 7.80705 28.057 9.34391 28.1939 10.9568C26.5383 11.7108 25.2595 13.3628 25.0942 15.1761C24.9289 16.9895 25.9254 18.4324 27.4703 18.8923C27.0345 20.5578 26.4298 22.1793 25.6779 23.7353Z" stroke="url(#paint8_linear_402_37)" stroke-width="0.123077"/>
    </g>
    <g filter="url(#filter4_i_402_37)">
      <rect width="13.921" height="1.47692" rx="0.246154" transform="matrix(0.995805 -0.0915016 -0.0908064 0.995869 9.72778 12.1325)" fill="url(#paint9_linear_402_37)"/>
      <rect width="8.32914" height="1.47692" rx="0.246154" transform="matrix(0.995805 -0.0915016 -0.0908064 0.995869 9.39258 15.8095)" fill="url(#paint10_linear_402_37)"/>
      <rect width="11.4575" height="1.47692" rx="0.246154" transform="matrix(0.995805 -0.0915016 -0.0908064 0.995869 9.05713 19.4866)" fill="url(#paint11_linear_402_37)"/>
    </g>
  </g>
  <rect x="0.25" y="0.25" width="31.5" height="31.5" rx="15.75" stroke="#EBEBEB" stroke-width="0.5"/>
  <defs>
    <filter id="filter0_i_402_37" x="4.69482" y="20.3238" width="21.6819" height="13.6105" filterUnits="userSpaceOnUse" color-interpolation-filters="sRGB">
      <feFlood flood-opacity="0" result="BackgroundImageFix"/>
      <feBlend mode="normal" in="SourceGraphic" in2="BackgroundImageFix" result="shape"/>
      <feColorMatrix in="SourceAlpha" type="matrix" values="0 0 0 0 0 0 0 0 0 0 0 0 0 0 0 0 0 0 127 0" result="hardAlpha"/>
      <feOffset dy="0.123077"/>
      <feGaussianBlur stdDeviation="0.0615385"/>
      <feComposite in2="hardAlpha" operator="arithmetic" k2="-1" k3="1"/>
      <feColorMatrix type="matrix" values="0 0 0 0 1 0 0 0 0 1 0 0 0 0 1 0 0 0 1 0"/>
      <feBlend mode="normal" in2="shape" result="effect1_innerShadow_402_37"/>
    </filter>
    <filter id="filter1_i_402_37" x="5.57861" y="-1.73241" width="21.6819" height="13.6105" filterUnits="userSpaceOnUse" color-interpolation-filters="sRGB">
      <feFlood flood-opacity="0" result="BackgroundImageFix"/>
      <feBlend mode="normal" in="SourceGraphic" in2="BackgroundImageFix" result="shape"/>
      <feColorMatrix in="SourceAlpha" type="matrix" values="0 0 0 0 0 0 0 0 0 0 0 0 0 0 0 0 0 0 127 0" result="hardAlpha"/>
      <feOffset dy="0.123077"/>
      <feGaussianBlur stdDeviation="0.0615385"/>
      <feComposite in2="hardAlpha" operator="arithmetic" k2="-1" k3="1"/>
      <feColorMatrix type="matrix" values="0 0 0 0 1 0 0 0 0 1 0 0 0 0 1 0 0 0 1 0"/>
      <feBlend mode="normal" in2="shape" result="effect1_innerShadow_402_37"/>
    </filter>
    <filter id="filter2_di_402_37" x="1.27235" y="4.08374" width="29.4485" height="24.349" filterUnits="userSpaceOnUse" color-interpolation-filters="sRGB">
      <feFlood flood-opacity="0" result="BackgroundImageFix"/>
      <feColorMatrix in="SourceAlpha" type="matrix" values="0 0 0 0 0 0 0 0 0 0 0 0 0 0 0 0 0 0 127 0" result="hardAlpha"/>
      <feOffset dy="0.246154"/>
      <feGaussianBlur stdDeviation="1.23077"/>
      <feComposite in2="hardAlpha" operator="out"/>
      <feColorMatrix type="matrix" values="0 0 0 0 0 0 0 0 0 0 0 0 0 0 0 0 0 0 0.25 0"/>
      <feBlend mode="normal" in2="BackgroundImageFix" result="effect1_dropShadow_402_37"/>
      <feBlend mode="normal" in="SourceGraphic" in2="effect1_dropShadow_402_37" result="shape"/>
      <feColorMatrix in="SourceAlpha" type="matrix" values="0 0 0 0 0 0 0 0 0 0 0 0 0 0 0 0 0 0 127 0" result="hardAlpha"/>
      <feOffset dy="0.123077"/>
      <feGaussianBlur stdDeviation="0.0615385"/>
      <feComposite in2="hardAlpha" operator="arithmetic" k2="-1" k3="1"/>
      <feColorMatrix type="matrix" values="0 0 0 0 1 0 0 0 0 1 0 0 0 0 1 0 0 0 1 0"/>
      <feBlend mode="normal" in2="shape" result="effect2_innerShadow_402_37"/>
    </filter>
    <filter id="filter3_i_402_37" x="3.73389" y="6.29912" width="24.5254" height="19.549" filterUnits="userSpaceOnUse" color-interpolation-filters="sRGB">
      <feFlood flood-opacity="0" result="BackgroundImageFix"/>
      <feBlend mode="normal" in="SourceGraphic" in2="BackgroundImageFix" result="shape"/>
      <feColorMatrix in="SourceAlpha" type="matrix" values="0 0 0 0 0 0 0 0 0 0 0 0 0 0 0 0 0 0 127 0" result="hardAlpha"/>
      <feOffset dy="0.123077"/>
      <feGaussianBlur stdDeviation="0.0615385"/>
      <feComposite in2="hardAlpha" operator="arithmetic" k2="-1" k3="1"/>
      <feColorMatrix type="matrix" values="0 0 0 0 1 0 0 0 0 1 0 0 0 0 1 0 0 0 1 0"/>
      <feBlend mode="normal" in2="shape" result="effect1_innerShadow_402_37"/>
    </filter>
    <filter id="filter4_i_402_37" x="8.94434" y="10.8802" width="14.7478" height="10.1789" filterUnits="userSpaceOnUse" color-interpolation-filters="sRGB">
      <feFlood flood-opacity="0" result="BackgroundImageFix"/>
      <feBlend mode="normal" in="SourceGraphic" in2="BackgroundImageFix" result="shape"/>
      <feColorMatrix in="SourceAlpha" type="matrix" values="0 0 0 0 0 0 0 0 0 0 0 0 0 0 0 0 0 0 127 0" result="hardAlpha"/>
      <feOffset dx="0.123077" dy="0.123077"/>
      <feGaussianBlur stdDeviation="0.0615385"/>
      <feComposite in2="hardAlpha" operator="arithmetic" k2="-1" k3="1"/>
      <feColorMatrix type="matrix" values="0 0 0 0 0.937402 0 0 0 0 0.847667 0 0 0 0 0.529516 0 0 0 0.55 0"/>
      <feBlend mode="normal" in2="shape" result="effect1_innerShadow_402_37"/>
    </filter>
    <linearGradient id="paint0_linear_402_37" x1="1.77779" y1="0.927523" x2="30.5356" y2="22.6352" gradientUnits="userSpaceOnUse">
      <stop stop-color="#FFFEF7"/>
      <stop offset="0.559716" stop-color="#F9FEC7" stop-opacity="0.5"/>
      <stop offset="1" stop-color="#F3FEC2" stop-opacity="0.5"/>
    </linearGradient>
    <linearGradient id="paint1_linear_402_37" x1="11.752" y1="20.9062" x2="10.4897" y2="33.385" gradientUnits="userSpaceOnUse">
      <stop stop-color="#B8FF5D"/>
      <stop offset="1" stop-color="#19F148"/>
    </linearGradient>
    <linearGradient id="paint2_linear_402_37" x1="12.9081" y1="21.0065" x2="10.8855" y2="32.428" gradientUnits="userSpaceOnUse">
      <stop stop-color="#8FF65E"/>
      <stop offset="1" stop-color="#4ADA26"/>
    </linearGradient>
    <linearGradient id="paint3_linear_402_37" x1="12.6358" y1="-1.14996" x2="11.3735" y2="11.3289" gradientUnits="userSpaceOnUse">
      <stop stop-color="#48F4FF"/>
      <stop offset="1" stop-color="#2DBFED"/>
    </linearGradient>
    <linearGradient id="paint4_linear_402_37" x1="13.7919" y1="-1.04965" x2="11.7693" y2="10.3718" gradientUnits="userSpaceOnUse">
      <stop stop-color="#ACF0FF"/>
      <stop offset="1" stop-color="#12A7E7"/>
    </linearGradient>
    <linearGradient id="paint5_linear_402_37" x1="11.5529" y1="25.0634" x2="9.62238" y2="6.52778" gradientUnits="userSpaceOnUse">
      <stop stop-color="#FFC700"/>
      <stop offset="1" stop-color="#FCFF6E"/>
    </linearGradient>
    <linearGradient id="paint6_linear_402_37" x1="12.851" y1="24.9529" x2="9.42396" y2="8.18506" gradientUnits="userSpaceOnUse">
      <stop stop-color="#FAB504"/>
      <stop offset="1" stop-color="#FFF387"/>
    </linearGradient>
    <linearGradient id="paint7_linear_402_37" x1="11.5529" y1="25.0634" x2="9.62238" y2="6.52777" gradientUnits="userSpaceOnUse">
      <stop stop-color="#FFC700"/>
      <stop offset="1" stop-color="#FCFF6E"/>
    </linearGradient>
    <linearGradient id="paint8_linear_402_37" x1="12.851" y1="24.9529" x2="9.42396" y2="8.18505" gradientUnits="userSpaceOnUse">
      <stop stop-color="#FAB504"/>
      <stop offset="1" stop-color="#FFF387"/>
    </linearGradient>
    <linearGradient id="paint9_linear_402_37" x1="6.9605" y1="0" x2="6.9605" y2="1.47692" gradientUnits="userSpaceOnUse">
      <stop stop-color="#4A4A4A"/>
      <stop offset="1" stop-color="#191919"/>
    </linearGradient>
    <linearGradient id="paint10_linear_402_37" x1="4.16457" y1="0" x2="4.16457" y2="1.47692" gradientUnits="userSpaceOnUse">
      <stop stop-color="#4A4A4A"/>
      <stop offset="1" stop-color="#191919"/>
    </linearGradient>
    <linearGradient id="paint11_linear_402_37" x1="5.72873" y1="0" x2="5.72873" y2="1.47692" gradientUnits="userSpaceOnUse">
      <stop stop-color="#4A4A4A"/>
      <stop offset="1" stop-color="#191919"/>
    </linearGradient>
    <clipPath id="clip0_402_37">
      <rect width="32" height="32" rx="16" fill="white"/>
    </clipPath>
  </defs>
</svg>
