<svg xmlns="http://www.w3.org/2000/svg" width="20" height="20" viewBox="0 0 20 20" fill="none">
  <mask id="mask0_131_9068" style="mask-type:alpha" maskUnits="userSpaceOnUse" x="0" y="0" width="20" height="20">
    <rect width="20" height="20" fill="#D9D9D9"/>
  </mask>
  <g mask="url(#mask0_131_9068)">
    <path d="M9.45842 10.5416V13.25C9.45842 13.4035 9.50993 13.5321 9.61296 13.6359C9.71598 13.7397 9.84365 13.7916 9.99596 13.7916C10.1483 13.7916 10.2773 13.7397 10.3831 13.6359C10.4888 13.5321 10.5417 13.4035 10.5417 13.25V10.5416H13.2501C13.4035 10.5416 13.5322 10.4901 13.636 10.3871C13.7398 10.2841 13.7917 10.1564 13.7917 10.0041C13.7917 9.8518 13.7398 9.72276 13.636 9.617C13.5322 9.51124 13.4035 9.45835 13.2501 9.45835H10.5417V6.75C10.5417 6.59653 10.4902 6.46789 10.3872 6.36408C10.2841 6.26026 10.1565 6.20835 10.0042 6.20835C9.85186 6.20835 9.72282 6.26026 9.61706 6.36408C9.5113 6.46789 9.45842 6.59653 9.45842 6.75V9.45835H6.75006C6.59659 9.45835 6.46795 9.50987 6.36414 9.6129C6.26032 9.71592 6.20841 9.84359 6.20841 9.9959C6.20841 10.1482 6.26032 10.2772 6.36414 10.383C6.46795 10.4888 6.59659 10.5416 6.75006 10.5416H9.45842ZM10.0072 17.5833C8.96398 17.5833 7.98148 17.386 7.05971 16.9912C6.13792 16.5965 5.3311 16.0534 4.63925 15.3619C3.94739 14.6703 3.40401 13.8642 3.0091 12.9434C2.6142 12.0226 2.41675 11.0388 2.41675 9.99185C2.41675 8.94494 2.61411 7.96406 3.00883 7.04923C3.40355 6.13438 3.94668 5.33104 4.63821 4.63919C5.32975 3.94733 6.13591 3.40394 7.05669 3.00904C7.97746 2.61414 8.9613 2.41669 10.0082 2.41669C11.0551 2.41669 12.036 2.61405 12.9508 3.00877C13.8657 3.40349 14.669 3.94662 15.3609 4.63815C16.0527 5.32969 16.5961 6.13422 16.991 7.05175C17.3859 7.96928 17.5834 8.94965 17.5834 9.99285C17.5834 11.0361 17.386 12.0186 16.9913 12.9404C16.5966 13.8621 16.0534 14.669 15.3619 15.3608C14.6704 16.0527 13.8658 16.5961 12.9483 16.991C12.0308 17.3859 11.0504 17.5833 10.0072 17.5833ZM10.0001 16.5C11.8056 16.5 13.3403 15.8681 14.6042 14.6042C15.8681 13.3403 16.5001 11.8056 16.5001 10C16.5001 8.19444 15.8681 6.65972 14.6042 5.39583C13.3403 4.13194 11.8056 3.5 10.0001 3.5C8.1945 3.5 6.65978 4.13194 5.39589 5.39583C4.132 6.65972 3.50006 8.19444 3.50006 10C3.50006 11.8056 4.132 13.3403 5.39589 14.6042C6.65978 15.8681 8.1945 16.5 10.0001 16.5Z" fill="#51AEFF"/>
  </g>
</svg>
