<svg width="16" height="16" viewBox="0 0 16 16" fill="none" xmlns="http://www.w3.org/2000/svg">
<path d="M12.3958 3.61098C12.1237 3.33885 11.6841 3.33885 11.412 3.61098L7.9999 7.01606L4.58784 3.604C4.31572 3.33187 3.87613 3.33187 3.604 3.604C3.33187 3.87613 3.33187 4.31572 3.604 4.58784L7.01606 7.9999L3.604 11.412C3.33187 11.6841 3.33187 12.1237 3.604 12.3958C3.87613 12.6679 4.31572 12.6679 4.58784 12.3958L7.9999 8.98375L11.412 12.3958C11.6841 12.6679 12.1237 12.6679 12.3958 12.3958C12.6679 12.1237 12.6679 11.6841 12.3958 11.412L8.98375 7.9999L12.3958 4.58784C12.661 4.32269 12.661 3.87613 12.3958 3.61098Z" fill="#ADADAD"/>
</svg>
