<svg width="16" height="16" viewBox="0 0 16 16" fill="none" xmlns="http://www.w3.org/2000/svg">
<path fill-rule="evenodd" clip-rule="evenodd" d="M4.66667 4.25H11.3333C11.5635 4.25 11.75 4.43655 11.75 4.66667V6.33328H4.25V4.66667C4.25 4.43655 4.43655 4.25 4.66667 4.25ZM4.25 7.58328V11.3333C4.25 11.3333 4.25 11.3333 4.25 11.3333C4.25 11.3477 4.25073 11.3619 4.25215 11.3759C4.27351 11.586 4.45095 11.7499 4.66667 11.7499H11.3333C11.5635 11.7499 11.75 11.5634 11.75 11.3333V7.58328H4.25ZM3 6.33328V4.66667C3 3.74619 3.74619 3 4.66667 3H11.3333C12.2538 3 13 3.74619 13 4.66667V6.33328V11.3333V11.3333C13 12.2538 12.2538 13 11.3333 13H4.66667C3.74619 13 3 12.2538 3 11.3333V11.3333V6.33328Z" fill="#ADADAD"/>
</svg>
