<svg width="16" height="16" viewBox="0 0 16 16" fill="none" xmlns="http://www.w3.org/2000/svg">
<path fill-rule="evenodd" clip-rule="evenodd" d="M10.3333 5.25H3.66667C3.43655 5.25 3.25 5.43655 3.25 5.66667V12.3333C3.25 12.5635 3.43655 12.75 3.66667 12.75H10.3333C10.5635 12.75 10.75 12.5635 10.75 12.3333V5.66667C10.75 5.43655 10.5635 5.25 10.3333 5.25ZM3.66667 4C2.74619 4 2 4.74619 2 5.66667V12.3333C2 13.2538 2.74619 14 3.66667 14H10.3333C11.2538 14 12 13.2538 12 12.3333V5.66667C12 4.74619 11.2538 4 10.3333 4H3.66667Z" fill="#ADADAD"/>
<path fill-rule="evenodd" clip-rule="evenodd" d="M10.75 8.58325H3.25V12.3333C3.25 12.5634 3.43655 12.7499 3.66667 12.7499H10.3333C10.5635 12.7499 10.75 12.5634 10.75 12.3333V8.58325ZM2 7.33325V12.3333C2 13.2537 2.74619 13.9999 3.66667 13.9999H10.3333C11.2538 13.9999 12 13.2537 12 12.3333V7.33325H2Z" fill="#ADADAD"/>
<path fill-rule="evenodd" clip-rule="evenodd" d="M5.66667 3.25H12.3333C12.5635 3.25 12.75 3.43655 12.75 3.66667V10.3333C12.75 10.5635 12.5635 10.75 12.3333 10.75H12V12H12.3333C13.2538 12 14 11.2538 14 10.3333V3.66667C14 2.74619 13.2538 2 12.3333 2H5.66667C4.74619 2 4 2.74619 4 3.66667V4H5.25V3.66667C5.25 3.43655 5.43655 3.25 5.66667 3.25Z" fill="#ADADAD"/>
</svg>
