<svg width="40" height="40" viewBox="0 0 40 40" fill="none" xmlns="http://www.w3.org/2000/svg">
<rect width="40" height="40" rx="20" fill="#44CFFF"/>
<g clip-path="url(#clip0_533_6239)">
<path d="M25.2667 17.2788C25.2667 18.8717 24 20.1991 22.4 20.1991C20.8 20.1991 19.5333 18.9381 19.5333 17.2788C19.5333 15.6195 20.8 14.292 22.4 14.3584C24 14.3584 25.2667 15.6858 25.2667 17.2788ZM18.0667 12.5C19.2 12.5 20.2 13.0973 20.6667 14.0265C20.4667 14.0929 20.3333 14.1593 20.2 14.292C19.2 14.9558 18.5333 16.0841 18.5333 17.3451C18.5333 17.677 18.6 18.0088 18.6667 18.3407C18.4667 18.4071 18.2667 18.4071 18.0667 18.4071C16.4667 18.4071 15.1333 17.146 15.1333 15.4867C15.1333 13.8274 16.4 12.5 18.0667 12.5ZM12 24.646C12 21.5265 14.7333 19.0044 18.0667 19.0044C18.3333 19.0044 18.6667 19.0044 18.9333 19.0708C19.2667 19.7345 19.8667 20.2655 20.5333 20.5973C19.8 20.7301 19.1333 20.9956 18.5333 21.3938C16.9333 22.2566 15.8 23.5841 15.2667 25.3097C13.2 25.0442 12 24.646 12 24.646ZM22.2667 27.5C18.4667 27.5 16.1333 26.7035 16.1333 26.7035C16.1333 23.6504 18.8 21.1283 22.0667 21.1283C25.3333 21.1283 28 23.6504 28 26.7035C28 26.7035 26.0667 27.5 22.2667 27.5Z" fill="#0D0D0D"/>
</g>
<defs>
<clipPath id="clip0_533_6239">
<rect width="16" height="16" fill="white" transform="translate(12 12)"/>
</clipPath>
</defs>
</svg>
