<svg width="24" height="24" viewBox="0 0 24 24" fill="none" xmlns="http://www.w3.org/2000/svg">
<circle cx="12" cy="12" r="12" fill="url(#paint0_linear_131_7727)"/>
<path d="M15.5036 13.844C15.8714 13.8672 16.0188 13.5793 16.0183 13.2509C16.0165 12.4341 16.0162 11.6194 16.0172 10.8069C16.0177 10.5348 15.8993 10.2106 15.5767 10.2111C14.4726 10.2122 13.3746 10.2124 12.2828 10.2117C12.2638 10.2117 12.2543 10.2022 12.2543 10.1832V9.35751C12.2543 9.33997 12.2614 9.32593 12.2754 9.31541C12.3312 9.27436 12.3917 9.25278 12.4396 9.19752C12.6685 8.93491 12.5664 8.56021 12.2396 8.44601C11.9586 8.34759 11.6249 8.57968 11.636 8.88544C11.6426 9.07139 11.7296 9.20998 11.897 9.3012C11.9094 9.30789 11.9199 9.31781 11.9272 9.32993C11.9345 9.34206 11.9384 9.35594 11.9386 9.37014L11.9391 10.1748C11.9391 10.1844 11.9353 10.1937 11.9285 10.2005C11.9217 10.2073 11.9124 10.2111 11.9028 10.2111C10.9225 10.2129 9.8933 10.2127 8.81514 10.2106C8.41412 10.2095 8.34623 10.67 8.37254 10.9732" stroke="#FDBDA9" stroke-width="0.105255"/>
<path d="M15.5036 13.844C13.2855 13.8429 11.0673 13.8429 8.84884 13.844C8.74534 13.844 8.66201 13.8229 8.59886 13.7808C8.4494 13.6815 8.37449 13.5398 8.37414 13.3556C8.37308 12.5613 8.37256 11.7671 8.37256 10.9731" stroke="#FCA8A2" stroke-width="0.105255"/>
<path d="M11.1203 11.9226C11.1203 11.7474 11.0507 11.5794 10.9268 11.4555C10.803 11.3317 10.635 11.2621 10.4598 11.2621C10.2846 11.2621 10.1166 11.3317 9.99277 11.4555C9.8689 11.5794 9.79932 11.7474 9.79932 11.9226C9.79932 12.0977 9.8689 12.2657 9.99277 12.3896C10.1166 12.5134 10.2846 12.583 10.4598 12.583C10.635 12.583 10.803 12.5134 10.9268 12.3896C11.0507 12.2657 11.1203 12.0977 11.1203 11.9226Z" stroke="#FCA8A2" stroke-width="0.105255"/>
<path d="M14.9721 11.9231C14.9721 11.7479 14.9025 11.5799 14.7786 11.456C14.6548 11.3322 14.4868 11.2626 14.3116 11.2626C14.1364 11.2626 13.9684 11.3322 13.8446 11.456C13.7207 11.5799 13.6511 11.7479 13.6511 11.9231C13.6511 12.0098 13.6682 12.0957 13.7014 12.1758C13.7346 12.2559 13.7832 12.3287 13.8446 12.3901C13.9059 12.4514 13.9787 12.5001 14.0588 12.5332C14.139 12.5664 14.2249 12.5835 14.3116 12.5835C14.3983 12.5835 14.4842 12.5664 14.5643 12.5332C14.6445 12.5001 14.7173 12.4514 14.7786 12.3901C14.84 12.3287 14.8886 12.2559 14.9218 12.1758C14.955 12.0957 14.9721 12.0098 14.9721 11.9231Z" stroke="#FDBDA9" stroke-width="0.105255"/>
<path d="M9.72818 4.56573C9.60503 4.73308 9.50082 4.91043 9.41557 5.09779C8.6458 6.79099 7.87587 8.48454 7.10575 10.1784C6.14302 12.2888 5.18222 14.4002 4.22334 16.5127C4.11423 16.753 4.04757 16.9341 4.02336 17.0558C3.89863 17.681 4.2865 18.2815 4.87382 18.5041C5.01626 18.5581 5.21695 18.5843 5.47588 18.5825C6.44422 18.5759 7.39748 18.5764 8.33565 18.5841C8.86456 18.5888 9.27979 18.4909 9.66923 18.1241C9.78115 18.0189 9.90255 17.8428 10.0334 17.5958C10.5285 16.6597 10.9783 15.8096 11.3828 15.0454C11.3858 15.0399 11.3904 15.0352 11.3959 15.032C11.4015 15.0287 11.4078 15.027 11.4144 15.027L13.099 15.0265C13.1103 15.0265 13.1215 15.0294 13.1314 15.0351C13.1413 15.0407 13.1495 15.0488 13.1553 15.0586C13.6493 15.8799 14.1359 16.7009 14.6152 17.5216C14.8043 17.8457 14.965 18.0652 15.0972 18.1799C15.4074 18.4497 15.788 18.5834 16.2392 18.5809C16.9083 18.5774 17.6418 18.5781 18.4396 18.583C18.7231 18.5848 18.9383 18.5639 19.0853 18.5204C19.6748 18.3457 20.041 17.7631 19.9963 17.1547C19.9865 17.0207 19.9112 16.7983 19.7705 16.4874C19.6646 16.2534 19.5585 16.0196 19.4522 15.7859L15.7167 7.59444C15.4002 6.89625 15.083 6.19946 14.7651 5.50407C14.5504 5.03393 14.3892 4.72554 14.2815 4.57888C13.1626 3.05479 10.857 3.03058 9.72818 4.56573Z" fill="#1F1814"/>
<path d="M15.3456 13.844C13.1275 13.843 10.9093 13.843 8.69087 13.844C8.58736 13.844 8.50404 13.823 8.44088 13.7809C8.29142 13.6816 8.21652 13.5398 8.21616 13.3556C8.21511 12.5613 8.21459 11.7671 8.21459 10.9732C8.18827 10.67 8.25616 10.2095 8.65718 10.2106C9.73534 10.2127 10.8698 10.2129 11.8501 10.2111C11.8597 10.2111 11.869 10.2073 11.8758 10.2005C11.8826 10.1937 11.8864 10.1844 11.8864 10.1748L11.8859 9.37014C11.8857 9.35594 11.8818 9.34206 11.8745 9.32993C11.8672 9.31781 11.8567 9.30789 11.8443 9.3012C11.6769 9.20998 11.5899 9.07139 11.5833 8.88544C11.5722 8.57968 11.9059 8.34759 12.1869 8.44601C12.5137 8.56021 12.6158 8.93491 12.3869 9.19752C12.339 9.25278 12.2785 9.27436 12.2227 9.31541C12.2087 9.32593 12.2016 9.33997 12.2016 9.35751V10.1832C12.2016 10.2022 12.2111 10.2117 12.2301 10.2117C13.3219 10.2124 14.3146 10.2122 15.4188 10.2111C15.7414 10.2106 15.8598 10.5348 15.8592 10.8069C15.8582 11.6194 15.8585 12.4341 15.8603 13.2509C15.8608 13.5793 15.7135 13.8672 15.3456 13.844ZM10.9623 11.9226C10.9623 11.7474 10.8927 11.5794 10.7688 11.4555C10.645 11.3317 10.477 11.2621 10.3018 11.2621C10.1266 11.2621 9.95863 11.3317 9.83477 11.4555C9.7109 11.5794 9.64132 11.7474 9.64132 11.9226C9.64132 12.0977 9.7109 12.2657 9.83477 12.3896C9.95863 12.5135 10.1266 12.583 10.3018 12.583C10.477 12.583 10.645 12.5135 10.7688 12.3896C10.8927 12.2657 10.9623 12.0977 10.9623 11.9226ZM14.8141 11.9231C14.8141 11.7479 14.7445 11.5799 14.6206 11.4561C14.4968 11.3322 14.3288 11.2626 14.1536 11.2626C13.9784 11.2626 13.8104 11.3322 13.6866 11.4561C13.5627 11.5799 13.4931 11.7479 13.4931 11.9231C13.4931 12.0098 13.5102 12.0957 13.5434 12.1759C13.5766 12.256 13.6252 12.3288 13.6866 12.3901C13.7479 12.4515 13.8207 12.5001 13.9008 12.5333C13.981 12.5665 14.0669 12.5836 14.1536 12.5836C14.2403 12.5836 14.3262 12.5665 14.4063 12.5333C14.4865 12.5001 14.5593 12.4515 14.6206 12.3901C14.682 12.3288 14.7306 12.256 14.7638 12.1759C14.797 12.0957 14.8141 12.0098 14.8141 11.9231Z" fill="url(#paint1_linear_131_7727)"/>
<path d="M10.3018 12.583C10.6666 12.583 10.9623 12.2873 10.9623 11.9226C10.9623 11.5578 10.6666 11.2621 10.3018 11.2621C9.93706 11.2621 9.64136 11.5578 9.64136 11.9226C9.64136 12.2873 9.93706 12.583 10.3018 12.583Z" fill="#1F1814"/>
<path d="M14.1536 12.5835C14.5184 12.5835 14.8141 12.2878 14.8141 11.9231C14.8141 11.5583 14.5184 11.2626 14.1536 11.2626C13.7889 11.2626 13.4932 11.5583 13.4932 11.9231C13.4932 12.2878 13.7889 12.5835 14.1536 12.5835Z" fill="#1F1814"/>
<defs>
<linearGradient id="paint0_linear_131_7727" x1="0" y1="12" x2="24" y2="12" gradientUnits="userSpaceOnUse">
<stop stop-color="#8CE3FF"/>
<stop offset="1" stop-color="#7FFF93"/>
</linearGradient>
<linearGradient id="paint1_linear_131_7727" x1="8.20959" y1="11.1342" x2="15.8603" y2="11.1342" gradientUnits="userSpaceOnUse">
<stop stop-color="#8CE3FF"/>
<stop offset="1" stop-color="#7FFF93"/>
</linearGradient>
</defs>
</svg>
