<svg width="20" height="20" viewBox="0 0 20 20" fill="none" xmlns="http://www.w3.org/2000/svg">
<g clip-path="url(#clip0_131_8071)">
<path d="M4.79146 17.8343C4.79146 18.2626 4.66445 18.6813 4.42648 19.0375C4.18851 19.3936 3.85027 19.6712 3.45454 19.8351C3.05881 19.999 2.62336 20.0419 2.20326 19.9584C1.78315 19.8748 1.39726 19.6685 1.09438 19.3657C0.791505 19.0628 0.585242 18.6769 0.501678 18.2568C0.418114 17.8367 0.461002 17.4012 0.624919 17.0055C0.788836 16.6098 1.06642 16.2715 1.42257 16.0336C1.77871 15.7956 2.19743 15.6686 2.62576 15.6686C2.91017 15.6686 3.19179 15.7246 3.45454 15.8334C3.7173 15.9423 3.95604 16.1018 4.15714 16.3029C4.35825 16.504 4.51777 16.7428 4.62661 17.0055C4.73545 17.2683 4.79146 17.5499 4.79146 17.8343ZM3.04493 0.0196664C2.71302 -0.0238827 2.37562 0.005095 2.056 0.1046C1.73637 0.204105 1.44214 0.371768 1.19361 0.596022C0.952721 0.807776 0.759624 1.06834 0.627132 1.36042C0.494641 1.65251 0.425785 1.96943 0.425134 2.29016C0.43422 2.84744 0.64565 3.38241 1.02001 3.79533C1.39437 4.20825 1.90611 4.47095 2.45984 4.53445C8.86088 5.34659 14.2489 11.1276 14.9825 17.9827C15.039 18.537 15.3005 19.0501 15.7156 19.4216C16.1308 19.7932 16.6697 19.9963 17.2268 19.9913C17.5552 19.9963 17.8809 19.9312 18.1822 19.8002C18.4834 19.6691 18.7531 19.4753 18.9733 19.2315C19.1861 18.9974 19.3461 18.7203 19.4425 18.419C19.5389 18.1176 19.5695 17.7991 19.5322 17.485C18.5454 8.6126 11.4545 1.10252 3.04493 0.0196664ZM3.19339 7.47735C2.86802 7.39262 2.52739 7.3848 2.19848 7.45453C1.86957 7.52425 1.5614 7.6696 1.2984 7.87906C1.025 8.09415 0.804239 8.36876 0.652917 8.68199C0.501595 8.99523 0.423693 9.33885 0.425134 9.68672C0.422746 10.1964 0.594624 10.6917 0.912276 11.0903C1.22993 11.489 1.67428 11.7671 2.17167 11.8786C4.79146 12.5074 7.06195 15.0748 7.63831 18.105C7.74005 18.6139 8.01307 19.0726 8.41189 19.4047C8.81072 19.7368 9.31128 19.9222 9.8302 19.9301C10.1636 19.9294 10.4929 19.8555 10.7946 19.7137C11.0964 19.5718 11.3634 19.3655 11.5767 19.1093C11.7871 18.8597 11.9394 18.5665 12.0225 18.2508C12.1055 17.9351 12.1173 17.6049 12.057 17.2841C11.1663 12.5598 7.49859 8.52527 3.14972 7.49482L3.19339 7.47735Z" fill="#1F1814"/>
</g>
<defs>
<clipPath id="clip0_131_8071">
<rect width="20" height="20" fill="white"/>
</clipPath>
</defs>
</svg>
