<svg width="20" height="20" viewBox="0 0 20 20" fill="none" xmlns="http://www.w3.org/2000/svg">
<g clip-path="url(#clip0_131_8661)">
<path d="M4.7914 17.8343C4.7914 18.2626 4.66439 18.6813 4.42642 19.0375C4.18845 19.3936 3.85021 19.6712 3.45448 19.8351C3.05875 19.999 2.6233 20.0419 2.2032 19.9584C1.78309 19.8748 1.3972 19.6685 1.09432 19.3657C0.791444 19.0628 0.585181 18.6769 0.501617 18.2568C0.418053 17.8367 0.460941 17.4012 0.624858 17.0055C0.788775 16.6098 1.06636 16.2715 1.42251 16.0336C1.77865 15.7956 2.19737 15.6686 2.6257 15.6686C2.91011 15.6686 3.19173 15.7246 3.45448 15.8334C3.71723 15.9423 3.95598 16.1018 4.15708 16.3029C4.35819 16.504 4.51771 16.7428 4.62655 17.0055C4.73538 17.2683 4.7914 17.5499 4.7914 17.8343ZM3.04487 0.0196664C2.71296 -0.0238827 2.37556 0.005095 2.05593 0.1046C1.73631 0.204105 1.44208 0.371768 1.19355 0.596022C0.95266 0.807776 0.759563 1.06834 0.627071 1.36042C0.49458 1.65251 0.425724 1.96943 0.425073 2.29016C0.434159 2.84744 0.645589 3.38241 1.01995 3.79533C1.39431 4.20825 1.90605 4.47095 2.45978 4.53445C8.86082 5.34659 14.2489 11.1276 14.9824 17.9827C15.039 18.537 15.3004 19.0501 15.7156 19.4216C16.1307 19.7932 16.6696 19.9963 17.2267 19.9913C17.5551 19.9963 17.8809 19.9312 18.1821 19.8002C18.4833 19.6691 18.753 19.4753 18.9732 19.2315C19.186 18.9974 19.346 18.7203 19.4424 18.419C19.5389 18.1176 19.5694 17.7991 19.5321 17.485C18.5453 8.6126 11.4544 1.10252 3.04487 0.0196664ZM3.19333 7.47735C2.86796 7.39262 2.52733 7.3848 2.19842 7.45453C1.8695 7.52425 1.56134 7.6696 1.29834 7.87906C1.02493 8.09415 0.804178 8.36876 0.652856 8.68199C0.501534 8.99523 0.423632 9.33885 0.425073 9.68672C0.422685 10.1964 0.594563 10.6917 0.912215 11.0903C1.22987 11.489 1.67422 11.7671 2.1716 11.8786C4.7914 12.5074 7.06189 15.0748 7.63825 18.105C7.73999 18.6139 8.01301 19.0726 8.41183 19.4047C8.81066 19.7368 9.31122 19.9222 9.83014 19.9301C10.1636 19.9294 10.4928 19.8555 10.7946 19.7137C11.0963 19.5718 11.3633 19.3655 11.5767 19.1093C11.7871 18.8597 11.9393 18.5665 12.0224 18.2508C12.1055 17.9351 12.1173 17.6049 12.057 17.2841C11.1662 12.5598 7.49852 8.52527 3.14966 7.49482L3.19333 7.47735Z" fill="#8F8F8F"/>
</g>
<defs>
<clipPath id="clip0_131_8661">
<rect width="20" height="20" fill="white"/>
</clipPath>
</defs>
</svg>
