<svg width="18" height="24" viewBox="0 0 18 24" fill="none" xmlns="http://www.w3.org/2000/svg">
<path d="M18 21V6.75L11.25 0H3C1.34315 0 0 1.34314 0 3V21C0 22.6569 1.34315 24 3 24H15C16.6569 24 18 22.6569 18 21ZM11.25 4.5C11.25 5.74264 12.2574 6.75 13.5 6.75H16.5V21C16.5 21.8284 15.8284 22.5 15 22.5H3C2.17157 22.5 1.5 21.8284 1.5 21V3C1.5 2.17157 2.17157 1.5 3 1.5H11.25V4.5Z" fill="#3D3D3D"/>
<path d="M3.90461 21.13C3.59239 21.016 3.38253 20.7726 3.24704 20.5016C2.95535 19.9183 3.05219 19.3366 3.36808 18.8469C3.6648 18.3868 4.1566 17.9958 4.71235 17.6675C5.33799 17.298 6.10845 16.9713 6.93617 16.7C7.24683 16.1424 7.55086 15.5497 7.83531 14.9474C8.08768 14.4129 8.32141 13.8777 8.52871 13.3595C8.24131 12.6883 8.01602 12.025 7.88458 11.4171C7.75468 10.8164 7.70564 10.2221 7.8143 9.71244C7.92744 9.18173 8.22532 8.70415 8.79118 8.4778C9.07852 8.36287 9.38997 8.29726 9.69323 8.36211C10.0251 8.43307 10.2647 8.64217 10.4084 8.90992C10.5407 9.15657 10.5886 9.44335 10.5988 9.71743C10.6093 9.99826 10.5815 10.3103 10.5279 10.6377C10.4029 11.4025 10.1222 12.3396 9.74758 13.3296C9.96971 13.8062 10.225 14.2887 10.5019 14.7561C10.732 15.1443 10.973 15.5152 11.2173 15.8583C11.9597 15.8114 12.6494 15.8305 13.2196 15.9331C13.7654 16.0313 14.3206 16.226 14.6595 16.6302C14.8409 16.8466 14.9488 17.1107 14.9596 17.4082C14.9701 17.6958 14.8889 17.9802 14.7532 18.2516C14.6265 18.5049 14.4535 18.7243 14.2213 18.8762C13.9843 19.0313 13.7207 19.093 13.457 19.0824C12.96 19.0624 12.4759 18.7887 12.0566 18.4575C11.6058 18.1015 11.14 17.6065 10.6905 17.0329C10.2101 17.0851 9.70408 17.1643 9.19096 17.2686C8.68324 17.3718 8.17854 17.4975 7.6952 17.6414C7.18827 18.5161 6.66263 19.3045 6.1636 19.9061C5.72757 20.4317 5.25198 20.8898 4.77452 21.0866C4.52198 21.1906 4.21484 21.2433 3.90461 21.13ZM5.97237 18.2789C5.72405 18.3934 5.49326 18.5129 5.28448 18.6362C4.79256 18.9267 4.47271 19.2098 4.31347 19.4567C4.17338 19.6738 4.16992 19.8318 4.25326 19.9985C4.26941 20.0308 4.28291 20.0516 4.29267 20.0646C4.3051 20.0615 4.3226 20.056 4.34596 20.0464C4.55114 19.9619 4.87829 19.6934 5.29774 19.1878C5.51543 18.9254 5.74207 18.6189 5.97237 18.2789ZM8.43299 16.2827C8.61096 16.2411 8.78918 16.2023 8.96689 16.1661C9.29347 16.0998 9.62216 16.042 9.94808 15.994C9.80585 15.7769 9.66747 15.5546 9.53414 15.3296C9.41323 15.1256 9.29543 14.9176 9.18179 14.7071C9.07548 14.948 8.96547 15.1887 8.85259 15.4278C8.71732 15.7142 8.57704 16.0001 8.43299 16.2827ZM12.1023 16.9602C12.3266 17.2027 12.5458 17.4103 12.7539 17.5746C13.1146 17.8596 13.3655 17.9528 13.5021 17.9583C13.5553 17.9604 13.5831 17.9494 13.6053 17.9349C13.6323 17.9172 13.6861 17.8701 13.747 17.7484C13.825 17.5923 13.8371 17.4966 13.8354 17.4491C13.834 17.4114 13.8243 17.3851 13.7973 17.3529C13.7197 17.2603 13.496 17.1259 13.0204 17.0403C12.7535 16.9923 12.4438 16.9659 12.1023 16.9602ZM9.11763 11.6981C9.25541 11.2411 9.35802 10.8212 9.41768 10.4562C9.46376 10.1742 9.48136 9.94131 9.47459 9.75926C9.46866 9.59985 9.44496 9.50797 9.42655 9.4624C9.39035 9.46529 9.32103 9.47753 9.209 9.52234C9.07851 9.57453 8.97132 9.68085 8.91458 9.947C8.85336 10.2342 8.86963 10.6497 8.98416 11.1793C9.02023 11.3461 9.06498 11.5195 9.11763 11.6981Z" fill="#3D3D3D"/>
</svg>
