<svg width="20" height="20" viewBox="0 0 20 20" fill="none" xmlns="http://www.w3.org/2000/svg">
<g clip-path="url(#clip0_131_8667)">
<path fill-rule="evenodd" clip-rule="evenodd" d="M9.79666 0.238586C9.93197 0.199099 10.0757 0.199117 10.211 0.238639L18.3384 2.61283C18.6537 2.70492 18.8703 2.99396 18.8703 3.32238V8.19126C18.8703 13.627 15.3917 18.4528 10.2347 20.1711C10.0831 20.2216 9.9191 20.2216 9.76743 20.1711C4.60911 18.4528 1.12939 13.626 1.12939 8.189V3.32238C1.12939 2.99388 1.34617 2.7048 1.66151 2.61277L9.79666 0.238586ZM15.2406 7.71807C15.5485 7.41014 15.5485 6.9109 15.2406 6.60298C14.9327 6.29506 14.4334 6.29506 14.1255 6.60299L9.08063 11.6479L6.37011 8.93735C6.06218 8.62943 5.56294 8.62942 5.25502 8.93734C4.94709 9.24527 4.94709 9.74451 5.25501 10.0524L8.52308 13.3205C8.67095 13.4684 8.87151 13.5515 9.08063 13.5515C9.28975 13.5515 9.49031 13.4684 9.63818 13.3205L15.2406 7.71807Z" fill="#1F1814"/>
</g>
<defs>
<clipPath id="clip0_131_8667">
<rect width="20" height="20" fill="white"/>
</clipPath>
</defs>
</svg>
