<svg width="20" height="20" viewBox="0 0 20 20" fill="none" xmlns="http://www.w3.org/2000/svg">
<g clip-path="url(#clip0_131_8076)">
<path fill-rule="evenodd" clip-rule="evenodd" d="M9.79679 0.238586C9.93209 0.199099 10.0759 0.199117 10.2112 0.238639L18.3385 2.61283C18.6538 2.70492 18.8705 2.99396 18.8705 3.32238V8.19126C18.8705 13.627 15.3918 18.4528 10.2348 20.1711C10.0832 20.2216 9.91922 20.2216 9.76756 20.1711C4.60923 18.4528 1.12952 13.626 1.12952 8.189V3.32238C1.12952 2.99388 1.34629 2.7048 1.66163 2.61277L9.79679 0.238586ZM15.2407 7.71807C15.5486 7.41014 15.5486 6.9109 15.2407 6.60298C14.9328 6.29506 14.4335 6.29506 14.1256 6.60299L9.08075 11.6479L6.37023 8.93735C6.06231 8.62943 5.56306 8.62942 5.25514 8.93734C4.94721 9.24527 4.94721 9.74451 5.25513 10.0524L8.5232 13.3205C8.67107 13.4684 8.87163 13.5515 9.08075 13.5515C9.28987 13.5515 9.49043 13.4684 9.6383 13.3205L15.2407 7.71807Z" fill="#8F8F8F"/>
</g>
<defs>
<clipPath id="clip0_131_8076">
<rect width="20" height="20" fill="white"/>
</clipPath>
</defs>
</svg>
