<svg width="157" height="112" viewBox="0 0 157 112" fill="none" xmlns="http://www.w3.org/2000/svg">
<mask id="mask0_131_7900" style="mask-type:alpha" maskUnits="userSpaceOnUse" x="0" y="0" width="157" height="112">
<path d="M0.5 20C0.5 9.23044 9.23045 0.5 20 0.5H137C147.77 0.5 156.5 9.23045 156.5 20V92C156.5 102.77 147.77 111.5 137 111.5H20C9.23045 111.5 0.5 102.77 0.5 92V20Z" fill="#F7FEFF" stroke="#EBEBEB"/>
</mask>
<g mask="url(#mask0_131_7900)">
<g opacity="0.9" filter="url(#filter0_d_131_7900)">
<path opacity="0.6" d="M77 45C77 40.5817 80.5817 37 85 37H167C171.418 37 175 40.5817 175 45V55C175 59.4183 171.418 63 167 63H85C80.5817 63 77 59.4183 77 55V45Z" fill="white"/>
<rect opacity="0.6" x="101" y="51" width="57" height="2" rx="1" fill="#EBEBEB"/>
<rect opacity="0.6" x="101" y="55" width="46" height="2" rx="1" fill="#EBEBEB"/>
<path opacity="0.7" d="M104.243 47.3145V48H101.973V47.3145H104.243ZM102.26 43.7344V48H101.381V43.7344H102.26ZM103.947 45.4717V46.1396H101.973V45.4717H103.947ZM104.24 43.7344V44.4229H101.973V43.7344H104.24ZM105.547 45.4863V48H104.7V44.8301H105.494L105.547 45.4863ZM105.43 46.3037H105.195C105.195 46.083 105.222 45.8799 105.274 45.6943C105.329 45.5068 105.408 45.3447 105.512 45.208C105.617 45.0693 105.747 44.9619 105.901 44.8857C106.056 44.8096 106.234 44.7715 106.438 44.7715C106.578 44.7715 106.707 44.793 106.824 44.8359C106.941 44.877 107.042 44.9424 107.126 45.0322C107.212 45.1201 107.278 45.2354 107.325 45.3779C107.372 45.5186 107.396 45.6875 107.396 45.8848V48H106.552V45.9785C106.552 45.834 106.532 45.7227 106.493 45.6445C106.454 45.5664 106.398 45.5117 106.326 45.4805C106.256 45.4492 106.171 45.4336 106.071 45.4336C105.962 45.4336 105.866 45.4561 105.784 45.501C105.704 45.5459 105.638 45.6084 105.585 45.6885C105.532 45.7666 105.493 45.8584 105.468 45.9639C105.442 46.0693 105.43 46.1826 105.43 46.3037ZM107.316 46.207L107.015 46.2451C107.015 46.0381 107.04 45.8457 107.091 45.668C107.144 45.4902 107.221 45.334 107.322 45.1992C107.426 45.0645 107.554 44.96 107.706 44.8857C107.858 44.8096 108.034 44.7715 108.233 44.7715C108.386 44.7715 108.524 44.7939 108.649 44.8389C108.774 44.8818 108.881 44.9512 108.969 45.0469C109.059 45.1406 109.127 45.2637 109.174 45.416C109.223 45.5684 109.247 45.7549 109.247 45.9756V48H108.4V45.9756C108.4 45.8291 108.381 45.7178 108.342 45.6416C108.305 45.5635 108.25 45.5098 108.178 45.4805C108.107 45.4492 108.023 45.4336 107.926 45.4336C107.824 45.4336 107.735 45.4541 107.659 45.4951C107.583 45.5342 107.52 45.5889 107.469 45.6592C107.418 45.7295 107.38 45.8115 107.354 45.9053C107.329 45.9971 107.316 46.0977 107.316 46.207ZM111.611 47.2852V45.873C111.611 45.7715 111.595 45.6846 111.562 45.6123C111.528 45.5381 111.477 45.4805 111.406 45.4395C111.338 45.3984 111.249 45.3779 111.14 45.3779C111.046 45.3779 110.965 45.3945 110.896 45.4277C110.828 45.459 110.775 45.5049 110.738 45.5654C110.701 45.624 110.683 45.6934 110.683 45.7734H109.839C109.839 45.6387 109.87 45.5107 109.933 45.3896C109.995 45.2686 110.086 45.1621 110.205 45.0703C110.324 44.9766 110.466 44.9033 110.63 44.8506C110.796 44.7979 110.981 44.7715 111.187 44.7715C111.433 44.7715 111.651 44.8125 111.843 44.8945C112.034 44.9766 112.185 45.0996 112.294 45.2637C112.405 45.4277 112.461 45.6328 112.461 45.8789V47.2354C112.461 47.4092 112.472 47.5518 112.493 47.6631C112.515 47.7725 112.546 47.8682 112.587 47.9502V48H111.734C111.693 47.9141 111.662 47.8066 111.641 47.6777C111.621 47.5469 111.611 47.416 111.611 47.2852ZM111.723 46.0693L111.729 46.5469H111.257C111.146 46.5469 111.049 46.5596 110.967 46.585C110.885 46.6104 110.817 46.6465 110.765 46.6934C110.712 46.7383 110.673 46.791 110.647 46.8516C110.624 46.9121 110.612 46.9785 110.612 47.0508C110.612 47.123 110.629 47.1885 110.662 47.2471C110.695 47.3037 110.743 47.3486 110.806 47.3818C110.868 47.4131 110.941 47.4287 111.025 47.4287C111.152 47.4287 111.263 47.4033 111.356 47.3525C111.45 47.3018 111.522 47.2393 111.573 47.165C111.626 47.0908 111.653 47.0205 111.655 46.9541L111.878 47.3115C111.847 47.3916 111.804 47.4746 111.749 47.5605C111.696 47.6465 111.629 47.7275 111.547 47.8037C111.465 47.8779 111.366 47.9395 111.251 47.9883C111.136 48.0352 110.999 48.0586 110.841 48.0586C110.64 48.0586 110.457 48.0186 110.293 47.9385C110.131 47.8564 110.002 47.7441 109.906 47.6016C109.812 47.457 109.766 47.293 109.766 47.1094C109.766 46.9434 109.797 46.7959 109.859 46.667C109.922 46.5381 110.014 46.4297 110.135 46.3418C110.258 46.252 110.411 46.1846 110.595 46.1396C110.778 46.0928 110.991 46.0693 111.233 46.0693H111.723ZM114.002 44.8301V48H113.155V44.8301H114.002ZM113.103 44.0039C113.103 43.8809 113.146 43.7793 113.231 43.6992C113.317 43.6191 113.433 43.5791 113.577 43.5791C113.72 43.5791 113.834 43.6191 113.92 43.6992C114.008 43.7793 114.052 43.8809 114.052 44.0039C114.052 44.127 114.008 44.2285 113.92 44.3086C113.834 44.3887 113.72 44.4287 113.577 44.4287C113.433 44.4287 113.317 44.3887 113.231 44.3086C113.146 44.2285 113.103 44.127 113.103 44.0039ZM115.59 43.5V48H114.743V43.5H115.59ZM118.625 45.5215V48H117.781V44.8301H118.575L118.625 45.5215ZM119.58 44.8096L119.565 45.5918C119.524 45.5859 119.475 45.5811 119.416 45.5771C119.359 45.5713 119.308 45.5684 119.261 45.5684C119.142 45.5684 119.038 45.584 118.95 45.6152C118.864 45.6445 118.792 45.6885 118.733 45.7471C118.677 45.8057 118.634 45.877 118.604 45.9609C118.577 46.0449 118.562 46.1406 118.558 46.248L118.388 46.1953C118.388 45.9902 118.408 45.8018 118.449 45.6299C118.49 45.4561 118.55 45.3047 118.628 45.1758C118.708 45.0469 118.806 44.9473 118.921 44.877C119.036 44.8066 119.168 44.7715 119.316 44.7715C119.363 44.7715 119.411 44.7754 119.46 44.7832C119.509 44.7891 119.549 44.7979 119.58 44.8096ZM121.379 48.0586C121.133 48.0586 120.912 48.0195 120.717 47.9414C120.521 47.8613 120.355 47.751 120.219 47.6104C120.084 47.4697 119.98 47.3066 119.908 47.1211C119.836 46.9336 119.8 46.7344 119.8 46.5234V46.4062C119.8 46.166 119.834 45.9463 119.902 45.7471C119.971 45.5479 120.068 45.375 120.195 45.2285C120.324 45.082 120.48 44.9697 120.664 44.8916C120.848 44.8115 121.055 44.7715 121.285 44.7715C121.51 44.7715 121.709 44.8086 121.883 44.8828C122.057 44.957 122.202 45.0625 122.319 45.1992C122.438 45.3359 122.528 45.5 122.589 45.6914C122.649 45.8809 122.68 46.0918 122.68 46.3242V46.6758H120.16V46.1133H121.851V46.0488C121.851 45.9316 121.829 45.8271 121.786 45.7354C121.745 45.6416 121.683 45.5674 121.599 45.5127C121.515 45.458 121.407 45.4307 121.276 45.4307C121.165 45.4307 121.069 45.4551 120.989 45.5039C120.909 45.5527 120.844 45.6211 120.793 45.709C120.744 45.7969 120.707 45.9004 120.682 46.0195C120.658 46.1367 120.646 46.2656 120.646 46.4062V46.5234C120.646 46.6504 120.664 46.7676 120.699 46.875C120.736 46.9824 120.788 47.0752 120.854 47.1533C120.923 47.2314 121.005 47.292 121.101 47.335C121.198 47.3779 121.309 47.3994 121.432 47.3994C121.584 47.3994 121.726 47.3701 121.856 47.3115C121.989 47.251 122.104 47.1602 122.199 47.0391L122.609 47.4844C122.543 47.5801 122.452 47.6719 122.337 47.7598C122.224 47.8477 122.087 47.9199 121.927 47.9766C121.767 48.0312 121.584 48.0586 121.379 48.0586ZM124.004 45.4395V49.2188H123.16V44.8301H123.942L124.004 45.4395ZM126.011 46.3799V46.4414C126.011 46.6719 125.983 46.8857 125.929 47.083C125.876 47.2803 125.798 47.4521 125.694 47.5986C125.591 47.7432 125.462 47.8564 125.308 47.9385C125.155 48.0186 124.979 48.0586 124.78 48.0586C124.587 48.0586 124.419 48.0195 124.276 47.9414C124.134 47.8633 124.014 47.7539 123.916 47.6133C123.82 47.4707 123.743 47.3057 123.685 47.1182C123.626 46.9307 123.581 46.7295 123.55 46.5146V46.3535C123.581 46.123 123.626 45.9121 123.685 45.7207C123.743 45.5273 123.82 45.3604 123.916 45.2197C124.014 45.0771 124.133 44.9668 124.273 44.8887C124.416 44.8105 124.583 44.7715 124.774 44.7715C124.976 44.7715 125.152 44.8096 125.305 44.8857C125.459 44.9619 125.588 45.0713 125.691 45.2139C125.797 45.3564 125.876 45.5264 125.929 45.7236C125.983 45.9209 126.011 46.1396 126.011 46.3799ZM125.164 46.4414V46.3799C125.164 46.2451 125.152 46.1211 125.129 46.0078C125.107 45.8926 125.072 45.792 125.023 45.7061C124.977 45.6201 124.914 45.5537 124.836 45.5068C124.76 45.458 124.667 45.4336 124.558 45.4336C124.442 45.4336 124.344 45.4521 124.262 45.4893C124.182 45.5264 124.116 45.5801 124.065 45.6504C124.015 45.7207 123.977 45.8047 123.951 45.9023C123.926 46 123.91 46.1104 123.904 46.2334V46.6406C123.914 46.7852 123.941 46.915 123.986 47.0303C124.031 47.1436 124.101 47.2334 124.194 47.2998C124.288 47.3662 124.411 47.3994 124.563 47.3994C124.675 47.3994 124.769 47.375 124.845 47.3262C124.921 47.2754 124.982 47.2061 125.029 47.1182C125.078 47.0303 125.112 46.9287 125.132 46.8135C125.153 46.6982 125.164 46.5742 125.164 46.4414ZM127.426 43.5V48H126.579V43.5H127.426ZM129.063 47.6426L129.904 44.8301H130.81L129.535 48.4775C129.508 48.5576 129.471 48.6436 129.424 48.7354C129.379 48.8271 129.317 48.9141 129.239 48.9961C129.163 49.0801 129.066 49.1484 128.949 49.2012C128.834 49.2539 128.692 49.2803 128.524 49.2803C128.444 49.2803 128.379 49.2754 128.328 49.2656C128.277 49.2559 128.217 49.2422 128.146 49.2246V48.6064C128.168 48.6064 128.19 48.6064 128.214 48.6064C128.237 48.6084 128.26 48.6094 128.281 48.6094C128.393 48.6094 128.483 48.5967 128.554 48.5713C128.624 48.5459 128.681 48.5068 128.724 48.4541C128.767 48.4033 128.801 48.3369 128.826 48.2549L129.063 47.6426ZM128.712 44.8301L129.4 47.127L129.521 48.0205L128.946 48.082L127.807 44.8301H128.712Z" fill="#1F1814"/>
<path d="M91.0733 47.7596C91.143 47.7284 91.2249 47.7792 91.2249 47.86V48.725C91.2249 48.9321 91.3928 49.1 91.5999 49.1C92.1002 49.1 93.1097 49.1039 94.0756 49.7166C94.8129 50.1843 95.568 51.0364 96.021 52.6237C95.2557 51.886 94.3821 51.4868 93.6174 51.2746C93.0524 51.1177 92.5442 51.0619 92.1766 51.0451C91.9925 51.0367 91.8425 51.038 91.7371 51.0416C91.6843 51.0434 91.6426 51.0458 91.6132 51.0478C91.5985 51.0488 91.5868 51.0497 91.5784 51.0504L91.5682 51.0513L91.565 51.0516L91.5639 51.0517C91.5639 51.0517 91.563 51.0518 91.5999 51.425L91.563 51.0518C91.3711 51.0708 91.2249 51.2322 91.2249 51.425V52.2899C91.2249 52.3707 91.143 52.4215 91.0733 52.3903L88.0856 50.1907C88.0753 50.1832 88.0647 50.1761 88.0537 50.1696C87.982 50.1274 87.982 50.0225 88.0537 49.9803C88.0647 49.9738 88.0753 49.9668 88.0856 49.9592L91.0733 47.7596ZM91.9749 51.7893C92.0259 51.79 92.0819 51.7915 92.1424 51.7943C92.4673 51.8091 92.9178 51.8587 93.4168 51.9972C94.4117 52.2734 95.5895 52.8984 96.3721 54.3071C96.4593 54.4641 96.6456 54.5372 96.8164 54.4814C96.9871 54.4257 97.0943 54.2567 97.072 54.0785C96.7242 51.2956 95.6577 49.832 94.4774 49.0833C93.5428 48.4905 92.5819 48.3769 91.9749 48.3551V47.86C91.9749 47.1884 91.2479 46.7854 90.6814 47.1192C90.6704 47.1257 90.6598 47.1327 90.6495 47.1403L87.6544 49.3454C87.1151 49.6807 87.1151 50.4692 87.6544 50.8046L90.6495 53.0097C90.6598 53.0172 90.6704 53.0243 90.6814 53.0307C91.2479 53.3646 91.9749 52.9615 91.9749 52.2899V51.7893Z" fill="#45D976"/>
<path d="M88.9238 47.2199C88.801 47.0531 88.5663 47.0175 88.3995 47.1403L85.4044 49.3454C84.8651 49.6807 84.8651 50.4692 85.4044 50.8046L88.3995 53.0097C88.5663 53.1324 88.801 53.0968 88.9238 52.93C89.0466 52.7632 89.0109 52.5285 88.8441 52.4057L85.8356 50.1907C85.8253 50.1832 85.8147 50.1761 85.8037 50.1696C85.732 50.1274 85.732 50.0225 85.8037 49.9803C85.8147 49.9738 85.8253 49.9668 85.8356 49.9592L88.8441 47.7442C89.0109 47.6215 89.0466 47.3867 88.9238 47.2199Z" fill="#45D976"/>
</g>
<g filter="url(#filter1_d_131_7900)">
<path d="M66 20C66 15.5817 69.5817 12 74 12H156C160.418 12 164 15.5817 164 20V30C164 34.4183 160.418 38 156 38H74C69.5817 38 66 34.4183 66 30V20Z" fill="white"/>
<rect opacity="0.6" x="90" y="26" width="57" height="2" rx="1" fill="#EBEBEB"/>
<rect opacity="0.6" x="90" y="30" width="46" height="2" rx="1" fill="#EBEBEB"/>
<path d="M90.7822 18.7344H91.5264L92.6221 21.8662L93.7178 18.7344H94.4619L92.9209 23H92.3232L90.7822 18.7344ZM90.3809 18.7344H91.1221L91.2568 21.7871V23H90.3809V18.7344ZM94.1221 18.7344H94.8662V23H93.9873V21.7871L94.1221 18.7344ZM97.2949 22.2852V20.873C97.2949 20.7715 97.2783 20.6846 97.2451 20.6123C97.2119 20.5381 97.1602 20.4805 97.0898 20.4395C97.0215 20.3984 96.9326 20.3779 96.8232 20.3779C96.7295 20.3779 96.6484 20.3945 96.5801 20.4277C96.5117 20.459 96.459 20.5049 96.4219 20.5654C96.3848 20.624 96.3662 20.6934 96.3662 20.7734H95.5225C95.5225 20.6387 95.5537 20.5107 95.6162 20.3896C95.6787 20.2686 95.7695 20.1621 95.8887 20.0703C96.0078 19.9766 96.1494 19.9033 96.3135 19.8506C96.4795 19.7979 96.665 19.7715 96.8701 19.7715C97.1162 19.7715 97.335 19.8125 97.5264 19.8945C97.7178 19.9766 97.8682 20.0996 97.9775 20.2637C98.0889 20.4277 98.1445 20.6328 98.1445 20.8789V22.2354C98.1445 22.4092 98.1553 22.5518 98.1768 22.6631C98.1982 22.7725 98.2295 22.8682 98.2705 22.9502V23H97.418C97.377 22.9141 97.3457 22.8066 97.3242 22.6777C97.3047 22.5469 97.2949 22.416 97.2949 22.2852ZM97.4062 21.0693L97.4121 21.5469H96.9404C96.8291 21.5469 96.7324 21.5596 96.6504 21.585C96.5684 21.6104 96.501 21.6465 96.4482 21.6934C96.3955 21.7383 96.3564 21.791 96.3311 21.8516C96.3076 21.9121 96.2959 21.9785 96.2959 22.0508C96.2959 22.123 96.3125 22.1885 96.3457 22.2471C96.3789 22.3037 96.4268 22.3486 96.4893 22.3818C96.5518 22.4131 96.625 22.4287 96.709 22.4287C96.8359 22.4287 96.9463 22.4033 97.04 22.3525C97.1338 22.3018 97.2061 22.2393 97.2568 22.165C97.3096 22.0908 97.3369 22.0205 97.3389 21.9541L97.5615 22.3115C97.5303 22.3916 97.4873 22.4746 97.4326 22.5605C97.3799 22.6465 97.3125 22.7275 97.2305 22.8037C97.1484 22.8779 97.0498 22.9395 96.9346 22.9883C96.8193 23.0352 96.6826 23.0586 96.5244 23.0586C96.3232 23.0586 96.1406 23.0186 95.9766 22.9385C95.8145 22.8564 95.6855 22.7441 95.5898 22.6016C95.4961 22.457 95.4492 22.293 95.4492 22.1094C95.4492 21.9434 95.4805 21.7959 95.543 21.667C95.6055 21.5381 95.6973 21.4297 95.8184 21.3418C95.9414 21.252 96.0947 21.1846 96.2783 21.1396C96.4619 21.0928 96.6748 21.0693 96.917 21.0693H97.4062ZM99.6387 20.5215V23H98.7949V19.8301H99.5889L99.6387 20.5215ZM100.594 19.8096L100.579 20.5918C100.538 20.5859 100.488 20.5811 100.43 20.5771C100.373 20.5713 100.321 20.5684 100.274 20.5684C100.155 20.5684 100.052 20.584 99.9639 20.6152C99.8779 20.6445 99.8057 20.6885 99.7471 20.7471C99.6904 20.8057 99.6475 20.877 99.6182 20.9609C99.5908 21.0449 99.5752 21.1406 99.5713 21.248L99.4014 21.1953C99.4014 20.9902 99.4219 20.8018 99.4629 20.6299C99.5039 20.4561 99.5635 20.3047 99.6416 20.1758C99.7217 20.0469 99.8193 19.9473 99.9346 19.877C100.05 19.8066 100.182 19.7715 100.33 19.7715C100.377 19.7715 100.425 19.7754 100.474 19.7832C100.522 19.7891 100.562 19.7979 100.594 19.8096ZM101.836 18.4971V23H100.992V18.4971H101.836ZM103.834 19.8301L102.457 21.4004L101.719 22.1475L101.411 21.5381L101.997 20.7939L102.82 19.8301H103.834ZM102.958 23L102.021 21.5352L102.604 21.0254L103.931 23H102.958ZM105.088 19.8301V23H104.241V19.8301H105.088ZM104.188 19.0039C104.188 18.8809 104.231 18.7793 104.317 18.6992C104.403 18.6191 104.519 18.5791 104.663 18.5791C104.806 18.5791 104.92 18.6191 105.006 18.6992C105.094 18.7793 105.138 18.8809 105.138 19.0039C105.138 19.127 105.094 19.2285 105.006 19.3086C104.92 19.3887 104.806 19.4287 104.663 19.4287C104.519 19.4287 104.403 19.3887 104.317 19.3086C104.231 19.2285 104.188 19.127 104.188 19.0039ZM106.611 20.5068V23H105.768V19.8301H106.559L106.611 20.5068ZM106.488 21.3037H106.26C106.26 21.0693 106.29 20.8584 106.351 20.6709C106.411 20.4814 106.496 20.3203 106.605 20.1875C106.715 20.0527 106.845 19.9502 106.995 19.8799C107.147 19.8076 107.317 19.7715 107.505 19.7715C107.653 19.7715 107.789 19.793 107.912 19.8359C108.035 19.8789 108.141 19.9473 108.229 20.041C108.318 20.1348 108.387 20.2588 108.434 20.4131C108.482 20.5674 108.507 20.7559 108.507 20.9785V23H107.657V20.9756C107.657 20.835 107.638 20.7256 107.599 20.6475C107.56 20.5693 107.502 20.5146 107.426 20.4834C107.352 20.4502 107.26 20.4336 107.15 20.4336C107.037 20.4336 106.938 20.4561 106.854 20.501C106.772 20.5459 106.704 20.6084 106.649 20.6885C106.597 20.7666 106.557 20.8584 106.529 20.9639C106.502 21.0693 106.488 21.1826 106.488 21.3037ZM111.155 19.8301H111.92V22.8945C111.92 23.1836 111.855 23.4287 111.727 23.6299C111.6 23.833 111.422 23.9863 111.193 24.0898C110.965 24.1953 110.699 24.248 110.396 24.248C110.264 24.248 110.123 24.2305 109.975 24.1953C109.828 24.1602 109.688 24.1055 109.553 24.0312C109.42 23.957 109.309 23.8633 109.219 23.75L109.591 23.252C109.688 23.3652 109.802 23.4531 109.931 23.5156C110.06 23.5801 110.202 23.6123 110.358 23.6123C110.511 23.6123 110.64 23.584 110.745 23.5273C110.851 23.4727 110.932 23.3916 110.988 23.2842C111.045 23.1787 111.073 23.0508 111.073 22.9004V20.5625L111.155 19.8301ZM109.022 21.4531V21.3916C109.022 21.1494 109.052 20.9297 109.11 20.7324C109.171 20.5332 109.256 20.3623 109.365 20.2197C109.477 20.0771 109.611 19.9668 109.77 19.8887C109.928 19.8105 110.106 19.7715 110.306 19.7715C110.517 19.7715 110.693 19.8105 110.836 19.8887C110.979 19.9668 111.096 20.0781 111.188 20.2227C111.279 20.3652 111.351 20.5342 111.401 20.7295C111.454 20.9229 111.495 21.1348 111.524 21.3652V21.5C111.495 21.7207 111.451 21.9258 111.393 22.1152C111.334 22.3047 111.257 22.4707 111.161 22.6133C111.065 22.7539 110.946 22.8633 110.804 22.9414C110.663 23.0195 110.495 23.0586 110.3 23.0586C110.104 23.0586 109.928 23.0186 109.77 22.9385C109.613 22.8584 109.479 22.7461 109.368 22.6016C109.257 22.457 109.171 22.2871 109.11 22.0918C109.052 21.8965 109.022 21.6836 109.022 21.4531ZM109.866 21.3916V21.4531C109.866 21.584 109.879 21.7061 109.904 21.8193C109.93 21.9326 109.969 22.0332 110.021 22.1211C110.076 22.207 110.144 22.2744 110.224 22.3232C110.306 22.3701 110.402 22.3936 110.514 22.3936C110.668 22.3936 110.794 22.3613 110.892 22.2969C110.989 22.2305 111.062 22.1396 111.111 22.0244C111.16 21.9092 111.188 21.7764 111.196 21.626V21.2422C111.192 21.1191 111.176 21.0088 111.146 20.9111C111.117 20.8115 111.076 20.7266 111.023 20.6562C110.971 20.5859 110.902 20.5312 110.818 20.4922C110.734 20.4531 110.635 20.4336 110.52 20.4336C110.408 20.4336 110.312 20.459 110.229 20.5098C110.149 20.5586 110.082 20.626 110.027 20.7119C109.975 20.7979 109.935 20.8994 109.907 21.0166C109.88 21.1318 109.866 21.2568 109.866 21.3916ZM115.857 19.4639L114.697 23H113.763L115.348 18.7344H115.942L115.857 19.4639ZM116.821 23L115.658 19.4639L115.564 18.7344H116.165L117.759 23H116.821ZM116.769 21.4121V22.1006H114.516V21.4121H116.769ZM119.974 22.3086V18.5H120.823V23H120.059L119.974 22.3086ZM117.97 21.4531V21.3916C117.97 21.1494 117.997 20.9297 118.052 20.7324C118.106 20.5332 118.187 20.3623 118.292 20.2197C118.397 20.0771 118.527 19.9668 118.682 19.8887C118.836 19.8105 119.012 19.7715 119.209 19.7715C119.395 19.7715 119.557 19.8105 119.695 19.8887C119.836 19.9668 119.955 20.0781 120.053 20.2227C120.152 20.3652 120.232 20.5342 120.293 20.7295C120.354 20.9229 120.397 21.1348 120.425 21.3652V21.5C120.397 21.7207 120.354 21.9258 120.293 22.1152C120.232 22.3047 120.152 22.4707 120.053 22.6133C119.955 22.7539 119.836 22.8633 119.695 22.9414C119.555 23.0195 119.391 23.0586 119.203 23.0586C119.006 23.0586 118.83 23.0186 118.676 22.9385C118.523 22.8584 118.395 22.7461 118.289 22.6016C118.186 22.457 118.106 22.2871 118.052 22.0918C117.997 21.8965 117.97 21.6836 117.97 21.4531ZM118.813 21.3916V21.4531C118.813 21.584 118.823 21.7061 118.843 21.8193C118.864 21.9326 118.898 22.0332 118.945 22.1211C118.994 22.207 119.057 22.2744 119.133 22.3232C119.211 22.3701 119.306 22.3936 119.417 22.3936C119.562 22.3936 119.681 22.3613 119.774 22.2969C119.868 22.2305 119.939 22.1396 119.988 22.0244C120.039 21.9092 120.068 21.7764 120.076 21.626V21.2422C120.07 21.1191 120.053 21.0088 120.023 20.9111C119.996 20.8115 119.955 20.7266 119.9 20.6562C119.848 20.5859 119.781 20.5312 119.701 20.4922C119.623 20.4531 119.53 20.4336 119.423 20.4336C119.313 20.4336 119.22 20.459 119.142 20.5098C119.063 20.5586 119 20.626 118.951 20.7119C118.904 20.7979 118.869 20.8994 118.846 21.0166C118.824 21.1318 118.813 21.2568 118.813 21.3916ZM123.196 22.124C123.196 22.0635 123.179 22.0088 123.144 21.96C123.108 21.9111 123.043 21.8662 122.947 21.8252C122.854 21.7822 122.718 21.7432 122.54 21.708C122.38 21.6729 122.23 21.6289 122.092 21.5762C121.955 21.5215 121.836 21.4561 121.734 21.3799C121.635 21.3037 121.557 21.2139 121.5 21.1104C121.443 21.0049 121.415 20.8848 121.415 20.75C121.415 20.6172 121.443 20.4922 121.5 20.375C121.559 20.2578 121.642 20.1543 121.749 20.0645C121.858 19.9727 121.991 19.9014 122.147 19.8506C122.306 19.7979 122.483 19.7715 122.681 19.7715C122.956 19.7715 123.192 19.8154 123.39 19.9033C123.589 19.9912 123.741 20.1123 123.847 20.2666C123.954 20.4189 124.008 20.5928 124.008 20.7881H123.164C123.164 20.7061 123.146 20.6328 123.111 20.5684C123.078 20.502 123.025 20.4502 122.953 20.4131C122.883 20.374 122.791 20.3545 122.678 20.3545C122.584 20.3545 122.503 20.3711 122.435 20.4043C122.366 20.4355 122.313 20.4785 122.276 20.5332C122.241 20.5859 122.224 20.6445 122.224 20.709C122.224 20.7578 122.233 20.8018 122.253 20.8408C122.274 20.8779 122.309 20.9121 122.355 20.9434C122.402 20.9746 122.463 21.0039 122.537 21.0312C122.613 21.0566 122.707 21.0801 122.818 21.1016C123.047 21.1484 123.251 21.21 123.431 21.2861C123.61 21.3604 123.753 21.4619 123.858 21.5908C123.964 21.7178 124.017 21.8848 124.017 22.0918C124.017 22.2324 123.985 22.3613 123.923 22.4785C123.86 22.5957 123.771 22.6982 123.653 22.7861C123.536 22.8721 123.396 22.9395 123.231 22.9883C123.069 23.0352 122.887 23.0586 122.684 23.0586C122.389 23.0586 122.139 23.0059 121.934 22.9004C121.73 22.7949 121.576 22.6611 121.471 22.499C121.367 22.335 121.315 22.167 121.315 21.9951H122.115C122.119 22.1104 122.148 22.2031 122.203 22.2734C122.26 22.3438 122.331 22.3945 122.417 22.4258C122.505 22.457 122.6 22.4727 122.701 22.4727C122.811 22.4727 122.901 22.458 122.974 22.4287C123.046 22.3975 123.101 22.3564 123.138 22.3057C123.177 22.2529 123.196 22.1924 123.196 22.124Z" fill="#1F1814"/>
<path d="M76.7748 27.25L77.1274 26.0931H78.6304L78.983 27.25H79.929L78.426 22.7511H77.3845L75.875 27.25H76.7748ZM77.902 23.6113L78.4524 25.4307H77.312L77.8624 23.6113H77.902Z" fill="#51AEFF"/>
<path d="M81.4717 23.7069C80.6774 23.7069 80.1566 24.2804 80.1566 25.2395V25.7603C80.1566 26.7194 80.6708 27.2928 81.4618 27.2928C81.9694 27.2928 82.3781 27.0457 82.4868 26.6897H82.5297V27.25H83.3833V22.5138H82.5132V24.2837H82.4737C82.3385 23.9277 81.9628 23.7069 81.4717 23.7069ZM81.7617 24.399C82.1968 24.399 82.5132 24.7286 82.5132 25.2527V25.7042C82.5132 26.2744 82.2166 26.604 81.7749 26.604C81.3267 26.604 81.0465 26.2678 81.0465 25.668V25.3285C81.0465 24.7319 81.3234 24.399 81.7617 24.399Z" fill="#51AEFF"/>
<path d="M84.5 21.25C84.9142 21.25 85.25 21.5858 85.25 22V28C85.25 28.4142 84.9142 28.75 84.5 28.75H75.5C75.0858 28.75 74.75 28.4142 74.75 28V22C74.75 21.5858 75.0858 21.25 75.5 21.25H84.5ZM75.5 20.5C74.6716 20.5 74 21.1716 74 22V28C74 28.8284 74.6716 29.5 75.5 29.5H84.5C85.3284 29.5 86 28.8284 86 28V22C86 21.1716 85.3284 20.5 84.5 20.5H75.5Z" fill="#51AEFF"/>
</g>
</g>
<defs>
<filter id="filter0_d_131_7900" x="73" y="35" width="106" height="34" filterUnits="userSpaceOnUse" color-interpolation-filters="sRGB">
<feFlood flood-opacity="0" result="BackgroundImageFix"/>
<feColorMatrix in="SourceAlpha" type="matrix" values="0 0 0 0 0 0 0 0 0 0 0 0 0 0 0 0 0 0 127 0" result="hardAlpha"/>
<feOffset dy="2"/>
<feGaussianBlur stdDeviation="2"/>
<feComposite in2="hardAlpha" operator="out"/>
<feColorMatrix type="matrix" values="0 0 0 0 0 0 0 0 0 0 0 0 0 0 0 0 0 0 0.06 0"/>
<feBlend mode="normal" in2="BackgroundImageFix" result="effect1_dropShadow_131_7900"/>
<feBlend mode="normal" in="SourceGraphic" in2="effect1_dropShadow_131_7900" result="shape"/>
</filter>
<filter id="filter1_d_131_7900" x="62" y="10" width="106" height="34" filterUnits="userSpaceOnUse" color-interpolation-filters="sRGB">
<feFlood flood-opacity="0" result="BackgroundImageFix"/>
<feColorMatrix in="SourceAlpha" type="matrix" values="0 0 0 0 0 0 0 0 0 0 0 0 0 0 0 0 0 0 127 0" result="hardAlpha"/>
<feOffset dy="2"/>
<feGaussianBlur stdDeviation="2"/>
<feComposite in2="hardAlpha" operator="out"/>
<feColorMatrix type="matrix" values="0 0 0 0 0 0 0 0 0 0 0 0 0 0 0 0 0 0 0.1 0"/>
<feBlend mode="normal" in2="BackgroundImageFix" result="effect1_dropShadow_131_7900"/>
<feBlend mode="normal" in="SourceGraphic" in2="effect1_dropShadow_131_7900" result="shape"/>
</filter>
</defs>
</svg>
