<?xml version="1.0" standalone="no"?><!DOCTYPE svg PUBLIC "-//W3C//DTD SVG 1.1//EN" "http://www.w3.org/Graphics/SVG/1.1/DTD/svg11.dtd"><svg t="1692343297607" class="icon" viewBox="0 0 1024 1024" version="1.1" xmlns="http://www.w3.org/2000/svg" p-id="10530" xmlns:xlink="http://www.w3.org/1999/xlink" width="200" height="200"><path d="M81.454545 209.454545a34.909091 34.909091 0 1 1 0-69.818181h465.454546a34.909091 34.909091 0 1 1 0 69.818181h-465.454546z m0 349.09091a34.909091 34.909091 0 1 1 0-69.818182h325.818182a34.909091 34.909091 0 1 1 0 69.818182h-325.818182z m418.909091 279.272727a34.909091 34.909091 0 1 1 0 69.818182h-418.909091a34.909091 34.909091 0 1 1 0-69.818182h418.909091z m398.708364-180.433455a34.909091 34.909091 0 1 1 49.338182 49.361455l-213.876364 213.922909c-3.258182 3.258182-7.121455 5.818182-11.450182 7.610182-0.162909 0.069818-0.349091 0.093091-0.512 0.139636A34.676364 34.676364 0 0 1 709.818182 930.909091c-4.514909 0-8.773818-0.930909-12.730182-2.490182l-0.535273-0.139636a35.351273 35.351273 0 0 1-11.426909-7.610182l-213.922909-213.922909a34.909091 34.909091 0 1 1 49.338182-49.338182L674.909091 811.706182V151.272727a34.909091 34.909091 0 0 1 69.818182 0v660.48l154.344727-154.368z" fill="#ffffff" p-id="10531"></path></svg>