<?xml version="1.0" standalone="no"?><!DOCTYPE svg PUBLIC "-//W3C//DTD SVG 1.1//EN" "http://www.w3.org/Graphics/SVG/1.1/DTD/svg11.dtd"><svg t="1692338236058" class="icon" viewBox="0 0 1024 1024" version="1.1" xmlns="http://www.w3.org/2000/svg" p-id="2699" xmlns:xlink="http://www.w3.org/1999/xlink" width="200" height="200"><path d="M785.066667 844.8H292.266667c-89.6-4.266667-172.8-55.466667-215.466667-134.4-46.933333-85.333333-44.8-189.866667 6.4-273.066667 12.8-23.466667 32-44.8 55.466667-59.733333 53.333333-40.533333 117.333333-59.733333 183.466666-55.466667C377.6 234.666667 473.6 183.466667 576 183.466667c155.733333 0 283.733333 117.333333 300.8 273.066666 100.266667 57.6 134.4 187.733333 76.8 288-34.133333 57.6-93.866667 96-160 104.533334-4.266667-4.266667-6.4-4.266667-8.533333-4.266667z m-484.266667-64H782.933333c81.066667-6.4 140.8-76.8 134.4-157.866667-4.266667-49.066667-32-93.866667-74.666666-117.333333-17.066667-8.533333-27.733333-25.6-27.733334-44.8-10.666667-123.733333-113.066667-217.6-236.8-217.6-83.2 0-160 42.666667-202.666666 113.066667-10.666667 17.066667-32 27.733333-51.2 25.6-53.333333-2.133333-104.533333 12.8-147.2 44.8-14.933333 10.666667-27.733333 23.466667-36.266667 40.533333-38.4 64-40.533333 145.066667-6.4 211.2 32 61.866667 93.866667 100.266667 166.4 102.4z" fill="#ffffff" p-id="2700"></path><path d="M627.2 704c-17.066667 0-32-14.933333-32-32v-183.466667c0-17.066667 14.933333-32 32-32s32 14.933333 32 32v183.466667c2.133333 14.933333-12.8 29.866667-32 32 2.133333 0 0 0 0 0z" fill="#ffffff" p-id="2701"></path><path d="M691.2 567.466667c-8.533333 0-17.066667-4.266667-23.466667-8.533334l-40.533333-40.533333-40.533333 40.533333c-12.8 12.8-34.133333 10.666667-44.8-2.133333s-10.666667-32 0-42.666667l49.066666-49.066666c21.333333-21.333333 53.333333-21.333333 74.666667 0l49.066667 49.066666c12.8 12.8 12.8 32 0 44.8-6.4 6.4-14.933333 8.533333-23.466667 8.533334zM396.8 697.6c-17.066667 0-32-14.933333-32-32v-183.466667c0-17.066667 14.933333-32 32-32s32 14.933333 32 32v183.466667c0 17.066667-14.933333 32-32 32z" fill="#ffffff" p-id="2702"></path><path d="M396.8 704c-14.933333 0-27.733333-6.4-38.4-14.933333L309.333333 640c-12.8-12.8-10.666667-34.133333 2.133334-44.8s32-10.666667 42.666666 0l40.533334 40.533333 40.533333-40.533333c12.8-12.8 32-12.8 44.8 0 12.8 12.8 12.8 32 0 44.8l-49.066667 49.066667c-6.4 8.533333-21.333333 14.933333-34.133333 14.933333z" fill="#ffffff" p-id="2703"></path></svg>