<svg width="32" height="32" viewBox="0 0 32 32" fill="none" xmlns="http://www.w3.org/2000/svg">
<mask id="mask0_575_9227" style="mask-type:alpha" maskUnits="userSpaceOnUse" x="0" y="0" width="32" height="32">
<circle cx="16" cy="16" r="16" fill="#ACF878"/>
</mask>
<g mask="url(#mask0_575_9227)">
<circle cx="16" cy="16" r="16" fill="#5297FF"/>
</g>
<path d="M19.3333 10.3334C19.3333 10.2896 19.3247 10.2462 19.308 10.2058C19.2912 10.1654 19.2667 10.1286 19.2357 10.0977C19.2047 10.0667 19.168 10.0422 19.1276 10.0254C19.0871 10.0087 19.0438 10 19 10H17.3333C16.4941 9.95823 15.6724 10.2503 15.0478 10.8124C14.4232 11.3745 14.0465 12.161 14 13V14.8H12.3333C12.2449 14.8 12.1601 14.8352 12.0976 14.8977C12.0351 14.9602 12 15.045 12 15.1334V16.8667C12 16.9551 12.0351 17.0399 12.0976 17.1024C12.1601 17.1649 12.2449 17.2 12.3333 17.2H14V21.6667C14 21.7551 14.0351 21.8399 14.0976 21.9024C14.1601 21.9649 14.2449 22 14.3333 22H16.3333C16.3771 22 16.4205 21.9914 16.4609 21.9747C16.5013 21.9579 16.5381 21.9334 16.569 21.9024C16.6 21.8715 16.6245 21.8347 16.6413 21.7943C16.658 21.7538 16.6667 21.7105 16.6667 21.6667V17.2H18.4133C18.4875 17.2011 18.5598 17.1774 18.619 17.1328C18.6782 17.0881 18.7207 17.025 18.74 16.9534L19.22 15.22C19.2333 15.1708 19.235 15.1191 19.2252 15.0691C19.2154 15.019 19.1942 14.9719 19.1633 14.9313C19.1324 14.8908 19.0926 14.8578 19.0469 14.8351C19.0013 14.8123 18.951 14.8003 18.9 14.8H16.6667V13C16.6832 12.835 16.7607 12.6821 16.884 12.5712C17.0073 12.4602 17.1675 12.3992 17.3333 12.4H19C19.0884 12.4 19.1732 12.3649 19.2357 12.3024C19.2982 12.2399 19.3333 12.1551 19.3333 12.0667V10.3334Z" fill="white"/>
</svg>
