<svg width="32" height="32" viewBox="0 0 32 32" fill="none" xmlns="http://www.w3.org/2000/svg">
<mask id="mask0_575_9245" style="mask-type:alpha" maskUnits="userSpaceOnUse" x="0" y="0" width="32" height="32">
<circle cx="16" cy="16" r="16" fill="#ACF878"/>
</mask>
<g mask="url(#mask0_575_9245)">
<circle cx="16" cy="16" r="16" fill="white"/>
</g>
<g clip-path="url(#clip0_575_9245)">
<path d="M11.3312 16.0544C11.3312 15.5312 11.4192 15.0296 11.5752 14.5592L8.83521 12.4868C8.28405 13.5952 7.99813 14.8166 8.00002 16.0544C8.00002 17.3364 8.30002 18.5456 8.83362 19.6192L11.5728 17.5432C11.4128 17.0632 11.3316 16.5604 11.3312 16.0544Z" fill="#FBBC05"/>
<path d="M16.1444 11.2958C17.2361 11.2936 18.2951 11.6683 19.1424 12.3566L21.5116 10.0142C20.068 8.77018 18.2172 8.00098 16.1444 8.00098C12.926 8.00098 10.1596 9.82377 8.83521 12.4866L11.5772 14.559C12.2084 12.6606 14.0084 11.2954 16.1452 11.2954" fill="#EA4335"/>
<path d="M16.1792 20.7066C14.0312 20.7066 12.2224 19.3502 11.5872 17.4634L8.83321 19.5234C10.164 22.1698 12.944 23.9806 16.1792 23.9806C18.1748 23.9806 20.0804 23.287 21.5112 21.9862L18.8964 20.007C18.1592 20.4618 17.23 20.707 16.1784 20.707" fill="#34A853"/>
<path d="M23.9912 15.9786C23.9912 15.5058 23.9164 14.9962 23.8052 14.5234H16.1784V17.6154H20.568C20.3492 18.6698 19.752 19.4802 18.8968 20.0074L21.5112 21.9866C23.014 20.6214 23.9912 18.5874 23.9912 15.9786Z" fill="#4285F4"/>
</g>
<defs>
<clipPath id="clip0_575_9245">
<rect width="16" height="16" fill="white" transform="translate(8 8)"/>
</clipPath>
</defs>
</svg>
