<svg width="94" height="22" viewBox="0 0 94 22" fill="none" xmlns="http://www.w3.org/2000/svg">
<path d="M12.6759 4.64107L14.1855 3.13149C14.1855 3.13149 11.944 0.70697 8.19294 1.02719C4.44186 1.3474 2.42909 3.90914 1.46844 6.15064C0.5078 8.39214 0.645057 13.1954 5.58548 15.8029C8.97058 17.5869 14.8717 15.8029 15.8323 11.5486C15.8323 11.5486 16.427 9.76451 16.0153 8.02619H8.8791V10.1305H13.9568C13.9568 10.1305 13.8195 12.7379 11.5323 13.7901C9.24508 14.8422 6.36315 14.3848 4.94505 12.8294C3.52695 11.2741 3.06952 9.62723 3.38975 7.47725C3.70999 5.32727 6.18019 3.17721 8.33019 3.13149C10.4802 3.08573 11.6238 3.63468 12.6759 4.64107Z" fill="#4F80ED" stroke="#4F80ED" stroke-width="0.377395"/>
<path d="M23.1272 8.57514C24.774 8.57514 26.1006 9.90173 26.1006 11.5486C26.1006 13.1954 24.774 14.522 23.1272 14.522C21.4804 14.522 20.1538 13.1954 20.1538 11.5486C20.1538 9.90171 21.4804 8.57514 23.1272 8.57514ZM23.1272 6.5166C20.3368 6.5166 18.0953 8.75812 18.0953 11.5486C18.0953 14.339 20.3368 16.5805 23.1272 16.5805C25.9176 16.5805 28.1591 14.339 28.1591 11.5486C28.1591 8.7581 25.9176 6.5166 23.1272 6.5166Z" fill="#FF3629" stroke="#FF3629" stroke-width="0.377395"/>
<path d="M35.2279 8.57514C36.8747 8.57514 38.2013 9.90173 38.2013 11.5486C38.2013 13.1954 36.8747 14.522 35.2279 14.522C33.5811 14.522 32.2545 13.1954 32.2545 11.5486C32.2545 9.90171 33.5811 8.57514 35.2279 8.57514ZM35.2279 6.5166C32.4375 6.5166 30.196 8.75812 30.196 11.5486C30.196 14.339 32.4375 16.5805 35.2279 16.5805C38.0183 16.5805 40.2598 14.339 40.2598 11.5486C40.2598 8.7581 37.9726 6.5166 35.2279 6.5166Z" fill="#FFD336" stroke="#FFD336" stroke-width="0.377395"/>
<path d="M49.9798 6.88373V7.7529C49.9798 7.7529 48.4245 5.8316 46.0458 6.74651C43.6671 7.66142 42.8437 9.35397 42.5235 10.9093C42.1575 12.8306 43.4841 15.987 46.2288 16.4444C48.9277 16.8562 49.9798 15.4381 49.9798 15.4381C50.0713 16.8562 49.8884 17.3594 49.6596 17.8168C49.4309 18.2742 49.0192 19.0977 47.2809 19.0977C45.5426 19.1434 44.8107 17.3594 44.8107 17.3594L42.8894 18.0913C42.8894 18.0913 43.1639 18.8232 44.3075 19.9211C45.4054 21.019 48.0586 21.4764 50.0256 20.3328C51.9926 19.1892 52.0384 16.17 52.0384 16.17V6.88373H49.9798ZM47.5554 14.6147C45.8171 14.6147 44.9937 13.3338 44.8107 12.7391C44.6735 12.2359 44.4447 11.0465 44.9479 10.0401C45.6799 8.57632 47.3724 8.39332 47.9671 8.57632C48.6075 8.75929 50.1171 9.53695 50.0713 11.4583C50.0256 13.288 49.2479 14.6147 47.5554 14.6147Z" fill="#4F80ED" stroke="#4F80ED" stroke-width="0.377395"/>
<path d="M54.8053 1.53125H56.8639V16.1697H54.8053V1.53125Z" fill="#23BF5A" stroke="#23BF5A" stroke-width="0.377395"/>
<path d="M63.9783 14.6142C62.1485 14.6142 61.6453 13.0589 61.6453 13.0589L68.3698 10.2684C68.3698 10.2684 67.5464 7.29499 64.9389 6.7003C62.3315 6.1056 60.5474 7.56947 59.7698 9.0333C58.9921 10.4971 59.0379 12.9674 60.09 14.6142C61.1879 16.2153 63.3836 16.6727 64.4815 16.5355C65.6251 16.3983 66.9975 15.9866 68.1868 14.3855L66.4942 13.2418C66.54 13.1961 65.8081 14.6142 63.9783 14.6142ZM63.5666 8.48436C65.1219 8.20988 65.8081 9.53649 65.8081 9.53649L61.2794 11.412C61.2794 10.4514 61.7368 8.80458 63.5666 8.48436Z" fill="#FF3629" stroke="#FF3629" stroke-width="0.377395"/>
</svg>
