<svg width="40" height="40" viewBox="0 0 40 40" fill="none" xmlns="http://www.w3.org/2000/svg">
<path d="M13.04 35C12.6694 34.2195 12.4846 33.3638 12.5 32.5C12.5 29.1125 14.2 25.625 17.34 23.2C15.7727 22.7171 14.1399 22.4809 12.5 22.5C2.5 22.5 0 30 0 32.5C0 35 2.5 35 2.5 35H13.04ZM11.25 20C12.9076 20 14.4973 19.3415 15.6694 18.1694C16.8415 16.9973 17.5 15.4076 17.5 13.75C17.5 12.0924 16.8415 10.5027 15.6694 9.33058C14.4973 8.15848 12.9076 7.5 11.25 7.5C9.5924 7.5 8.00269 8.15848 6.83058 9.33058C5.65848 10.5027 5 12.0924 5 13.75C5 15.4076 5.65848 16.9973 6.83058 18.1694C8.00269 19.3415 9.5924 20 11.25 20Z" fill="#282828"/>
<path d="M32.8033 17.8033C31.3968 19.2098 29.4891 20 27.5 20C25.5109 20 23.6032 19.2098 22.1967 17.8033C20.7902 16.3968 20 14.4891 20 12.5C20 10.5109 20.7902 8.60322 22.1967 7.1967C23.6032 5.79018 25.5109 5 27.5 5C29.4891 5 31.3968 5.79018 32.8033 7.1967C34.2098 8.60322 35 10.5109 35 12.5C35 14.4891 34.2098 16.3968 32.8033 17.8033Z" fill="#FEF153"/>
<g filter="url(#filter0_b_579_10231)">
<path d="M15 32.5C15 35 17.5 35 17.5 35C17.5 35 17.5 35 17.5 35H37.5C37.5 35 40 35 40 32.5C40 30 37.5 22.5 27.5 22.5C17.5 22.5 15 30 15 32.5Z" fill="url(#paint0_radial_579_10231)" fill-opacity="0.2"/>
<path d="M17.5001 34.8965H17.5L17.5 34.8965L17.499 34.8965L17.4945 34.8965L17.4754 34.896C17.4583 34.8954 17.4327 34.8943 17.3999 34.8919C17.3343 34.8872 17.2399 34.8778 17.1264 34.8589C16.8988 34.821 16.5969 34.7453 16.2963 34.595C15.996 34.4449 15.699 34.2213 15.4767 33.8879C15.2549 33.5552 15.1035 33.1069 15.1035 32.5C15.1035 31.2748 15.7196 28.7986 17.5786 26.6298C19.4333 24.466 22.5292 22.6035 27.5 22.6035C32.4708 22.6035 35.5667 24.466 37.4214 26.6298C39.2804 28.7986 39.8965 31.2748 39.8965 32.5C39.8965 33.1069 39.7451 33.5552 39.5233 33.8879C39.301 34.2213 39.004 34.4449 38.7037 34.595C38.4031 34.7453 38.1012 34.821 37.8736 34.8589C37.7601 34.8778 37.6657 34.8872 37.6 34.8919C37.5673 34.8943 37.5417 34.8954 37.5246 34.896L37.5055 34.8965L37.501 34.8965L37.5 34.8965L37.5 34.8965H37.4999H17.5001Z" stroke="url(#paint1_radial_579_10231)" stroke-width="0.206915"/>
</g>
<defs>
<filter id="filter0_b_579_10231" x="9.96938" y="17.4694" width="35.0612" height="22.5612" filterUnits="userSpaceOnUse" color-interpolation-filters="sRGB">
<feFlood flood-opacity="0" result="BackgroundImageFix"/>
<feGaussianBlur in="BackgroundImageFix" stdDeviation="2.51531"/>
<feComposite in2="SourceAlpha" operator="in" result="effect1_backgroundBlur_579_10231"/>
<feBlend mode="normal" in="SourceGraphic" in2="effect1_backgroundBlur_579_10231" result="shape"/>
</filter>
<radialGradient id="paint0_radial_579_10231" cx="0" cy="0" r="1" gradientUnits="userSpaceOnUse" gradientTransform="translate(17.7713 22.904) rotate(26.6594) scale(25.4109 9.30281)">
<stop stop-color="white" stop-opacity="0.6"/>
<stop offset="1" stop-color="white" stop-opacity="0"/>
</radialGradient>
<radialGradient id="paint1_radial_579_10231" cx="0" cy="0" r="1" gradientUnits="userSpaceOnUse" gradientTransform="translate(40 35) rotate(-151.049) scale(25.8232 15.7438)">
<stop stop-color="white" stop-opacity="0.5"/>
<stop offset="1" stop-color="white" stop-opacity="0.5"/>
</radialGradient>
</defs>
</svg>
