<svg width="32" height="32" viewBox="0 0 32 32" fill="none" xmlns="http://www.w3.org/2000/svg">
<mask id="mask0_575_9237" style="mask-type:alpha" maskUnits="userSpaceOnUse" x="0" y="0" width="32" height="32">
<circle cx="16" cy="16" r="16" fill="#ACF878"/>
</mask>
<g mask="url(#mask0_575_9237)">
<circle cx="16" cy="16" r="16" fill="#6AD2FF"/>
</g>
<g clip-path="url(#clip0_575_9237)">
<path d="M22.3712 12.9842C22.3712 12.8341 22.3684 12.6857 22.3617 12.5383C23.0033 12.0603 23.56 11.4619 24.0002 10.7771C23.4023 11.0461 22.7661 11.2202 22.1145 11.293C22.7927 10.8757 23.3128 10.2082 23.5585 9.4073C22.9235 9.79239 22.2212 10.0677 21.4744 10.2111C20.876 9.53029 20.0221 9.09663 19.0782 9.08051C17.2652 9.05054 15.7956 10.5826 15.7956 12.502C15.7956 12.7748 15.8241 13.0394 15.8808 13.2949C13.1507 13.1192 10.7315 11.6981 9.11331 9.55591C8.83095 10.0692 8.66895 10.669 8.66895 11.3118C8.66895 12.5276 9.24849 13.6082 10.1291 14.2459C9.58998 14.2215 9.085 14.0582 8.64208 13.7905V13.8352C8.64208 15.5344 9.77396 16.9582 11.2758 17.2903C11.0005 17.3687 10.7101 17.4094 10.4114 17.4079C10.2039 17.4069 9.99706 17.3842 9.79423 17.3404C10.2115 18.7329 11.4244 19.7502 12.8603 19.7841C11.7365 20.7159 10.3209 21.2725 8.7839 21.2686C8.51889 21.2686 8.25702 21.2508 8.00028 21.2186C9.45358 22.2155 11.1787 22.7961 13.0332 22.7961C19.0699 22.7976 22.3712 17.5431 22.3712 12.9842Z" fill="white"/>
</g>
<defs>
<clipPath id="clip0_575_9237">
<rect width="16" height="16" fill="white" transform="translate(8 8)"/>
</clipPath>
</defs>
</svg>
