<svg width="127" height="138" viewBox="0 0 127 138" fill="none" xmlns="http://www.w3.org/2000/svg">
<path d="M103.585 118.812C107.51 111.715 109.947 103.797 109.947 95.4467V38.9173C109.947 35.5618 107.718 32.6145 104.49 31.7008L64.0755 20.2627C60.5144 19.2548 56.7436 19.2548 53.1825 20.2627L12.7682 31.7008C9.53952 32.6145 7.31067 35.5618 7.31067 38.9173V95.4467C7.31067 106.077 11.2604 116.006 17.2014 124.432" stroke="#1F1814"/>
<path d="M97.4258 118.436C101.978 111.299 104.915 103.098 104.915 94.3739V41.9373C104.915 39.7014 103.43 37.7372 101.279 37.1271L64.0913 26.5796C60.5234 25.5676 56.7445 25.5676 53.1767 26.5796L15.9887 37.1271C13.8376 37.7372 12.353 39.7013 12.353 41.9373V94.3739C12.353 106.089 17.6492 116.861 25.0395 125.378" stroke="#1F1814"/>
<path fill-rule="evenodd" clip-rule="evenodd" d="M43.7836 67.5785C43.7836 59.417 50.3589 52.8008 58.47 52.8008C66.5811 52.8008 73.1564 59.417 73.1564 67.5785V74.2586H68.3114V67.5785C68.3114 62.1095 63.9053 57.6759 58.47 57.6759C53.0347 57.6759 48.6286 62.1095 48.6286 67.5785V74.2586H43.7836L43.7836 67.5785Z" fill="#CCCBCB"/>
<path fill-rule="evenodd" clip-rule="evenodd" d="M59.9778 92.5046C61.2272 91.885 62.0873 90.587 62.0873 89.0861C62.0873 86.9842 60.4006 85.2803 58.3199 85.2803C56.2393 85.2803 54.5526 86.9842 54.5526 89.0861C54.5526 90.5871 55.4128 91.8852 56.6623 92.5047L54.5527 99.8113H62.0874L59.9778 92.5046Z" fill="white"/>
<path d="M103.537 50.1968C112.926 50.1968 120.538 42.5856 120.538 33.1968C120.538 23.8079 112.926 16.1968 103.537 16.1968C94.1471 16.1968 86.5354 23.8079 86.5354 33.1968C86.5354 42.5856 94.1471 50.1968 103.537 50.1968Z" fill="#21D97D"/>
<path fill-rule="evenodd" clip-rule="evenodd" d="M111.223 25.2855C111.554 25.6206 111.554 26.1639 111.223 26.499L110.347 27.3841L112.098 29.1453C112.259 29.3063 112.349 29.5253 112.349 29.7536C112.349 29.982 112.259 30.201 112.098 30.362L109.411 33.065C109.08 33.3979 108.545 33.3979 108.214 33.065L106.467 31.3078L104.478 33.319C105.376 34.5521 105.687 36.1421 105.289 37.6488C104.821 39.4213 103.446 40.8028 101.688 41.2722C99.931 41.7415 98.0576 41.2283 96.779 39.9249L96.7726 39.9184C94.8485 37.9145 94.8761 34.7277 96.8344 32.758C98.5769 31.0054 101.276 30.7922 103.251 32.1331L110.023 25.2855C110.354 24.9504 110.891 24.9504 111.223 25.2855ZM102.765 33.9334C101.44 32.6467 99.3333 32.6652 98.0314 33.9747C96.7329 35.2808 96.7137 37.3899 97.9872 38.7196C98.8372 39.5838 100.084 39.9257 101.255 39.613C102.427 39.2999 103.339 38.3802 103.649 37.2062C103.956 36.045 103.627 34.8075 102.786 33.9536C102.779 33.947 102.772 33.9403 102.765 33.9334ZM107.713 30.1398L109.197 28.6471L110.297 29.7536L108.813 31.2463L107.713 30.1398Z" fill="white"/>
<rect x="48" y="112" width="79" height="26" rx="5" fill="url(#paint0_linear_3378_66614)"/>
<path fill-rule="evenodd" clip-rule="evenodd" d="M117.144 120.198C116.354 119.753 115.444 119.5 114.475 119.5C111.451 119.5 109 121.969 109 125.015C109 128.061 111.451 130.53 114.475 130.53C117.499 130.53 119.95 128.061 119.95 125.015C119.95 123.855 119.595 122.779 118.988 121.891L114.475 125.015L117.144 120.198Z" fill="#1A1A1A"/>
<path d="M59.7864 126.818L59.8539 125.32L58.5897 126.133L58.2026 125.458L59.5449 124.773L58.2026 124.087L58.5897 123.413L59.8539 124.226L59.7864 122.727H60.557L60.4895 124.226L61.7537 123.413L62.1408 124.087L60.7985 124.773L62.1408 125.458L61.7537 126.133L60.4895 125.32L60.557 126.818H59.7864ZM65.0012 126.818L65.0687 125.32L63.8045 126.133L63.4174 125.458L64.7598 124.773L63.4174 124.087L63.8045 123.413L65.0687 124.226L65.0012 122.727H65.7718L65.7044 124.226L66.9686 123.413L67.3556 124.087L66.0133 124.773L67.3556 125.458L66.9686 126.133L65.7044 125.32L65.7718 126.818H65.0012ZM70.2161 126.818L70.2836 125.32L69.0194 126.133L68.6323 125.458L69.9746 124.773L68.6323 124.087L69.0194 123.413L70.2836 124.226L70.2161 122.727H70.9867L70.9192 124.226L72.1834 123.413L72.5705 124.087L71.2282 124.773L72.5705 125.458L72.1834 126.133L70.9192 125.32L70.9867 126.818H70.2161ZM75.4309 126.818L75.4984 125.32L74.2342 126.133L73.8471 125.458L75.1895 124.773L73.8471 124.087L74.2342 123.413L75.4984 124.226L75.4309 122.727H76.2015L76.1341 124.226L77.3983 123.413L77.7853 124.087L76.443 124.773L77.7853 125.458L77.3983 126.133L76.1341 125.32L76.2015 126.818H75.4309ZM80.6458 126.818L80.7132 125.32L79.449 126.133L79.062 125.458L80.4043 124.773L79.062 124.087L79.449 123.413L80.7132 124.226L80.6458 122.727H81.4164L81.3489 124.226L82.6131 123.413L83.0002 124.087L81.6579 124.773L83.0002 125.458L82.6131 126.133L81.3489 125.32L81.4164 126.818H80.6458ZM85.8606 126.818L85.9281 125.32L84.6639 126.133L84.2768 125.458L85.6191 124.773L84.2768 124.087L84.6639 123.413L85.9281 124.226L85.8606 122.727H86.6312L86.5637 124.226L87.828 123.413L88.215 124.087L86.8727 124.773L88.215 125.458L87.828 126.133L86.5637 125.32L86.6312 126.818H85.8606Z" fill="#1A1A1A"/>
<path d="M36.2776 81.1758C36.2776 79.7951 37.3969 78.6758 38.7776 78.6758H77.8547C79.2354 78.6758 80.3547 79.7951 80.3547 81.1758V102.051C80.3547 103.432 79.2354 104.551 77.8547 104.551H38.7776C37.3969 104.551 36.2776 103.432 36.2776 102.051V81.1758Z" fill="url(#paint1_linear_3378_66614)"/>
<path fill-rule="evenodd" clip-rule="evenodd" d="M59.5214 90.7821C60.5232 90.2849 61.2127 89.2438 61.2127 88.0401C61.2127 86.3538 59.8595 84.9868 58.1903 84.9868C56.521 84.9868 55.1678 86.3538 55.1678 88.0401C55.1678 89.2449 55.8586 90.2868 56.8619 90.7835L55.1694 96.6455H61.2143L59.5214 90.7821Z" fill="#1F1814"/>
<path d="M8.97944 18C13.9387 18 17.9681 13.9705 17.9795 8.99998C17.9909 4.02943 13.9798 0 9.0206 0C4.06138 0 0.0319224 4.02943 0.0205548 8.99998C0.00918712 13.9705 4.02022 18 8.97944 18Z" fill="#FE5858"/>
<path d="M13.436 6.79846C13.5955 6.94534 13.6142 7.20398 13.4778 7.37587C13.1625 7.77327 12.7999 8.13029 12.3979 8.43889L13.2226 9.3275C13.3682 9.49044 13.3641 9.74954 13.213 9.90674C13.1792 9.94299 13.1384 9.97189 13.093 9.99165C13.0476 10.0114 12.9987 10.0216 12.9492 10.0216C12.8997 10.0216 12.8508 10.0114 12.8054 9.99165C12.76 9.97189 12.7192 9.94299 12.6853 9.90674L11.7316 8.87952C11.2997 9.12554 10.8372 9.31284 10.3563 9.43651L10.7972 10.7403C10.8687 10.953 10.767 11.1878 10.5699 11.2654C10.3725 11.3427 10.1546 11.2332 10.0828 11.0205L9.59624 9.57742C9.19794 9.62234 8.79598 9.62395 8.39733 9.58223L7.91096 11.0205C7.83923 11.233 7.62129 11.3427 7.42391 11.2654C7.22676 11.188 7.1251 10.953 7.19683 10.7403L7.63454 9.44821C7.14951 9.32695 6.68267 9.1415 6.24625 8.89673L5.30847 9.90651C5.27386 9.94363 5.23188 9.97304 5.18525 9.99284C5.13861 10.0126 5.08836 10.0224 5.03774 10.0215C4.98712 10.0205 4.93726 10.0089 4.89138 9.98744C4.8455 9.96594 4.80462 9.93501 4.77138 9.89664C4.70263 9.81793 4.66472 9.71679 4.66472 9.61207C4.66472 9.50735 4.70263 9.40621 4.77138 9.3275L5.5769 8.45955C5.18526 8.1626 4.8306 7.81941 4.52054 7.43737C4.3853 7.26456 4.40563 7.00615 4.56578 6.86042C4.72181 6.7186 4.95369 6.73466 5.09121 6.89691C6.0708 8.1036 7.4865 8.79484 8.97417 8.79277C10.5036 8.79277 11.9246 8.07216 12.9003 6.84367C13.0367 6.67155 13.2766 6.65158 13.436 6.79846Z" fill="white"/>
<defs>
<linearGradient id="paint0_linear_3378_66614" x1="119.774" y1="137.873" x2="48.1901" y2="119.356" gradientUnits="userSpaceOnUse">
<stop stop-color="#F4FF9F"/>
<stop offset="0.359441" stop-color="#FFF8B8"/>
<stop offset="0.744729" stop-color="#FFFCB6"/>
<stop offset="1" stop-color="#FFFF86"/>
</linearGradient>
<linearGradient id="paint1_linear_3378_66614" x1="36.2776" y1="91.6136" x2="80.3547" y2="91.6136" gradientUnits="userSpaceOnUse">
<stop stop-color="#8CE3FF"/>
<stop offset="1" stop-color="#7FFF93"/>
</linearGradient>
</defs>
</svg>
