<svg width="109" height="198" viewBox="0 0 109 198" fill="none" xmlns="http://www.w3.org/2000/svg">
<g clip-path="url(#clip0_535_19979)">
<rect x="0.5" width="108" height="198" rx="12" fill="white"/>
<g filter="url(#filter0_f_535_19979)">
<ellipse cx="31.25" cy="90.752" rx="16.5" ry="17.25" fill="#FFF59E"/>
</g>
<g filter="url(#filter1_f_535_19979)">
<ellipse cx="69.5" cy="72.75" rx="20.25" ry="20.25" fill="#EBF5FF"/>
</g>
<ellipse cx="21.5" cy="24" rx="12" ry="12" fill="#EBEBEB"/>
<rect x="9.5" y="48.002" width="90" height="24" rx="9" fill="#1F1F1F"/>
<rect x="9.5" y="135" width="90" height="24" rx="6" fill="#F7F7F7"/>
<rect x="9.5" y="165" width="90" height="24" rx="6" fill="#F7F7F7"/>
<ellipse cx="1.5" cy="1.5" rx="1.5" ry="1.5" transform="matrix(-1 0 0 1 18.5 58.502)" fill="white"/>
<ellipse cx="1.5" cy="1.5" rx="1.5" ry="1.5" transform="matrix(-1 0 0 1 24.5 58.502)" fill="white"/>
<ellipse cx="1.5" cy="1.5" rx="1.5" ry="1.5" transform="matrix(-1 0 0 1 30.5 58.502)" fill="white"/>
<ellipse cx="1.5" cy="1.5" rx="1.5" ry="1.5" transform="matrix(-1 0 0 1 36.5 58.502)" fill="white"/>
<ellipse cx="1.5" cy="1.5" rx="1.5" ry="1.5" transform="matrix(-1 0 0 1 42.5 58.502)" fill="white"/>
<ellipse cx="1.5" cy="1.5" rx="1.5" ry="1.5" transform="matrix(-1 0 0 1 48.5 58.502)" fill="white"/>
<path d="M9.5 90.002C9.5 86.6882 12.1863 84.002 15.5 84.002H30.5C33.8137 84.002 36.5 86.6882 36.5 90.002V117.002C36.5 120.316 33.8137 123.002 30.5 123.002H15.5C12.1863 123.002 9.5 120.316 9.5 117.002V90.002Z" fill="url(#paint0_linear_535_19979)"/>
<path d="M41.75 90.002C41.75 86.6882 44.4363 84.002 47.75 84.002H62.75C66.0637 84.002 68.75 86.6882 68.75 90.002V117.002C68.75 120.316 66.0637 123.002 62.75 123.002H47.75C44.4363 123.002 41.75 120.316 41.75 117.002V90.002Z" fill="url(#paint1_linear_535_19979)"/>
<path d="M74 90.002C74 86.6882 76.6863 84.002 80 84.002H93.5C96.8137 84.002 99.5 86.6882 99.5 90.002V117.002C99.5 120.316 96.8137 123.002 93.5 123.002H80C76.6863 123.002 74 120.316 74 117.002V90.002Z" fill="url(#paint2_linear_535_19979)"/>
<rect x="38" y="19.5" width="25.5" height="9" rx="4.5" fill="#898989"/>
</g>
<rect x="1.5" y="1" width="106" height="196" rx="11" stroke="#EBEBEB" stroke-width="2"/>
<defs>
<filter id="filter0_f_535_19979" x="-45.25" y="13.502" width="153" height="154.5" filterUnits="userSpaceOnUse" color-interpolation-filters="sRGB">
<feFlood flood-opacity="0" result="BackgroundImageFix"/>
<feBlend mode="normal" in="SourceGraphic" in2="BackgroundImageFix" result="shape"/>
<feGaussianBlur stdDeviation="30" result="effect1_foregroundBlur_535_19979"/>
</filter>
<filter id="filter1_f_535_19979" x="-10.75" y="-7.5" width="160.5" height="160.5" filterUnits="userSpaceOnUse" color-interpolation-filters="sRGB">
<feFlood flood-opacity="0" result="BackgroundImageFix"/>
<feBlend mode="normal" in="SourceGraphic" in2="BackgroundImageFix" result="shape"/>
<feGaussianBlur stdDeviation="30" result="effect1_foregroundBlur_535_19979"/>
</filter>
<linearGradient id="paint0_linear_535_19979" x1="11" y1="85.1324" x2="40.9193" y2="100.768" gradientUnits="userSpaceOnUse">
<stop stop-color="#FBF9E7"/>
<stop offset="1" stop-color="#F9F6DE"/>
</linearGradient>
<linearGradient id="paint1_linear_535_19979" x1="43.25" y1="85.1324" x2="74.5279" y2="98.5112" gradientUnits="userSpaceOnUse">
<stop stop-color="#EFFBF3"/>
<stop offset="1" stop-color="#D9F4E2"/>
</linearGradient>
<linearGradient id="paint2_linear_535_19979" x1="75.4304" y1="85.1324" x2="104.527" y2="99.6327" gradientUnits="userSpaceOnUse">
<stop stop-color="#E9F4FF"/>
<stop offset="1" stop-color="#E0EDFB"/>
</linearGradient>
<clipPath id="clip0_535_19979">
<rect x="0.5" width="108" height="198" rx="12" fill="white"/>
</clipPath>
</defs>
</svg>
