<svg width="210" height="100" viewBox="0 0 210 100" fill="none" xmlns="http://www.w3.org/2000/svg">
<g clip-path="url(#clip0_250_10220)">
<mask id="path-1-inside-1_250_10220" fill="white">
<path d="M0 0H210V100H0V0Z"/>
</mask>
<path d="M0 0H210V100H0V0Z" fill="#F3F3F3"/>
<g filter="url(#filter0_b_250_10220)">
<rect x="52" y="32" width="171.97" height="105.999" rx="6" fill="url(#paint0_linear_250_10220)"/>
<rect x="52.5" y="32.5" width="170.97" height="104.999" rx="5.5" stroke="black" stroke-opacity="0.1"/>
<rect x="93" y="38" width="36" height="94" rx="4" fill="white"/>
<rect x="135" y="38" width="82" height="94" rx="4" fill="white"/>
<rect x="58" y="50" width="12" height="12" rx="6" fill="white"/>
<circle cx="71" cy="39" r="2" fill="#64C555"/>
<circle cx="65" cy="39" r="2" fill="#F5BE51"/>
<circle cx="59" cy="39" r="2" fill="#EC6A5F"/>
<rect x="58" y="69" width="29" height="10" rx="2" fill="white"/>
<rect x="58" y="81" width="29" height="10" rx="2" fill="white"/>
<rect x="58" y="93" width="29" height="10" rx="2" fill="white"/>
</g>
<mask id="mask0_250_10220" style="mask-type:alpha" maskUnits="userSpaceOnUse" x="16" y="16" width="24" height="24">
<rect x="16" y="16" width="24" height="24" fill="#D9D9D9"/>
</mask>
<g mask="url(#mask0_250_10220)">
<path d="M28.0002 31C28.8335 31 29.5419 30.7083 30.1252 30.125C30.7085 29.5416 31.0002 28.8333 31.0002 28C31.0002 27.1666 30.7085 26.4583 30.1252 25.875C29.5419 25.2916 28.8335 25 28.0002 25C27.1669 25 26.4585 25.2916 25.8752 25.875C25.2919 26.4583 25.0002 27.1666 25.0002 28C25.0002 28.8333 25.2919 29.5416 25.8752 30.125C26.4585 30.7083 27.1669 31 28.0002 31ZM27.9944 32.8C26.6649 32.8 25.5335 32.3314 24.6002 31.3942C23.6669 30.4572 23.2002 29.3239 23.2002 27.9942C23.2002 26.6647 23.6688 25.5333 24.6059 24.6C25.5429 23.6666 26.6763 23.2 28.0059 23.2C29.3354 23.2 30.4669 23.6685 31.4002 24.6057C32.3335 25.5427 32.8002 26.676 32.8002 28.0057C32.8002 29.3352 32.3316 30.4666 31.3944 31.4C30.4574 32.3333 29.3241 32.8 27.9944 32.8ZM18.1002 28.9C17.8452 28.9 17.6314 28.8142 17.4589 28.6427C17.2864 28.4712 17.2002 28.2587 17.2002 28.0052C17.2002 27.7517 17.2864 27.5375 17.4589 27.3625C17.6314 27.1875 17.8452 27.1 18.1002 27.1H20.5002C20.7552 27.1 20.9689 27.1857 21.1414 27.3572C21.3139 27.5287 21.4002 27.7412 21.4002 27.9947C21.4002 28.2482 21.3139 28.4625 21.1414 28.6375C20.9689 28.8125 20.7552 28.9 20.5002 28.9H18.1002ZM35.5002 28.9C35.2452 28.9 35.0314 28.8142 34.8589 28.6427C34.6864 28.4712 34.6002 28.2587 34.6002 28.0052C34.6002 27.7517 34.6864 27.5375 34.8589 27.3625C35.0314 27.1875 35.2452 27.1 35.5002 27.1H37.9002C38.1552 27.1 38.3689 27.1857 38.5414 27.3572C38.7139 27.5287 38.8002 27.7412 38.8002 27.9947C38.8002 28.2482 38.7139 28.4625 38.5414 28.6375C38.3689 28.8125 38.1552 28.9 37.9002 28.9H35.5002ZM28.0054 21.4C27.7519 21.4 27.5377 21.3137 27.3627 21.1412C27.1877 20.9687 27.1002 20.755 27.1002 20.5V18.1C27.1002 17.845 27.1859 17.6312 27.3574 17.4587C27.5289 17.2862 27.7414 17.2 27.9949 17.2C28.2484 17.2 28.4627 17.2862 28.6377 17.4587C28.8127 17.6312 28.9002 17.845 28.9002 18.1V20.5C28.9002 20.755 28.8144 20.9687 28.6429 21.1412C28.4714 21.3137 28.2589 21.4 28.0054 21.4ZM28.0054 38.8C27.7519 38.8 27.5377 38.7137 27.3627 38.5412C27.1877 38.3687 27.1002 38.155 27.1002 37.9V35.5C27.1002 35.245 27.1859 35.0312 27.3574 34.8587C27.5289 34.6862 27.7414 34.6 27.9949 34.6C28.2484 34.6 28.4627 34.6862 28.6377 34.8587C28.8127 35.0312 28.9002 35.245 28.9002 35.5V37.9C28.9002 38.155 28.8144 38.3687 28.6429 38.5412C28.4714 38.7137 28.2589 38.8 28.0054 38.8ZM22.0502 23.325L20.8002 22.05C20.6169 21.8833 20.5252 21.6791 20.5252 21.4375C20.5252 21.1958 20.6169 20.9833 20.8002 20.8C20.974 20.6166 21.1842 20.525 21.4307 20.525C21.677 20.525 21.8835 20.6166 22.0502 20.8L23.3252 22.05C23.5085 22.2323 23.6002 22.445 23.6002 22.6882C23.6002 22.9314 23.5085 23.1441 23.3252 23.3265C23.1585 23.5088 22.9502 23.6 22.7002 23.6C22.4502 23.6 22.2335 23.5083 22.0502 23.325ZM33.9502 35.2L32.6752 33.95C32.4919 33.7721 32.4002 33.561 32.4002 33.3167C32.4002 33.0722 32.4919 32.8583 32.6752 32.675C32.8419 32.4916 33.0502 32.4 33.3002 32.4C33.5502 32.4 33.7669 32.4916 33.9502 32.675L35.2002 33.95C35.3835 34.1166 35.4752 34.3208 35.4752 34.5625C35.4752 34.8041 35.3875 35.0166 35.2122 35.2C35.0209 35.3833 34.8085 35.475 34.5752 35.475C34.3419 35.475 34.1335 35.3833 33.9502 35.2ZM32.6737 23.325C32.4914 23.1583 32.4002 22.95 32.4002 22.7C32.4002 22.45 32.4919 22.2333 32.6752 22.05L33.9502 20.8C34.1335 20.6166 34.3419 20.5291 34.5752 20.5375C34.8085 20.5458 35.0169 20.6336 35.2002 20.801C35.3835 20.9836 35.4752 21.1916 35.4752 21.425C35.4752 21.6583 35.3835 21.8666 35.2002 22.05L33.9502 23.325C33.7679 23.5083 33.5551 23.6 33.3119 23.6C33.0688 23.6 32.856 23.5083 32.6737 23.325ZM20.8002 35.2C20.6169 35.0261 20.5252 34.816 20.5252 34.5695C20.5252 34.3231 20.6169 34.1166 20.8002 33.95L22.0502 32.675C22.228 32.5083 22.4391 32.425 22.6834 32.425C22.9279 32.425 23.1419 32.5083 23.3252 32.675C23.5085 32.8583 23.5964 33.0722 23.5887 33.3167C23.581 33.561 23.4932 33.7721 23.3252 33.95L22.0502 35.2C21.8835 35.3833 21.6794 35.475 21.4377 35.475C21.196 35.475 20.9835 35.3833 20.8002 35.2Z" fill="#1C1B1F"/>
</g>
</g>
<path d="M210 99H0V101H210V99Z" fill="black" fill-opacity="0.1" mask="url(#path-1-inside-1_250_10220)"/>
<defs>
<filter id="filter0_b_250_10220" x="-22.1252" y="-42.1252" width="320.221" height="254.249" filterUnits="userSpaceOnUse" color-interpolation-filters="sRGB">
<feFlood flood-opacity="0" result="BackgroundImageFix"/>
<feGaussianBlur in="BackgroundImageFix" stdDeviation="37.0626"/>
<feComposite in2="SourceAlpha" operator="in" result="effect1_backgroundBlur_250_10220"/>
<feBlend mode="normal" in="SourceGraphic" in2="effect1_backgroundBlur_250_10220" result="shape"/>
</filter>
<linearGradient id="paint0_linear_250_10220" x1="388.5" y1="-117.5" x2="136.299" y2="233.864" gradientUnits="userSpaceOnUse">
<stop stop-color="#FEFBE4"/>
<stop offset="0.214425" stop-color="white"/>
<stop offset="0.531482" stop-color="#FBFBE9"/>
<stop offset="0.768184" stop-color="#FFF3B7"/>
<stop offset="1" stop-color="#FFFFF3"/>
</linearGradient>
<clipPath id="clip0_250_10220">
<path d="M0 0H210V100H0V0Z" fill="white"/>
</clipPath>
</defs>
</svg>
