<svg width="210" height="100" viewBox="0 0 210 100" fill="none" xmlns="http://www.w3.org/2000/svg">
<g clip-path="url(#clip0_250_10240)">
<mask id="path-1-inside-1_250_10240" fill="white">
<path d="M0 0H210V100H0V0Z"/>
</mask>
<path d="M0 0H210V100H0V0Z" fill="#2D2D2D"/>
<g filter="url(#filter0_b_250_10240)">
<rect x="52" y="32" width="171.97" height="105.999" rx="6" fill="#161615"/>
<rect x="52.5" y="32.5" width="170.97" height="104.999" rx="5.5" stroke="white" stroke-opacity="0.3"/>
<rect x="93" y="38" width="36" height="94" rx="4" fill="#3D3D3D"/>
<rect x="135" y="38" width="82" height="94" rx="4" fill="#3D3D3D"/>
<rect x="58" y="50" width="12" height="12" rx="6" fill="#3D3D3D"/>
<circle cx="71" cy="39" r="2" fill="#64C555"/>
<circle cx="65" cy="39" r="2" fill="#F5BE51"/>
<circle cx="59" cy="39" r="2" fill="#EC6A5F"/>
<rect x="58" y="69" width="29" height="10" rx="2" fill="#3D3D3D"/>
<rect x="58" y="81" width="29" height="10" rx="2" fill="#3D3D3D"/>
<rect x="58" y="93" width="29" height="10" rx="2" fill="#3D3D3D"/>
</g>
<mask id="mask0_250_10240" style="mask-type:alpha" maskUnits="userSpaceOnUse" x="16" y="16" width="24" height="24">
<rect x="16" y="16" width="24" height="24" fill="#D9D9D9"/>
</mask>
<g mask="url(#mask0_250_10240)">
<path d="M27.9996 36.4004C25.6663 36.4004 23.6829 35.5838 22.0496 33.9504C20.4163 32.3171 19.5996 30.3335 19.5996 27.9997C19.5996 25.8668 20.2996 24.0088 21.6996 22.4254C23.0996 20.8421 24.8671 19.9162 27.0021 19.6477C27.2004 19.6162 27.3788 19.6504 27.5371 19.7504C27.6954 19.8504 27.8169 19.9754 27.9016 20.1254C27.9861 20.2754 28.0319 20.4504 28.0391 20.6504C28.0461 20.8504 27.9913 21.0421 27.8746 21.2254C27.6413 21.6088 27.4621 22.0213 27.3371 22.4629C27.2121 22.9046 27.1496 23.3504 27.1496 23.8004C27.1496 25.2171 27.6371 26.4129 28.6121 27.3879C29.5871 28.3629 30.7829 28.8504 32.1996 28.8504C32.6489 28.8504 33.0946 28.7879 33.5366 28.6629C33.9786 28.5379 34.3913 28.3588 34.7746 28.1254C34.9579 28.0088 35.1454 27.9588 35.3371 27.9754C35.5288 27.9921 35.6957 28.0421 35.8379 28.1254C35.9957 28.2088 36.1246 28.3296 36.2246 28.4879C36.3246 28.6463 36.3579 28.8254 36.3246 29.0254C36.0913 31.1588 35.1788 32.9213 33.5871 34.3129C31.9954 35.7046 30.1329 36.4004 27.9996 36.4004ZM27.9746 34.6004C29.3566 34.6004 30.5973 34.217 31.6966 33.4502C32.7961 32.6835 33.5971 31.6836 34.0996 30.4504C33.7663 30.5338 33.4413 30.6004 33.1246 30.6504C32.8079 30.7004 32.4913 30.7254 32.1746 30.7254C30.2701 30.7254 28.6481 30.0548 27.3086 28.7134C25.9693 27.3721 25.2996 25.7478 25.2996 23.8407C25.2996 23.5305 25.3246 23.2171 25.3746 22.9004C25.4246 22.5838 25.4913 22.2588 25.5746 21.9254C24.3413 22.4254 23.3413 23.2248 22.5746 24.3237C21.8079 25.4225 21.4246 26.6626 21.4246 28.0439C21.4246 29.8649 22.064 31.4129 23.3429 32.6879C24.6217 33.9629 26.1656 34.6004 27.9746 34.6004Z" fill="#DBDBDB"/>
</g>
</g>
<path d="M210 99H0V101H210V99Z" fill="white" fill-opacity="0.1" mask="url(#path-1-inside-1_250_10240)"/>
<defs>
<filter id="filter0_b_250_10240" x="-22.1252" y="-42.1252" width="320.221" height="254.249" filterUnits="userSpaceOnUse" color-interpolation-filters="sRGB">
<feFlood flood-opacity="0" result="BackgroundImageFix"/>
<feGaussianBlur in="BackgroundImageFix" stdDeviation="37.0626"/>
<feComposite in2="SourceAlpha" operator="in" result="effect1_backgroundBlur_250_10240"/>
<feBlend mode="normal" in="SourceGraphic" in2="effect1_backgroundBlur_250_10240" result="shape"/>
</filter>
<clipPath id="clip0_250_10240">
<path d="M0 0H210V100H0V0Z" fill="white"/>
</clipPath>
</defs>
</svg>
