<svg width="160" height="160" viewBox="0 0 160 160" fill="none" xmlns="http://www.w3.org/2000/svg">
<circle cx="77" cy="97" r="50" fill="white"/>
<path d="M65.7143 47.9648C43.3421 53.1433 26.6667 73.1952 26.6667 97.1417C26.6667 125.019 49.2656 147.618 77.1429 147.618C105.02 147.618 127.619 125.019 127.619 97.1417C127.619 74.2262 112.349 54.8772 91.4286 48.7156" stroke="black"/>
<mask id="mask0_1122_45247" style="mask-type:alpha" maskUnits="userSpaceOnUse" x="27" y="47" width="100" height="100">
<circle cx="77.1427" cy="97.142" r="49.5238" fill="white"/>
</mask>
<g mask="url(#mask0_1122_45247)">
<g filter="url(#filter0_f_1122_45247)">
<circle cx="61.7249" cy="155.543" r="58.4007" fill="#E6FF50"/>
</g>
<g filter="url(#filter1_f_1122_45247)">
<circle cx="131.806" cy="34.0697" r="58.4007" fill="#D9FF6D" fill-opacity="0.6"/>
</g>
<ellipse cx="45.7223" cy="69.4474" rx="3.47779" ry="1.86882" transform="rotate(-30 45.7223 69.4474)" fill="#D2DEA3"/>
<ellipse cx="56.0394" cy="85.8626" rx="3.47779" ry="2.22777" transform="rotate(-27 56.0394 85.8626)" fill="#D2DEA3"/>
<ellipse cx="46.1634" cy="102.338" rx="3.02867" ry="1.94008" transform="rotate(35 46.1634 102.338)" fill="#D2DEA3"/>
<ellipse cx="40.133" cy="103.883" rx="1.88458" ry="1.20721" transform="rotate(24 40.133 103.883)" fill="#D2DEA3"/>
<ellipse cx="113.929" cy="76.5857" rx="1.88458" ry="1.20721" transform="rotate(24 113.929 76.5857)" fill="#D2DEA3"/>
<ellipse cx="105.519" cy="62.5696" rx="1.88458" ry="1.20721" transform="rotate(24 105.519 62.5696)" fill="#D2DEA3"/>
<ellipse cx="58.3831" cy="137.069" rx="2.63573" ry="1.61727" transform="rotate(24 58.3831 137.069)" fill="#D2DEA3"/>
<ellipse cx="98.9104" cy="76.3178" rx="3.49711" ry="2.01436" transform="rotate(24 98.9104 76.3178)" fill="#D2DEA3"/>
</g>
<path d="M43.0614 56.7389C43.0614 58.7026 44.6533 60.2944 46.617 60.2944C48.5806 60.2944 50.1725 58.7026 50.1725 56.7389C50.1725 54.7752 48.5806 53.1833 46.617 53.1833C44.6533 53.1833 43.0614 54.7752 43.0614 56.7389ZM21.8551 41.977L21.2632 41.6701L21.8551 41.977ZM60.4265 106.74L60.445 107.406L60.4634 107.406L60.4818 107.404L60.4265 106.74ZM107.093 106.74L106.951 106.088L106.937 106.091L106.923 106.095L107.093 106.74ZM127.093 78.1674L121.776 83.7338L129.255 85.5556L127.093 78.1674ZM47.236 56.4913C45.7649 52.8138 41.1206 45.9285 36.0189 41.5121C33.4759 39.3108 30.7197 37.6339 28.1097 37.3697C26.7845 37.2356 25.4933 37.4658 24.3099 38.1765C23.1329 38.8834 22.1103 40.0365 21.2632 41.6701L22.4469 42.2839C23.2118 40.8086 24.0827 39.8683 24.9963 39.3196C25.9036 38.7747 26.9001 38.5874 27.9754 38.6963C30.1663 38.918 32.6618 40.3696 35.1462 42.5202C40.0992 46.8079 44.6119 53.5212 45.998 56.9865L47.236 56.4913ZM21.2632 41.6701C19.5048 45.0613 18.9564 50.9377 19.5841 57.7156C20.2151 64.5298 22.0466 72.3794 25.1692 79.7956C31.399 94.5915 42.8872 107.894 60.445 107.406L60.408 106.073C43.68 106.538 32.5492 93.8874 26.398 79.2782C23.3301 71.9918 21.5306 64.2757 20.9117 57.5927C20.2894 50.8735 20.872 45.3212 22.4469 42.2839L21.2632 41.6701ZM60.4818 107.404C63.6248 107.142 66.4255 104.871 68.6904 101.825C70.9709 98.7575 72.8006 94.784 73.9771 90.8596C75.1514 86.9428 75.6955 83.0063 75.3469 80.0108C75.1729 78.5156 74.7693 77.191 74.0503 76.2245C73.3088 75.2279 72.2523 74.6444 70.9027 74.6444V75.9777C71.8119 75.9777 72.4792 76.3465 72.9805 77.0204C73.5042 77.7243 73.8622 78.788 74.0225 80.1649C74.3424 82.9134 73.8456 86.6554 72.6999 90.4767C71.5566 94.2905 69.7874 98.1146 67.6204 101.029C65.4378 103.965 62.9424 105.861 60.3711 106.075L60.4818 107.404ZM70.9027 74.6444C69.5948 74.6444 68.5907 75.5674 67.9085 76.8092C67.2181 78.0661 66.7652 79.7938 66.5854 81.7684C66.2249 85.7254 66.9448 90.849 69.2929 95.6061C71.6467 100.375 75.645 104.789 81.8378 107.269C88.0248 109.747 96.3325 110.267 107.263 107.384L106.923 106.095C96.1871 108.926 88.1853 108.375 82.3335 106.031C76.4877 103.69 72.7181 99.533 70.4885 95.016C68.2532 90.4874 67.5742 85.611 67.9132 81.8894C68.0831 80.0247 68.5045 78.4935 69.0771 77.4512C69.6579 76.3939 70.3057 75.9777 70.9027 75.9777V74.6444ZM107.236 107.391C118.02 105.032 123.248 95.211 126.316 84.1749L125.031 83.8178C121.982 94.7862 116.946 103.902 106.951 106.088L107.236 107.391Z" fill="url(#paint0_linear_1122_45247)"/>
<path d="M69.5235 42.3799L79.0473 49.9989L87.6187 43.3323" stroke="black" stroke-linejoin="round"/>
<path d="M62.3806 51.9033L79.0473 64.7605L94.2854 52.8557" stroke="black" stroke-linejoin="round"/>
<path d="M56.6663 59.9985L78.3989 30.2343C78.4533 30.1599 78.5711 30.1983 78.5711 30.2905V68.2366" stroke="black"/>
<path d="M78.9829 29.715C78.8263 29.4875 78.515 29.4301 78.2875 29.5867C78.0601 29.7433 78.0027 30.0546 78.1593 30.2821L78.9829 29.715ZM78.1593 30.2821L98.1593 59.3297L98.9829 58.7626L78.9829 29.715L78.1593 30.2821Z" fill="black"/>
<path d="M66.1901 17.1416C65.2377 18.7289 63.9044 23.2368 66.1901 28.5702" stroke="black" stroke-linejoin="round"/>
<path d="M58.0949 13.332C55.9388 15.9775 52.9203 23.4908 58.0949 32.3797" stroke="black" stroke-linejoin="round"/>
<path d="M99.0473 13.332C101.203 15.9775 104.222 23.4908 99.0473 32.3797" stroke="black" stroke-linejoin="round"/>
<path d="M91.1185 17.1416C92.0709 18.7289 93.4043 23.2368 91.1185 28.5702" stroke="black" stroke-linejoin="round"/>
<path d="M75.8161 21.0435H77.5625V21.5674C77.5625 22.2425 77.0152 22.7898 76.3401 22.7898H75.8161V21.0435Z" fill="white"/>
<path d="M77.7372 21.5674V21.0435H81.2299V22.7898H78.9596C78.2845 22.7898 77.7372 22.2425 77.7372 21.5674Z" fill="white"/>
<path d="M77.7372 24.187C77.7372 23.5118 78.2845 22.9645 78.9596 22.9645H79.4836V25.5841H77.7372V24.187Z" fill="white"/>
<path d="M83.3328 22.8547C83.3328 20.2248 81.2009 18.0928 78.5709 18.0928C75.941 18.0928 73.809 20.2248 73.809 22.8547C73.809 25.4846 75.941 27.6166 78.5709 27.6166C81.2009 27.6166 83.3328 25.4846 83.3328 22.8547Z" fill="#FEF153"/>
<g clip-path="url(#clip0_1122_45247)">
<path fill-rule="evenodd" clip-rule="evenodd" d="M80.5969 20.8656C80.5964 20.8658 80.5959 20.8659 80.5953 20.8659L79.8572 20.8515C79.8536 20.8515 79.8528 20.8499 79.8544 20.8466L80.1587 20.2551L80.1616 20.2494L80.1666 20.2388L80.1957 20.1827L80.2193 20.1366C80.2196 20.136 80.22 20.1355 80.2204 20.1351L80.2205 20.135C80.2224 20.1314 80.2241 20.1314 80.226 20.135L80.226 20.1351C80.2265 20.1354 80.2269 20.1358 80.2272 20.1363C80.2369 20.154 80.2628 20.2035 80.2967 20.269C80.2975 20.2691 80.2984 20.2689 80.2994 20.2684C80.3952 20.2276 80.4897 20.1975 80.5826 20.1779C80.6774 20.1994 80.7349 20.2537 80.7557 20.3409C80.7831 20.4559 80.7686 20.5912 80.7398 20.7034C80.6741 20.7143 80.6116 20.7322 80.5522 20.757C80.5506 20.7576 80.5496 20.7588 80.5492 20.7602C80.5743 20.8094 80.5926 20.8456 80.5994 20.8597C80.5997 20.8603 80.5998 20.8609 80.5998 20.8615L80.5998 20.8616C80.6015 20.8646 80.6004 20.8659 80.5971 20.8659L80.5969 20.8656Z" fill="#827E75"/>
<path d="M79.7321 20.8421C79.7091 20.819 79.6743 20.7959 79.6283 20.7728C79.3514 20.6337 79.0564 20.553 78.7436 20.5301C78.5763 20.5174 78.4086 20.5228 78.2413 20.547L78.08 20.575C77.9548 20.6019 77.8329 20.638 77.7143 20.6837C77.5982 20.7288 77.4865 20.7828 77.3785 20.8456C77.1923 20.9548 77.0241 21.0872 76.8743 21.2423C76.679 21.4442 76.5254 21.6736 76.4131 21.9304C76.1578 22.5214 76.1575 23.1912 76.415 23.7833C76.5446 23.6007 76.6782 23.423 76.8165 23.2501C76.7502 22.9512 76.7585 22.6561 76.8409 22.3648C77.0187 21.76 77.4925 21.2953 78.106 21.1304L78.2837 21.0932C78.3884 21.0763 78.4935 21.0687 78.599 21.0706C78.7236 21.0725 78.8471 21.0872 78.9693 21.1146C79.0786 21.1358 79.1728 21.1771 79.2525 21.2383C79.3519 21.3146 79.373 21.4154 79.3158 21.5404C79.4497 21.4391 79.5814 21.3402 79.7104 21.2442C79.7386 21.223 79.7641 21.191 79.7868 21.1475C79.8318 21.025 79.8134 20.9231 79.7321 20.8421ZM78.5869 21.0535C78.5869 21.0538 78.5869 21.0538 78.5867 21.054C78.5867 21.0538 78.5867 21.0538 78.5869 21.0535ZM78.6045 21.0608C78.6045 21.0611 78.6042 21.0616 78.6045 21.0619C78.6042 21.0616 78.6045 21.0614 78.6045 21.0608ZM78.6058 21.0635C78.6056 21.0635 78.6056 21.0635 78.6058 21.0635C78.6056 21.0633 78.6053 21.063 78.605 21.0627C78.6053 21.063 78.6053 21.0633 78.6058 21.0635ZM78.5867 21.0551C78.5867 21.0554 78.5869 21.0557 78.5872 21.0562C78.5869 21.0559 78.5869 21.0559 78.5867 21.0557C78.5864 21.0551 78.5867 21.0551 78.5867 21.0551ZM78.5872 21.0565C78.5878 21.0567 78.588 21.057 78.5889 21.057C78.5883 21.057 78.5878 21.0567 78.5872 21.0565Z" fill="url(#paint1_linear_1122_45247)"/>
<path d="M81.2773 20.5237C81.2357 20.3612 81.1376 20.2498 80.9837 20.1894C80.8544 20.1457 80.7207 20.146 80.583 20.1788C80.6777 20.2003 80.7353 20.2547 80.7561 20.3419C80.7835 20.4568 80.7689 20.5921 80.7402 20.7044C80.7169 20.8106 80.6808 20.9141 80.6315 21.0144C80.5378 21.2043 80.4332 21.3829 80.3176 21.5497L80.2173 21.6959C80.0163 21.9747 79.8016 22.2432 79.5734 22.501L79.445 22.6453C79.2812 22.8266 79.1125 23.0035 78.9385 23.1755L78.5376 23.561L78.3478 23.7325C78.1774 23.8849 78.0035 24.0309 77.8266 24.17C77.7044 24.4246 77.9753 24.5534 78.1711 24.595C78.1892 24.5825 78.2018 24.5732 78.2089 24.5675C78.4598 24.367 78.7027 24.1575 78.9377 23.9385L79.2439 23.6466C79.4181 23.4752 79.5879 23.3005 79.7536 23.1219L80.0105 22.8358L80.3228 22.4641C80.4608 22.291 80.5961 22.1119 80.7281 21.9269L80.7424 21.9046L80.7648 21.8714C80.8829 21.7002 80.9897 21.5231 81.0856 21.3399C81.2096 21.1003 81.3359 20.7962 81.2773 20.5237ZM80.0114 22.8209C80.0111 22.8206 80.0108 22.8203 80.0105 22.82C80.0108 22.82 80.0108 22.82 80.0111 22.8203C80.0114 22.8206 80.0114 22.8209 80.0114 22.8209ZM79.749 22.613C79.7487 22.613 79.7484 22.6133 79.7482 22.6135C79.7484 22.6135 79.7487 22.6133 79.749 22.613ZM79.7473 22.6141L79.7471 22.6143C79.7473 22.6143 79.7473 22.6143 79.7473 22.6141ZM79.7465 22.616C79.7465 22.6162 79.7465 22.6162 79.7465 22.6165C79.7462 22.6162 79.7465 22.6162 79.7465 22.616ZM79.6293 22.5418C79.6287 22.5421 79.6285 22.5426 79.6282 22.5431C79.6287 22.5426 79.629 22.5421 79.6293 22.5418ZM79.6263 22.5475C79.6263 22.5486 79.6263 22.5494 79.6266 22.5505C79.6263 22.5497 79.6263 22.5486 79.6263 22.5478V22.5475ZM79.5649 22.5187C79.5647 22.5192 79.5644 22.5198 79.5638 22.5203C79.5641 22.5195 79.5647 22.519 79.5649 22.5187ZM79.5633 22.5214C79.563 22.522 79.563 22.5225 79.5627 22.523C79.5627 22.5225 79.563 22.522 79.5633 22.5214ZM79.5622 22.5247C79.5622 22.5252 79.5619 22.5258 79.5619 22.5263C79.5622 22.5258 79.5622 22.5252 79.5622 22.5247ZM79.5652 22.5388C79.5655 22.5393 79.5657 22.5396 79.566 22.5402C79.566 22.5399 79.5657 22.5399 79.5657 22.5396C79.5655 22.5391 79.5652 22.5388 79.5652 22.5388ZM79.5625 22.5315C79.5625 22.532 79.5627 22.5326 79.563 22.5334C79.5627 22.5328 79.5625 22.5323 79.5625 22.5315ZM79.7514 22.613C79.7523 22.6133 79.7528 22.6135 79.7534 22.6138C79.7528 22.6133 79.7523 22.613 79.7514 22.613ZM80.7657 21.8565C80.7659 21.8568 80.7665 21.8565 80.7668 21.8565C80.7665 21.8565 80.7662 21.8565 80.7657 21.8565ZM80.767 21.8559L80.7673 21.8557C80.7673 21.8559 80.7673 21.8559 80.767 21.8559Z" fill="url(#paint2_linear_1122_45247)"/>
<path d="M79.2531 21.2389C79.1737 21.1777 79.0792 21.1364 78.9699 21.1152C78.8272 21.2277 78.6878 21.3435 78.5517 21.462L78.4523 21.5486C78.1488 21.8179 77.8568 22.0989 77.5758 22.3915C77.3156 22.6619 77.0672 22.9423 76.8303 23.2328C76.8224 23.2393 76.8177 23.2453 76.8169 23.2507C76.6786 23.4236 76.5449 23.6013 76.4154 23.7839L76.3121 23.9385C76.2445 24.0415 76.182 24.1442 76.1245 24.2469C76.0204 24.4306 75.9257 24.6349 75.8755 24.8401C75.7772 25.2281 75.9634 25.5664 76.3998 25.5553C76.4491 25.5523 76.5041 25.5441 76.5649 25.5311C76.4879 25.5167 76.4354 25.4795 76.4066 25.4194C76.3513 25.3031 76.371 25.1268 76.4039 25.0069C76.4332 24.8523 76.5041 24.7042 76.5745 24.5694C76.7711 24.2146 77.0157 23.8771 77.2702 23.5635C77.4394 23.3551 77.6155 23.1527 77.7982 22.9562L77.9754 22.7676L78.332 22.4089C78.5134 22.2323 78.6999 22.0603 78.8916 21.8929L78.9067 21.8801C79.0431 21.7614 79.1797 21.6484 79.3161 21.5408C79.3734 21.4158 79.3523 21.3152 79.2531 21.2389ZM76.5668 24.558C76.566 24.5583 76.5655 24.5588 76.5652 24.5594C76.5657 24.5588 76.5663 24.5583 76.5668 24.558ZM76.572 24.542C76.572 24.5417 76.5718 24.5412 76.5715 24.5409C76.5715 24.5412 76.5718 24.5417 76.572 24.542ZM76.5707 24.5409C76.5704 24.5409 76.5704 24.5406 76.5701 24.5409C76.5704 24.5406 76.5707 24.5409 76.5707 24.5409ZM76.1302 24.2591C76.13 24.2594 76.1297 24.2597 76.1297 24.2602C76.1297 24.2599 76.1297 24.2599 76.13 24.2597C76.13 24.2594 76.1302 24.2591 76.1302 24.2591ZM76.1292 24.2667C76.1292 24.267 76.1294 24.2673 76.1297 24.2676C76.1294 24.2673 76.1294 24.267 76.1292 24.2667ZM76.1289 24.2651C76.1289 24.2657 76.1289 24.2659 76.1289 24.2665C76.1289 24.2662 76.1289 24.2657 76.1289 24.2651ZM76.13 24.2678C76.1305 24.2684 76.1311 24.2686 76.1319 24.2686H76.1316C76.1308 24.2686 76.1302 24.2681 76.13 24.2678ZM76.5663 24.5651L76.5666 24.5654C76.5666 24.5654 76.5666 24.5651 76.5663 24.5651ZM76.9237 23.2877C76.9234 23.2872 76.9229 23.2866 76.9226 23.2863C76.9229 23.2869 76.9232 23.2872 76.9237 23.2877ZM76.9251 23.2912C76.9251 23.2907 76.9248 23.2899 76.9245 23.2893C76.9248 23.2899 76.9248 23.2904 76.9251 23.2912ZM76.8355 23.2331C76.8358 23.2331 76.8358 23.2334 76.8358 23.2334C76.8355 23.2331 76.8352 23.2328 76.8347 23.2328C76.835 23.2331 76.8352 23.2331 76.8355 23.2331ZM76.9169 23.2836C76.9171 23.2836 76.9174 23.2839 76.918 23.2839C76.9171 23.2836 76.916 23.2836 76.9152 23.2836C76.9155 23.2834 76.916 23.2834 76.9169 23.2836ZM76.921 23.2853C76.9204 23.285 76.9199 23.2847 76.9193 23.2844C76.9201 23.2847 76.9207 23.285 76.921 23.2853ZM77.7399 22.5212C77.7396 22.5212 77.7391 22.5209 77.7388 22.5209C77.7391 22.5209 77.7393 22.5209 77.7399 22.5212ZM77.7385 22.5209C77.738 22.5209 77.7374 22.5209 77.7369 22.5212C77.7374 22.5209 77.738 22.5206 77.7385 22.5209ZM77.7355 22.5222C77.7352 22.5228 77.735 22.5233 77.735 22.5239C77.735 22.5231 77.7352 22.5228 77.7355 22.5222ZM77.9689 22.7619V22.7622C77.9689 22.7622 77.9689 22.7622 77.9689 22.7619ZM77.9691 22.7627C77.9691 22.7627 77.9694 22.763 77.9697 22.763C77.9694 22.7627 77.9691 22.7627 77.9691 22.7627Z" fill="url(#paint3_linear_1122_45247)"/>
<path d="M80.7282 21.9258C80.5959 22.1108 80.4609 22.2899 80.3228 22.463C80.3264 22.4635 80.3286 22.4657 80.3297 22.4703C80.3809 22.7111 80.3839 22.9521 80.3384 23.1934C80.3072 23.3502 80.2565 23.4996 80.1864 23.642C80.1054 23.8042 80.0021 23.9512 79.8764 24.0828L79.7392 24.2118C79.6239 24.3097 79.4976 24.3923 79.3601 24.4591C79.0602 24.6023 78.743 24.6599 78.4086 24.6317C78.3284 24.624 78.2495 24.6115 78.1714 24.5939C77.9756 24.5523 77.7047 24.4232 77.8269 24.1689C77.7091 24.2583 77.5932 24.3455 77.4785 24.4311C77.4355 24.4632 77.4062 24.4885 77.3911 24.5069C77.3032 24.6126 77.3174 24.7749 77.4108 24.8681C77.4325 24.8898 77.4645 24.9113 77.5072 24.9327C77.8951 25.127 78.3084 25.2091 78.7471 25.1792C78.9827 25.1613 79.21 25.1099 79.4297 25.0254C79.5157 24.992 79.5987 24.9539 79.6792 24.9113C79.8186 24.8376 79.9487 24.7507 80.0697 24.6512L80.2281 24.5088C80.3335 24.4048 80.428 24.2923 80.5115 24.1716C80.6115 24.0271 80.6937 23.8735 80.7583 23.711C80.8232 23.5458 80.8692 23.3757 80.8961 23.2005C80.9596 22.7603 80.9037 22.3355 80.7282 21.9258ZM79.3878 24.4651C79.3875 24.4648 79.3872 24.4643 79.3869 24.464C79.3872 24.4643 79.3875 24.4645 79.3878 24.4651ZM79.3864 24.4632C79.3861 24.4629 79.3858 24.4629 79.3856 24.4626C79.3858 24.4629 79.3861 24.4632 79.3864 24.4632ZM79.3847 24.4624C79.3845 24.4624 79.3842 24.4624 79.3839 24.4624C79.3842 24.4621 79.3845 24.4621 79.3847 24.4624ZM79.3658 24.4637L79.3661 24.4635C79.3659 24.4637 79.3658 24.4637 79.3658 24.4637ZM79.3664 24.4626C79.3664 24.4624 79.3664 24.4621 79.3664 24.4616C79.3664 24.4618 79.3667 24.4618 79.3667 24.4621C79.3664 24.4624 79.3664 24.4624 79.3664 24.4626ZM79.3661 24.4613C79.3659 24.4607 79.3656 24.4605 79.365 24.4605C79.3653 24.4605 79.3656 24.4607 79.3661 24.4613ZM79.3826 24.4621C79.382 24.4621 79.3812 24.4624 79.3806 24.4626C79.3812 24.4621 79.3817 24.4621 79.3826 24.4621ZM80.1327 24.3602C80.1327 24.3599 80.133 24.3594 80.133 24.3591C80.133 24.3594 80.133 24.3597 80.1327 24.3602ZM80.1333 24.3572C80.1333 24.3569 80.1333 24.3564 80.1333 24.3561C80.1333 24.3564 80.1333 24.3567 80.1333 24.3572ZM80.1327 24.3545C80.1325 24.3539 80.1322 24.3534 80.1319 24.3529C80.1319 24.3531 80.1322 24.3531 80.1325 24.3534C80.1325 24.3537 80.1325 24.3539 80.1327 24.3545ZM80.1311 24.352C80.1305 24.3515 80.1303 24.3512 80.1297 24.3507C80.1303 24.351 80.1308 24.3515 80.1311 24.352ZM80.1289 24.3501C80.1284 24.3499 80.1278 24.3496 80.127 24.3493C80.1275 24.3496 80.1284 24.3499 80.1289 24.3501ZM80.1262 24.3491C80.1251 24.3491 80.1242 24.3491 80.1232 24.3491C80.124 24.3491 80.1251 24.3491 80.1262 24.3491ZM79.9087 24.0616C79.9084 24.0613 79.9079 24.061 79.9071 24.061C79.9079 24.0608 79.9084 24.061 79.9087 24.0616ZM80.3573 23.1624C80.3571 23.1621 80.3568 23.1621 80.3568 23.1619C80.3571 23.1619 80.3573 23.1621 80.3573 23.1624Z" fill="url(#paint4_linear_1122_45247)"/>
<path fill-rule="evenodd" clip-rule="evenodd" d="M76.9519 24.8509L77.285 24.8574C77.2883 24.8574 77.2893 24.8591 77.2877 24.8621L77.1198 25.189L77.1116 25.2066L76.9221 25.5732C76.921 25.5751 76.9188 25.5756 76.9169 25.5748C76.9163 25.5745 76.9155 25.574 76.9152 25.5732L76.8483 25.4426C76.8467 25.4409 76.8447 25.4406 76.8422 25.4417C76.7486 25.4806 76.656 25.5104 76.5645 25.5311C76.4876 25.5167 76.435 25.4795 76.4062 25.4194C76.3509 25.3031 76.3706 25.1268 76.4035 25.0069C76.4687 24.9933 76.5314 24.9757 76.5916 24.9537C76.5944 24.9529 76.5944 24.9493 76.5916 24.9433C76.5919 24.9432 76.5921 24.9431 76.5923 24.943L76.5435 24.8479C76.5416 24.8444 76.5427 24.8428 76.5468 24.8428L76.9519 24.8509Z" fill="#827E75"/>
</g>
<rect x="34.9204" y="97.1426" width="84.4444" height="36.1905" rx="3.30952" fill="url(#paint5_linear_1122_45247)"/>
<rect x="92.825" y="105.587" width="19.3016" height="19.3016" rx="7.61905" fill="white"/>
<rect x="42.1586" y="105.587" width="30.1587" height="4.8254" rx="2.4127" fill="white"/>
<rect x="42.1586" y="120.063" width="42.2222" height="2.4127" rx="1.20635" fill="white"/>
<circle cx="126.667" cy="64.7608" r="14.2857" fill="#28CC69"/>
<g clip-path="url(#clip1_1122_45247)">
<path d="M126.696 72.6484C126.341 72.6484 126.011 72.4727 125.814 72.177L124.768 70.6041C124.584 70.3256 124.249 70.1884 123.919 70.2527L122.068 70.6256C121.721 70.6941 121.361 70.587 121.108 70.3384C120.855 70.0856 120.748 69.7299 120.821 69.3784L121.194 67.527C121.258 67.197 121.121 66.867 120.842 66.6784L119.269 65.6327C118.974 65.4356 118.798 65.1056 118.798 64.7499C118.798 64.3941 118.974 64.0641 119.269 63.867L120.846 62.8299C121.125 62.6456 121.262 62.3113 121.198 61.9813L120.825 60.1299C120.756 59.7827 120.864 59.4227 121.112 59.1699C121.365 58.917 121.721 58.8099 122.072 58.8827L123.924 59.2556C124.254 59.3241 124.584 59.1827 124.772 58.9041L125.818 57.3313C126.015 57.0356 126.345 56.8599 126.701 56.8599C127.056 56.8599 127.386 57.0356 127.584 57.3313L128.629 58.9041C128.814 59.1827 129.148 59.3199 129.478 59.2556L131.329 58.8827C131.676 58.8141 132.036 58.9213 132.289 59.1699C132.542 59.4227 132.649 59.7784 132.576 60.1299L132.204 61.9813C132.139 62.3113 132.276 62.6413 132.555 62.8299L134.128 63.8756C134.424 64.0727 134.599 64.4027 134.599 64.7584C134.599 65.1141 134.424 65.4441 134.128 65.6413L132.555 66.687C132.276 66.8713 132.139 67.2056 132.204 67.5356L132.576 69.387C132.645 69.7341 132.538 70.0941 132.289 70.347C132.036 70.5999 131.681 70.707 131.329 70.6341L129.478 70.2613C129.148 70.197 128.818 70.3341 128.629 70.6127L127.575 72.1727C127.382 72.4684 127.052 72.6484 126.696 72.6484ZM124.086 69.207C124.699 69.207 125.278 69.5113 125.625 70.0341L126.671 71.607C126.675 71.6113 126.679 71.6199 126.696 71.6199C126.714 71.6199 126.718 71.6113 126.722 71.607L127.768 70.0341C128.188 69.4041 128.934 69.0956 129.675 69.2456L131.526 69.6184C131.531 69.6184 131.544 69.6227 131.552 69.6099C131.561 69.597 131.561 69.5884 131.561 69.5841L131.188 67.7327C131.038 66.9913 131.351 66.2413 131.976 65.8256L133.549 64.7799C133.554 64.7756 133.562 64.7713 133.562 64.7541C133.562 64.737 133.554 64.7327 133.549 64.7284L131.972 63.687C131.342 63.267 131.034 62.5213 131.184 61.7799L131.556 59.9284C131.556 59.9241 131.561 59.9113 131.548 59.9027C131.535 59.8899 131.526 59.8941 131.522 59.8941L129.671 60.267C128.929 60.417 128.179 60.1041 127.764 59.4784L126.718 57.9056C126.714 57.9013 126.709 57.8927 126.692 57.8927C126.675 57.8927 126.671 57.9013 126.666 57.9056L125.621 59.4784C125.201 60.1084 124.455 60.417 123.714 60.267L121.862 59.8941C121.858 59.8941 121.845 59.8899 121.836 59.9027C121.824 59.9156 121.828 59.9241 121.828 59.9284L122.201 61.7799C122.351 62.5213 122.038 63.2713 121.412 63.687L119.839 64.7327C119.835 64.737 119.826 64.7413 119.826 64.7584C119.826 64.7756 119.835 64.7799 119.839 64.7841L121.412 65.8299C122.042 66.2499 122.351 66.9956 122.201 67.737L121.828 69.5884C121.828 69.5927 121.824 69.6056 121.836 69.6141C121.849 69.627 121.858 69.6227 121.862 69.6227L123.714 69.2499C123.842 69.2199 123.966 69.207 124.086 69.207Z" fill="white"/>
<path d="M126.032 67.2598C125.912 67.2598 125.788 67.217 125.694 67.1313L123.379 65.087C123.165 64.8984 123.148 64.5727 123.332 64.3627C123.521 64.1484 123.847 64.1313 124.057 64.3156L126.007 66.0384L129.204 62.7856C129.401 62.5841 129.727 62.5798 129.932 62.7813C130.134 62.9784 130.138 63.3041 129.937 63.5098L126.397 67.1141C126.302 67.2084 126.169 67.2598 126.032 67.2598Z" fill="white"/>
</g>
<defs>
<filter id="filter0_f_1122_45247" x="-130.009" y="-36.1912" width="383.468" height="383.468" filterUnits="userSpaceOnUse" color-interpolation-filters="sRGB">
<feFlood flood-opacity="0" result="BackgroundImageFix"/>
<feBlend mode="normal" in="SourceGraphic" in2="BackgroundImageFix" result="shape"/>
<feGaussianBlur stdDeviation="66.6667" result="effect1_foregroundBlur_1122_45247"/>
</filter>
<filter id="filter1_f_1122_45247" x="-59.9281" y="-157.664" width="383.468" height="383.468" filterUnits="userSpaceOnUse" color-interpolation-filters="sRGB">
<feFlood flood-opacity="0" result="BackgroundImageFix"/>
<feBlend mode="normal" in="SourceGraphic" in2="BackgroundImageFix" result="shape"/>
<feGaussianBlur stdDeviation="66.6667" result="effect1_foregroundBlur_1122_45247"/>
</filter>
<linearGradient id="paint0_linear_1122_45247" x1="26.2366" y1="40.7214" x2="77.7743" y2="137.103" gradientUnits="userSpaceOnUse">
<stop stop-color="#FFF68D"/>
<stop offset="0.113086" stop-color="#FFEF64"/>
<stop offset="0.360792" stop-color="#54FF7A"/>
<stop offset="0.698325" stop-color="#8AFDEF"/>
<stop offset="1" stop-color="#FEF153"/>
</linearGradient>
<linearGradient id="paint1_linear_1122_45247" x1="79.3129" y1="20.7516" x2="76.4681" y2="23.4727" gradientUnits="userSpaceOnUse">
<stop stop-color="#1A130F"/>
<stop offset="1" stop-color="#605B50"/>
</linearGradient>
<linearGradient id="paint2_linear_1122_45247" x1="81.1342" y1="20.2869" x2="78.0422" y2="24.2434" gradientUnits="userSpaceOnUse">
<stop stop-color="#1A130F"/>
<stop offset="1" stop-color="#605B50"/>
</linearGradient>
<linearGradient id="paint3_linear_1122_45247" x1="79.1896" y1="21.2469" x2="76.0974" y2="25.2049" gradientUnits="userSpaceOnUse">
<stop stop-color="#605B50"/>
<stop offset="1" stop-color="#1A130F"/>
</linearGradient>
<linearGradient id="paint4_linear_1122_45247" x1="80.7594" y1="22.0224" x2="78.7669" y2="25.5875" gradientUnits="userSpaceOnUse">
<stop stop-color="#605B50"/>
<stop offset="1" stop-color="#1A130F"/>
</linearGradient>
<linearGradient id="paint5_linear_1122_45247" x1="41.5553" y1="97.1426" x2="97.3466" y2="154.18" gradientUnits="userSpaceOnUse">
<stop stop-color="#96FFFF"/>
<stop offset="1" stop-color="#5182FF"/>
</linearGradient>
<clipPath id="clip0_1122_45247">
<rect width="5.44218" height="5.44218" fill="white" transform="translate(75.8499 20.1338)"/>
</clipPath>
<clipPath id="clip1_1122_45247">
<rect width="17.1429" height="17.1429" fill="white" transform="translate(118.095 56.1895)"/>
</clipPath>
</defs>
</svg>
