<svg width="98" height="109" viewBox="0 0 98 109" fill="none" xmlns="http://www.w3.org/2000/svg">
<path d="M47.5 107L2.03369 80.75V28.25L47.5 2L92.9664 28.25V48" stroke="url(#paint0_linear_770_571)" stroke-width="3"/>
<path fill-rule="evenodd" clip-rule="evenodd" d="M68.9419 55H25.0579C25.8822 44.3785 35.391 36 46.9999 36C58.6088 36 68.1176 44.3785 68.9419 55Z" fill="url(#paint1_linear_770_571)"/>
<path d="M57 25C57 30.5228 55 41 47 41C39 41 37 30.5228 37 25C37 19.4772 41.4772 15 47 15C52.5228 15 57 19.4772 57 25Z" fill="#2787FF"/>
<circle cx="4" cy="78" r="4" fill="url(#paint2_linear_770_571)"/>
<circle cx="24" cy="62" r="4" fill="url(#paint3_linear_770_571)"/>
<circle cx="49" cy="61" r="4" fill="url(#paint4_linear_770_571)"/>
<circle cx="76" cy="61" r="4" fill="url(#paint5_linear_770_571)"/>
<circle cx="93" cy="46" r="4" fill="url(#paint6_linear_770_571)"/>
<rect x="21" y="68" width="6" height="28" fill="url(#paint7_linear_770_571)"/>
<rect x="46" y="66" width="6" height="40" fill="url(#paint8_linear_770_571)"/>
<rect x="73" y="66" width="6" height="19" fill="url(#paint9_linear_770_571)"/>
<path fill-rule="evenodd" clip-rule="evenodd" d="M57 91.5C57 87.3579 60.3578 84 64.5 84C67.4425 84 69.9921 85.6944 71.2212 88.1675L73.9077 86.8325C72.1914 83.3787 68.6248 81 64.5 81C58.701 81 54 85.701 54 91.5C54 97.299 58.701 102 64.5 102C67.5289 102 70.2523 100.341 72.3702 98.4249C74.5079 96.4912 76.2298 94.1169 77.292 92.2623C80.2924 87.2639 83.4316 84 87.5 84C91.6422 84 95 87.3579 95 91.5C95 95.6421 91.6422 99 87.5 99C84.3948 99 81.7269 97.1125 80.5877 94.4162L77.8242 95.5838C79.4161 99.3514 83.147 102 87.5 102C93.299 102 98 97.299 98 91.5C98 85.701 93.299 81 87.5 81C81.6299 81 77.7116 85.732 74.7138 90.7283L74.6976 90.7558C73.7588 92.3986 72.2204 94.5151 70.3577 96.2001C68.4682 97.9093 66.4416 99 64.5 99C60.3578 99 57 95.6421 57 91.5Z" fill="url(#paint10_linear_770_571)"/>
<path d="M9 74.5L18 65.5" stroke="#2787FF" stroke-width="2"/>
<path d="M30 61.5H42" stroke="#2787FF" stroke-width="2"/>
<path d="M55 61.5H69.5" stroke="#2787FF" stroke-width="2"/>
<path d="M81.5 59.5L89.5 50.5" stroke="#2787FF" stroke-width="2"/>
<defs>
<linearGradient id="paint0_linear_770_571" x1="47.5" y1="2" x2="47.5" y2="107" gradientUnits="userSpaceOnUse">
<stop stop-color="#0E70E7"/>
<stop offset="1" stop-color="#0E70E7" stop-opacity="0.12"/>
</linearGradient>
<linearGradient id="paint1_linear_770_571" x1="46.9999" y1="36" x2="46.9999" y2="55" gradientUnits="userSpaceOnUse">
<stop stop-color="#6AAAFA"/>
<stop offset="1" stop-color="#7EB6FF" stop-opacity="0"/>
</linearGradient>
<linearGradient id="paint2_linear_770_571" x1="4" y1="74" x2="4" y2="82" gradientUnits="userSpaceOnUse">
<stop stop-color="#7EB6FF"/>
<stop offset="0.715921" stop-color="#0F71E8"/>
</linearGradient>
<linearGradient id="paint3_linear_770_571" x1="24" y1="58" x2="24" y2="66" gradientUnits="userSpaceOnUse">
<stop stop-color="#7EB6FF"/>
<stop offset="0.715921" stop-color="#0F71E8"/>
</linearGradient>
<linearGradient id="paint4_linear_770_571" x1="49" y1="57" x2="49" y2="65" gradientUnits="userSpaceOnUse">
<stop stop-color="#7EB6FF"/>
<stop offset="0.715921" stop-color="#0F71E8"/>
</linearGradient>
<linearGradient id="paint5_linear_770_571" x1="76" y1="57" x2="76" y2="65" gradientUnits="userSpaceOnUse">
<stop stop-color="#7EB6FF"/>
<stop offset="0.715921" stop-color="#0F71E8"/>
</linearGradient>
<linearGradient id="paint6_linear_770_571" x1="93" y1="42" x2="93" y2="50" gradientUnits="userSpaceOnUse">
<stop stop-color="#7EB6FF"/>
<stop offset="0.715921" stop-color="#0F71E8"/>
</linearGradient>
<linearGradient id="paint7_linear_770_571" x1="24" y1="68" x2="24" y2="96" gradientUnits="userSpaceOnUse">
<stop stop-color="#6AAAFA"/>
<stop offset="1" stop-color="#7EB6FF" stop-opacity="0"/>
</linearGradient>
<linearGradient id="paint8_linear_770_571" x1="49" y1="66" x2="49" y2="106" gradientUnits="userSpaceOnUse">
<stop stop-color="#6AAAFA"/>
<stop offset="1" stop-color="#7EB6FF" stop-opacity="0"/>
</linearGradient>
<linearGradient id="paint9_linear_770_571" x1="76" y1="66" x2="76" y2="85" gradientUnits="userSpaceOnUse">
<stop stop-color="#6AAAFA"/>
<stop offset="1" stop-color="#7EB6FF" stop-opacity="0"/>
</linearGradient>
<linearGradient id="paint10_linear_770_571" x1="98" y1="89.5" x2="46.5" y2="91" gradientUnits="userSpaceOnUse">
<stop stop-color="#0F71E8"/>
<stop offset="1" stop-color="#7EB6FF" stop-opacity="0.3"/>
</linearGradient>
</defs>
</svg>
