<svg width="348" height="200" viewBox="0 0 348 200" fill="none" xmlns="http://www.w3.org/2000/svg">
<path d="M174.888 175.776C210.172 175.776 238.776 147.172 238.776 111.888C238.776 76.6036 210.172 48 174.888 48C139.604 48 111 76.6036 111 111.888C111 147.172 139.604 175.776 174.888 175.776Z" fill="#F3F8FE"/>
<path d="M174.888 63.0847C148.046 63.0847 126.085 85.0462 126.085 111.888C126.085 138.73 148.046 160.691 174.888 160.691C201.73 160.691 223.691 138.73 223.691 111.888C223.691 85.0462 201.73 63.0847 174.888 63.0847Z" fill="#7EB6FF"/>
<path d="M197.959 102.349L172.448 127.638C171.56 128.525 170.451 128.969 169.342 128.969C168.233 128.969 167.124 128.525 166.236 127.638L151.817 113.219C150.043 111.444 150.043 108.782 151.817 107.008C153.592 105.233 156.254 105.233 158.029 107.008L169.342 118.321L191.747 95.916C193.522 94.1413 196.184 94.1413 197.959 95.916C199.733 97.6907 199.733 100.574 197.959 102.349Z" fill="white"/>
<path fill-rule="evenodd" clip-rule="evenodd" d="M3.46714 61.2056L0 52.1236L5.00286 50.3156L8.47 59.3989L3.46714 61.2056Z" fill="#0099FF"/>
<path fill-rule="evenodd" clip-rule="evenodd" d="M76.23 42.5569C75.0256 42.6166 74.0566 43.3374 73.9098 44.2656C73.4727 44.1997 73.0356 44.1326 72.6 44.0655C73.0004 42.7154 74.5288 41.7885 76.23 41.8483V42.5569Z" fill="#0071BC"/>
<path fill-rule="evenodd" clip-rule="evenodd" d="M28.048 90.2455C31.5528 93.514 36.8804 93.9084 40.7312 91.2595C41.6741 92.7333 42.6156 94.2071 43.56 95.6809C37.4474 99.0048 29.8334 97.6783 25.41 92.5902C26.2884 91.8096 27.1682 91.029 28.048 90.2455Z" fill="#AEE0B2"/>
<path fill-rule="evenodd" clip-rule="evenodd" d="M50.2419 45.4756L58.0799 51.3766L55.0279 55.1556L47.1899 49.2561L50.2419 45.4756Z" fill="#AEE0B2"/>
<path fill-rule="evenodd" clip-rule="evenodd" d="M10.6217 127.756L3.63 127.112L3.89832 122.916L10.89 123.559L10.6217 127.756Z" fill="#D3EFF3"/>
<path fill-rule="evenodd" clip-rule="evenodd" d="M59.29 116.445L64.485 107.186L67.76 108.816L62.5666 118.076L59.29 116.445Z" fill="#FFDA4E"/>
<path fill-rule="evenodd" clip-rule="evenodd" d="M67.76 160.01L59.9576 166.476L54.45 159.63L62.2523 153.166L67.76 160.01Z" fill="#FFDA4E"/>
<mask id="mask0_766_415" style="mask-type:alpha" maskUnits="userSpaceOnUse" x="81" y="14" width="12" height="25">
<path d="M81.3662 14.967H92.2755V38.7444H81.3662V14.967Z" fill="#FFDA4E"/>
</mask>
<g mask="url(#mask0_766_415)">
<path fill-rule="evenodd" clip-rule="evenodd" d="M88.5475 35.8358C80.5902 29.9421 78.827 20.8288 81.4591 15.2927C82.8287 16.9349 84.4632 17.9938 86.0546 18.5325C85.0039 23.2744 88.4271 30.7704 97.0478 33.38C94.573 34.758 91.6814 35.6307 88.5475 35.8358Z" fill="#FFDA4E"/>
</g>
<path fill-rule="evenodd" clip-rule="evenodd" d="M24.3366 162.49C20.9722 163.583 17.9813 161.999 16.9399 159.884C17.6995 159.843 18.3465 159.584 18.8353 159.216C19.978 160.651 22.8537 161.343 25.4099 159.275C25.2891 160.366 24.9337 161.469 24.3366 162.49Z" fill="#E0D3FF"/>
<path fill-rule="evenodd" clip-rule="evenodd" d="M96.8 141.115L88.8834 142.276L88.33 137.388L96.2451 136.226L96.8 141.115Z" fill="#FFCDD7"/>
<path fill-rule="evenodd" clip-rule="evenodd" d="M140.862 177.415C141.185 177.865 141.923 178.094 142.617 177.967C142.671 178.147 142.726 178.328 142.78 178.507C141.726 178.62 140.713 178.218 140.36 177.556C140.527 177.507 140.695 177.461 140.862 177.415Z" fill="#009245"/>
<path fill-rule="evenodd" clip-rule="evenodd" d="M113.723 23.6723C116.2 25.2442 119.327 24.7245 121.174 22.4855C121.923 23.2858 122.673 24.086 123.42 24.8877C120.364 27.8811 115.791 28.1388 112.53 25.5448C112.927 24.9221 113.326 24.2979 113.723 23.6723Z" fill="#FFCDD7"/>
<path fill-rule="evenodd" clip-rule="evenodd" d="M117.37 57.1106L113.943 57.5755L113.74 55.6205L117.167 55.1555L117.37 57.1106Z" fill="#D3EFF3"/>
<path fill-rule="evenodd" clip-rule="evenodd" d="M146.41 33.7885L152.175 30.9556L153.67 34.1726L147.905 37.0056L146.41 33.7885Z" fill="#E0D3FF"/>
<path fill-rule="evenodd" clip-rule="evenodd" d="M86.1266 71.5613C84.344 76.7423 86.7288 81.8441 91.7233 83.7536C90.5815 85.5063 89.4375 87.2619 88.2938 89.0154C81.3459 85.4517 78.7871 77.6964 82.1133 70.575C83.4514 70.9036 84.7889 71.2335 86.1266 71.5613Z" fill="#0099FF"/>
<path fill-rule="evenodd" clip-rule="evenodd" d="M74.9869 195.516L68.97 192.775L70.2131 189.466L76.23 192.208L74.9869 195.516Z" fill="#AEE0B2"/>
<path fill-rule="evenodd" clip-rule="evenodd" d="M88.5351 189.466L91.96 194.235L90.5449 195.516L87.12 190.748L88.5351 189.466Z" fill="#FFDA4E"/>
<path fill-rule="evenodd" clip-rule="evenodd" d="M192.977 195.998C191.685 193.659 189.019 192.472 186.642 193.133C186.386 192.198 186.131 191.26 185.874 190.323C189.513 189.729 193.206 191.82 194.685 195.27C194.116 195.514 193.547 195.754 192.977 195.998Z" fill="#FFCDD7"/>
<path fill-rule="evenodd" clip-rule="evenodd" d="M344.133 60.1055L347.6 51.0236L342.597 49.2155L339.13 58.2989L344.133 60.1055Z" fill="#0099FF"/>
<path fill-rule="evenodd" clip-rule="evenodd" d="M271.37 41.4569C272.574 41.5166 273.543 42.2374 273.69 43.1655C274.127 43.0997 274.564 43.0326 275 42.9655C274.6 41.6154 273.071 40.6885 271.37 40.7483V41.4569Z" fill="#0071BC"/>
<path fill-rule="evenodd" clip-rule="evenodd" d="M319.552 89.1455C316.047 92.414 310.72 92.8084 306.869 90.1595C305.926 91.6333 304.984 93.1071 304.04 94.5809C310.153 97.9048 317.767 96.5783 322.19 91.4902C321.312 90.7096 320.432 89.929 319.552 89.1455Z" fill="#AEE0B2"/>
<path fill-rule="evenodd" clip-rule="evenodd" d="M298.953 40.7455L285.89 51.0724L290.977 57.6855L304.04 47.3615L298.953 40.7455Z" fill="#BCE6FA"/>
<path fill-rule="evenodd" clip-rule="evenodd" d="M336.978 126.656L343.97 126.012L343.702 121.816L336.71 122.459L336.978 126.656Z" fill="#D3EFF3"/>
<path fill-rule="evenodd" clip-rule="evenodd" d="M288.31 115.345L283.115 106.086L279.84 107.716L285.033 116.976L288.31 115.345Z" fill="#FFDA4E"/>
<path fill-rule="evenodd" clip-rule="evenodd" d="M279.84 158.91L287.642 165.376L293.15 158.53L285.348 152.066L279.84 158.91Z" fill="#FFDA4E"/>
<mask id="mask1_766_415" style="mask-type:alpha" maskUnits="userSpaceOnUse" x="249" y="1" width="23" height="27">
<path d="M271.935 7.58728L262.998 1.32998L249.36 20.8073L258.297 27.0646L271.935 7.58728Z" fill="#B7C3FE"/>
</mask>
<g mask="url(#mask1_766_415)">
<path fill-rule="evenodd" clip-rule="evenodd" d="M260.666 23.3419C267.353 16.0381 267.345 6.75583 263.705 1.8237C262.674 3.69706 261.271 5.0484 259.812 5.88087C261.748 10.3351 259.818 18.3466 251.853 22.5532C254.546 23.4336 257.551 23.7386 260.666 23.3419Z" fill="#B7C3FE"/>
</g>
<path fill-rule="evenodd" clip-rule="evenodd" d="M323.263 161.39C326.628 162.483 329.619 160.899 330.66 158.784C329.901 158.743 329.253 158.484 328.765 158.116C327.622 159.551 324.746 160.243 322.19 158.175C322.311 159.266 322.666 160.369 323.263 161.39Z" fill="#E0D3FF"/>
<path fill-rule="evenodd" clip-rule="evenodd" d="M250.8 140.015L258.717 141.176L259.27 136.288L251.355 135.126L250.8 140.015Z" fill="#0099FF"/>
<path fill-rule="evenodd" clip-rule="evenodd" d="M176.488 177.525C176.165 177.975 175.427 178.204 174.733 178.077C174.679 178.257 174.624 178.438 174.57 178.617C175.624 178.73 176.637 178.328 176.99 177.666C176.823 177.617 176.655 177.571 176.488 177.525Z" fill="#009245"/>
<path fill-rule="evenodd" clip-rule="evenodd" d="M233.877 22.5723C231.4 24.1442 228.273 23.6245 226.426 21.3855C225.677 22.1858 224.927 22.986 224.18 23.7877C227.236 26.7811 231.809 27.0388 235.07 24.4448C234.673 23.8221 234.274 23.1979 233.877 22.5723Z" fill="#0099FF"/>
<path fill-rule="evenodd" clip-rule="evenodd" d="M230.23 56.0106L233.657 56.4755L233.86 54.5205L230.433 54.0555L230.23 56.0106Z" fill="#D3EFF3"/>
<path fill-rule="evenodd" clip-rule="evenodd" d="M250.694 98.8227L253.275 101.125L254.536 99.6173L251.955 97.3154L250.694 98.8227Z" fill="#D3EFF3"/>
<path fill-rule="evenodd" clip-rule="evenodd" d="M202.411 16.0524L196.331 18.1259L197.549 21.4576L203.629 19.3842L202.411 16.0524Z" fill="#BCE6FA"/>
<path fill-rule="evenodd" clip-rule="evenodd" d="M256.377 79.5195C257.379 75.2434 261.081 73.2087 265.156 74.6031C265.142 72.8734 265.127 71.1406 265.112 69.4093C259.063 68.0543 254.136 71.7077 253.332 78.0458C254.347 78.5373 255.363 79.0277 256.377 79.5195Z" fill="#FFCDD7"/>
<path fill-rule="evenodd" clip-rule="evenodd" d="M272.613 194.416L278.63 191.675L277.387 188.366L271.37 191.108L272.613 194.416Z" fill="#AEE0B2"/>
<path fill-rule="evenodd" clip-rule="evenodd" d="M259.065 188.366L255.64 193.135L257.055 194.416L260.48 189.648L259.065 188.366Z" fill="#FFDA4E"/>
<path fill-rule="evenodd" clip-rule="evenodd" d="M135.065 192.195C132.777 193.575 129.875 193.27 128.147 191.509C127.457 192.19 126.767 192.876 126.076 193.559C128.931 195.892 133.175 195.928 136.181 193.68C135.81 193.185 135.437 192.691 135.065 192.195Z" fill="#0099FF"/>
</svg>
