<svg width="160" height="160" viewBox="0 0 160 160" fill="none" xmlns="http://www.w3.org/2000/svg">
<circle cx="77" cy="97" r="50" fill="white"/>
<path d="M65.7141 47.9648C43.3419 53.1433 26.6665 73.1952 26.6665 97.1417C26.6665 125.019 49.2655 147.618 77.1427 147.618C105.02 147.618 127.619 125.019 127.619 97.1417C127.619 74.2262 112.348 54.8772 91.4284 48.7156" stroke="black"/>
<mask id="mask0_1129_46055" style="mask-type:alpha" maskUnits="userSpaceOnUse" x="27" y="47" width="100" height="100">
<circle cx="77.1425" cy="97.141" r="49.5238" fill="white"/>
</mask>
<g mask="url(#mask0_1129_46055)">
<g filter="url(#filter0_f_1129_46055)">
<circle cx="61.7247" cy="155.542" r="58.4007" fill="#E6FF50"/>
</g>
<g filter="url(#filter1_f_1129_46055)">
<circle cx="131.806" cy="34.0687" r="58.4007" fill="#D9FF6D" fill-opacity="0.6"/>
</g>
<ellipse cx="45.722" cy="69.4464" rx="3.47779" ry="1.86882" transform="rotate(-30 45.722 69.4464)" fill="#D2DEA3"/>
<ellipse cx="56.0391" cy="85.8616" rx="3.47779" ry="2.22777" transform="rotate(-27 56.0391 85.8616)" fill="#D2DEA3"/>
<ellipse cx="46.1632" cy="102.337" rx="3.02867" ry="1.94008" transform="rotate(35 46.1632 102.337)" fill="#D2DEA3"/>
<ellipse cx="40.1327" cy="103.882" rx="1.88458" ry="1.20721" transform="rotate(24 40.1327 103.882)" fill="#D2DEA3"/>
<ellipse cx="113.928" cy="76.5847" rx="1.88458" ry="1.20721" transform="rotate(24 113.928 76.5847)" fill="#D2DEA3"/>
<ellipse cx="105.518" cy="62.5686" rx="1.88458" ry="1.20721" transform="rotate(24 105.518 62.5686)" fill="#D2DEA3"/>
<ellipse cx="58.3829" cy="137.068" rx="2.63573" ry="1.61727" transform="rotate(24 58.3829 137.068)" fill="#D2DEA3"/>
<ellipse cx="98.9101" cy="76.3168" rx="3.49711" ry="2.01436" transform="rotate(24 98.9101 76.3168)" fill="#D2DEA3"/>
</g>
<path d="M41.0612 57.7389C41.0612 59.7026 42.6531 61.2944 44.6168 61.2944C46.5805 61.2944 48.1724 59.7026 48.1724 57.7389C48.1724 55.7752 46.5805 54.1833 44.6168 54.1833C42.6531 54.1833 41.0612 55.7752 41.0612 57.7389ZM19.8549 42.977L19.2631 42.6701L19.8549 42.977ZM58.4263 107.74L58.4448 108.406L58.4633 108.406L58.4817 108.404L58.4263 107.74ZM105.093 107.74L104.951 107.088L104.937 107.091L104.923 107.095L105.093 107.74ZM125.093 79.1674L119.776 84.7338L127.255 86.5556L125.093 79.1674ZM45.2358 57.4913C43.7648 53.8138 39.1204 46.9285 34.0187 42.5121C31.4758 40.3108 28.7195 38.6339 26.1095 38.3697C24.7843 38.2356 23.4931 38.4658 22.3097 39.1765C21.1327 39.8834 20.1101 41.0365 19.2631 42.6701L20.4467 43.2839C21.2117 41.8086 22.0825 40.8683 22.9962 40.3196C23.9034 39.7747 24.9 39.5874 25.9752 39.6963C28.1661 39.918 30.6616 41.3696 33.1461 43.5202C38.099 47.8079 42.6117 54.5212 43.9978 57.9865L45.2358 57.4913ZM19.2631 42.6701C17.5046 46.0613 16.9562 51.9377 17.5839 58.7156C18.215 65.5298 20.0464 73.3794 23.169 80.7956C29.3988 95.5915 40.887 108.894 58.4448 108.406L58.4078 107.073C41.6799 107.538 30.549 94.8874 24.3979 80.2782C21.33 72.9918 19.5305 65.2757 18.9116 58.5927C18.2893 51.8735 18.8718 46.3212 20.4467 43.2839L19.2631 42.6701ZM58.4817 108.404C61.6246 108.142 64.4253 105.871 66.6902 102.825C68.9707 99.7575 70.8004 95.784 71.977 91.8596C73.1512 87.9428 73.6953 84.0063 73.3467 81.0108C73.1727 79.5156 72.7691 78.191 72.0501 77.2245C71.3087 76.2279 70.2521 75.6444 68.9025 75.6444V76.9777C69.8117 76.9777 70.479 77.3465 70.9804 78.0204C71.5041 78.7243 71.8621 79.788 72.0223 81.1649C72.3422 83.9134 71.8454 87.6554 70.6998 91.4767C69.5564 95.2905 67.7872 99.1146 65.6202 102.029C63.4376 104.965 60.9423 106.861 58.3709 107.075L58.4817 108.404ZM68.9025 75.6444C67.5946 75.6444 66.5906 76.5674 65.9083 77.8092C65.2179 79.0661 64.7651 80.7938 64.5852 82.7684C64.2248 86.7254 64.9446 91.849 67.2927 96.6061C69.6465 101.375 73.6448 105.789 79.8377 108.269C86.0246 110.747 94.3324 111.267 105.263 108.384L104.923 107.095C94.187 109.926 86.1851 109.375 80.3334 107.031C74.4875 104.69 70.7179 100.533 68.4883 96.016C66.253 91.4874 65.5741 86.611 65.913 82.8894C66.0829 81.0247 66.5043 79.4935 67.0769 78.4512C67.6578 77.3939 68.3056 76.9777 68.9025 76.9777V75.6444ZM105.235 108.391C116.02 106.032 121.248 96.211 124.316 85.1749L123.031 84.8178C119.982 95.7862 114.946 104.902 104.951 107.088L105.235 108.391Z" fill="url(#paint0_linear_1129_46055)"/>
<path d="M69.5236 42.3799L79.0474 49.9989L87.6188 43.3323" stroke="black" stroke-linejoin="round"/>
<path d="M62.3806 51.9033L79.0473 64.7605L94.2854 52.8557" stroke="black" stroke-linejoin="round"/>
<path d="M56.6664 59.9985L78.399 30.2343C78.4533 30.1599 78.5711 30.1983 78.5711 30.2905V68.2366" stroke="black"/>
<path d="M78.983 29.715C78.8264 29.4875 78.5151 29.4301 78.2876 29.5867C78.0602 29.7433 78.0027 30.0546 78.1593 30.2821L78.983 29.715ZM78.1593 30.2821L98.1593 59.3297L98.983 58.7626L78.983 29.715L78.1593 30.2821Z" fill="black"/>
<path d="M66.1902 17.1416C65.2378 18.7289 63.9044 23.2368 66.1902 28.5702" stroke="black" stroke-linejoin="round"/>
<path d="M58.0949 13.332C55.9389 15.9775 52.9204 23.4908 58.0949 32.3797" stroke="black" stroke-linejoin="round"/>
<path d="M99.0473 13.332C101.203 15.9775 104.222 23.4908 99.0473 32.3797" stroke="black" stroke-linejoin="round"/>
<path d="M91.1186 17.1416C92.0709 18.7289 93.4043 23.2368 91.1186 28.5702" stroke="black" stroke-linejoin="round"/>
<path d="M75.8162 21.0435H77.5625V21.5674C77.5625 22.2425 77.0152 22.7898 76.3401 22.7898H75.8162V21.0435Z" fill="white"/>
<path d="M77.7372 21.5674V21.0435H81.23V22.7898H78.9597C78.2845 22.7898 77.7372 22.2425 77.7372 21.5674Z" fill="white"/>
<path d="M77.7372 24.187C77.7372 23.5118 78.2845 22.9645 78.9597 22.9645H79.4836V25.5841H77.7372V24.187Z" fill="white"/>
<path d="M83.3329 22.8547C83.3329 20.2248 81.2009 18.0928 78.571 18.0928C75.9411 18.0928 73.8091 20.2248 73.8091 22.8547C73.8091 25.4846 75.9411 27.6166 78.571 27.6166C81.2009 27.6166 83.3329 25.4846 83.3329 22.8547Z" fill="#FEF153"/>
<g clip-path="url(#clip0_1129_46055)">
<path fill-rule="evenodd" clip-rule="evenodd" d="M80.5969 20.8656C80.5964 20.8658 80.5959 20.8659 80.5953 20.8659L79.8572 20.8515C79.8536 20.8515 79.8528 20.8499 79.8544 20.8466L80.1587 20.2551L80.1616 20.2494L80.1666 20.2388L80.1957 20.1827L80.2193 20.1366C80.2196 20.136 80.22 20.1355 80.2205 20.1351L80.2205 20.135C80.2224 20.1314 80.2241 20.1314 80.226 20.135L80.226 20.1351C80.2265 20.1354 80.2269 20.1358 80.2272 20.1363C80.2369 20.154 80.2628 20.2035 80.2968 20.269C80.2976 20.2691 80.2984 20.2689 80.2994 20.2684C80.3953 20.2276 80.4898 20.1975 80.5826 20.1779C80.6774 20.1994 80.7349 20.2537 80.7557 20.3409C80.7831 20.4559 80.7686 20.5912 80.7398 20.7034C80.6741 20.7143 80.6116 20.7322 80.5522 20.757C80.5506 20.7576 80.5496 20.7588 80.5492 20.7602C80.5743 20.8094 80.5926 20.8456 80.5994 20.8597C80.5997 20.8603 80.5998 20.8609 80.5998 20.8615L80.5999 20.8616C80.6015 20.8646 80.6004 20.8659 80.5971 20.8659L80.5969 20.8656Z" fill="#827E75"/>
<path d="M79.7321 20.8421C79.7091 20.819 79.6743 20.7959 79.6283 20.7728C79.3514 20.6337 79.0564 20.553 78.7436 20.5301C78.5763 20.5174 78.4087 20.5228 78.2413 20.547L78.08 20.575C77.9548 20.6019 77.833 20.638 77.7144 20.6837C77.5982 20.7288 77.4865 20.7828 77.3786 20.8456C77.1923 20.9548 77.0242 21.0872 76.8743 21.2423C76.6791 21.4442 76.5254 21.6736 76.4131 21.9304C76.1578 22.5214 76.1576 23.1912 76.415 23.7833C76.5446 23.6007 76.6782 23.423 76.8166 23.2501C76.7503 22.9512 76.7585 22.6561 76.8409 22.3648C77.0187 21.76 77.4925 21.2953 78.106 21.1304L78.2838 21.0932C78.3884 21.0763 78.4936 21.0687 78.599 21.0706C78.7236 21.0725 78.8472 21.0872 78.9693 21.1146C79.0786 21.1358 79.1728 21.1771 79.2525 21.2383C79.3519 21.3146 79.373 21.4154 79.3158 21.5404C79.4497 21.4391 79.5815 21.3402 79.7105 21.2442C79.7387 21.223 79.7641 21.191 79.7869 21.1475C79.8318 21.025 79.8134 20.9231 79.7321 20.8421ZM78.587 21.0535C78.587 21.0538 78.587 21.0538 78.5867 21.054C78.5867 21.0538 78.5867 21.0538 78.587 21.0535ZM78.6045 21.0608C78.6045 21.0611 78.6042 21.0616 78.6045 21.0619C78.6042 21.0616 78.6045 21.0614 78.6045 21.0608ZM78.6059 21.0635C78.6056 21.0635 78.6056 21.0635 78.6059 21.0635C78.6056 21.0633 78.6053 21.063 78.605 21.0627C78.6053 21.063 78.6053 21.0633 78.6059 21.0635ZM78.5867 21.0551C78.5867 21.0554 78.587 21.0557 78.5872 21.0562C78.587 21.0559 78.587 21.0559 78.5867 21.0557C78.5864 21.0551 78.5867 21.0551 78.5867 21.0551ZM78.5872 21.0565C78.5878 21.0567 78.5881 21.057 78.5889 21.057C78.5883 21.057 78.5878 21.0567 78.5872 21.0565Z" fill="url(#paint1_linear_1129_46055)"/>
<path d="M81.2773 20.5237C81.2357 20.3612 81.1376 20.2498 80.9837 20.1894C80.8544 20.1457 80.7207 20.146 80.583 20.1788C80.6777 20.2003 80.7353 20.2547 80.7561 20.3419C80.7835 20.4568 80.7689 20.5921 80.7402 20.7044C80.7169 20.8106 80.6808 20.9141 80.6315 21.0144C80.5378 21.2043 80.4332 21.3829 80.3176 21.5497L80.2173 21.6959C80.0163 21.9747 79.8016 22.2432 79.5734 22.501L79.445 22.6453C79.2812 22.8266 79.1125 23.0035 78.9385 23.1755L78.5376 23.561L78.3478 23.7325C78.1774 23.8849 78.0035 24.0309 77.8266 24.17C77.7044 24.4246 77.9753 24.5534 78.1711 24.595C78.1892 24.5825 78.2018 24.5732 78.2089 24.5675C78.4598 24.367 78.7027 24.1575 78.9377 23.9385L79.2439 23.6466C79.4181 23.4752 79.5879 23.3005 79.7536 23.1219L80.0105 22.8358L80.3228 22.4641C80.4608 22.291 80.5961 22.1119 80.7281 21.9269L80.7424 21.9046L80.7648 21.8714C80.8829 21.7002 80.9897 21.5231 81.0856 21.3399C81.2096 21.1003 81.3359 20.7962 81.2773 20.5237ZM80.0114 22.8209C80.0111 22.8206 80.0108 22.8203 80.0105 22.82C80.0108 22.82 80.0108 22.82 80.0111 22.8203C80.0114 22.8206 80.0114 22.8209 80.0114 22.8209ZM79.749 22.613C79.7487 22.613 79.7484 22.6133 79.7482 22.6135C79.7484 22.6135 79.7487 22.6133 79.749 22.613ZM79.7473 22.6141L79.7471 22.6143C79.7473 22.6143 79.7473 22.6143 79.7473 22.6141ZM79.7465 22.616C79.7465 22.6162 79.7465 22.6162 79.7465 22.6165C79.7462 22.6162 79.7465 22.6162 79.7465 22.616ZM79.6293 22.5418C79.6287 22.5421 79.6285 22.5426 79.6282 22.5431C79.6287 22.5426 79.629 22.5421 79.6293 22.5418ZM79.6263 22.5475C79.6263 22.5486 79.6263 22.5494 79.6266 22.5505C79.6263 22.5497 79.6263 22.5486 79.6263 22.5478V22.5475ZM79.5649 22.5187C79.5647 22.5192 79.5644 22.5198 79.5638 22.5203C79.5641 22.5195 79.5647 22.519 79.5649 22.5187ZM79.5633 22.5214C79.563 22.522 79.563 22.5225 79.5627 22.523C79.5627 22.5225 79.563 22.522 79.5633 22.5214ZM79.5622 22.5247C79.5622 22.5252 79.5619 22.5258 79.5619 22.5263C79.5622 22.5258 79.5622 22.5252 79.5622 22.5247ZM79.5652 22.5388C79.5655 22.5393 79.5657 22.5396 79.566 22.5402C79.566 22.5399 79.5657 22.5399 79.5657 22.5396C79.5655 22.5391 79.5652 22.5388 79.5652 22.5388ZM79.5625 22.5315C79.5625 22.532 79.5627 22.5326 79.563 22.5334C79.5627 22.5328 79.5625 22.5323 79.5625 22.5315ZM79.7514 22.613C79.7523 22.6133 79.7528 22.6135 79.7534 22.6138C79.7528 22.6133 79.7523 22.613 79.7514 22.613ZM80.7657 21.8565C80.7659 21.8568 80.7665 21.8565 80.7668 21.8565C80.7665 21.8565 80.7662 21.8565 80.7657 21.8565ZM80.767 21.8559L80.7673 21.8557C80.7673 21.8559 80.7673 21.8559 80.767 21.8559Z" fill="url(#paint2_linear_1129_46055)"/>
<path d="M79.2532 21.2389C79.1738 21.1777 79.0793 21.1364 78.97 21.1152C78.8273 21.2277 78.6879 21.3435 78.5518 21.462L78.4524 21.5486C78.1489 21.8179 77.857 22.0989 77.5759 22.3915C77.3157 22.6619 77.0673 22.9423 76.8304 23.2328C76.8225 23.2393 76.8178 23.2453 76.817 23.2507C76.6787 23.4236 76.545 23.6013 76.4155 23.7839L76.3122 23.9385C76.2446 24.0415 76.1821 24.1442 76.1246 24.2469C76.0205 24.4306 75.9258 24.6349 75.8756 24.8401C75.7773 25.2281 75.9636 25.5664 76.3999 25.5553C76.4492 25.5523 76.5042 25.5441 76.565 25.5311C76.4881 25.5167 76.4355 25.4795 76.4067 25.4194C76.3514 25.3031 76.3711 25.1268 76.404 25.0069C76.4333 24.8523 76.5042 24.7042 76.5746 24.5694C76.7713 24.2146 77.0158 23.8771 77.2703 23.5635C77.4395 23.3551 77.6157 23.1527 77.7983 22.9562L77.9755 22.7676L78.3321 22.4089C78.5135 22.2323 78.7 22.0603 78.8917 21.8929L78.9068 21.8801C79.0432 21.7614 79.1798 21.6484 79.3162 21.5408C79.3735 21.4158 79.3524 21.3152 79.2532 21.2389ZM76.5669 24.558C76.5661 24.5583 76.5656 24.5588 76.5653 24.5594C76.5658 24.5588 76.5664 24.5583 76.5669 24.558ZM76.5721 24.542C76.5721 24.5417 76.5719 24.5412 76.5716 24.5409C76.5716 24.5412 76.5719 24.5417 76.5721 24.542ZM76.5708 24.5409C76.5705 24.5409 76.5705 24.5406 76.5702 24.5409C76.5705 24.5406 76.5708 24.5409 76.5708 24.5409ZM76.1304 24.2591C76.1301 24.2594 76.1298 24.2597 76.1298 24.2602C76.1298 24.2599 76.1298 24.2599 76.1301 24.2597C76.1301 24.2594 76.1304 24.2591 76.1304 24.2591ZM76.1293 24.2667C76.1293 24.267 76.1295 24.2673 76.1298 24.2676C76.1295 24.2673 76.1295 24.267 76.1293 24.2667ZM76.129 24.2651C76.129 24.2657 76.129 24.2659 76.129 24.2665C76.129 24.2662 76.129 24.2657 76.129 24.2651ZM76.1301 24.2678C76.1306 24.2684 76.1312 24.2686 76.132 24.2686H76.1317C76.1309 24.2686 76.1304 24.2681 76.1301 24.2678ZM76.5664 24.5651L76.5667 24.5654C76.5667 24.5654 76.5667 24.5651 76.5664 24.5651ZM76.9238 23.2877C76.9235 23.2872 76.923 23.2866 76.9227 23.2863C76.923 23.2869 76.9233 23.2872 76.9238 23.2877ZM76.9252 23.2912C76.9252 23.2907 76.9249 23.2899 76.9246 23.2893C76.9249 23.2899 76.9249 23.2904 76.9252 23.2912ZM76.8356 23.2331C76.8359 23.2331 76.8359 23.2334 76.8359 23.2334C76.8356 23.2331 76.8353 23.2328 76.8348 23.2328C76.8351 23.2331 76.8353 23.2331 76.8356 23.2331ZM76.917 23.2836C76.9172 23.2836 76.9175 23.2839 76.9181 23.2839C76.9172 23.2836 76.9161 23.2836 76.9153 23.2836C76.9156 23.2834 76.9161 23.2834 76.917 23.2836ZM76.9211 23.2853C76.9205 23.285 76.92 23.2847 76.9194 23.2844C76.9203 23.2847 76.9208 23.285 76.9211 23.2853ZM77.74 22.5212C77.7397 22.5212 77.7392 22.5209 77.7389 22.5209C77.7392 22.5209 77.7395 22.5209 77.74 22.5212ZM77.7386 22.5209C77.7381 22.5209 77.7375 22.5209 77.737 22.5212C77.7375 22.5209 77.7381 22.5206 77.7386 22.5209ZM77.7356 22.5222C77.7353 22.5228 77.7351 22.5233 77.7351 22.5239C77.7351 22.5231 77.7353 22.5228 77.7356 22.5222ZM77.969 22.7619V22.7622C77.969 22.7622 77.969 22.7622 77.969 22.7619ZM77.9692 22.7627C77.9692 22.7627 77.9695 22.763 77.9698 22.763C77.9695 22.7627 77.9692 22.7627 77.9692 22.7627Z" fill="url(#paint3_linear_1129_46055)"/>
<path d="M80.7282 21.9258C80.5959 22.1108 80.4609 22.2899 80.3228 22.463C80.3264 22.4635 80.3286 22.4657 80.3297 22.4703C80.3809 22.7111 80.3839 22.9521 80.3384 23.1934C80.3072 23.3502 80.2566 23.4996 80.1864 23.642C80.1054 23.8042 80.0021 23.9512 79.8764 24.0828L79.7392 24.2118C79.6239 24.3097 79.4976 24.3923 79.3601 24.4591C79.0602 24.6023 78.743 24.6599 78.4086 24.6317C78.3284 24.624 78.2495 24.6115 78.1714 24.5939C77.9756 24.5523 77.7047 24.4232 77.8269 24.1689C77.7091 24.2583 77.5933 24.3455 77.4785 24.4311C77.4355 24.4632 77.4062 24.4885 77.3911 24.5069C77.3032 24.6126 77.3174 24.7749 77.4108 24.8681C77.4325 24.8898 77.4645 24.9113 77.5073 24.9327C77.8951 25.127 78.3084 25.2091 78.7471 25.1792C78.9827 25.1613 79.21 25.1099 79.4297 25.0254C79.5157 24.992 79.5987 24.9539 79.6792 24.9113C79.8186 24.8376 79.9487 24.7507 80.0698 24.6512L80.2281 24.5088C80.3335 24.4048 80.428 24.2923 80.5115 24.1716C80.6115 24.0271 80.6937 23.8735 80.7583 23.711C80.8232 23.5458 80.8692 23.3757 80.8961 23.2005C80.9596 22.7603 80.9038 22.3355 80.7282 21.9258ZM79.3878 24.4651C79.3875 24.4648 79.3872 24.4643 79.387 24.464C79.3872 24.4643 79.3875 24.4645 79.3878 24.4651ZM79.3864 24.4632C79.3861 24.4629 79.3859 24.4629 79.3856 24.4626C79.3859 24.4629 79.3861 24.4632 79.3864 24.4632ZM79.3848 24.4624C79.3845 24.4624 79.3842 24.4624 79.3839 24.4624C79.3842 24.4621 79.3845 24.4621 79.3848 24.4624ZM79.3659 24.4637L79.3661 24.4635C79.3659 24.4637 79.3659 24.4637 79.3659 24.4637ZM79.3664 24.4626C79.3664 24.4624 79.3664 24.4621 79.3664 24.4616C79.3664 24.4618 79.3667 24.4618 79.3667 24.4621C79.3664 24.4624 79.3664 24.4624 79.3664 24.4626ZM79.3661 24.4613C79.3659 24.4607 79.3656 24.4605 79.365 24.4605C79.3653 24.4605 79.3656 24.4607 79.3661 24.4613ZM79.3826 24.4621C79.382 24.4621 79.3812 24.4624 79.3807 24.4626C79.3812 24.4621 79.3818 24.4621 79.3826 24.4621ZM80.1328 24.3602C80.1328 24.3599 80.133 24.3594 80.133 24.3591C80.133 24.3594 80.133 24.3597 80.1328 24.3602ZM80.1333 24.3572C80.1333 24.3569 80.1333 24.3564 80.1333 24.3561C80.1333 24.3564 80.1333 24.3567 80.1333 24.3572ZM80.1328 24.3545C80.1325 24.3539 80.1322 24.3534 80.1319 24.3529C80.1319 24.3531 80.1322 24.3531 80.1325 24.3534C80.1325 24.3537 80.1325 24.3539 80.1328 24.3545ZM80.1311 24.352C80.1306 24.3515 80.1303 24.3512 80.1297 24.3507C80.1303 24.351 80.1308 24.3515 80.1311 24.352ZM80.1289 24.3501C80.1284 24.3499 80.1278 24.3496 80.127 24.3493C80.1276 24.3496 80.1284 24.3499 80.1289 24.3501ZM80.1262 24.3491C80.1251 24.3491 80.1243 24.3491 80.1232 24.3491C80.124 24.3491 80.1251 24.3491 80.1262 24.3491ZM79.9087 24.0616C79.9084 24.0613 79.9079 24.061 79.9071 24.061C79.9079 24.0608 79.9084 24.061 79.9087 24.0616ZM80.3573 23.1624C80.3571 23.1621 80.3568 23.1621 80.3568 23.1619C80.3571 23.1619 80.3573 23.1621 80.3573 23.1624Z" fill="url(#paint4_linear_1129_46055)"/>
<path fill-rule="evenodd" clip-rule="evenodd" d="M76.952 24.8509L77.2851 24.8574C77.2884 24.8574 77.2895 24.8591 77.2878 24.8621L77.1199 25.189L77.1117 25.2066L76.9222 25.5732C76.9211 25.5751 76.9189 25.5756 76.917 25.5748C76.9164 25.5745 76.9156 25.574 76.9153 25.5732L76.8484 25.4426C76.8469 25.4409 76.8448 25.4406 76.8424 25.4417C76.7487 25.4806 76.6561 25.5104 76.5646 25.5311C76.4877 25.5167 76.4351 25.4795 76.4063 25.4194C76.351 25.3031 76.3707 25.1268 76.4036 25.0069C76.4688 24.9933 76.5315 24.9757 76.5917 24.9537C76.5945 24.9529 76.5945 24.9493 76.5917 24.9433C76.592 24.9432 76.5922 24.9431 76.5924 24.943L76.5437 24.8479C76.5417 24.8444 76.5428 24.8428 76.5469 24.8428L76.952 24.8509Z" fill="#827E75"/>
</g>
<circle cx="126.667" cy="64.7603" r="14.2857" fill="#28CC69"/>
<path d="M123.689 62.6799L124.52 63.5119L121.609 66.4239C121.179 66.8675 120.941 67.4623 120.946 68.0799C120.951 68.6975 121.198 69.2884 121.635 69.7252C122.072 70.1619 122.662 70.4094 123.28 70.4143C123.898 70.4192 124.492 70.1811 124.936 69.7513L127.848 66.8399L128.68 67.6713L125.768 70.5833C125.104 71.2325 124.21 71.5935 123.281 71.5881C122.352 71.5826 121.463 71.2112 120.806 70.5543C120.149 69.8974 119.777 69.008 119.772 68.0791C119.766 67.1501 120.127 66.2564 120.777 65.5919L123.689 62.6799ZM124.52 61.8485L127.432 58.9365C128.097 58.2873 128.99 57.9263 129.919 57.9317C130.848 57.9371 131.738 58.3086 132.395 58.9655C133.051 59.6224 133.423 60.5117 133.428 61.4407C133.434 62.3697 133.073 63.2634 132.424 63.9279L129.512 66.8399L128.68 66.0079L131.592 63.0959C132.021 62.6523 132.259 62.0575 132.255 61.4399C132.25 60.8223 132.002 60.2314 131.565 59.7946C131.129 59.3579 130.538 59.1104 129.92 59.1055C129.302 59.1006 128.708 59.3387 128.264 59.7685L125.352 62.6799L124.52 61.8485ZM124.52 66.0079L127.848 62.6799C127.902 62.6226 127.967 62.5767 128.039 62.5449C128.111 62.5132 128.189 62.4962 128.268 62.495C128.346 62.4939 128.425 62.5085 128.498 62.5381C128.571 62.5677 128.637 62.6117 128.693 62.6674C128.748 62.7231 128.792 62.7894 128.822 62.8624C128.851 62.9353 128.866 63.0135 128.865 63.0923C128.864 63.171 128.847 63.2487 128.815 63.3208C128.783 63.3929 128.737 63.4579 128.68 63.5119L125.352 66.8399C125.298 66.8972 125.233 66.9431 125.161 66.9748C125.089 67.0066 125.011 67.0236 124.932 67.0247C124.854 67.0259 124.776 67.0112 124.703 66.9816C124.63 66.952 124.563 66.9081 124.508 66.8524C124.452 66.7967 124.408 66.7304 124.378 66.6574C124.349 66.5844 124.334 66.5063 124.335 66.4275C124.336 66.3487 124.353 66.271 124.385 66.199C124.417 66.1269 124.463 66.0619 124.52 66.0079Z" fill="white"/>
<g clip-path="url(#clip1_1129_46055)">
<path d="M77.4867 87C69.3324 87 62.5302 92.5679 60.8735 99.9942C60.5692 101.358 59.6194 102.516 58.3363 103.07C52.8922 105.418 49.125 110.474 49.125 116.333C49.125 124.14 55.8139 130.554 64.25 131H92.6117C102.001 131 109.625 123.2 109.625 113.583C109.625 104.941 103.136 97.795 94.6283 96.424C93.4669 96.2368 92.4331 95.5585 91.7822 94.5786C88.7556 90.0226 83.4931 87 77.4867 87ZM66.5417 106.25C66.5417 104.731 67.7792 103.5 69.288 103.5H89.462C90.1913 103.5 90.8908 103.79 91.4065 104.305C91.9223 104.821 92.212 105.521 92.212 106.25C92.212 106.979 91.9223 107.679 91.4065 108.195C90.8908 108.71 90.1913 109 89.462 109H69.288C68.5593 108.999 67.8608 108.709 67.3458 108.193C66.8309 107.678 66.5417 106.979 66.5417 106.25ZM66.5417 113.583C66.5417 112.064 67.7792 110.833 69.288 110.833H89.462C90.1913 110.833 90.8908 111.123 91.4065 111.639C91.9223 112.155 92.212 112.854 92.212 113.583C92.212 114.313 91.9223 115.012 91.4065 115.528C90.8908 116.044 90.1913 116.333 89.462 116.333H69.288C68.5593 116.332 67.8608 116.042 67.3458 115.527C66.8309 115.011 66.5417 114.312 66.5417 113.583ZM66.5417 120.917C66.5417 119.398 67.7792 118.167 69.288 118.167H89.462C90.1913 118.167 90.8908 118.456 91.4065 118.972C91.9223 119.488 92.212 120.187 92.212 120.917C92.212 121.646 91.9223 122.345 91.4065 122.861C90.8908 123.377 90.1913 123.667 89.462 123.667H69.288C68.5593 123.666 67.8608 123.376 67.3458 122.86C66.8309 122.344 66.5417 121.645 66.5417 120.917Z" fill="url(#paint5_linear_1129_46055)"/>
<path d="M66.5416 106.25C66.5416 104.731 67.7791 103.5 69.288 103.5H89.462C90.1913 103.5 90.8908 103.79 91.4065 104.305C91.9222 104.821 92.212 105.521 92.212 106.25C92.212 106.979 91.9222 107.679 91.4065 108.195C90.8908 108.71 90.1913 109 89.462 109H69.288C68.5592 108.999 67.8607 108.709 67.3458 108.193C66.8309 107.678 66.5416 106.979 66.5416 106.25ZM66.5416 113.583C66.5416 112.064 67.7791 110.833 69.288 110.833H89.462C90.1913 110.833 90.8908 111.123 91.4065 111.639C91.9222 112.155 92.212 112.854 92.212 113.583C92.212 114.313 91.9222 115.012 91.4065 115.528C90.8908 116.044 90.1913 116.333 89.462 116.333H69.288C68.5592 116.332 67.8607 116.042 67.3458 115.527C66.8309 115.011 66.5416 114.312 66.5416 113.583ZM66.5416 120.917C66.5416 119.398 67.7791 118.167 69.288 118.167H89.462C90.1913 118.167 90.8908 118.456 91.4065 118.972C91.9222 119.488 92.212 120.187 92.212 120.917C92.212 121.646 91.9222 122.345 91.4065 122.861C90.8908 123.377 90.1913 123.667 89.462 123.667H69.288C68.5592 123.666 67.8607 123.376 67.3458 122.86C66.8309 122.344 66.5416 121.645 66.5416 120.917Z" fill="white"/>
</g>
<defs>
<filter id="filter0_f_1129_46055" x="-130.009" y="-36.1922" width="383.468" height="383.468" filterUnits="userSpaceOnUse" color-interpolation-filters="sRGB">
<feFlood flood-opacity="0" result="BackgroundImageFix"/>
<feBlend mode="normal" in="SourceGraphic" in2="BackgroundImageFix" result="shape"/>
<feGaussianBlur stdDeviation="66.6667" result="effect1_foregroundBlur_1129_46055"/>
</filter>
<filter id="filter1_f_1129_46055" x="-59.9283" y="-157.665" width="383.468" height="383.468" filterUnits="userSpaceOnUse" color-interpolation-filters="sRGB">
<feFlood flood-opacity="0" result="BackgroundImageFix"/>
<feBlend mode="normal" in="SourceGraphic" in2="BackgroundImageFix" result="shape"/>
<feGaussianBlur stdDeviation="66.6667" result="effect1_foregroundBlur_1129_46055"/>
</filter>
<linearGradient id="paint0_linear_1129_46055" x1="24.2365" y1="41.7214" x2="75.7742" y2="138.103" gradientUnits="userSpaceOnUse">
<stop stop-color="#FFF68D"/>
<stop offset="0.113086" stop-color="#FFEF64"/>
<stop offset="0.360792" stop-color="#54FF7A"/>
<stop offset="0.698325" stop-color="#8AFDEF"/>
<stop offset="1" stop-color="#FEF153"/>
</linearGradient>
<linearGradient id="paint1_linear_1129_46055" x1="79.3129" y1="20.7516" x2="76.4681" y2="23.4727" gradientUnits="userSpaceOnUse">
<stop stop-color="#1A130F"/>
<stop offset="1" stop-color="#605B50"/>
</linearGradient>
<linearGradient id="paint2_linear_1129_46055" x1="81.1342" y1="20.2869" x2="78.0422" y2="24.2434" gradientUnits="userSpaceOnUse">
<stop stop-color="#1A130F"/>
<stop offset="1" stop-color="#605B50"/>
</linearGradient>
<linearGradient id="paint3_linear_1129_46055" x1="79.1897" y1="21.2469" x2="76.0975" y2="25.2049" gradientUnits="userSpaceOnUse">
<stop stop-color="#605B50"/>
<stop offset="1" stop-color="#1A130F"/>
</linearGradient>
<linearGradient id="paint4_linear_1129_46055" x1="80.7594" y1="22.0224" x2="78.767" y2="25.5875" gradientUnits="userSpaceOnUse">
<stop stop-color="#605B50"/>
<stop offset="1" stop-color="#1A130F"/>
</linearGradient>
<linearGradient id="paint5_linear_1129_46055" x1="53.8786" y1="87" x2="113.858" y2="123.135" gradientUnits="userSpaceOnUse">
<stop stop-color="#96FFFF"/>
<stop offset="1" stop-color="#5182FF"/>
</linearGradient>
<clipPath id="clip0_1129_46055">
<rect width="5.44218" height="5.44218" fill="white" transform="translate(75.85 20.1338)"/>
</clipPath>
<clipPath id="clip1_1129_46055">
<rect width="60.5" height="44" fill="white" transform="translate(49.125 87)"/>
</clipPath>
</defs>
</svg>
