<svg width="64" height="64" viewBox="0 0 64 64" fill="none" xmlns="http://www.w3.org/2000/svg">
<rect width="64" height="64" rx="32" fill="#FEF153"/>
<g clip-path="url(#clip0_5293_10476)">
<path d="M29.1937 19.04C21.79 19.04 15.7869 25.0745 15.7869 32.519C15.7869 38.2934 19.3991 43.2192 24.4753 45.138C27.4405 43.5101 30.5577 41.5012 33.6519 39.2142C31.8816 41.2729 29.1664 43.5307 25.864 45.5782C26.9284 45.852 28.044 45.9979 29.1937 45.9979C36.5975 45.9979 42.6006 39.9634 42.6006 32.519C42.6006 25.0745 36.5975 19.04 29.1937 19.04Z" fill="#1F1814"/>
<path d="M50.8816 16.7056C49.0917 14.3303 42.7002 15.9702 34.9661 20.3519C35.3433 20.533 35.7112 20.7321 36.068 20.9475C41.2056 18.3928 45.2617 17.6093 46.513 19.2706C48.5129 21.9249 42.5995 29.8156 33.305 36.8953C24.0098 43.975 14.8536 47.5621 12.8537 44.9069C11.71 43.3897 13.1542 40.1605 16.3363 36.3504C16.2116 35.9281 16.1075 35.4965 16.0247 35.058C10.4313 40.9226 7.5975 46.1495 9.28413 48.3876C11.7654 51.6812 23.0896 47.2583 34.576 38.5095C46.0632 29.7606 53.3629 19.9984 50.8816 16.7056Z" fill="#1F1814"/>
<path d="M45.4352 39.2332C45.4369 41.5407 47.2968 43.4106 49.592 43.4123C47.2968 43.414 45.4369 45.284 45.4352 47.5915C45.4335 45.284 43.5735 43.414 41.2783 43.4123C43.5735 43.4106 45.4335 41.5407 45.4352 39.2332Z" fill="#1F1814"/>
<path d="M18.0344 13.7393C18.0353 15.3629 19.3438 16.6784 20.9587 16.6793C19.3438 16.6801 18.0353 17.9957 18.0344 19.6193C18.0336 17.9957 16.725 16.6801 15.1101 16.6793C16.725 16.6784 18.0336 15.3629 18.0344 13.7393Z" fill="#1F1814"/>
<path d="M43.4177 45.199C40.0188 48.6779 35.2875 50.8361 30.0535 50.8361C26.5146 50.8361 23.2054 49.8493 20.3818 48.1347C19.8671 48.3595 19.3601 48.5706 18.8633 48.7646C18.7959 48.7912 18.7302 48.8152 18.6636 48.841C22.3458 51.8179 27.0234 53.6002 32.1166 53.6002C37.2097 53.6002 41.72 51.8822 45.3706 49.0006C45.1624 47.5117 44.4522 46.185 43.4177 45.1981V45.199Z" fill="#1F1814"/>
<path d="M46.6628 40.7186C47.5676 41.9741 48.9077 42.8914 50.4612 43.2476C52.4525 39.9711 53.6006 36.1206 53.6006 32.0007C53.6006 28.4085 52.7274 25.0214 51.1842 22.041C50.5909 23.263 49.7459 24.612 48.6499 26.0777C48.4639 26.3266 48.271 26.578 48.0729 26.8303C48.5381 28.4737 48.7882 30.208 48.7882 32.0007C48.7882 35.1466 48.02 38.1124 46.6637 40.7186H46.6628Z" fill="#1F1814"/>
<path d="M45.5175 48.8823C47.3553 47.4063 48.9472 45.6343 50.2198 43.6365C47.7863 44.2947 45.9213 46.3431 45.5175 48.8823Z" fill="#1F1814"/>
<path d="M16.9984 18.4926C16.7363 18.1613 16.4316 17.8653 16.0919 17.613C12.6964 21.4334 10.6308 26.4742 10.6308 32.0007C10.6308 34.364 11.0098 36.6372 11.7071 38.7655C11.8966 38.5157 12.0921 38.2652 12.2935 38.0129C11.661 36.1249 11.3188 34.1031 11.3188 32.0007C11.3188 26.7016 13.4962 21.9149 16.9992 18.4926H16.9984Z" fill="#1F1814"/>
<path d="M32.1156 10.4002C27.2025 10.4002 22.6761 12.059 19.0561 14.8489C19.3924 15.2779 19.7996 15.6478 20.2605 15.9404C23.1097 14.1804 26.4633 13.1652 30.0525 13.1652C34.0352 13.1652 37.7269 14.4155 40.7622 16.5454C40.944 16.4716 41.1241 16.3987 41.3033 16.3292C42.8269 15.7345 44.2063 15.3088 45.4346 15.0523C41.7736 12.1397 37.1473 10.4002 32.1156 10.4002Z" fill="#1F1814"/>
</g>
<defs>
<clipPath id="clip0_5293_10476">
<rect width="44.8" height="43.2" fill="white" transform="translate(8.8 10.4001)"/>
</clipPath>
</defs>
</svg>
