<svg width="96" height="100" viewBox="0 0 96 100" fill="none" xmlns="http://www.w3.org/2000/svg">
<rect x="12" width="72" height="72" rx="36" fill="#FEF153"/>
<g clip-path="url(#clip0_5296_19888)">
<path d="M44.8432 21.42C36.514 21.42 29.7605 28.2088 29.7605 36.5838C29.7605 43.0801 33.8243 48.6216 39.5349 50.7803C42.8709 48.9489 46.3777 46.6888 49.8587 44.116C47.8671 46.432 44.8125 48.972 41.0973 51.2755C42.2947 51.5835 43.5498 51.7476 44.8432 51.7476C53.1725 51.7476 59.926 44.9588 59.926 36.5838C59.926 28.2088 53.1725 21.42 44.8432 21.42Z" fill="#1F1814"/>
<path d="M69.2421 18.7938C67.2284 16.1216 60.038 17.9665 51.3372 22.8959C51.7616 23.0996 52.1755 23.3236 52.5769 23.5659C58.3566 20.6919 62.9198 19.8104 64.3275 21.6795C66.5774 24.6655 59.9247 33.5425 49.4685 41.5072C39.0113 49.4719 28.7107 53.5073 26.4608 50.5203C25.174 48.8135 26.7988 45.1806 30.3786 40.8941C30.2384 40.4192 30.1213 39.9336 30.0281 39.4402C23.7356 46.0379 20.5475 51.9182 22.445 54.436C25.2364 58.1413 37.9762 53.1656 50.8983 43.3231C63.8215 33.4807 72.0336 22.4981 69.2421 18.7938Z" fill="#1F1814"/>
<path d="M63.1152 44.1373C63.1171 46.7333 65.2095 48.837 67.7916 48.8389C65.2095 48.8408 63.1171 50.9445 63.1152 53.5405C63.1132 50.9445 61.0208 48.8408 58.4387 48.8389C61.0208 48.837 63.1132 46.7333 63.1152 44.1373Z" fill="#1F1814"/>
<path d="M32.2891 15.4567C32.2901 17.2832 33.7621 18.7632 35.5789 18.7642C33.7621 18.7651 32.2901 20.2451 32.2891 22.0717C32.2881 20.2451 30.8161 18.7651 28.9993 18.7642C30.8161 18.7632 32.2881 17.2832 32.2891 15.4567Z" fill="#1F1814"/>
<path d="M60.8452 50.8489C57.0215 54.7626 51.6988 57.1907 45.8105 57.1907C41.8293 57.1907 38.1063 56.0804 34.9298 54.1515C34.3508 54.4045 33.7804 54.642 33.2215 54.8602C33.1457 54.8901 33.0717 54.9171 32.9968 54.9461C37.1394 58.2951 42.4016 60.3003 48.1314 60.3003C53.8613 60.3003 58.9353 58.3675 63.0423 55.1256C62.808 53.4506 62.009 51.9581 60.8452 50.8479V50.8489Z" fill="#1F1814"/>
<path d="M64.4961 45.8084C65.514 47.2208 67.0216 48.2529 68.7692 48.6535C71.0095 44.9675 72.3011 40.6357 72.3011 36.0008C72.3011 31.9595 71.3187 28.149 69.5826 24.7961C68.9152 26.1709 67.9645 27.6885 66.7316 29.3375C66.5222 29.6174 66.3052 29.9003 66.0824 30.1841C66.6058 32.0329 66.8871 33.984 66.8871 36.0008C66.8871 39.54 66.0229 42.8764 64.4971 45.8084H64.4961Z" fill="#1F1814"/>
<path d="M63.2073 54.9926C65.2747 53.3321 67.0656 51.3385 68.4973 49.091C65.7596 49.8315 63.6615 52.136 63.2073 54.9926Z" fill="#1F1814"/>
<path d="M31.1237 20.8042C30.8289 20.4315 30.4861 20.0984 30.1039 19.8146C26.284 24.1126 23.9602 29.7835 23.9602 36.0008C23.9602 38.6595 24.3866 41.2169 25.1711 43.6111C25.3843 43.3302 25.6042 43.0483 25.8308 42.7645C25.1192 40.6406 24.7342 38.366 24.7342 36.0008C24.7342 30.0393 27.1838 24.6542 31.1247 20.8042H31.1237Z" fill="#1F1814"/>
<path d="M48.1306 11.7003C42.6034 11.7003 37.5112 13.5664 33.4387 16.705C33.8171 17.1877 34.2751 17.6038 34.7936 17.933C37.999 15.9529 41.7718 14.8108 45.8097 14.8108C50.2903 14.8108 54.4434 16.2175 57.858 18.6136C58.0626 18.5306 58.2652 18.4485 58.4668 18.3703C60.1809 17.7013 61.7327 17.2225 63.1145 16.9338C58.9959 13.6572 53.7913 11.7003 48.1306 11.7003Z" fill="#1F1814"/>
</g>
<g clip-path="url(#clip1_5296_19888)">
<path d="M4.02569 99.8409V88.4103H0V85.7496H10.9673V88.4103H6.94159V99.8409H4.02569Z" fill="#1F1814"/>
<path d="M16.1461 100C15.0436 100 14.0789 99.7614 13.252 99.277C12.4251 98.7926 11.7867 98.1347 11.3298 97.296C10.8728 96.4573 10.6479 95.5029 10.6479 94.4257C10.6479 93.3484 10.8656 92.394 11.3008 91.5481C11.736 90.7022 12.3525 90.0443 13.1359 89.5671C13.9193 89.0899 14.8042 88.8513 15.7907 88.8513C16.7772 88.8513 17.5895 89.0827 18.3512 89.5382C19.1128 89.9937 19.7148 90.6371 20.1573 91.4686C20.5997 92.3 20.8246 93.2978 20.8246 94.469C20.8246 94.592 20.8246 94.7293 20.8101 94.8812C20.7956 95.033 20.7883 95.1776 20.7738 95.315H12.9183V93.4858H19.3014L18.2061 94.028C18.2206 93.4641 18.119 92.9724 17.916 92.5603C17.7129 92.141 17.43 91.8156 17.0673 91.5843C16.7046 91.3529 16.2912 91.23 15.8052 91.23C15.3192 91.23 14.9058 91.3457 14.5358 91.5843C14.1731 91.8229 13.883 92.1482 13.6799 92.5676C13.4768 92.9869 13.3753 93.493 13.3753 94.0642V94.5486C13.3753 95.1487 13.4986 95.6765 13.7379 96.1175C13.9773 96.5585 14.3037 96.8983 14.7244 97.1369C15.1451 97.3755 15.6456 97.4912 16.2331 97.4912C16.7336 97.4912 17.1833 97.4044 17.575 97.2309C17.9667 97.0574 18.3221 96.7971 18.6413 96.4428L20.1355 98.2576C19.6931 98.8215 19.1345 99.2553 18.46 99.559C17.7854 99.8626 17.0165 100.014 16.1388 100.014L16.1461 100Z" fill="#1F1814"/>
<path d="M22.689 99.8409V89.0104H25.3655V92.0904L24.9883 91.1866C25.2785 90.4202 25.7354 89.8418 26.3737 89.4442C27.012 89.0465 27.7809 88.8513 28.6949 88.8513V91.7723C28.5861 91.7433 28.4845 91.7216 28.383 91.7144C28.2814 91.7 28.1799 91.6927 28.0856 91.6927C27.2949 91.6927 26.6639 91.9385 26.1997 92.4374C25.7354 92.9363 25.4961 93.6954 25.4961 94.7293V99.8409H22.689Z" fill="#1F1814"/>
<path d="M42.7594 88.8513C43.5282 88.8513 44.2101 89.0249 44.7976 89.3647C45.3851 89.7045 45.8566 90.2323 46.1903 90.9336C46.5239 91.6349 46.6908 92.5386 46.6908 93.6376V99.8409H43.8837V94.122C43.8837 93.2472 43.7241 92.6037 43.4049 92.1916C43.0858 91.7795 42.6433 91.5698 42.063 91.5698C41.6423 91.5698 41.2724 91.671 40.946 91.8807C40.6196 92.0904 40.373 92.394 40.1989 92.8061C40.0248 93.2183 39.9378 93.746 39.9378 94.404V99.8409H37.1306V94.122C37.1306 93.2472 36.9711 92.6037 36.6519 92.1916C36.3328 91.7795 35.8758 91.5698 35.2738 91.5698C34.8676 91.5698 34.4976 91.671 34.1785 91.8807C33.8521 92.0904 33.6055 92.394 33.4241 92.8061C33.2428 93.2183 33.1557 93.746 33.1557 94.404V99.8409H30.3486V89.0104H33.0252V91.9458L32.5247 91.0999C32.8511 90.3624 33.3226 89.7985 33.9464 89.4153C34.5702 89.0321 35.2738 88.8441 36.0499 88.8441C36.9348 88.8441 37.7182 89.0972 38.3855 89.596C39.0601 90.1021 39.5025 90.8685 39.7129 91.9024L38.7264 91.5987C39.0528 90.7673 39.5678 90.1021 40.2714 89.596C40.975 89.0899 41.8019 88.8441 42.7376 88.8441L42.7594 88.8513Z" fill="#1F1814"/>
<path d="M50.6366 87.4993C50.1071 87.4993 49.6864 87.333 49.36 86.9932C49.0336 86.6534 48.874 86.2413 48.874 85.7424C48.874 85.2436 49.0336 84.8314 49.36 84.4916C49.6864 84.1518 50.1071 83.9855 50.6366 83.9855C51.1661 83.9855 51.5723 84.1446 51.906 84.4555C52.2324 84.7736 52.3992 85.1785 52.3992 85.6701C52.3992 86.1907 52.2396 86.6245 51.9132 86.9715C51.5868 87.3113 51.1661 87.4849 50.6366 87.4849V87.4993ZM49.2367 99.8409V89.0104H52.0438V99.8409H49.2367Z" fill="#1F1814"/>
<path d="M54.8437 99.8409V85.7496H60.2911C61.4153 85.7496 62.3873 85.9521 63.207 86.3642C64.0193 86.7763 64.6504 87.3619 65.0929 88.1283C65.5353 88.8947 65.7602 89.7985 65.7602 90.8468C65.7602 91.8952 65.5353 92.8134 65.0929 93.5725C64.6504 94.3317 64.0193 94.9173 63.207 95.3366C62.3946 95.756 61.4226 95.9584 60.2911 95.9584H56.4394L57.7668 94.4907V99.8482H54.8364L54.8437 99.8409ZM57.7741 94.8522L56.4467 93.305H60.1315C61.0164 93.305 61.691 93.0881 62.1479 92.6615C62.6049 92.235 62.8298 91.6276 62.8298 90.8468C62.8298 90.066 62.6049 89.4659 62.1479 89.0465C61.691 88.6272 61.0237 88.4103 60.1315 88.4103H56.4467L57.7741 86.8631V94.8522Z" fill="#1F1814"/>
<path d="M70.5185 100C69.7786 100 69.1331 99.8554 68.5963 99.5662C68.0596 99.277 67.6389 98.8866 67.3487 98.3877C67.0586 97.8888 66.9062 97.3321 66.9062 96.7176C66.9062 96.103 67.0441 95.5246 67.327 95.0402C67.6098 94.5558 68.0523 94.1726 68.6688 93.9051C69.2854 93.6376 70.0833 93.5002 71.077 93.5002H73.6302V95.3077H71.3671C70.7071 95.3077 70.2574 95.4306 70.0107 95.6692C69.7641 95.9078 69.6408 96.2115 69.6408 96.573C69.6408 96.9778 69.7786 97.296 70.0615 97.5273C70.3444 97.7587 70.7216 97.8816 71.2003 97.8816C71.6791 97.8816 72.107 97.7587 72.4842 97.5201C72.8614 97.2815 73.1297 96.9128 73.2821 96.4139L73.7173 97.8816C73.5142 98.554 73.1443 99.0746 72.6002 99.4433C72.0635 99.812 71.3671 100 70.5112 100H70.5185ZM73.4707 99.8409V97.7298L73.2893 97.267V93.4858C73.2893 92.8134 73.108 92.2928 72.7381 91.9168C72.3754 91.5409 71.8096 91.3529 71.0552 91.3529C70.5403 91.3529 70.0325 91.4397 69.5393 91.6276C69.0388 91.8084 68.6108 92.0542 68.2554 92.3651L67.2689 90.1672C67.7984 89.7406 68.4295 89.4153 69.1766 89.1911C69.9165 88.967 70.6781 88.8586 71.4397 88.8586C72.9121 88.8586 74.0582 89.249 74.8706 90.0226C75.683 90.8034 76.0964 92.0181 76.0964 93.6665V99.8482H73.4707V99.8409Z" fill="#1F1814"/>
<path d="M81.8847 100C81.0578 100 80.2672 99.8916 79.5128 99.6674C78.7585 99.4433 78.1492 99.1685 77.6995 98.8287L78.6134 96.5947C79.0704 96.8911 79.5999 97.1369 80.2019 97.3321C80.804 97.5273 81.406 97.6213 81.9935 97.6213C82.6391 97.6213 83.0961 97.5346 83.3717 97.361C83.6401 97.1875 83.7779 96.9417 83.7779 96.638C83.7779 96.385 83.6691 96.1898 83.466 96.0669C83.2556 95.9367 82.98 95.8427 82.6391 95.7777C82.2982 95.7126 81.9137 95.6403 81.5003 95.5752C81.0796 95.5102 80.6661 95.4162 80.2527 95.2933C79.8392 95.1704 79.4548 95.0041 79.0994 94.7799C78.744 94.5558 78.4611 94.2521 78.2507 93.8617C78.0404 93.4713 77.9388 92.9724 77.9388 92.3507C77.9388 91.6638 78.1202 91.0565 78.4756 90.5287C78.8383 90.0009 79.346 89.5888 80.0061 89.2924C80.6661 88.9959 81.464 88.8513 82.3997 88.8513C83.0743 88.8513 83.7416 88.9381 84.4234 89.1044C85.098 89.2707 85.6711 89.502 86.1425 89.7985L85.1923 92.0325C84.7353 91.7361 84.2711 91.5264 83.7996 91.4108C83.3282 91.2951 82.8712 91.23 82.4432 91.23C81.7977 91.23 81.3262 91.324 81.0433 91.512C80.7532 91.7 80.6081 91.9385 80.6081 92.235C80.6081 92.5025 80.7169 92.7049 80.9345 92.8495C81.1521 92.9941 81.435 93.0953 81.7832 93.1604C82.1313 93.2255 82.5158 93.2978 82.9365 93.3629C83.3572 93.4279 83.7706 93.5219 84.1768 93.6448C84.583 93.7677 84.9675 93.934 85.3156 94.1582C85.6711 94.3823 85.9539 94.6859 86.1643 95.0764C86.3746 95.4668 86.4762 95.9657 86.4762 96.5874C86.4762 97.2454 86.2949 97.831 85.9394 98.3516C85.5768 98.8649 85.0618 99.277 84.3872 99.5662C83.7126 99.8554 82.8857 100.007 81.9137 100.007L81.8847 100Z" fill="#1F1814"/>
<path d="M91.4301 100C90.6032 100 89.8126 99.8916 89.0582 99.6674C88.3039 99.4433 87.6946 99.1685 87.2449 98.8287L88.1588 96.5947C88.6158 96.8911 89.1453 97.1369 89.7473 97.3321C90.3494 97.5273 90.9514 97.6213 91.5389 97.6213C92.1845 97.6213 92.6415 97.5346 92.9171 97.361C93.1855 97.1875 93.3233 96.9417 93.3233 96.638C93.3233 96.385 93.2145 96.1898 93.0114 96.0669C92.801 95.9367 92.5254 95.8427 92.1845 95.7777C91.8436 95.7126 91.4592 95.6403 91.0457 95.5752C90.625 95.5102 90.2116 95.4162 89.7981 95.2933C89.3847 95.1704 89.0002 95.0041 88.6448 94.7799C88.2894 94.5558 88.0065 94.2521 87.7961 93.8617C87.5858 93.4713 87.4842 92.9724 87.4842 92.3507C87.4842 91.6638 87.6656 91.0565 88.021 90.5287C88.3837 90.0009 88.8914 89.5888 89.5515 89.2924C90.2116 88.9959 91.0094 88.8513 91.9451 88.8513C92.6197 88.8513 93.287 88.9381 93.9689 89.1044C94.6434 89.2707 95.2165 89.502 95.6879 89.7985L94.7377 92.0325C94.2808 91.7361 93.8165 91.5264 93.3451 91.4108C92.8736 91.2951 92.4166 91.23 91.9887 91.23C91.3431 91.23 90.8716 91.324 90.5887 91.512C90.2986 91.7 90.1535 91.9385 90.1535 92.235C90.1535 92.5025 90.2623 92.7049 90.4799 92.8495C90.6975 92.9941 90.9804 93.0953 91.3286 93.1604C91.6768 93.2255 92.0612 93.2978 92.4819 93.3629C92.9026 93.4279 93.3161 93.5219 93.7222 93.6448C94.1284 93.7677 94.5129 93.934 94.861 94.1582C95.2165 94.3823 95.4993 94.6859 95.7097 95.0764C95.92 95.4668 96.0216 95.9657 96.0216 96.5874C96.0216 97.2454 95.8403 97.831 95.4848 98.3516C95.1222 98.8649 94.6072 99.277 93.9326 99.5662C93.258 99.8554 92.4311 100.007 91.4592 100.007L91.4301 100Z" fill="#1F1814"/>
</g>
<defs>
<clipPath id="clip0_5296_19888">
<rect width="50.4" height="48.6" fill="white" transform="translate(21.9001 11.7001)"/>
</clipPath>
<clipPath id="clip1_5296_19888">
<rect width="96" height="16" fill="white" transform="translate(0 84)"/>
</clipPath>
</defs>
</svg>
