<svg width="474" height="510" viewBox="0 0 474 510" fill="none" xmlns="http://www.w3.org/2000/svg">
<g clip-path="url(#clip0_1474_15693)">
<g filter="url(#filter0_f_1474_15693)">
<circle cx="124.5" cy="103.5" r="30.5" fill="#D9FF6D" fill-opacity="0.6"/>
</g>
<path d="M84.5005 33C79.8124 57.2984 78.442 111.912 110.465 135.979C150.494 166.063 198.096 167.22 201.342 122.094C204.587 76.9686 89.9097 75.8115 33.6527 154.492C-22.6043 233.173 42.3076 334.995 53.1262 350.037C63.9449 365.079 137.512 455.33 308.446 417.147C479.381 378.963 462.174 241.273 460.989 233.173C455.569 196.119 399.323 174.162 343.066 216.974C286.809 259.785 239.207 380.12 354.967 475" stroke="url(#paint0_linear_1474_15693)" stroke-width="1.4"/>
<g filter="url(#filter1_f_1474_15693)">
<circle cx="310.5" cy="148.5" r="69.5" fill="#6DF6FF" fill-opacity="0.4"/>
</g>
<g filter="url(#filter2_f_1474_15693)">
<circle cx="177.5" cy="278.5" r="82.5" fill="#FCFF6D" fill-opacity="0.4"/>
</g>
<path d="M95.0576 388.434H99.4585V389.754C99.4585 391.455 98.0793 392.834 96.3779 392.834H95.0576V388.434Z" fill="white"/>
<path d="M99.8986 389.754V388.434H108.7V392.834H102.979C101.278 392.834 99.8986 391.455 99.8986 389.754Z" fill="white"/>
<path d="M99.8986 396.355C99.8986 394.654 101.278 393.275 102.979 393.275H104.299V399.876H99.8986V396.355Z" fill="white"/>
<path d="M114 393C114 386.373 108.627 381 102 381C95.3726 381 90 386.373 90 393C90 399.627 95.3726 405 102 405C108.627 405 114 399.627 114 393Z" fill="#FEF153"/>
<g clip-path="url(#clip1_1474_15693)">
<path fill-rule="evenodd" clip-rule="evenodd" d="M107.108 387.991C107.106 387.992 107.104 387.993 107.101 387.993L105.241 387.957C105.232 387.957 105.23 387.953 105.234 387.945L106.001 386.454L106.002 386.453L106.021 386.411L106.136 386.189L106.154 386.155C106.154 386.154 106.155 386.154 106.155 386.153L106.157 386.149C106.162 386.14 106.166 386.14 106.171 386.149L106.174 386.156C106.199 386.201 106.263 386.324 106.348 386.487C106.35 386.488 106.353 386.487 106.356 386.485C106.598 386.383 106.836 386.307 107.07 386.257C107.309 386.312 107.453 386.448 107.506 386.668C107.575 386.958 107.538 387.299 107.466 387.582C107.3 387.609 107.143 387.654 106.993 387.717C106.988 387.719 106.986 387.723 106.985 387.727C107.048 387.851 107.095 387.942 107.112 387.977C107.112 387.978 107.112 387.978 107.112 387.978L107.113 387.98C107.117 387.987 107.115 387.991 107.108 387.991Z" fill="#827E75"/>
<path d="M104.926 387.929C104.868 387.871 104.78 387.813 104.664 387.755C103.967 387.404 103.223 387.201 102.435 387.143C102.013 387.111 101.591 387.125 101.169 387.186L100.763 387.256C100.447 387.324 100.14 387.415 99.8413 387.53C99.5487 387.644 99.2671 387.78 98.9951 387.938C98.5258 388.214 98.102 388.547 97.7245 388.938C97.2324 389.447 96.8452 390.025 96.5622 390.672C95.9189 392.161 95.9182 393.849 96.567 395.341C96.8935 394.881 97.2303 394.433 97.5788 393.998C97.4118 393.245 97.4325 392.501 97.6403 391.767C98.0882 390.243 99.2823 389.072 100.828 388.656L101.276 388.562C101.54 388.52 101.805 388.501 102.071 388.505C102.385 388.51 102.696 388.547 103.004 388.616C103.279 388.67 103.517 388.774 103.717 388.928C103.968 389.12 104.021 389.374 103.877 389.689C104.214 389.434 104.546 389.185 104.872 388.943C104.943 388.889 105.007 388.809 105.064 388.699C105.177 388.39 105.131 388.133 104.926 387.929ZM102.04 388.462C102.04 388.463 102.04 388.463 102.04 388.464C102.04 388.463 102.04 388.463 102.04 388.462ZM102.084 388.481C102.084 388.481 102.084 388.483 102.084 388.483C102.084 388.483 102.084 388.482 102.084 388.481ZM102.088 388.488C102.087 388.488 102.087 388.488 102.088 388.488C102.087 388.487 102.087 388.486 102.086 388.485C102.087 388.486 102.087 388.487 102.088 388.488ZM102.04 388.466C102.04 388.467 102.04 388.468 102.041 388.469C102.04 388.468 102.04 388.468 102.04 388.468C102.039 388.466 102.04 388.466 102.04 388.466ZM102.041 388.47C102.042 388.47 102.043 388.471 102.045 388.471C102.044 388.471 102.042 388.47 102.041 388.47Z" fill="url(#paint1_linear_1474_15693)"/>
<path d="M108.82 387.128C108.715 386.718 108.468 386.437 108.08 386.285C107.754 386.175 107.417 386.176 107.07 386.259C107.309 386.313 107.454 386.45 107.506 386.669C107.575 386.959 107.539 387.3 107.466 387.583C107.408 387.851 107.316 388.112 107.192 388.364C106.956 388.843 106.692 389.293 106.401 389.713L106.149 390.082C105.642 390.784 105.101 391.461 104.526 392.111L104.202 392.474C103.789 392.931 103.364 393.377 102.926 393.81L101.916 394.782L101.437 395.214C101.008 395.598 100.57 395.966 100.124 396.316C99.816 396.958 100.499 397.282 100.992 397.387C101.038 397.356 101.069 397.332 101.087 397.318C101.72 396.813 102.332 396.285 102.924 395.733L103.696 394.997C104.135 394.565 104.562 394.125 104.98 393.675L105.627 392.954L106.414 392.017C106.762 391.581 107.103 391.13 107.436 390.664L107.472 390.607L107.528 390.524C107.826 390.093 108.095 389.646 108.337 389.185C108.649 388.581 108.967 387.814 108.82 387.128ZM105.63 392.916C105.629 392.916 105.628 392.915 105.627 392.914C105.628 392.914 105.628 392.914 105.629 392.915C105.63 392.916 105.63 392.916 105.63 392.916ZM104.968 392.393C104.968 392.393 104.967 392.393 104.966 392.394C104.967 392.394 104.968 392.393 104.968 392.393ZM104.964 392.395L104.964 392.396C104.964 392.396 104.964 392.396 104.964 392.395ZM104.962 392.4C104.962 392.401 104.962 392.401 104.962 392.402C104.961 392.401 104.962 392.401 104.962 392.4ZM104.667 392.213C104.665 392.214 104.665 392.215 104.664 392.217C104.665 392.215 104.666 392.214 104.667 392.213ZM104.659 392.228C104.659 392.23 104.659 392.232 104.66 392.235C104.659 392.233 104.659 392.23 104.659 392.228V392.228ZM104.505 392.155C104.504 392.156 104.503 392.158 104.502 392.159C104.502 392.157 104.504 392.156 104.505 392.155ZM104.5 392.162C104.5 392.163 104.5 392.165 104.499 392.166C104.499 392.165 104.5 392.163 104.5 392.162ZM104.498 392.17C104.498 392.171 104.497 392.173 104.497 392.174C104.498 392.173 104.498 392.171 104.498 392.17ZM104.505 392.206C104.506 392.207 104.507 392.208 104.507 392.209C104.507 392.208 104.507 392.208 104.507 392.208C104.506 392.206 104.505 392.206 104.505 392.206ZM104.498 392.187C104.498 392.189 104.499 392.19 104.5 392.192C104.499 392.191 104.498 392.189 104.498 392.187ZM104.975 392.393C104.977 392.393 104.978 392.394 104.979 392.395C104.978 392.393 104.977 392.393 104.975 392.393ZM107.53 390.486C107.531 390.487 107.532 390.486 107.533 390.486C107.532 390.486 107.532 390.486 107.53 390.486ZM107.534 390.485L107.535 390.484C107.535 390.485 107.535 390.485 107.534 390.485Z" fill="url(#paint2_linear_1474_15693)"/>
<path d="M103.718 388.927C103.518 388.773 103.28 388.669 103.004 388.616C102.645 388.899 102.293 389.191 101.95 389.489L101.7 389.708C100.935 390.387 100.199 391.095 99.491 391.832C98.8353 392.513 98.2093 393.22 97.6123 393.952C97.5923 393.968 97.5806 393.984 97.5785 393.997C97.2299 394.433 96.8931 394.881 96.5667 395.341L96.3064 395.73C96.136 395.99 95.9786 396.249 95.8337 396.508C95.5714 396.97 95.3326 397.485 95.2063 398.002C94.9585 398.98 95.4278 399.833 96.5273 399.805C96.6515 399.797 96.7903 399.777 96.9435 399.744C96.7496 399.707 96.617 399.614 96.5446 399.462C96.4051 399.169 96.4548 398.725 96.5377 398.423C96.6115 398.033 96.7903 397.66 96.9677 397.32C97.4632 396.426 98.0796 395.576 98.7208 394.785C99.1473 394.26 99.5911 393.75 100.051 393.255L100.498 392.78L101.397 391.876C101.854 391.431 102.324 390.997 102.807 390.575L102.845 390.543C103.188 390.244 103.533 389.959 103.877 389.688C104.021 389.373 103.968 389.12 103.718 388.927ZM96.9483 397.292C96.9463 397.292 96.9449 397.294 96.9442 397.295C96.9456 397.294 96.947 397.292 96.9483 397.292ZM96.9614 397.251C96.9614 397.25 96.9608 397.249 96.9601 397.248C96.9601 397.249 96.9608 397.25 96.9614 397.251ZM96.958 397.248C96.9573 397.248 96.9573 397.248 96.9566 397.248C96.9573 397.248 96.958 397.248 96.958 397.248ZM95.8482 396.538C95.8475 396.539 95.8468 396.54 95.8468 396.541C95.8468 396.54 95.8468 396.54 95.8475 396.54C95.8475 396.539 95.8482 396.538 95.8482 396.538ZM95.8454 396.558C95.8454 396.558 95.8461 396.559 95.8468 396.56C95.8461 396.559 95.8461 396.558 95.8454 396.558ZM95.8447 396.553C95.8447 396.555 95.8447 396.555 95.8447 396.557C95.8447 396.556 95.8447 396.555 95.8447 396.553ZM95.8475 396.56C95.8488 396.562 95.8502 396.562 95.8523 396.562H95.8516C95.8495 396.562 95.8482 396.561 95.8475 396.56ZM96.947 397.309L96.9476 397.31C96.9476 397.31 96.9476 397.309 96.947 397.309ZM97.8477 394.09C97.847 394.089 97.8456 394.088 97.8449 394.087C97.8456 394.088 97.8463 394.089 97.8477 394.09ZM97.8511 394.099C97.8511 394.098 97.8504 394.096 97.8497 394.094C97.8504 394.096 97.8504 394.097 97.8511 394.099ZM97.6254 393.953C97.6261 393.953 97.6261 393.953 97.6261 393.953C97.6254 393.953 97.6247 393.952 97.6234 393.952C97.624 393.953 97.6247 393.953 97.6254 393.953ZM97.8304 394.08C97.8311 394.08 97.8318 394.081 97.8332 394.081C97.8311 394.08 97.8283 394.08 97.8263 394.08C97.827 394.079 97.8283 394.079 97.8304 394.08ZM97.8408 394.084C97.8394 394.083 97.838 394.083 97.8366 394.082C97.8387 394.083 97.8401 394.083 97.8408 394.084ZM99.9045 392.159C99.9038 392.159 99.9024 392.158 99.9017 392.158C99.9024 392.158 99.9031 392.158 99.9045 392.159ZM99.901 392.158C99.8996 392.158 99.8983 392.158 99.8969 392.159C99.8983 392.158 99.8996 392.157 99.901 392.158ZM99.8934 392.161C99.8927 392.163 99.892 392.164 99.892 392.165C99.892 392.163 99.8927 392.163 99.8934 392.161ZM100.481 392.765V392.766C100.481 392.766 100.481 392.766 100.481 392.765ZM100.482 392.767C100.482 392.767 100.483 392.768 100.484 392.768C100.483 392.767 100.482 392.767 100.482 392.767Z" fill="url(#paint3_linear_1474_15693)"/>
<path d="M107.435 390.662C107.102 391.128 106.762 391.58 106.414 392.016C106.423 392.017 106.428 392.023 106.431 392.034C106.56 392.641 106.568 393.248 106.453 393.856C106.374 394.252 106.247 394.628 106.07 394.987C105.866 395.396 105.606 395.766 105.289 396.098L104.943 396.423C104.652 396.669 104.334 396.878 103.988 397.046C103.232 397.407 102.433 397.552 101.59 397.481C101.388 397.462 101.189 397.43 100.992 397.386C100.499 397.281 99.8162 396.956 100.124 396.315C99.8272 396.54 99.5353 396.76 99.2461 396.976C99.1377 397.056 99.0639 397.12 99.0259 397.167C98.8044 397.433 98.8403 397.842 99.0756 398.077C99.1301 398.131 99.2109 398.186 99.3186 398.24C100.296 398.729 101.337 398.936 102.443 398.861C103.037 398.815 103.61 398.686 104.163 398.473C104.38 398.389 104.589 398.293 104.792 398.186C105.143 398 105.471 397.781 105.776 397.53L106.175 397.171C106.441 396.909 106.679 396.626 106.889 396.322C107.141 395.957 107.348 395.57 107.511 395.161C107.675 394.745 107.791 394.316 107.858 393.874C108.019 392.765 107.878 391.695 107.435 390.662ZM104.057 397.061C104.057 397.06 104.056 397.059 104.055 397.058C104.056 397.059 104.057 397.06 104.057 397.061ZM104.054 397.056C104.053 397.056 104.053 397.056 104.052 397.055C104.053 397.056 104.053 397.056 104.054 397.056ZM104.05 397.054C104.049 397.054 104.049 397.054 104.048 397.054C104.049 397.054 104.049 397.054 104.05 397.054ZM104.002 397.058L104.003 397.057C104.002 397.058 104.002 397.058 104.002 397.058ZM104.004 397.055C104.004 397.054 104.004 397.054 104.004 397.052C104.004 397.053 104.004 397.053 104.004 397.054C104.004 397.054 104.004 397.054 104.004 397.055ZM104.003 397.052C104.002 397.05 104.002 397.05 104 397.05C104.001 397.05 104.002 397.05 104.003 397.052ZM104.044 397.054C104.043 397.054 104.041 397.054 104.04 397.055C104.041 397.054 104.042 397.054 104.044 397.054ZM105.935 396.797C105.935 396.796 105.936 396.795 105.936 396.794C105.936 396.795 105.936 396.795 105.935 396.797ZM105.936 396.789C105.936 396.789 105.936 396.787 105.936 396.787C105.936 396.787 105.936 396.788 105.936 396.789ZM105.935 396.782C105.934 396.781 105.933 396.78 105.933 396.778C105.933 396.779 105.933 396.779 105.934 396.78C105.934 396.78 105.934 396.781 105.935 396.782ZM105.931 396.776C105.929 396.775 105.929 396.774 105.927 396.773C105.929 396.774 105.93 396.775 105.931 396.776ZM105.925 396.771C105.924 396.771 105.922 396.77 105.92 396.769C105.922 396.77 105.924 396.771 105.925 396.771ZM105.918 396.769C105.916 396.769 105.913 396.769 105.911 396.769C105.913 396.769 105.916 396.769 105.918 396.769ZM105.37 396.044C105.37 396.044 105.368 396.043 105.366 396.043C105.368 396.042 105.37 396.043 105.37 396.044ZM106.501 393.778C106.5 393.778 106.499 393.778 106.499 393.777C106.5 393.777 106.501 393.778 106.501 393.778Z" fill="url(#paint4_linear_1474_15693)"/>
<path fill-rule="evenodd" clip-rule="evenodd" d="M97.921 398.031L98.7603 398.047C98.7686 398.047 98.7713 398.051 98.7672 398.059L98.3441 398.883L98.3234 398.927L97.8458 399.851C97.843 399.856 97.8375 399.857 97.8327 399.855C97.8313 399.854 97.8292 399.853 97.8285 399.851L97.6594 399.521C97.6555 399.517 97.6504 399.516 97.6444 399.519C97.4083 399.617 97.175 399.692 96.9445 399.744C96.7505 399.708 96.618 399.614 96.5456 399.463C96.4061 399.17 96.4558 398.725 96.5387 398.423C96.7029 398.389 96.861 398.344 97.0128 398.289C97.0197 398.287 97.0197 398.278 97.0128 398.263C97.0133 398.263 97.0138 398.262 97.0143 398.262L96.8919 398.023C96.8871 398.014 96.8899 398.01 96.9002 398.01L97.921 398.031Z" fill="#827E75"/>
</g>
<path d="M160.837 210.946H82.1455C80.0744 210.946 78.3955 209.267 78.3955 207.196V161.259C78.3955 159.188 80.0744 157.509 82.1455 157.509H159.958C162.029 157.509 163.708 159.188 163.708 161.259V165.159" stroke="black" stroke-width="0.9375"/>
<rect x="87.7705" y="168.759" width="15" height="16.875" rx="1.875" fill="#51AEFF"/>
<path d="M112.146 171.571H151.096" stroke="black" stroke-width="1.5" stroke-linecap="round"/>
<path d="M112.146 182.821H140.271" stroke="black" stroke-width="1.5" stroke-linecap="round"/>
<path d="M89.9287 198.618L146.779 198.618" stroke="black" stroke-width="1.5" stroke-linecap="round"/>
<path d="M304.402 290.682C310.246 280.14 313.875 268.378 313.875 255.974V172.088C313.875 167.053 310.528 162.63 305.682 161.262L245.621 144.302C240.29 142.797 234.647 142.797 229.316 144.302L169.255 161.262C164.409 162.63 161.062 167.053 161.062 172.088V255.974C161.062 271.765 166.943 286.514 175.788 299.031" stroke="black" stroke-width="1.51079"/>
<path d="M327.858 185.272L327.856 185.276C327.689 185.511 327.495 185.594 327.332 185.594C327.256 185.594 327.167 185.576 327.064 185.527C326.785 185.374 326.531 184.956 326.531 184.385V153.853C326.531 152.228 327.028 150.772 327.808 149.733C328.589 148.693 329.63 148.094 330.737 148.094H374.2C375.152 148.094 376.051 148.607 376.728 149.508C377.405 150.408 377.838 151.673 377.838 153.089V173.679C377.838 175.091 377.406 176.357 376.73 177.258C376.054 178.159 375.156 178.674 374.205 178.674H374.205L333.447 178.739L327.858 185.272ZM327.858 185.272L332.009 179.534L332.009 179.533M327.858 185.272L332.009 179.533M332.009 179.533C332.352 179.06 332.869 178.74 333.446 178.739L332.009 179.533Z" fill="white" fill-opacity="0.5" stroke="black" stroke-width="0.9375"/>
<path d="M337.504 159.8H347.946C348.215 159.8 348.436 159.506 348.436 159.147C348.436 158.788 348.215 158.494 347.946 158.494H337.504C337.234 158.494 337.014 158.788 337.014 159.147C337.014 159.506 337.229 159.8 337.504 159.8Z" fill="black"/>
<path d="M354.302 159.8H370.29C370.56 159.8 370.78 159.506 370.78 159.147C370.78 158.788 370.56 158.494 370.29 158.494H354.306C354.037 158.494 353.816 158.788 353.816 159.147C353.812 159.506 354.032 159.8 354.302 159.8Z" fill="black"/>
<path d="M337.505 164.755H363.803C364.072 164.755 364.293 164.461 364.293 164.102C364.293 163.743 364.072 163.449 363.803 163.449H337.505C337.235 163.449 337.015 163.743 337.015 164.102C337.015 164.461 337.23 164.755 337.505 164.755Z" fill="black"/>
<path d="M337.504 169.709H354.929C355.198 169.709 355.419 169.416 355.419 169.057C355.419 168.698 355.198 168.404 354.929 168.404H337.504C337.235 168.404 337.014 168.698 337.014 169.057C337.014 169.422 337.23 169.709 337.504 169.709Z" fill="black"/>
<path d="M295.225 290.125C302.002 279.524 306.375 267.34 306.375 254.381V176.546C306.375 173.191 304.146 170.243 300.917 169.33L245.637 153.687C240.296 152.175 234.641 152.175 229.3 153.687L174.02 169.33C170.791 170.243 168.562 173.191 168.562 176.546V254.381C168.562 271.783 176.448 287.785 187.451 300.437" stroke="black" stroke-width="1.51079"/>
<path fill-rule="evenodd" clip-rule="evenodd" d="M215.359 214.575C215.359 202.451 225.149 192.623 237.226 192.623C249.302 192.623 259.092 202.451 259.092 214.575V232.052H251.878V214.575C251.878 206.451 245.318 199.865 237.226 199.865C229.133 199.865 222.573 206.451 222.573 214.575V232.052H215.359V214.575Z" fill="url(#paint5_linear_1474_15693)"/>
<path fill-rule="evenodd" clip-rule="evenodd" d="M239.468 251.597C241.328 250.677 242.609 248.749 242.609 246.519C242.609 243.397 240.097 240.866 237 240.866C233.902 240.866 231.391 243.397 231.391 246.519C231.391 248.749 232.671 250.677 234.532 251.597L231.391 262.451H242.609L239.468 251.597Z" fill="white"/>
<rect x="131.062" y="311.688" width="56.875" height="35.625" rx="3.75" fill="white"/>
<path d="M151.425 326.688H139.053C138.783 326.688 138.562 326.407 138.562 326.063C138.562 325.72 138.783 325.438 139.053 325.438H151.425C151.695 325.438 151.916 325.72 151.916 326.063C151.916 326.407 151.695 326.688 151.425 326.688Z" fill="#E6E6E6"/>
<path d="M179.406 320.75H139.594C139.027 320.75 138.562 320.469 138.562 320.125C138.562 319.782 139.027 319.5 139.594 319.5H179.406C179.973 319.5 180.438 319.782 180.438 320.125C180.438 320.469 179.983 320.75 179.406 320.75Z" fill="#E6E6E6"/>
<path d="M157.858 338.875H139.05C138.782 338.875 138.562 338.593 138.562 338.25C138.562 337.906 138.782 337.625 139.05 337.625H157.858C158.126 337.625 158.345 337.906 158.345 338.25C158.345 338.593 158.131 338.875 157.858 338.875Z" fill="#E6E6E6"/>
<path d="M307.313 203.877C321.292 203.877 332.625 192.544 332.625 178.565C332.625 164.585 321.292 153.252 307.312 153.252C293.333 153.252 282 164.585 282 178.565C282 192.544 293.333 203.877 307.313 203.877Z" fill="#FCFF56"/>
<path fill-rule="evenodd" clip-rule="evenodd" d="M318.761 166.75C319.255 167.248 319.255 168.055 318.761 168.553L317.458 169.868L320.065 172.484C320.303 172.723 320.438 173.048 320.438 173.388C320.438 173.727 320.303 174.052 320.065 174.291L316.064 178.307C315.571 178.801 314.775 178.801 314.282 178.306L311.681 175.696L308.719 178.684C310.056 180.516 310.519 182.878 309.927 185.116C309.23 187.749 307.182 189.801 304.565 190.498C301.949 191.195 299.16 190.433 297.256 188.497L297.247 188.487C294.382 185.51 294.423 180.777 297.339 177.851C299.933 175.247 303.951 174.93 306.892 176.922L316.975 166.75C317.468 166.253 318.268 166.253 318.761 166.75ZM306.168 179.597C304.197 177.685 301.06 177.713 299.121 179.658C297.188 181.598 297.159 184.731 299.055 186.706C300.321 187.99 302.177 188.498 303.92 188.033C305.665 187.568 307.024 186.202 307.485 184.458C307.941 182.733 307.453 180.895 306.201 179.627C306.19 179.617 306.179 179.607 306.168 179.597ZM313.535 173.961L315.744 171.744L317.382 173.388L315.173 175.605L313.535 173.961Z" fill="black"/>
<rect x="242.625" y="280.752" width="117.642" height="38.4375" rx="4.6875" fill="url(#paint6_linear_1474_15693)"/>
<path fill-rule="evenodd" clip-rule="evenodd" d="M345.604 293.43C344.429 292.772 343.074 292.397 341.631 292.397C337.128 292.397 333.478 296.048 333.478 300.551C333.478 305.054 337.128 308.704 341.631 308.704C346.134 308.704 349.784 305.054 349.784 300.551C349.784 298.836 349.255 297.245 348.351 295.933L341.631 300.551L345.604 293.43Z" fill="#0D0D0D"/>
<path d="M260.93 302.165L261.031 299.917L259.135 301.137L258.555 300.125L260.568 299.097L258.555 298.069L259.135 297.057L261.031 298.277L260.93 296.029H262.086L261.985 298.277L263.881 297.057L264.462 298.069L262.448 299.097L264.462 300.125L263.881 301.137L261.985 299.917L262.086 302.165H260.93ZM268.752 302.165L268.854 299.917L266.957 301.137L266.377 300.125L268.39 299.097L266.377 298.069L266.957 297.057L268.854 298.277L268.752 296.029H269.908L269.807 298.277L271.703 297.057L272.284 298.069L270.271 299.097L272.284 300.125L271.703 301.137L269.807 299.917L269.908 302.165H268.752ZM276.575 302.165L276.676 299.917L274.78 301.137L274.199 300.125L276.213 299.097L274.199 298.069L274.78 297.057L276.676 298.277L276.575 296.029H277.731L277.629 298.277L279.526 297.057L280.106 298.069L278.093 299.097L280.106 300.125L279.526 301.137L277.629 299.917L277.731 302.165H276.575ZM284.397 302.165L284.498 299.917L282.602 301.137L282.021 300.125L284.035 299.097L282.021 298.069L282.602 297.057L284.498 298.277L284.397 296.029H285.553L285.452 298.277L287.348 297.057L287.929 298.069L285.915 299.097L287.929 300.125L287.348 301.137L285.452 299.917L285.553 302.165H284.397ZM292.219 302.165L292.32 299.917L290.424 301.137L289.844 300.125L291.857 299.097L289.844 298.069L290.424 297.057L292.32 298.277L292.219 296.029H293.375L293.274 298.277L295.17 297.057L295.751 298.069L293.737 299.097L295.751 300.125L295.17 301.137L293.274 299.917L293.375 302.165H292.219ZM300.042 302.165L300.143 299.917L298.246 301.137L297.666 300.125L299.679 299.097L297.666 298.069L298.246 297.057L300.143 298.277L300.042 296.029H301.197L301.096 298.277L302.993 297.057L303.573 298.069L301.56 299.097L303.573 300.125L302.993 301.137L301.096 299.917L301.197 302.165H300.042Z" fill="black"/>
<path d="M204.188 234.813C204.188 232.741 205.866 231.062 207.938 231.062H266.062C268.134 231.062 269.812 232.741 269.812 234.812V265.75C269.812 267.821 268.134 269.5 266.062 269.5H207.937C205.866 269.5 204.188 267.821 204.188 265.75V234.813Z" fill="url(#paint7_linear_1474_15693)"/>
<mask id="path-37-inside-1_1474_15693" fill="white">
<path fill-rule="evenodd" clip-rule="evenodd" d="M240.242 249.045C241.735 248.307 242.763 246.76 242.763 244.971C242.763 242.466 240.748 240.436 238.263 240.436C235.777 240.436 233.763 242.466 233.763 244.971C233.763 246.76 234.79 248.307 236.283 249.045L233.763 257.755H242.763L240.242 249.045Z"/>
</mask>
<path fill-rule="evenodd" clip-rule="evenodd" d="M240.242 249.045C241.735 248.307 242.763 246.76 242.763 244.971C242.763 242.466 240.748 240.436 238.263 240.436C235.777 240.436 233.763 242.466 233.763 244.971C233.763 246.76 234.79 248.307 236.283 249.045L233.763 257.755H242.763L240.242 249.045Z" fill="white"/>
<path d="M240.242 249.045L240.051 248.658L239.727 248.819L239.828 249.165L240.242 249.045ZM236.283 249.045L236.698 249.165L236.798 248.819L236.474 248.658L236.283 249.045ZM233.763 257.755L233.348 257.635L233.188 258.186H233.763V257.755ZM242.763 257.755V258.186H243.337L243.177 257.635L242.763 257.755ZM242.331 244.971C242.331 246.591 241.401 247.991 240.051 248.658L240.434 249.432C242.069 248.624 243.194 246.929 243.194 244.971H242.331ZM238.263 240.867C240.506 240.867 242.331 242.701 242.331 244.971H243.194C243.194 242.231 240.99 240.004 238.263 240.004V240.867ZM234.194 244.971C234.194 242.701 236.019 240.867 238.263 240.867V240.004C235.536 240.004 233.331 242.231 233.331 244.971H234.194ZM236.474 248.658C235.124 247.991 234.194 246.591 234.194 244.971H233.331C233.331 246.929 234.456 248.623 236.092 249.432L236.474 248.658ZM234.177 257.875L236.698 249.165L235.868 248.925L233.348 257.635L234.177 257.875ZM242.763 257.323H233.763V258.186H242.763V257.323ZM239.828 249.165L242.348 257.875L243.177 257.635L240.657 248.925L239.828 249.165Z" fill="black" mask="url(#path-37-inside-1_1474_15693)"/>
<path fill-rule="evenodd" clip-rule="evenodd" d="M238.792 249.045C240.285 248.307 241.312 246.76 241.312 244.971C241.312 242.466 239.298 240.436 236.812 240.436C234.327 240.436 232.312 242.466 232.312 244.971C232.312 246.76 233.34 248.307 234.833 249.045L232.312 257.755H241.312L238.792 249.045Z" fill="#0D0D0D"/>
<path d="M186.149 135.208C191.112 130.245 191.112 122.197 186.149 117.234C181.186 112.27 173.138 112.27 168.175 117.234C163.211 122.197 163.211 130.245 168.175 135.208C173.138 140.172 181.186 140.172 186.149 135.208Z" fill="#FF7866"/>
<path d="M183.875 124.331C184.113 124.549 184.141 124.933 183.938 125.189C183.467 125.779 182.926 126.309 182.326 126.768L183.557 128.088C183.774 128.33 183.768 128.715 183.543 128.948C183.492 129.002 183.431 129.045 183.363 129.074C183.296 129.104 183.223 129.119 183.149 129.119C183.075 129.119 183.002 129.104 182.934 129.074C182.867 129.045 182.806 129.002 182.755 128.948L181.332 127.422C180.687 127.788 179.997 128.066 179.28 128.25L179.938 130.186C180.044 130.503 179.893 130.851 179.598 130.966C179.304 131.081 178.979 130.919 178.872 130.603L178.145 128.459C177.551 128.526 176.951 128.528 176.356 128.466L175.631 130.603C175.523 130.918 175.198 131.081 174.904 130.966C174.609 130.852 174.458 130.503 174.565 130.186L175.218 128.267C174.494 128.087 173.798 127.812 173.146 127.448L171.747 128.948C171.695 129.003 171.633 129.047 171.563 129.076C171.493 129.106 171.418 129.12 171.343 129.119C171.267 129.117 171.193 129.1 171.124 129.068C171.056 129.036 170.995 128.99 170.945 128.933C170.843 128.816 170.786 128.666 170.786 128.511C170.786 128.355 170.843 128.205 170.945 128.088L172.147 126.799C171.563 126.357 171.034 125.848 170.571 125.28C170.369 125.023 170.4 124.64 170.639 124.423C170.871 124.212 171.217 124.236 171.423 124.477C172.884 126.27 174.997 127.297 177.217 127.294C179.499 127.294 181.62 126.223 183.076 124.398C183.279 124.143 183.637 124.113 183.875 124.331Z" fill="black"/>
<path fill-rule="evenodd" clip-rule="evenodd" d="M170.438 296.688C168.884 296.688 167.625 297.947 167.625 299.5V300.654H190.63V299.5C190.63 297.947 189.371 296.688 187.818 296.688H170.438ZM198.13 302.242H167.625V324.814C167.625 326.367 168.884 327.626 170.438 327.626H198.13C199.683 327.626 200.942 326.367 200.942 324.814V321.281H192C189.929 321.281 188.25 319.602 188.25 317.531V312.338C188.25 310.267 189.929 308.588 192 308.588H200.942V305.054C200.942 303.501 199.683 302.242 198.13 302.242ZM189.837 312.213C189.837 311.086 190.79 310.173 191.966 310.173H201.193C202.369 310.173 203.322 311.086 203.322 312.213V317.653C203.322 318.779 202.369 319.692 201.193 319.692H191.966C190.79 319.692 189.837 318.779 189.837 317.653V312.213Z" fill="#1F1814"/>
</g>
<defs>
<filter id="filter0_f_1474_15693" x="-46" y="-67" width="341" height="341" filterUnits="userSpaceOnUse" color-interpolation-filters="sRGB">
<feFlood flood-opacity="0" result="BackgroundImageFix"/>
<feBlend mode="normal" in="SourceGraphic" in2="BackgroundImageFix" result="shape"/>
<feGaussianBlur stdDeviation="70" result="effect1_foregroundBlur_1474_15693"/>
</filter>
<filter id="filter1_f_1474_15693" x="101" y="-61" width="419" height="419" filterUnits="userSpaceOnUse" color-interpolation-filters="sRGB">
<feFlood flood-opacity="0" result="BackgroundImageFix"/>
<feBlend mode="normal" in="SourceGraphic" in2="BackgroundImageFix" result="shape"/>
<feGaussianBlur stdDeviation="70" result="effect1_foregroundBlur_1474_15693"/>
</filter>
<filter id="filter2_f_1474_15693" x="-45" y="56" width="445" height="445" filterUnits="userSpaceOnUse" color-interpolation-filters="sRGB">
<feFlood flood-opacity="0" result="BackgroundImageFix"/>
<feBlend mode="normal" in="SourceGraphic" in2="BackgroundImageFix" result="shape"/>
<feGaussianBlur stdDeviation="70" result="effect1_foregroundBlur_1474_15693"/>
</filter>
<linearGradient id="paint0_linear_1474_15693" x1="53.4535" y1="33" x2="450.704" y2="515.038" gradientUnits="userSpaceOnUse">
<stop stop-color="#FFFFFE" stop-opacity="0"/>
<stop offset="0.113086" stop-color="#FFF475" stop-opacity="0.886914"/>
<stop offset="0.360792" stop-color="#5DFF80" stop-opacity="0.9"/>
<stop offset="0.698325" stop-color="#8AFDEF" stop-opacity="0.424755"/>
<stop offset="1" stop-color="#FEF153" stop-opacity="0"/>
</linearGradient>
<linearGradient id="paint1_linear_1474_15693" x1="103.87" y1="387.701" x2="96.7009" y2="394.559" gradientUnits="userSpaceOnUse">
<stop stop-color="#1A130F"/>
<stop offset="1" stop-color="#605B50"/>
</linearGradient>
<linearGradient id="paint2_linear_1474_15693" x1="108.459" y1="386.531" x2="100.667" y2="396.501" gradientUnits="userSpaceOnUse">
<stop stop-color="#1A130F"/>
<stop offset="1" stop-color="#605B50"/>
</linearGradient>
<linearGradient id="paint3_linear_1474_15693" x1="103.558" y1="388.948" x2="95.7654" y2="398.922" gradientUnits="userSpaceOnUse">
<stop stop-color="#605B50"/>
<stop offset="1" stop-color="#1A130F"/>
</linearGradient>
<linearGradient id="paint4_linear_1474_15693" x1="107.514" y1="390.906" x2="102.493" y2="399.89" gradientUnits="userSpaceOnUse">
<stop stop-color="#605B50"/>
<stop offset="1" stop-color="#1A130F"/>
</linearGradient>
<linearGradient id="paint5_linear_1474_15693" x1="237.226" y1="192.623" x2="237.226" y2="232.052" gradientUnits="userSpaceOnUse">
<stop stop-color="#D2D2D2"/>
<stop offset="1" stop-color="#E9EAD8"/>
</linearGradient>
<linearGradient id="paint6_linear_1474_15693" x1="360.022" y1="319.411" x2="243.006" y2="291.252" gradientUnits="userSpaceOnUse">
<stop stop-color="#F4FF9F"/>
<stop offset="0.359441" stop-color="#FFF8B5"/>
<stop offset="0.744729" stop-color="#FFFDC7"/>
<stop offset="1" stop-color="#FFFF86"/>
</linearGradient>
<linearGradient id="paint7_linear_1474_15693" x1="269.374" y1="269.77" x2="204.626" y2="230.921" gradientUnits="userSpaceOnUse">
<stop stop-color="#EEF24F"/>
<stop offset="1" stop-color="#61FF82"/>
</linearGradient>
<clipPath id="clip0_1474_15693">
<rect width="474" height="510" fill="white"/>
</clipPath>
<clipPath id="clip1_1474_15693">
<rect width="13.7143" height="13.7143" fill="white" transform="translate(95.1426 386.143)"/>
</clipPath>
</defs>
</svg>
