<svg width="375" height="590" viewBox="0 0 375 590" fill="none" xmlns="http://www.w3.org/2000/svg">
<g clip-path="url(#clip0_1206_47463)">
<g filter="url(#filter0_f_1206_47463)">
<circle cx="55.5" cy="101.5" r="54.5" fill="#D9FF6D" fill-opacity="0.6"/>
</g>
<g filter="url(#filter1_f_1206_47463)">
<circle cx="319" cy="194" r="101" fill="#6DF6FF" fill-opacity="0.4"/>
</g>
<path d="M41.0436 54C36.1296 79.3979 34.6931 136.483 68.2601 161.639C110.219 193.084 160.115 194.293 163.517 147.126C166.919 99.9581 46.7136 98.7487 -12.2553 180.99C-71.2243 263.23 -3.18319 369.66 8.15699 385.382C19.4972 401.105 96.6103 495.44 275.785 455.529C454.96 415.618 440.218 270.487 435.682 263.23C431.146 255.974 371.043 201.55 312.074 246.298C253.105 291.047 203.208 416.827 324.548 516" stroke="url(#paint0_linear_1206_47463)" stroke-width="1.4"/>
<g filter="url(#filter2_f_1206_47463)">
<circle cx="69.5" cy="355.5" r="91.5" fill="#FCFF6D" fill-opacity="0.4"/>
</g>
<path d="M111.838 243.946H42.1459C40.0748 243.946 38.3959 242.267 38.3959 240.196V194.259C38.3959 192.188 40.0748 190.509 42.1459 190.509H119.958C122.029 190.509 123.708 192.188 123.708 194.259V201.159" stroke="black" stroke-width="0.9375"/>
<rect x="47.7709" y="201.759" width="15" height="16.875" rx="1.875" fill="#51AEFF"/>
<path d="M72.1459 204.571H111.096" stroke="black" stroke-width="1.5" stroke-linecap="round"/>
<path d="M72.1459 215.821H100.271" stroke="black" stroke-width="1.5" stroke-linecap="round"/>
<path d="M49.9293 231.618L106.78 231.618" stroke="black" stroke-width="1.5" stroke-linecap="round"/>
<path d="M254.402 332.682C260.246 322.14 263.875 310.378 263.875 297.974V214.088C263.875 209.053 260.528 204.63 255.682 203.262L195.621 186.302C190.29 184.797 184.647 184.797 179.316 186.302L119.255 203.262C114.409 204.63 111.062 209.053 111.062 214.088V297.974C111.062 313.765 116.943 328.514 125.788 341.031" stroke="black" stroke-width="1.51079"/>
<path d="M277.858 227.272L277.855 227.276C277.689 227.511 277.495 227.594 277.332 227.594C277.256 227.594 277.167 227.576 277.064 227.527C276.784 227.374 276.531 226.956 276.531 226.385V195.853C276.531 194.228 277.028 192.772 277.808 191.733C278.588 190.693 279.629 190.094 280.737 190.094H324.2C325.152 190.094 326.051 190.607 326.728 191.508C327.405 192.408 327.838 193.673 327.838 195.089V215.679C327.838 217.091 327.406 218.357 326.73 219.258C326.054 220.159 325.156 220.674 324.205 220.674H324.204L283.447 220.739L277.858 227.272ZM277.858 227.272L282.009 221.534L282.009 221.533M277.858 227.272L282.009 221.533M282.009 221.533C282.352 221.06 282.869 220.74 283.446 220.739L282.009 221.533Z" fill="white" fill-opacity="0.5" stroke="black" stroke-width="0.9375"/>
<path d="M287.504 201.8H297.946C298.215 201.8 298.436 201.506 298.436 201.147C298.436 200.788 298.215 200.494 297.946 200.494H287.504C287.234 200.494 287.014 200.788 287.014 201.147C287.014 201.506 287.229 201.8 287.504 201.8Z" fill="black"/>
<path d="M304.302 201.8H320.291C320.56 201.8 320.781 201.506 320.781 201.147C320.781 200.788 320.56 200.494 320.291 200.494H304.307C304.037 200.494 303.817 200.788 303.817 201.147C303.812 201.506 304.032 201.8 304.302 201.8Z" fill="black"/>
<path d="M287.504 206.755H313.803C314.072 206.755 314.293 206.461 314.293 206.102C314.293 205.743 314.072 205.449 313.803 205.449H287.504C287.235 205.449 287.014 205.743 287.014 206.102C287.014 206.461 287.23 206.755 287.504 206.755Z" fill="black"/>
<path d="M287.504 211.71H304.928C305.198 211.71 305.418 211.416 305.418 211.057C305.418 210.698 305.198 210.404 304.928 210.404H287.504C287.234 210.404 287.014 210.698 287.014 211.057C287.014 211.423 287.23 211.71 287.504 211.71Z" fill="black"/>
<path d="M245.225 332.125C252.002 321.524 256.375 309.34 256.375 296.381V218.546C256.375 215.191 254.146 212.243 250.917 211.33L195.637 195.687C190.296 194.175 184.641 194.175 179.3 195.687L124.02 211.33C120.791 212.243 118.562 215.191 118.562 218.546V296.381C118.562 313.783 126.448 329.785 137.451 342.437" stroke="black" stroke-width="1.51079"/>
<path fill-rule="evenodd" clip-rule="evenodd" d="M165.36 256.575C165.36 244.451 175.149 234.623 187.226 234.623C199.302 234.623 209.092 244.451 209.092 256.575V274.052H201.878V256.575C201.878 248.451 195.318 241.865 187.226 241.865C179.133 241.865 172.573 248.451 172.573 256.575V274.052H165.36L165.36 256.575Z" fill="url(#paint1_linear_1206_47463)"/>
<path fill-rule="evenodd" clip-rule="evenodd" d="M189.469 293.597C191.329 292.676 192.609 290.748 192.609 288.519C192.609 285.396 190.098 282.865 187 282.865C183.902 282.865 181.391 285.396 181.391 288.519C181.391 290.748 182.672 292.677 184.532 293.597L181.391 304.451H192.609L189.469 293.597Z" fill="white"/>
<rect x="81.0625" y="353.688" width="56.875" height="35.625" rx="3.75" fill="white"/>
<path d="M101.425 368.688H89.0534C88.7834 368.688 88.5625 368.407 88.5625 368.063C88.5625 367.72 88.7834 367.438 89.0534 367.438H101.425C101.695 367.438 101.916 367.72 101.916 368.063C101.916 368.407 101.695 368.688 101.425 368.688Z" fill="#E6E6E6"/>
<path d="M129.406 362.751H89.5944C89.0269 362.751 88.5625 362.47 88.5625 362.126C88.5625 361.782 89.0269 361.501 89.5944 361.501H129.406C129.973 361.501 130.438 361.782 130.438 362.126C130.438 362.47 129.983 362.751 129.406 362.751Z" fill="#E6E6E6"/>
<path d="M107.858 380.874H89.05C88.7819 380.874 88.5625 380.593 88.5625 380.249C88.5625 379.905 88.7819 379.624 89.05 379.624H107.858C108.126 379.624 108.345 379.905 108.345 380.249C108.345 380.593 108.131 380.874 107.858 380.874Z" fill="#E6E6E6"/>
<path d="M257.313 245.877C271.293 245.877 282.625 234.544 282.625 220.565C282.625 206.585 271.293 195.252 257.313 195.252C243.333 195.252 232 206.585 232 220.565C232 234.544 243.333 245.877 257.313 245.877Z" fill="#FCFF56"/>
<path fill-rule="evenodd" clip-rule="evenodd" d="M268.762 208.75C269.255 209.248 269.255 210.055 268.762 210.553L267.459 211.868L270.066 214.484C270.304 214.723 270.438 215.048 270.438 215.388C270.438 215.727 270.304 216.052 270.066 216.291L266.064 220.307C265.572 220.801 264.775 220.801 264.282 220.306L261.681 217.696L258.72 220.684C260.057 222.516 260.519 224.878 259.927 227.116C259.23 229.749 257.182 231.801 254.566 232.498C251.95 233.195 249.161 232.433 247.257 230.497L247.247 230.487C244.383 227.51 244.424 222.777 247.339 219.851C249.934 217.247 253.952 216.93 256.892 218.922L266.975 208.75C267.468 208.253 268.268 208.253 268.762 208.75ZM256.169 221.597C254.197 219.685 251.06 219.713 249.122 221.658C247.188 223.598 247.16 226.731 249.056 228.706C250.321 229.99 252.177 230.498 253.921 230.033C255.665 229.568 257.024 228.202 257.485 226.458C257.942 224.733 257.453 222.895 256.201 221.627C256.19 221.617 256.179 221.607 256.169 221.597ZM263.535 215.961L265.745 213.744L267.383 215.388L265.173 217.605L263.535 215.961Z" fill="black"/>
<rect x="192.625" y="322.752" width="117.642" height="38.4375" rx="4.6875" fill="url(#paint2_linear_1206_47463)"/>
<path fill-rule="evenodd" clip-rule="evenodd" d="M295.604 335.43C294.428 334.772 293.073 334.397 291.63 334.397C287.127 334.397 283.477 338.048 283.477 342.551C283.477 347.054 287.127 350.704 291.63 350.704C296.133 350.704 299.784 347.054 299.784 342.551C299.784 340.836 299.255 339.245 298.351 337.933L291.63 342.551L295.604 335.43Z" fill="#0D0D0D"/>
<path d="M210.929 344.165L211.031 341.917L209.134 343.137L208.554 342.125L210.567 341.097L208.554 340.069L209.134 339.056L211.031 340.276L210.929 338.028H212.085L211.984 340.276L213.88 339.056L214.461 340.069L212.448 341.097L214.461 342.125L213.88 343.137L211.984 341.917L212.085 344.165H210.929ZM218.752 344.165L218.853 341.917L216.957 343.137L216.376 342.125L218.39 341.097L216.376 340.069L216.957 339.056L218.853 340.276L218.752 338.028H219.908L219.806 340.276L221.703 339.056L222.283 340.069L220.27 341.097L222.283 342.125L221.703 343.137L219.806 341.917L219.908 344.165H218.752ZM226.574 344.165L226.675 341.917L224.779 343.137L224.198 342.125L226.212 341.097L224.198 340.069L224.779 339.056L226.675 340.276L226.574 338.028H227.73L227.629 340.276L229.525 339.056L230.106 340.069L228.092 341.097L230.106 342.125L229.525 343.137L227.629 341.917L227.73 344.165H226.574ZM234.396 344.165L234.497 341.917L232.601 343.137L232.021 342.125L234.034 341.097L232.021 340.069L232.601 339.056L234.497 340.276L234.396 338.028H235.552L235.451 340.276L237.347 339.056L237.928 340.069L235.914 341.097L237.928 342.125L237.347 343.137L235.451 341.917L235.552 344.165H234.396ZM242.219 344.165L242.32 341.917L240.423 343.137L239.843 342.125L241.856 341.097L239.843 340.069L240.423 339.056L242.32 340.276L242.219 338.028H243.374L243.273 340.276L245.17 339.056L245.75 340.069L243.737 341.097L245.75 342.125L245.17 343.137L243.273 341.917L243.374 344.165H242.219ZM250.041 344.165L250.142 341.917L248.246 343.137L247.665 342.125L249.679 341.097L247.665 340.069L248.246 339.056L250.142 340.276L250.041 338.028H251.197L251.095 340.276L252.992 339.056L253.572 340.069L251.559 341.097L253.572 342.125L252.992 343.137L251.095 341.917L251.197 344.165H250.041Z" fill="black"/>
<path d="M154.188 276.813C154.188 274.741 155.866 273.062 157.938 273.062H216.062C218.134 273.062 219.812 274.741 219.812 276.812V307.75C219.812 309.821 218.134 311.5 216.062 311.5H157.937C155.866 311.5 154.188 309.821 154.188 307.75V276.813Z" fill="url(#paint3_linear_1206_47463)"/>
<mask id="path-29-inside-1_1206_47463" fill="white">
<path fill-rule="evenodd" clip-rule="evenodd" d="M190.242 291.045C191.735 290.307 192.762 288.76 192.762 286.971C192.762 284.466 190.748 282.436 188.262 282.436C185.777 282.436 183.762 284.466 183.762 286.971C183.762 288.76 184.79 290.307 186.282 291.045L183.762 299.755H192.762L190.242 291.045Z"/>
</mask>
<path fill-rule="evenodd" clip-rule="evenodd" d="M190.242 291.045C191.735 290.307 192.762 288.76 192.762 286.971C192.762 284.466 190.748 282.436 188.262 282.436C185.777 282.436 183.762 284.466 183.762 286.971C183.762 288.76 184.79 290.307 186.282 291.045L183.762 299.755H192.762L190.242 291.045Z" fill="white"/>
<path d="M190.242 291.045L190.051 290.658L189.727 290.819L189.827 291.165L190.242 291.045ZM186.282 291.045L186.697 291.165L186.798 290.819L186.474 290.658L186.282 291.045ZM183.762 299.755L183.348 299.635L183.188 300.186H183.762V299.755ZM192.762 299.755V300.186H193.336L193.177 299.635L192.762 299.755ZM192.331 286.971C192.331 288.591 191.401 289.991 190.051 290.658L190.433 291.432C192.069 290.624 193.194 288.929 193.194 286.971H192.331ZM188.262 282.867C190.506 282.867 192.331 284.701 192.331 286.971H193.194C193.194 284.231 190.989 282.004 188.262 282.004V282.867ZM184.194 286.971C184.194 284.701 186.019 282.867 188.262 282.867V282.004C185.535 282.004 183.331 284.231 183.331 286.971H184.194ZM186.474 290.658C185.124 289.991 184.194 288.591 184.194 286.971H183.331C183.331 288.929 184.456 290.623 186.091 291.432L186.474 290.658ZM184.177 299.875L186.697 291.165L185.868 290.925L183.348 299.635L184.177 299.875ZM192.762 299.323H183.762V300.186H192.762V299.323ZM189.827 291.165L192.348 299.875L193.177 299.635L190.657 290.925L189.827 291.165Z" fill="black" mask="url(#path-29-inside-1_1206_47463)"/>
<path fill-rule="evenodd" clip-rule="evenodd" d="M188.792 291.045C190.285 290.307 191.312 288.76 191.312 286.971C191.312 284.466 189.298 282.436 186.812 282.436C184.327 282.436 182.312 284.466 182.312 286.971C182.312 288.76 183.34 290.307 184.833 291.045L182.312 299.755H191.312L188.792 291.045Z" fill="#0D0D0D"/>
<path d="M136.149 177.209C141.112 172.245 141.112 164.198 136.149 159.234C131.185 154.271 123.138 154.271 118.174 159.234C113.211 164.198 113.211 172.245 118.174 177.209C123.138 182.172 131.185 182.172 136.149 177.209Z" fill="#FF7866"/>
<path d="M133.875 166.332C134.112 166.55 134.14 166.934 133.937 167.189C133.466 167.78 132.925 168.31 132.325 168.768L133.556 170.088C133.773 170.33 133.767 170.715 133.542 170.949C133.491 171.003 133.43 171.046 133.363 171.075C133.295 171.104 133.222 171.119 133.148 171.119C133.074 171.119 133.001 171.104 132.933 171.075C132.866 171.046 132.805 171.003 132.754 170.949L131.331 169.423C130.687 169.788 129.996 170.067 129.279 170.25L129.937 172.187C130.043 172.503 129.892 172.852 129.597 172.967C129.303 173.082 128.978 172.919 128.871 172.603L128.145 170.46C127.55 170.526 126.95 170.529 126.355 170.467L125.63 172.603C125.523 172.919 125.197 173.082 124.903 172.967C124.609 172.852 124.457 172.503 124.564 172.187L125.217 170.268C124.493 170.088 123.797 169.812 123.145 169.448L121.746 170.948C121.694 171.004 121.632 171.047 121.562 171.077C121.493 171.106 121.418 171.121 121.342 171.119C121.266 171.118 121.192 171.101 121.124 171.069C121.055 171.037 120.994 170.991 120.945 170.934C120.842 170.817 120.785 170.667 120.785 170.511C120.785 170.356 120.842 170.205 120.945 170.088L122.147 168.799C121.562 168.358 121.033 167.848 120.57 167.281C120.368 167.024 120.399 166.64 120.638 166.424C120.871 166.213 121.217 166.237 121.422 166.478C122.884 168.27 124.996 169.297 127.216 169.294C129.499 169.294 131.619 168.224 133.075 166.399C133.279 166.143 133.637 166.113 133.875 166.332Z" fill="black"/>
<path fill-rule="evenodd" clip-rule="evenodd" d="M120.438 338.688C118.884 338.688 117.625 339.947 117.625 341.5V342.654H140.63V341.5C140.63 339.947 139.371 338.688 137.818 338.688H120.438ZM148.13 344.242H117.625V366.814C117.625 368.367 118.884 369.626 120.438 369.626H148.13C149.683 369.626 150.942 368.367 150.942 366.814V363.281H142C139.929 363.281 138.25 361.602 138.25 359.531V354.338C138.25 352.267 139.929 350.588 142 350.588H150.942V347.054C150.942 345.501 149.683 344.242 148.13 344.242ZM139.837 354.213C139.837 353.086 140.79 352.173 141.966 352.173H151.193C152.369 352.173 153.322 353.086 153.322 354.213V359.653C153.322 360.779 152.369 361.692 151.193 361.692H141.966C140.79 361.692 139.837 360.779 139.837 359.653V354.213Z" fill="#1F1814"/>
<path d="M59.0576 428.434H63.4584V429.754C63.4584 431.455 62.0792 432.834 60.3778 432.834H59.0576V428.434Z" fill="white"/>
<path d="M63.8985 429.754V428.434H72.7003V432.834H66.9792C65.2778 432.834 63.8985 431.455 63.8985 429.754Z" fill="white"/>
<path d="M63.8985 436.355C63.8985 434.654 65.2778 433.275 66.9792 433.275H68.2994V439.876H63.8985V436.355Z" fill="white"/>
<path d="M78 433C78 426.373 72.6274 421 66 421C59.3726 421 54 426.373 54 433C54 439.627 59.3726 445 66 445C72.6274 445 78 439.627 78 433Z" fill="#FEF153"/>
<g clip-path="url(#clip1_1206_47463)">
<path fill-rule="evenodd" clip-rule="evenodd" d="M71.1086 427.991C71.1067 427.992 71.1045 427.993 71.1019 427.993L69.2419 427.957C69.2329 427.957 69.2308 427.953 69.235 427.945L70.0018 426.454L70.0023 426.453L70.0218 426.411L70.1369 426.189L70.1543 426.155C70.1547 426.154 70.1552 426.154 70.1558 426.153L70.1578 426.149C70.1626 426.14 70.1667 426.14 70.1716 426.149L70.1748 426.156C70.1995 426.201 70.264 426.324 70.3484 426.487C70.3508 426.488 70.3535 426.487 70.3565 426.485C70.5981 426.383 70.8362 426.307 71.0702 426.257C71.309 426.312 71.454 426.448 71.5064 426.668C71.5754 426.958 71.5389 427.299 71.4664 427.582C71.3007 427.609 71.1434 427.654 70.9936 427.717C70.989 427.719 70.9862 427.723 70.9857 427.727C71.0489 427.851 71.095 427.942 71.1123 427.977C71.1124 427.978 71.1125 427.978 71.1125 427.978L71.1137 427.98C71.1175 427.987 71.1155 427.991 71.1086 427.991Z" fill="#827E75"/>
<path d="M68.9265 427.929C68.8685 427.871 68.7809 427.813 68.6649 427.754C67.9671 427.404 67.2238 427.2 66.4356 427.143C66.0139 427.111 65.5915 427.124 65.1698 427.185L64.7632 427.256C64.4478 427.324 64.1407 427.415 63.8418 427.53C63.5492 427.643 63.2676 427.78 62.9956 427.938C62.5263 428.213 62.1025 428.547 61.725 428.938C61.2329 429.446 60.8457 430.024 60.5627 430.671C59.9194 432.161 59.9187 433.849 60.5675 435.341C60.894 434.881 61.2308 434.433 61.5793 433.997C61.4123 433.244 61.433 432.5 61.6408 431.766C62.0887 430.242 63.2828 429.071 64.8288 428.655L65.2767 428.562C65.5404 428.519 65.8054 428.5 66.0712 428.505C66.3852 428.51 66.6965 428.547 67.0043 428.616C67.2797 428.669 67.5171 428.773 67.718 428.927C67.9685 429.12 68.0217 429.374 67.8774 429.689C68.2149 429.433 68.5469 429.184 68.872 428.942C68.9431 428.889 69.0073 428.808 69.0646 428.699C69.1778 428.39 69.1315 428.133 68.9265 427.929ZM66.0408 428.462C66.0408 428.462 66.0408 428.462 66.0401 428.463C66.0401 428.462 66.0401 428.462 66.0408 428.462ZM66.085 428.48C66.085 428.481 66.0843 428.482 66.085 428.483C66.0843 428.482 66.085 428.482 66.085 428.48ZM66.0884 428.487C66.0877 428.487 66.0877 428.487 66.0884 428.487C66.0877 428.486 66.087 428.486 66.0863 428.485C66.087 428.486 66.087 428.486 66.0884 428.487ZM66.0401 428.466C66.0401 428.466 66.0408 428.467 66.0415 428.469C66.0408 428.468 66.0408 428.468 66.0401 428.467C66.0394 428.466 66.0401 428.466 66.0401 428.466ZM66.0415 428.469C66.0429 428.47 66.0436 428.471 66.0456 428.471C66.0442 428.471 66.0429 428.47 66.0415 428.469Z" fill="url(#paint4_linear_1206_47463)"/>
<path d="M72.8199 427.128C72.715 426.718 72.4679 426.437 72.08 426.285C71.7542 426.175 71.4174 426.176 71.0702 426.259C71.3091 426.313 71.454 426.45 71.5064 426.669C71.5755 426.959 71.5389 427.3 71.4664 427.583C71.4077 427.851 71.3166 428.112 71.1924 428.364C70.9564 428.843 70.6927 429.293 70.4014 429.713L70.1488 430.082C69.6422 430.784 69.1011 431.461 68.5262 432.111L68.2025 432.474C67.7897 432.931 67.3646 433.377 66.9263 433.81L65.9158 434.782L65.4375 435.214C65.0082 435.598 64.5699 435.966 64.1241 436.316C63.8162 436.958 64.4988 437.282 64.9923 437.387C65.0379 437.356 65.0696 437.332 65.0876 437.318C65.7198 436.813 66.332 436.285 66.9242 435.733L67.6959 434.997C68.1348 434.565 68.5627 434.125 68.9803 433.675L69.6277 432.954L70.4146 432.017C70.7624 431.581 71.1034 431.13 71.436 430.664L71.4719 430.607L71.5285 430.524C71.826 430.093 72.0952 429.646 72.3368 429.185C72.6494 428.581 72.9676 427.814 72.8199 427.128ZM69.6298 432.916C69.6291 432.916 69.6284 432.915 69.6277 432.914C69.6284 432.914 69.6284 432.914 69.6291 432.915C69.6298 432.916 69.6298 432.916 69.6298 432.916ZM68.9686 432.393C68.9679 432.393 68.9672 432.393 68.9665 432.394C68.9672 432.394 68.9679 432.393 68.9686 432.393ZM68.9644 432.395L68.9637 432.396C68.9644 432.396 68.9644 432.396 68.9644 432.395ZM68.9624 432.4C68.9624 432.401 68.9624 432.401 68.9624 432.402C68.9617 432.401 68.9624 432.401 68.9624 432.4ZM68.667 432.213C68.6656 432.214 68.6649 432.215 68.6642 432.217C68.6656 432.215 68.6663 432.214 68.667 432.213ZM68.6594 432.228C68.6594 432.23 68.6594 432.232 68.6601 432.235C68.6594 432.233 68.6594 432.23 68.6594 432.228V432.228ZM68.5048 432.155C68.5041 432.156 68.5034 432.158 68.502 432.159C68.5027 432.157 68.5041 432.156 68.5048 432.155ZM68.5006 432.162C68.4999 432.163 68.4999 432.165 68.4992 432.166C68.4992 432.165 68.4999 432.163 68.5006 432.162ZM68.4979 432.17C68.4979 432.171 68.4972 432.173 68.4972 432.174C68.4979 432.173 68.4979 432.171 68.4979 432.17ZM68.5055 432.206C68.5061 432.207 68.5068 432.208 68.5075 432.209C68.5075 432.208 68.5068 432.208 68.5068 432.208C68.5061 432.206 68.5055 432.206 68.5055 432.206ZM68.4986 432.187C68.4986 432.189 68.4992 432.19 68.4999 432.192C68.4992 432.191 68.4986 432.189 68.4986 432.187ZM68.9748 432.393C68.9769 432.393 68.9782 432.394 68.9796 432.395C68.9782 432.393 68.9769 432.393 68.9748 432.393ZM71.5306 430.486C71.5313 430.487 71.5327 430.486 71.5334 430.486C71.5327 430.486 71.532 430.486 71.5306 430.486ZM71.5341 430.485L71.5347 430.484C71.5347 430.485 71.5347 430.485 71.5341 430.485Z" fill="url(#paint5_linear_1206_47463)"/>
<path d="M67.7186 428.928C67.5185 428.774 67.2804 428.67 67.005 428.616C66.6454 428.9 66.2941 429.191 65.951 429.49L65.7005 429.708C64.9358 430.387 64.2 431.095 63.4919 431.833C62.8362 432.514 62.2102 433.221 61.6131 433.953C61.5931 433.969 61.5814 433.984 61.5793 433.998C61.2308 434.433 60.8939 434.881 60.5675 435.341L60.3073 435.731C60.1368 435.99 59.9794 436.249 59.8345 436.508C59.5722 436.971 59.3334 437.486 59.2071 438.003C58.9593 438.981 59.4286 439.833 60.5281 439.805C60.6524 439.798 60.7911 439.777 60.9443 439.744C60.7504 439.708 60.6179 439.614 60.5454 439.463C60.406 439.17 60.4557 438.725 60.5385 438.423C60.6123 438.034 60.7911 437.66 60.9685 437.321C61.464 436.427 62.0804 435.576 62.7216 434.786C63.1481 434.261 63.5919 433.751 64.0523 433.255L64.4989 432.78L65.3975 431.876C65.8544 431.431 66.3244 430.998 66.8076 430.576L66.8455 430.544C67.1893 430.245 67.5337 429.96 67.8774 429.689C68.0216 429.374 67.9685 429.12 67.7186 428.928ZM60.9492 437.292C60.9471 437.293 60.9457 437.294 60.945 437.295C60.9464 437.294 60.9478 437.293 60.9492 437.292ZM60.9623 437.252C60.9623 437.251 60.9616 437.25 60.9609 437.249C60.9609 437.25 60.9616 437.251 60.9623 437.252ZM60.9588 437.249C60.9581 437.249 60.9581 437.248 60.9574 437.249C60.9581 437.248 60.9588 437.249 60.9588 437.249ZM59.849 436.539C59.8483 436.54 59.8476 436.54 59.8476 436.542C59.8476 436.541 59.8476 436.541 59.8483 436.54C59.8483 436.54 59.849 436.539 59.849 436.539ZM59.8462 436.558C59.8462 436.559 59.8469 436.559 59.8476 436.56C59.8469 436.559 59.8469 436.559 59.8462 436.558ZM59.8455 436.554C59.8455 436.555 59.8455 436.556 59.8455 436.557C59.8455 436.557 59.8455 436.555 59.8455 436.554ZM59.8483 436.561C59.8497 436.562 59.851 436.563 59.8531 436.563H59.8524C59.8504 436.563 59.849 436.561 59.8483 436.561ZM60.9478 437.31L60.9485 437.311C60.9485 437.311 60.9485 437.31 60.9478 437.31ZM61.8485 434.091C61.8478 434.089 61.8464 434.088 61.8457 434.087C61.8464 434.089 61.8471 434.089 61.8485 434.091ZM61.8519 434.1C61.8519 434.098 61.8513 434.096 61.8506 434.095C61.8513 434.096 61.8513 434.098 61.8519 434.1ZM61.6262 433.953C61.6269 433.953 61.6269 433.954 61.6269 433.954C61.6262 433.953 61.6256 433.953 61.6242 433.953C61.6249 433.953 61.6256 433.953 61.6262 433.953ZM61.8312 434.081C61.8319 434.081 61.8326 434.081 61.834 434.081C61.8319 434.081 61.8292 434.081 61.8271 434.081C61.8278 434.08 61.8292 434.08 61.8312 434.081ZM61.8416 434.085C61.8402 434.084 61.8388 434.083 61.8374 434.083C61.8395 434.083 61.8409 434.084 61.8416 434.085ZM63.9053 432.159C63.9046 432.159 63.9032 432.158 63.9025 432.158C63.9032 432.158 63.9039 432.158 63.9053 432.159ZM63.9018 432.158C63.9005 432.158 63.8991 432.158 63.8977 432.159C63.8991 432.158 63.9005 432.158 63.9018 432.158ZM63.8942 432.162C63.8936 432.163 63.8929 432.165 63.8929 432.166C63.8929 432.164 63.8936 432.163 63.8942 432.162ZM64.4823 432.766V432.767C64.4823 432.767 64.4823 432.767 64.4823 432.766ZM64.483 432.768C64.483 432.768 64.4837 432.769 64.4844 432.769C64.4837 432.768 64.483 432.768 64.483 432.768Z" fill="url(#paint6_linear_1206_47463)"/>
<path d="M71.4361 430.662C71.1027 431.128 70.7624 431.58 70.4146 432.016C70.4235 432.017 70.4291 432.023 70.4318 432.034C70.5609 432.641 70.5685 433.248 70.4539 433.856C70.3752 434.252 70.2475 434.628 70.0708 434.987C69.8665 435.396 69.6063 435.766 69.2895 436.098L68.9437 436.423C68.6532 436.669 68.335 436.878 67.9885 437.046C67.2327 437.407 66.4335 437.552 65.5907 437.481C65.3885 437.462 65.1897 437.43 64.993 437.386C64.4995 437.281 63.8169 436.956 64.1248 436.315C63.828 436.54 63.536 436.76 63.2468 436.976C63.1385 437.056 63.0646 437.12 63.0267 437.167C62.8051 437.433 62.841 437.842 63.0763 438.077C63.1309 438.131 63.2116 438.186 63.3193 438.24C64.2966 438.729 65.3381 438.936 66.4438 438.861C67.0374 438.815 67.6103 438.686 68.1638 438.473C68.3805 438.389 68.5897 438.293 68.7926 438.186C69.1439 438 69.4717 437.781 69.7768 437.53L70.1758 437.171C70.4415 436.909 70.6796 436.626 70.8901 436.322C71.142 435.957 71.3491 435.57 71.512 435.161C71.6756 434.745 71.7915 434.316 71.8592 433.874C72.0193 432.765 71.8785 431.695 71.4361 430.662ZM68.0582 437.061C68.0575 437.06 68.0568 437.059 68.0561 437.058C68.0568 437.059 68.0575 437.06 68.0582 437.061ZM68.0548 437.056C68.0541 437.056 68.0534 437.056 68.0527 437.055C68.0534 437.056 68.0541 437.056 68.0548 437.056ZM68.0506 437.054C68.0499 437.054 68.0492 437.054 68.0486 437.054C68.0492 437.054 68.0499 437.054 68.0506 437.054ZM68.003 437.058L68.0037 437.057C68.003 437.058 68.003 437.058 68.003 437.058ZM68.0044 437.055C68.0044 437.054 68.0044 437.054 68.0044 437.052C68.0044 437.053 68.0051 437.053 68.0051 437.054C68.0044 437.054 68.0044 437.054 68.0044 437.055ZM68.0037 437.052C68.003 437.05 68.0023 437.05 68.0009 437.05C68.0016 437.05 68.0023 437.05 68.0037 437.052ZM68.0451 437.054C68.0437 437.054 68.0417 437.054 68.0403 437.055C68.0417 437.054 68.043 437.054 68.0451 437.054ZM69.9356 436.797C69.9356 436.796 69.9363 436.795 69.9363 436.794C69.9363 436.795 69.9363 436.795 69.9356 436.797ZM69.9369 436.789C69.9369 436.789 69.9369 436.787 69.9369 436.787C69.9369 436.787 69.9369 436.788 69.9369 436.789ZM69.9356 436.782C69.9349 436.781 69.9342 436.78 69.9335 436.778C69.9335 436.779 69.9342 436.779 69.9349 436.78C69.9349 436.78 69.9349 436.781 69.9356 436.782ZM69.9314 436.776C69.93 436.775 69.9294 436.774 69.928 436.773C69.9294 436.774 69.9307 436.775 69.9314 436.776ZM69.9259 436.771C69.9245 436.771 69.9231 436.77 69.9211 436.769C69.9224 436.77 69.9245 436.771 69.9259 436.771ZM69.919 436.769C69.9162 436.769 69.9142 436.769 69.9114 436.769C69.9135 436.769 69.9162 436.769 69.919 436.769ZM69.371 436.044C69.3703 436.044 69.3689 436.043 69.3668 436.043C69.3689 436.042 69.3703 436.043 69.371 436.044ZM70.5015 433.778C70.5008 433.778 70.5001 433.778 70.5001 433.777C70.5008 433.777 70.5015 433.778 70.5015 433.778Z" fill="url(#paint7_linear_1206_47463)"/>
<path fill-rule="evenodd" clip-rule="evenodd" d="M61.9217 438.031L62.761 438.048C62.7693 438.048 62.772 438.052 62.7679 438.059L62.3448 438.883L62.3241 438.928L61.8465 439.851C61.8437 439.856 61.8382 439.858 61.8334 439.855C61.832 439.855 61.8299 439.853 61.8292 439.851L61.6601 439.521C61.6562 439.517 61.6511 439.517 61.6451 439.519C61.409 439.617 61.1757 439.692 60.9452 439.745C60.7512 439.708 60.6187 439.614 60.5463 439.463C60.4068 439.17 60.4565 438.726 60.5394 438.424C60.7036 438.389 60.8617 438.345 61.0135 438.289C61.0204 438.287 61.0204 438.278 61.0135 438.263C61.014 438.263 61.0145 438.263 61.015 438.263L60.8926 438.024C60.8878 438.015 60.8906 438.011 60.9009 438.011L61.9217 438.031Z" fill="#827E75"/>
</g>
</g>
<defs>
<filter id="filter0_f_1206_47463" x="-139" y="-93" width="389" height="389" filterUnits="userSpaceOnUse" color-interpolation-filters="sRGB">
<feFlood flood-opacity="0" result="BackgroundImageFix"/>
<feBlend mode="normal" in="SourceGraphic" in2="BackgroundImageFix" result="shape"/>
<feGaussianBlur stdDeviation="70" result="effect1_foregroundBlur_1206_47463"/>
</filter>
<filter id="filter1_f_1206_47463" x="78" y="-47" width="482" height="482" filterUnits="userSpaceOnUse" color-interpolation-filters="sRGB">
<feFlood flood-opacity="0" result="BackgroundImageFix"/>
<feBlend mode="normal" in="SourceGraphic" in2="BackgroundImageFix" result="shape"/>
<feGaussianBlur stdDeviation="70" result="effect1_foregroundBlur_1206_47463"/>
</filter>
<filter id="filter2_f_1206_47463" x="-162" y="124" width="463" height="463" filterUnits="userSpaceOnUse" color-interpolation-filters="sRGB">
<feFlood flood-opacity="0" result="BackgroundImageFix"/>
<feBlend mode="normal" in="SourceGraphic" in2="BackgroundImageFix" result="shape"/>
<feGaussianBlur stdDeviation="70" result="effect1_foregroundBlur_1206_47463"/>
</filter>
<linearGradient id="paint0_linear_1206_47463" x1="8.50001" y1="54" x2="423.5" y2="559" gradientUnits="userSpaceOnUse">
<stop stop-color="#FFFFFE"/>
<stop offset="0.113086" stop-color="#FFF475" stop-opacity="0.886914"/>
<stop offset="0.360792" stop-color="#5DFF80" stop-opacity="0.9"/>
<stop offset="0.698325" stop-color="#8AFDEF" stop-opacity="0.424755"/>
<stop offset="1" stop-color="#FEF153" stop-opacity="0"/>
</linearGradient>
<linearGradient id="paint1_linear_1206_47463" x1="187.226" y1="234.623" x2="187.226" y2="274.052" gradientUnits="userSpaceOnUse">
<stop stop-color="#D2D2D2"/>
<stop offset="1" stop-color="#E9EAD8"/>
</linearGradient>
<linearGradient id="paint2_linear_1206_47463" x1="310.021" y1="361.411" x2="193.005" y2="333.252" gradientUnits="userSpaceOnUse">
<stop stop-color="#F4FF9F"/>
<stop offset="0.359441" stop-color="#FFF8B5"/>
<stop offset="0.744729" stop-color="#FFFDC7"/>
<stop offset="1" stop-color="#FFFF86"/>
</linearGradient>
<linearGradient id="paint3_linear_1206_47463" x1="219.374" y1="311.77" x2="154.626" y2="272.921" gradientUnits="userSpaceOnUse">
<stop stop-color="#EEF24F"/>
<stop offset="1" stop-color="#61FF82"/>
</linearGradient>
<linearGradient id="paint4_linear_1206_47463" x1="67.8702" y1="427.701" x2="60.7014" y2="434.558" gradientUnits="userSpaceOnUse">
<stop stop-color="#1A130F"/>
<stop offset="1" stop-color="#605B50"/>
</linearGradient>
<linearGradient id="paint5_linear_1206_47463" x1="72.4593" y1="426.531" x2="64.6676" y2="436.501" gradientUnits="userSpaceOnUse">
<stop stop-color="#1A130F"/>
<stop offset="1" stop-color="#605B50"/>
</linearGradient>
<linearGradient id="paint6_linear_1206_47463" x1="67.5585" y1="428.948" x2="59.7663" y2="438.922" gradientUnits="userSpaceOnUse">
<stop stop-color="#605B50"/>
<stop offset="1" stop-color="#1A130F"/>
</linearGradient>
<linearGradient id="paint7_linear_1206_47463" x1="71.5146" y1="430.906" x2="66.4937" y2="439.89" gradientUnits="userSpaceOnUse">
<stop stop-color="#605B50"/>
<stop offset="1" stop-color="#1A130F"/>
</linearGradient>
<clipPath id="clip0_1206_47463">
<rect width="375" height="590" fill="white"/>
</clipPath>
<clipPath id="clip1_1206_47463">
<rect width="13.7143" height="13.7143" fill="white" transform="translate(59.1429 426.143)"/>
</clipPath>
</defs>
</svg>
