<svg width="207" height="45" viewBox="0 0 207 45" fill="none" xmlns="http://www.w3.org/2000/svg">
<g clip-path="url(#clip0_5296_19835)">
<path d="M9.4834 13.938H17.7351V16.4135C17.7351 19.6036 15.149 22.1897 11.9589 22.1897H9.4834V13.938Z" fill="white"/>
<path d="M18.5602 16.4135V13.938H35.0636V22.1897H24.3364C21.1463 22.1897 18.5602 19.6036 18.5602 16.4135Z" fill="white"/>
<path d="M18.5602 28.791C18.5602 25.6009 21.1463 23.0149 24.3364 23.0149H26.8119V35.3924H18.5602V28.791Z" fill="white"/>
<path d="M45 22.5C45 10.0736 34.9264 0 22.5 0C10.0736 0 0 10.0736 0 22.5C0 34.9264 10.0736 45 22.5 45C34.9264 45 45 34.9264 45 22.5Z" fill="#FEF153"/>
<g clip-path="url(#clip1_5296_19835)">
<path fill-rule="evenodd" clip-rule="evenodd" d="M30.0405 10.1451L30.0029 10.226L30.0031 10.2261L28.5654 13.0211C28.5576 13.0365 28.5615 13.0442 28.5783 13.0442L32.066 13.1123C32.0709 13.1123 32.0752 13.1107 32.0787 13.1082C32.0912 13.1071 32.0948 13.1007 32.0878 13.0878L32.0862 13.0847C32.0859 13.084 32.0857 13.0834 32.0854 13.0827C32.0529 13.0162 31.9664 12.845 31.8478 12.6123C31.8488 12.6043 31.854 12.5969 31.8626 12.5935C32.1434 12.4767 32.4385 12.3919 32.7491 12.3406C32.8849 11.8103 32.9535 11.1709 32.8241 10.6278C32.7258 10.2157 32.454 9.9589 32.0062 9.85747C31.5675 9.94991 31.1211 10.0924 30.6681 10.285C30.6624 10.2881 30.6574 10.2888 30.6529 10.2874C30.4936 9.9802 30.3722 9.74801 30.3267 9.66494C30.3266 9.66479 30.3265 9.66463 30.3264 9.66448L30.3213 9.65461C30.3122 9.63792 30.3045 9.63792 30.2954 9.65461L30.2909 9.66332C30.2902 9.66422 30.2897 9.66519 30.2891 9.66622L30.276 9.69194L30.0405 10.1451Z" fill="#827E75"/>
<path d="M27.9866 12.9929C27.8779 12.8837 27.7135 12.7746 27.4961 12.6655C26.1877 12.0081 24.794 11.6268 23.3161 11.5189C22.5253 11.4586 21.7333 11.4843 20.9426 11.5985L20.1804 11.7308C19.589 11.8579 19.0131 12.0287 18.4527 12.2444C17.904 12.4575 17.376 12.713 16.8661 13.0096C15.9861 13.5257 15.1915 14.151 14.4836 14.8841C13.5609 15.838 12.8349 16.9217 12.3043 18.135C11.0982 20.9275 11.0969 24.0923 12.3134 26.89C12.9255 26.0272 13.5571 25.1875 14.2106 24.371C13.8974 22.9586 13.9362 21.5643 14.3258 20.188C15.1657 17.33 17.4045 15.1345 20.3033 14.3551L21.1432 14.1792C21.6376 14.0996 22.1345 14.0637 22.6328 14.0727C23.2216 14.0816 23.8052 14.151 24.3824 14.2806C24.8988 14.3808 25.344 14.5759 25.7205 14.8648C26.1903 15.2256 26.29 15.7019 26.0195 16.2925C26.6523 15.8136 27.2748 15.3463 27.8843 14.8931C28.0176 14.7929 28.138 14.6414 28.2454 14.436C28.4576 13.857 28.3709 13.3755 27.9866 12.9929ZM22.5758 13.9918C22.5758 13.9931 22.5758 13.9931 22.5745 13.9943C22.5745 13.9931 22.5745 13.9931 22.5758 13.9918ZM22.6586 14.0264C22.6586 14.0277 22.6573 14.0303 22.6586 14.0316C22.6573 14.0303 22.6586 14.029 22.6586 14.0264ZM22.6651 14.0393C22.6638 14.0393 22.6638 14.0393 22.6651 14.0393C22.6638 14.038 22.6625 14.0367 22.6612 14.0354C22.6625 14.0367 22.6625 14.038 22.6651 14.0393ZM22.5745 13.9995C22.5745 14.0008 22.5758 14.002 22.5771 14.0046C22.5758 14.0033 22.5758 14.0033 22.5745 14.002C22.5732 13.9995 22.5745 13.9995 22.5745 13.9995ZM22.5771 14.0059C22.5797 14.0072 22.581 14.0085 22.5849 14.0085C22.5823 14.0085 22.5797 14.0072 22.5771 14.0059Z" fill="url(#paint0_linear_5296_19835)"/>
<path d="M35.2878 11.4892C35.0911 10.7214 34.6278 10.195 33.9005 9.90996C33.2897 9.70325 32.6582 9.70454 32.0072 9.85989C32.455 9.96132 32.7268 10.2181 32.8251 10.6302C32.9545 11.1733 32.8859 11.8127 32.75 12.343C32.64 12.845 32.4692 13.3342 32.2363 13.8079C31.7937 14.7054 31.2993 15.5489 30.7532 16.3373L30.2796 17.028C29.3297 18.3453 28.3151 19.6138 27.2371 20.8322L26.6301 21.514C25.8562 22.3704 25.0591 23.2062 24.2373 24.0189L22.3427 25.8408L21.4459 26.651C20.6409 27.3712 19.8191 28.0607 18.9831 28.7181C18.406 29.9211 19.6858 30.5297 20.6111 30.7261C20.6966 30.667 20.7561 30.6234 20.7897 30.5964C21.9752 29.6489 23.123 28.659 24.2334 27.6242L25.6802 26.2452C26.5033 25.4351 27.3057 24.6095 28.0886 23.766L29.3025 22.414L30.7778 20.6576C31.43 19.8398 32.0693 18.9937 32.6931 18.1193L32.7604 18.014L32.8665 17.8574C33.4243 17.0485 33.929 16.2114 34.3819 15.3461C34.9682 14.2137 35.5648 12.777 35.2878 11.4892ZM29.3064 22.3434C29.3051 22.3421 29.3038 22.3408 29.3025 22.3396C29.3038 22.3396 29.3038 22.3396 29.3051 22.3408C29.3064 22.3421 29.3064 22.3434 29.3064 22.3434ZM28.0666 21.3612C28.0653 21.3612 28.064 21.3625 28.0627 21.3638C28.064 21.3638 28.0653 21.3625 28.0666 21.3612ZM28.0588 21.3664L28.0575 21.3676C28.0588 21.3676 28.0588 21.3676 28.0588 21.3664ZM28.055 21.3753C28.055 21.3766 28.055 21.3766 28.055 21.3779C28.0537 21.3766 28.055 21.3766 28.055 21.3753ZM27.5011 21.0248C27.4985 21.0261 27.4972 21.0287 27.4959 21.0313C27.4985 21.0287 27.4998 21.0261 27.5011 21.0248ZM27.4868 21.0518C27.4868 21.0569 27.4868 21.0608 27.4881 21.0659C27.4868 21.0621 27.4868 21.0569 27.4868 21.0531V21.0518ZM27.197 20.9157C27.1957 20.9183 27.1944 20.9208 27.1918 20.9234C27.1931 20.9196 27.1957 20.917 27.197 20.9157ZM27.1892 20.9285C27.1879 20.9311 27.1879 20.9337 27.1866 20.9362C27.1866 20.9337 27.1879 20.9311 27.1892 20.9285ZM27.184 20.9439C27.184 20.9465 27.1827 20.9491 27.1827 20.9516C27.184 20.9491 27.184 20.9465 27.184 20.9439ZM27.1982 21.0107C27.1995 21.0133 27.2008 21.0146 27.2021 21.0171C27.2021 21.0158 27.2008 21.0158 27.2008 21.0146C27.1995 21.012 27.1982 21.0107 27.1982 21.0107ZM27.1853 20.976C27.1853 20.9786 27.1866 20.9812 27.1879 20.985C27.1866 20.9825 27.1853 20.9799 27.1853 20.976ZM28.0783 21.3612C28.0821 21.3625 28.0847 21.3638 28.0873 21.3651C28.0847 21.3625 28.0821 21.3612 28.0783 21.3612ZM32.8704 17.7868C32.8717 17.7881 32.8743 17.7868 32.8756 17.7868C32.8743 17.7868 32.873 17.7868 32.8704 17.7868ZM32.8769 17.7842L32.8782 17.7829C32.8782 17.7842 32.8782 17.7842 32.8769 17.7842Z" fill="url(#paint1_linear_5296_19835)"/>
<path d="M25.723 14.8649C25.3477 14.5761 24.9012 14.3809 24.3849 14.2808C23.7106 14.8123 23.0519 15.3593 22.4087 15.919L21.939 16.3286C20.5051 17.601 19.1255 18.9285 17.7978 20.3113C16.5683 21.5888 15.3946 22.9138 14.2752 24.2863C14.2376 24.3171 14.2156 24.3454 14.2117 24.3711C13.5582 25.1876 12.9267 26.0273 12.3146 26.8901L11.8267 27.6207C11.507 28.1073 11.212 28.5926 10.9402 29.0779C10.4484 29.9458 10.0007 30.9113 9.76383 31.8807C9.29924 33.7141 10.1792 35.3126 12.2408 35.26C12.4737 35.2458 12.7338 35.2073 13.0211 35.1457C12.6575 35.0777 12.409 34.9018 12.2731 34.618C12.0117 34.0685 12.1049 33.2352 12.2602 32.669C12.3987 31.9385 12.7338 31.2387 13.0664 30.6019C13.9956 28.9251 15.1513 27.3305 16.3535 25.8489C17.1533 24.8641 17.9854 23.9076 18.8486 22.9793L19.6859 22.0883L21.3708 20.3935C22.2276 19.5589 23.1089 18.7462 24.0147 17.9553L24.0859 17.895C24.7304 17.3339 25.3762 16.7998 26.0206 16.2914C26.2911 15.7008 26.1915 15.2257 25.723 14.8649ZM13.0302 30.548C13.0263 30.5493 13.0237 30.5518 13.0224 30.5544C13.025 30.5518 13.0276 30.5493 13.0302 30.548ZM13.0548 30.4722C13.0548 30.471 13.0535 30.4684 13.0522 30.4671C13.0522 30.4684 13.0535 30.471 13.0548 30.4722ZM13.0483 30.4671C13.047 30.4671 13.047 30.4658 13.0457 30.4671C13.047 30.4658 13.0483 30.4671 13.0483 30.4671ZM10.9674 29.1357C10.9661 29.137 10.9648 29.1382 10.9648 29.1408C10.9648 29.1395 10.9648 29.1395 10.9661 29.1382C10.9661 29.137 10.9674 29.1357 10.9674 29.1357ZM10.9622 29.1716C10.9622 29.1729 10.9635 29.1742 10.9648 29.1755C10.9635 29.1742 10.9635 29.1729 10.9622 29.1716ZM10.9609 29.1639C10.9609 29.1665 10.9609 29.1678 10.9609 29.1703C10.9609 29.1691 10.9609 29.1665 10.9609 29.1639ZM10.9661 29.1768C10.9687 29.1793 10.9712 29.1806 10.9751 29.1806H10.9738C10.97 29.1806 10.9674 29.1781 10.9661 29.1768ZM13.0276 30.5814L13.0289 30.5827C13.0289 30.5827 13.0289 30.5814 13.0276 30.5814ZM14.7164 24.5457C14.7152 24.5431 14.7126 24.5405 14.7113 24.5393C14.7126 24.5418 14.7139 24.5431 14.7164 24.5457ZM14.7229 24.5624C14.7229 24.5598 14.7216 24.5559 14.7203 24.5534C14.7216 24.5559 14.7216 24.5585 14.7229 24.5624ZM14.2997 24.2876C14.301 24.2876 14.301 24.2889 14.301 24.2889C14.2997 24.2876 14.2984 24.2863 14.2959 24.2863C14.2972 24.2876 14.2984 24.2876 14.2997 24.2876ZM14.6841 24.5264C14.6854 24.5264 14.6867 24.5277 14.6893 24.5277C14.6854 24.5264 14.6802 24.5264 14.6763 24.5264C14.6776 24.5251 14.6802 24.5251 14.6841 24.5264ZM14.7035 24.5341C14.7009 24.5328 14.6983 24.5316 14.6957 24.5303C14.6996 24.5316 14.7022 24.5328 14.7035 24.5341ZM18.5729 20.9237C18.5717 20.9237 18.5691 20.9225 18.5678 20.9225C18.5691 20.9225 18.5704 20.9225 18.5729 20.9237ZM18.5665 20.9225C18.5639 20.9225 18.5613 20.9225 18.5587 20.9237C18.5613 20.9225 18.5639 20.9212 18.5665 20.9225ZM18.5522 20.9289C18.5509 20.9315 18.5497 20.934 18.5497 20.9366C18.5497 20.9327 18.5509 20.9315 18.5522 20.9289ZM19.6548 22.0613V22.0626C19.6548 22.0626 19.6548 22.0626 19.6548 22.0613ZM19.6561 22.0652C19.6561 22.0652 19.6574 22.0664 19.6587 22.0664C19.6574 22.0652 19.6561 22.0652 19.6561 22.0652Z" fill="url(#paint2_linear_5296_19835)"/>
<path d="M32.6926 18.1168C32.0675 18.9912 31.4295 19.8373 30.7773 20.6551C30.7941 20.6577 30.8045 20.668 30.8096 20.6898C31.0516 21.8273 31.0659 22.9662 30.851 24.1063C30.7035 24.8471 30.4641 25.5533 30.1328 26.226C29.7497 26.9925 29.2619 27.6871 28.6678 28.3086L28.0195 28.9184C27.4747 29.3806 26.8781 29.7709 26.2284 30.0868C24.8114 30.7634 23.3128 31.0356 21.7326 30.9021C21.3534 30.8661 20.9807 30.8071 20.6119 30.7236C19.6866 30.5272 18.4067 29.9173 18.9839 28.7156C18.4274 29.138 17.88 29.5501 17.3378 29.9545C17.1346 30.106 16.9961 30.2254 16.9249 30.3127C16.5095 30.8122 16.5768 31.5787 17.0181 32.0191C17.1204 32.1218 17.2718 32.2232 17.4737 32.3246C19.3061 33.2426 21.259 33.6304 23.3322 33.4892C24.4451 33.4044 25.5192 33.1618 26.5571 32.7625C26.9635 32.6045 27.3556 32.4248 27.7361 32.2232C28.3948 31.8753 29.0095 31.4644 29.5815 30.9945L30.3295 30.3217C30.8277 29.83 31.2742 29.2985 31.6689 28.7284C32.1413 28.0453 32.5295 27.3199 32.8349 26.5522C33.1416 25.7715 33.3591 24.9678 33.4859 24.1397C33.7861 22.0597 33.5221 20.053 32.6926 18.1168ZM26.3591 30.115C26.3578 30.1137 26.3565 30.1112 26.3552 30.1099C26.3565 30.1112 26.3578 30.1125 26.3591 30.115ZM26.3527 30.106C26.3514 30.1048 26.3501 30.1048 26.3488 30.1035C26.3501 30.1048 26.3514 30.106 26.3527 30.106ZM26.3449 30.1022C26.3436 30.1022 26.3423 30.1022 26.341 30.1022C26.3423 30.1009 26.3436 30.1009 26.3449 30.1022ZM26.2556 30.1086L26.2569 30.1073C26.2556 30.1086 26.2556 30.1086 26.2556 30.1086ZM26.2582 30.1035C26.2582 30.1022 26.2582 30.1009 26.2582 30.0983C26.2582 30.0996 26.2595 30.0996 26.2595 30.1009C26.2582 30.1022 26.2582 30.1022 26.2582 30.1035ZM26.2569 30.097C26.2556 30.0945 26.2543 30.0932 26.2517 30.0932C26.253 30.0932 26.2543 30.0945 26.2569 30.097ZM26.3345 30.1009C26.3319 30.1009 26.3281 30.1022 26.3255 30.1035C26.3281 30.1009 26.3307 30.1009 26.3345 30.1009ZM29.8791 29.6194C29.8791 29.6181 29.8804 29.6156 29.8804 29.6143C29.8804 29.6156 29.8804 29.6169 29.8791 29.6194ZM29.8817 29.6053C29.8817 29.604 29.8817 29.6015 29.8817 29.6002C29.8817 29.6015 29.8817 29.6027 29.8817 29.6053ZM29.8791 29.5925C29.8779 29.5899 29.8766 29.5873 29.8753 29.5848C29.8753 29.5861 29.8766 29.5861 29.8779 29.5873C29.8779 29.5886 29.8779 29.5899 29.8791 29.5925ZM29.8714 29.5809C29.8688 29.5783 29.8675 29.5771 29.8649 29.5745C29.8675 29.5758 29.8701 29.5783 29.8714 29.5809ZM29.861 29.5719C29.8584 29.5706 29.8559 29.5694 29.852 29.5681C29.8546 29.5694 29.8584 29.5706 29.861 29.5719ZM29.8481 29.5668C29.8429 29.5668 29.839 29.5668 29.8339 29.5668C29.8377 29.5668 29.8429 29.5668 29.8481 29.5668ZM28.8206 28.2084C28.8193 28.2071 28.8167 28.2058 28.8128 28.2058C28.8167 28.2046 28.8193 28.2058 28.8206 28.2084ZM30.9403 23.9599C30.939 23.9586 30.9377 23.9586 30.9377 23.9574C30.939 23.9574 30.9403 23.9586 30.9403 23.9599Z" fill="url(#paint3_linear_5296_19835)"/>
<path fill-rule="evenodd" clip-rule="evenodd" d="M14.851 31.9345L16.4246 31.9653C16.4402 31.9653 16.4453 31.973 16.4376 31.9872L15.6443 33.5317L15.6054 33.6152L14.7099 35.3472C14.7047 35.3562 14.6944 35.3587 14.6853 35.3549C14.6827 35.3536 14.6789 35.351 14.6776 35.3472L14.3594 34.7264C14.3523 34.7202 14.3434 34.7195 14.333 34.7242C13.8905 34.9078 13.453 35.049 13.0208 35.1466C12.6572 35.0785 12.4087 34.9026 12.2728 34.6189C12.0114 34.0694 12.1046 33.2361 12.2599 32.6699C12.5679 32.6057 12.8642 32.5222 13.1489 32.4182C13.1619 32.4144 13.1619 32.3977 13.1489 32.3695C13.1496 32.3691 13.1503 32.3687 13.151 32.3684L12.9214 31.9204C12.9124 31.9037 12.9175 31.896 12.937 31.896L14.851 31.9345Z" fill="#827E75"/>
</g>
<rect width="45" height="45" rx="22.5" fill="#FEF153"/>
<g clip-path="url(#clip2_5296_19835)">
<path d="M20.5268 13.3875C15.321 13.3875 11.1001 17.6305 11.1001 22.8649C11.1001 26.9251 13.64 30.3885 17.2091 31.7377C19.2941 30.5931 21.4859 29.1805 23.6614 27.5725C22.4167 29.02 20.5076 30.6075 18.1856 32.0472C18.934 32.2397 19.7184 32.3423 20.5268 32.3423C25.7326 32.3423 29.9535 28.0993 29.9535 22.8649C29.9535 17.6305 25.7326 13.3875 20.5268 13.3875Z" fill="#1F1814"/>
<path d="M35.7761 11.7462C34.5175 10.076 30.0235 11.2291 24.5855 14.31C24.8508 14.4373 25.1094 14.5772 25.3603 14.7287C28.9727 12.9324 31.8246 12.3815 32.7045 13.5497C34.1106 15.416 29.9527 20.9641 23.4176 25.942C16.8818 30.9199 10.4439 33.4421 9.03774 31.5752C8.23353 30.5084 9.249 28.2379 11.4864 25.5589C11.3988 25.262 11.3256 24.9585 11.2673 24.6502C7.33449 28.7737 5.34196 32.4489 6.52787 34.0225C8.27254 36.3383 16.2349 33.2285 24.3112 27.077C32.3882 20.9255 37.5207 14.0614 35.7761 11.7462Z" fill="#1F1814"/>
<path d="M31.9466 27.5858C31.9478 29.2083 33.2555 30.5231 34.8694 30.5243C33.2555 30.5255 31.9478 31.8403 31.9466 33.4628C31.9454 31.8403 30.6376 30.5255 29.0238 30.5243C30.6376 30.5231 31.9454 29.2083 31.9466 27.5858Z" fill="#1F1814"/>
<path d="M12.6804 9.66043C12.681 10.802 13.6011 11.727 14.7366 11.7276C13.6011 11.7282 12.681 12.6532 12.6804 13.7948C12.6798 12.6532 11.7598 11.7282 10.6243 11.7276C11.7598 11.727 12.6798 10.802 12.6804 9.66043Z" fill="#1F1814"/>
<path d="M30.528 31.7805C28.1382 34.2266 24.8115 35.7442 21.1313 35.7442C18.6431 35.7442 16.3163 35.0503 14.3309 33.8447C13.969 34.0028 13.6125 34.1512 13.2632 34.2876C13.2158 34.3063 13.1696 34.3232 13.1228 34.3413C15.7119 36.4344 19.0008 37.6877 22.5819 37.6877C26.1631 37.6877 29.3343 36.4797 31.9012 34.4535C31.7548 33.4066 31.2554 32.4738 30.528 31.7799V31.7805Z" fill="#1F1814"/>
<path d="M32.8098 28.6303C33.446 29.513 34.3882 30.158 35.4805 30.4084C36.8807 28.1047 37.6879 25.3973 37.6879 22.5005C37.6879 19.9747 37.074 17.5931 35.9889 15.4976C35.5718 16.3568 34.9776 17.3053 34.207 18.3359C34.0762 18.5109 33.9405 18.6877 33.8013 18.8651C34.1284 20.0206 34.3042 21.24 34.3042 22.5005C34.3042 24.7125 33.7641 26.7978 32.8104 28.6303H32.8098Z" fill="#1F1814"/>
<path d="M32.0045 34.3704C33.2967 33.3326 34.416 32.0866 35.3108 30.6819C33.5997 31.1447 32.2884 32.585 32.0045 34.3704Z" fill="#1F1814"/>
<path d="M11.9519 13.0026C11.7677 12.7697 11.5534 12.5615 11.3146 12.3841C8.92712 15.0704 7.47473 18.6147 7.47473 22.5005C7.47473 24.1622 7.7412 25.7606 8.23153 27.257C8.36477 27.0814 8.50221 26.9052 8.64384 26.7278C8.19912 25.4003 7.95846 23.9788 7.95846 22.5005C7.95846 18.7746 9.48947 15.4089 11.9525 13.0026H11.9519Z" fill="#1F1814"/>
<path d="M22.5813 7.31267C19.1267 7.31267 15.9441 8.47901 13.3988 10.4406C13.6353 10.7423 13.9215 11.0024 14.2456 11.2081C16.249 9.97058 18.607 9.25677 21.1307 9.25677C23.931 9.25677 26.5267 10.1359 28.6609 11.6335C28.7887 11.5816 28.9153 11.5303 29.0414 11.4815C30.1127 11.0633 31.0825 10.764 31.9461 10.5836C29.3721 8.53573 26.1192 7.31267 22.5813 7.31267Z" fill="#1F1814"/>
</g>
<g clip-path="url(#clip3_5296_19835)">
<path d="M63.2901 33.7515V15.8911H57V11.7338H74.1364V15.8911H67.8462V33.7515H63.2901Z" fill="#1F1814"/>
<path d="M82.2286 34C80.5058 34 78.9985 33.6272 77.7065 32.8703C76.4144 32.1134 75.4171 31.0854 74.7031 29.775C73.989 28.4645 73.6377 26.9733 73.6377 25.2901C73.6377 23.6069 73.9777 22.1157 74.6577 20.7939C75.3377 19.4722 76.3011 18.4442 77.5251 17.6986C78.7491 16.953 80.1318 16.5802 81.6732 16.5802C83.2146 16.5802 84.4839 16.9417 85.674 17.6534C86.864 18.3651 87.8047 19.3705 88.496 20.6697C89.1874 21.9688 89.5387 23.5278 89.5387 25.3579C89.5387 25.5499 89.5387 25.7646 89.516 26.0018C89.4934 26.239 89.482 26.465 89.4594 26.6796H77.1851V23.8215H87.1587L85.4473 24.6688C85.47 23.7876 85.3113 23.0194 84.9939 22.3755C84.6766 21.7203 84.2346 21.2119 83.6679 20.8504C83.1012 20.4889 82.4552 20.2969 81.6959 20.2969C80.9365 20.2969 80.2905 20.4776 79.7125 20.8504C79.1458 21.2232 78.6925 21.7316 78.3751 22.3868C78.0578 23.042 77.8991 23.8328 77.8991 24.7253V25.4821C77.8991 26.4198 78.0918 27.2445 78.4658 27.9336C78.8398 28.6227 79.3498 29.1536 80.0072 29.5264C80.6645 29.8992 81.4465 30.08 82.3646 30.08C83.1466 30.08 83.8493 29.9444 84.4613 29.6733C85.0733 29.4022 85.6286 28.9955 86.1273 28.4419L88.462 31.2774C87.7707 32.1586 86.898 32.8364 85.844 33.3109C84.7899 33.7854 83.5886 34.0226 82.2172 34.0226L82.2286 34Z" fill="#1F1814"/>
<path d="M92.4514 33.7515V16.8287H96.6335V21.6412L96.0442 20.2291C96.4975 19.0316 97.2115 18.1279 98.2089 17.5065C99.2062 16.8852 100.408 16.5802 101.836 16.5802V21.1441C101.666 21.099 101.507 21.0651 101.348 21.0538C101.19 21.0312 101.031 21.0199 100.884 21.0199C99.6482 21.0199 98.6622 21.404 97.9369 22.1835C97.2115 22.9629 96.8375 24.1491 96.8375 25.7646V33.7515H92.4514Z" fill="#1F1814"/>
<path d="M123.811 16.5802C125.013 16.5802 126.078 16.8513 126.996 17.3823C127.914 17.9132 128.651 18.7379 129.172 19.8337C129.694 20.9295 129.954 22.3416 129.954 24.0587V33.7515H125.568V24.8156C125.568 23.4487 125.319 22.4433 124.82 21.7994C124.321 21.1554 123.63 20.8278 122.723 20.8278C122.066 20.8278 121.488 20.986 120.978 21.3136C120.468 21.6412 120.083 22.1157 119.811 22.7596C119.539 23.4035 119.403 24.2282 119.403 25.2562V33.7515H115.017V24.8156C115.017 23.4487 114.767 22.4433 114.269 21.7994C113.77 21.1554 113.056 20.8278 112.115 20.8278C111.481 20.8278 110.902 20.986 110.404 21.3136C109.894 21.6412 109.508 22.1157 109.225 22.7596C108.942 23.4035 108.806 24.2282 108.806 25.2562V33.7515H104.42V16.8287H108.602V21.4153L107.82 20.0935C108.33 18.9413 109.066 18.0601 110.041 17.4614C111.016 16.8626 112.115 16.5689 113.328 16.5689C114.711 16.5689 115.935 16.9643 116.977 17.7438C118.031 18.5346 118.723 19.732 119.051 21.3475L117.51 20.873C118.02 19.5739 118.825 18.5346 119.924 17.7438C121.023 16.953 122.315 16.5689 123.777 16.5689L123.811 16.5802Z" fill="#1F1814"/>
<path d="M136.12 14.4677C135.292 14.4677 134.635 14.2079 134.125 13.6769C133.615 13.146 133.366 12.502 133.366 11.7225C133.366 10.9431 133.615 10.2991 134.125 9.76818C134.635 9.23723 135.292 8.9774 136.12 8.9774C136.947 8.9774 137.582 9.22593 138.103 9.7117C138.613 10.2088 138.874 10.8414 138.874 11.6096C138.874 12.423 138.624 13.1008 138.114 13.643C137.604 14.174 136.947 14.4451 136.12 14.4451V14.4677ZM133.932 33.7515V16.8287H138.318V33.7515H133.932Z" fill="#1F1814"/>
<path d="M142.693 33.7515V11.7338H151.205C152.961 11.7338 154.48 12.0502 155.761 12.6941C157.03 13.338 158.016 14.253 158.708 15.4505C159.399 16.648 159.75 18.0601 159.75 19.6981C159.75 21.3362 159.399 22.7709 158.708 23.9571C158.016 25.1432 157.03 26.0583 155.761 26.7135C154.491 27.3687 152.973 27.685 151.205 27.685H145.187L147.261 25.3918V33.7628H142.682L142.693 33.7515ZM147.272 25.9566L145.198 23.5391H150.955C152.338 23.5391 153.392 23.2002 154.106 22.5337C154.82 21.8671 155.172 20.9182 155.172 19.6981C155.172 18.4781 154.82 17.5404 154.106 16.8852C153.392 16.23 152.349 15.8911 150.955 15.8911H145.198L147.272 13.4736V25.9566Z" fill="#1F1814"/>
<path d="M167.185 34C166.029 34 165.02 33.7741 164.182 33.3222C163.343 32.8703 162.686 32.2603 162.232 31.4808C161.779 30.7013 161.541 29.8315 161.541 28.8712C161.541 27.911 161.756 27.0072 162.198 26.2503C162.64 25.4935 163.332 24.8947 164.295 24.4767C165.258 24.0587 166.505 23.8441 168.058 23.8441H172.047V26.6683H168.511C167.48 26.6683 166.777 26.8604 166.392 27.2332C166.006 27.606 165.814 28.0804 165.814 28.6453C165.814 29.2779 166.029 29.775 166.471 30.1365C166.913 30.498 167.502 30.69 168.25 30.69C168.998 30.69 169.667 30.498 170.256 30.1252C170.846 29.7524 171.265 29.1762 171.503 28.3968L172.183 30.69C171.866 31.7406 171.288 32.554 170.438 33.1301C169.599 33.7063 168.511 34 167.174 34H167.185ZM171.798 33.7515V30.4528L171.514 29.7298V23.8215C171.514 22.7709 171.231 21.9575 170.653 21.3701C170.086 20.7827 169.202 20.4889 168.024 20.4889C167.219 20.4889 166.426 20.6245 165.655 20.9182C164.873 21.2006 164.204 21.5847 163.649 22.0705L162.108 18.6362C162.935 17.9697 163.921 17.4614 165.088 17.1112C166.244 16.761 167.434 16.5915 168.624 16.5915C170.925 16.5915 172.716 17.2015 173.985 18.4103C175.255 19.6304 175.901 21.5282 175.901 24.1039V33.7628H171.798V33.7515Z" fill="#1F1814"/>
<path d="M184.945 34C183.653 34 182.417 33.8305 181.239 33.4803C180.06 33.1301 179.108 32.7008 178.405 32.1699L179.833 28.6792C180.547 29.1423 181.375 29.5264 182.315 29.8314C183.256 30.1365 184.197 30.2833 185.115 30.2833C186.123 30.2833 186.837 30.1478 187.268 29.8766C187.687 29.6055 187.903 29.2214 187.903 28.7469C187.903 28.3516 187.733 28.0465 187.415 27.8545C187.087 27.6511 186.656 27.5043 186.123 27.4026C185.591 27.3009 184.99 27.188 184.344 27.0863C183.687 26.9846 183.041 26.8378 182.395 26.6457C181.749 26.4537 181.148 26.1938 180.593 25.8436C180.037 25.4934 179.595 25.019 179.267 24.4089C178.938 23.7989 178.779 23.0194 178.779 22.0479C178.779 20.9747 179.063 20.0257 179.618 19.2011C180.185 18.3764 180.978 17.7325 182.009 17.2693C183.041 16.8061 184.287 16.5802 185.749 16.5802C186.803 16.5802 187.846 16.7158 188.912 16.9756C189.966 17.2354 190.861 17.5969 191.598 18.0601L190.113 21.5508C189.399 21.0877 188.673 20.76 187.937 20.5793C187.2 20.3985 186.486 20.2969 185.817 20.2969C184.809 20.2969 184.072 20.4437 183.63 20.7375C183.177 21.0312 182.95 21.404 182.95 21.8671C182.95 22.2851 183.12 22.6014 183.46 22.8274C183.8 23.0533 184.242 23.2115 184.786 23.3131C185.33 23.4148 185.931 23.5278 186.588 23.6295C187.245 23.7311 187.891 23.878 188.526 24.07C189.161 24.2621 189.762 24.5219 190.306 24.8721C190.861 25.2223 191.303 25.6968 191.632 26.3068C191.96 26.9168 192.119 27.6963 192.119 28.6679C192.119 29.6959 191.836 30.6109 191.28 31.4243C190.714 32.2264 189.909 32.8703 188.855 33.3222C187.801 33.7741 186.509 34.0113 184.99 34.0113L184.945 34Z" fill="#1F1814"/>
<path d="M199.86 34C198.568 34 197.332 33.8305 196.154 33.4803C194.975 33.1301 194.023 32.7008 193.32 32.1699L194.748 28.6792C195.462 29.1423 196.29 29.5264 197.23 29.8314C198.171 30.1365 199.112 30.2833 200.03 30.2833C201.038 30.2833 201.753 30.1478 202.183 29.8766C202.603 29.6055 202.818 29.2214 202.818 28.7469C202.818 28.3516 202.648 28.0465 202.331 27.8545C202.002 27.6511 201.571 27.5043 201.038 27.4026C200.506 27.3009 199.905 27.188 199.259 27.0863C198.602 26.9846 197.956 26.8378 197.31 26.6457C196.664 26.4537 196.063 26.1938 195.508 25.8436C194.952 25.4934 194.51 25.019 194.182 24.4089C193.853 23.7989 193.694 23.0194 193.694 22.0479C193.694 20.9747 193.978 20.0257 194.533 19.2011C195.1 18.3764 195.893 17.7325 196.924 17.2693C197.956 16.8061 199.202 16.5802 200.664 16.5802C201.719 16.5802 202.761 16.7158 203.827 16.9756C204.881 17.2354 205.776 17.5969 206.513 18.0601L205.028 21.5508C204.314 21.0877 203.589 20.76 202.852 20.5793C202.115 20.3985 201.401 20.2969 200.732 20.2969C199.724 20.2969 198.987 20.4437 198.545 20.7375C198.092 21.0312 197.865 21.404 197.865 21.8671C197.865 22.2851 198.035 22.6014 198.375 22.8274C198.715 23.0533 199.157 23.2115 199.701 23.3131C200.245 23.4148 200.846 23.5278 201.503 23.6295C202.161 23.7311 202.807 23.878 203.441 24.07C204.076 24.2621 204.677 24.5219 205.221 24.8721C205.776 25.2223 206.218 25.6968 206.547 26.3068C206.875 26.9168 207.034 27.6963 207.034 28.6679C207.034 29.6959 206.751 30.6109 206.195 31.4243C205.629 32.2264 204.824 32.8703 203.77 33.3222C202.716 33.7741 201.424 34.0113 199.905 34.0113L199.86 34Z" fill="#1F1814"/>
</g>
</g>
<defs>
<linearGradient id="paint0_linear_5296_19835" x1="26.0059" y1="12.5653" x2="12.5644" y2="25.4224" gradientUnits="userSpaceOnUse">
<stop stop-color="#1A130F"/>
<stop offset="1" stop-color="#605B50"/>
</linearGradient>
<linearGradient id="paint1_linear_5296_19835" x1="34.6118" y1="10.3707" x2="20.0023" y2="29.0649" gradientUnits="userSpaceOnUse">
<stop stop-color="#1A130F"/>
<stop offset="1" stop-color="#605B50"/>
</linearGradient>
<linearGradient id="paint2_linear_5296_19835" x1="25.4227" y1="14.903" x2="10.8123" y2="33.6043" gradientUnits="userSpaceOnUse">
<stop stop-color="#605B50"/>
<stop offset="1" stop-color="#1A130F"/>
</linearGradient>
<linearGradient id="paint3_linear_5296_19835" x1="32.8399" y1="18.5736" x2="23.4257" y2="35.4186" gradientUnits="userSpaceOnUse">
<stop stop-color="#605B50"/>
<stop offset="1" stop-color="#1A130F"/>
</linearGradient>
<clipPath id="clip0_5296_19835">
<rect width="207" height="45" fill="white"/>
</clipPath>
<clipPath id="clip1_5296_19835">
<rect width="25.7143" height="25.7143" fill="white" transform="translate(9.6416 9.64307)"/>
</clipPath>
<clipPath id="clip2_5296_19835">
<rect width="31.5" height="30.375" fill="white" transform="translate(6.1875 7.31255)"/>
</clipPath>
<clipPath id="clip3_5296_19835">
<rect width="150" height="25" fill="white" transform="translate(57 9)"/>
</clipPath>
</defs>
</svg>
