<svg width="186" height="45" viewBox="0 0 186 45" fill="none" xmlns="http://www.w3.org/2000/svg">
<g clip-path="url(#clip0_113_31701)">
<path d="M9.4834 13.938H17.7351V16.4135C17.7351 19.6036 15.149 22.1897 11.9589 22.1897H9.4834V13.938Z" fill="white"/>
<path d="M18.5602 16.4135V13.938H35.0636V22.1897H24.3364C21.1463 22.1897 18.5602 19.6036 18.5602 16.4135Z" fill="white"/>
<path d="M18.5602 28.791C18.5602 25.6009 21.1463 23.0149 24.3364 23.0149H26.8119V35.3924H18.5602V28.791Z" fill="white"/>
<path d="M45.2005 22.5C45.2005 10.0736 35.082 0 22.6002 0C10.1185 0 0 10.0736 0 22.5C0 34.9264 10.1185 45 22.6002 45C35.082 45 45.2005 34.9264 45.2005 22.5Z" fill="#FEF153"/>
<g clip-path="url(#clip1_113_31701)">
<path fill-rule="evenodd" clip-rule="evenodd" d="M30.0405 10.1452L30.0029 10.2261L30.0031 10.2263L28.5654 13.0212C28.5576 13.0366 28.5615 13.0443 28.5783 13.0443L32.066 13.1124C32.0709 13.1124 32.0752 13.1108 32.0787 13.1083C32.0912 13.1073 32.0948 13.1008 32.0878 13.0879L32.0862 13.0848C32.086 13.0842 32.0857 13.0835 32.0854 13.0828C32.0529 13.0163 31.9664 12.8451 31.8478 12.6124C31.8488 12.6044 31.854 12.597 31.8626 12.5936C32.1434 12.4768 32.4385 12.392 32.7491 12.3407C32.8849 11.8104 32.9535 11.171 32.8241 10.6279C32.7258 10.2158 32.454 9.95902 32.0062 9.85759C31.5675 9.95003 31.1211 10.0925 30.6681 10.2851C30.6624 10.2883 30.6574 10.289 30.6529 10.2875C30.4936 9.98032 30.3722 9.74812 30.3267 9.66505C30.3266 9.66488 30.3264 9.66472 30.3263 9.66455L30.3213 9.65473C30.3122 9.63804 30.3045 9.63804 30.2954 9.65473L30.2909 9.6634C30.2903 9.6643 30.2897 9.66528 30.2891 9.66634L30.2757 9.69272L30.0405 10.1452Z" fill="#827E75"/>
<path d="M27.9866 12.9929C27.8779 12.8837 27.7135 12.7746 27.4961 12.6655C26.1877 12.0081 24.794 11.6268 23.3161 11.5189C22.5253 11.4586 21.7333 11.4843 20.9426 11.5985L20.1804 11.7308C19.589 11.8579 19.0131 12.0287 18.4527 12.2444C17.904 12.4575 17.376 12.713 16.8661 13.0096C15.9861 13.5257 15.1915 14.151 14.4836 14.8841C13.5609 15.838 12.8349 16.9217 12.3043 18.135C11.0982 20.9275 11.0969 24.0923 12.3134 26.89C12.9255 26.0272 13.5571 25.1875 14.2106 24.371C13.8974 22.9586 13.9362 21.5643 14.3258 20.188C15.1657 17.33 17.4045 15.1345 20.3033 14.3551L21.1432 14.1792C21.6376 14.0996 22.1345 14.0637 22.6328 14.0727C23.2216 14.0816 23.8052 14.151 24.3824 14.2806C24.8988 14.3808 25.344 14.5759 25.7205 14.8648C26.1903 15.2256 26.29 15.7019 26.0195 16.2925C26.6523 15.8136 27.2748 15.3463 27.8843 14.8931C28.0176 14.7929 28.138 14.6414 28.2454 14.436C28.4576 13.857 28.3709 13.3755 27.9866 12.9929ZM22.5758 13.9918C22.5758 13.9931 22.5758 13.9931 22.5745 13.9943C22.5745 13.9931 22.5745 13.9931 22.5758 13.9918ZM22.6586 14.0264C22.6586 14.0277 22.6573 14.0303 22.6586 14.0316C22.6573 14.0303 22.6586 14.029 22.6586 14.0264ZM22.6651 14.0393C22.6638 14.0393 22.6638 14.0393 22.6651 14.0393C22.6638 14.038 22.6625 14.0367 22.6612 14.0354C22.6625 14.0367 22.6625 14.038 22.6651 14.0393ZM22.5745 13.9995C22.5745 14.0008 22.5758 14.002 22.5771 14.0046C22.5758 14.0033 22.5758 14.0033 22.5745 14.002C22.5732 13.9995 22.5745 13.9995 22.5745 13.9995ZM22.5771 14.0059C22.5797 14.0072 22.581 14.0085 22.5849 14.0085C22.5823 14.0085 22.5797 14.0072 22.5771 14.0059Z" fill="url(#paint0_linear_113_31701)"/>
<path d="M35.2878 11.4892C35.0911 10.7214 34.6278 10.195 33.9005 9.90996C33.2897 9.70325 32.6582 9.70454 32.0072 9.85989C32.455 9.96132 32.7268 10.2181 32.8251 10.6302C32.9545 11.1733 32.8859 11.8127 32.75 12.343C32.64 12.845 32.4692 13.3342 32.2363 13.8079C31.7937 14.7054 31.2993 15.5489 30.7532 16.3373L30.2796 17.028C29.3297 18.3453 28.3151 19.6138 27.2371 20.8322L26.6301 21.514C25.8562 22.3704 25.0591 23.2062 24.2373 24.0189L22.3427 25.8408L21.4459 26.651C20.6409 27.3712 19.8191 28.0607 18.9831 28.7181C18.406 29.9211 19.6858 30.5297 20.6111 30.7261C20.6966 30.667 20.7561 30.6234 20.7897 30.5964C21.9752 29.6489 23.123 28.659 24.2334 27.6242L25.6802 26.2452C26.5033 25.4351 27.3057 24.6095 28.0886 23.766L29.3025 22.414L30.7778 20.6576C31.43 19.8398 32.0693 18.9937 32.6931 18.1193L32.7604 18.014L32.8665 17.8574C33.4243 17.0485 33.929 16.2114 34.3819 15.3461C34.9682 14.2137 35.5648 12.777 35.2878 11.4892ZM29.3064 22.3434C29.3051 22.3421 29.3038 22.3408 29.3025 22.3396C29.3038 22.3396 29.3038 22.3396 29.3051 22.3408C29.3064 22.3421 29.3064 22.3434 29.3064 22.3434ZM28.0666 21.3612C28.0653 21.3612 28.064 21.3625 28.0627 21.3638C28.064 21.3638 28.0653 21.3625 28.0666 21.3612ZM28.0588 21.3664L28.0575 21.3676C28.0588 21.3676 28.0588 21.3676 28.0588 21.3664ZM28.055 21.3753C28.055 21.3766 28.055 21.3766 28.055 21.3779C28.0537 21.3766 28.055 21.3766 28.055 21.3753ZM27.5011 21.0248C27.4985 21.0261 27.4972 21.0287 27.4959 21.0313C27.4985 21.0287 27.4998 21.0261 27.5011 21.0248ZM27.4868 21.0518C27.4868 21.0569 27.4868 21.0608 27.4881 21.0659C27.4868 21.0621 27.4868 21.0569 27.4868 21.0531V21.0518ZM27.197 20.9157C27.1957 20.9183 27.1944 20.9208 27.1918 20.9234C27.1931 20.9196 27.1957 20.917 27.197 20.9157ZM27.1892 20.9285C27.1879 20.9311 27.1879 20.9337 27.1866 20.9362C27.1866 20.9337 27.1879 20.9311 27.1892 20.9285ZM27.184 20.9439C27.184 20.9465 27.1827 20.9491 27.1827 20.9516C27.184 20.9491 27.184 20.9465 27.184 20.9439ZM27.1982 21.0107C27.1995 21.0133 27.2008 21.0146 27.2021 21.0171C27.2021 21.0158 27.2008 21.0158 27.2008 21.0146C27.1995 21.012 27.1982 21.0107 27.1982 21.0107ZM27.1853 20.976C27.1853 20.9786 27.1866 20.9812 27.1879 20.985C27.1866 20.9825 27.1853 20.9799 27.1853 20.976ZM28.0783 21.3612C28.0821 21.3625 28.0847 21.3638 28.0873 21.3651C28.0847 21.3625 28.0821 21.3612 28.0783 21.3612ZM32.8704 17.7868C32.8717 17.7881 32.8743 17.7868 32.8756 17.7868C32.8743 17.7868 32.873 17.7868 32.8704 17.7868ZM32.8769 17.7842L32.8782 17.7829C32.8782 17.7842 32.8782 17.7842 32.8769 17.7842Z" fill="url(#paint1_linear_113_31701)"/>
<path d="M25.723 14.8649C25.3477 14.5761 24.9012 14.3809 24.3849 14.2808C23.7106 14.8123 23.0519 15.3593 22.4087 15.919L21.939 16.3286C20.5051 17.601 19.1255 18.9285 17.7978 20.3113C16.5683 21.5888 15.3946 22.9138 14.2752 24.2863C14.2376 24.3171 14.2156 24.3454 14.2117 24.3711C13.5582 25.1876 12.9267 26.0273 12.3146 26.8901L11.8267 27.6207C11.507 28.1073 11.212 28.5926 10.9402 29.0779C10.4484 29.9458 10.0007 30.9113 9.76383 31.8807C9.29924 33.7141 10.1792 35.3126 12.2408 35.26C12.4737 35.2458 12.7338 35.2073 13.0211 35.1457C12.6575 35.0777 12.409 34.9018 12.2731 34.618C12.0117 34.0685 12.1049 33.2352 12.2602 32.669C12.3987 31.9385 12.7338 31.2387 13.0664 30.6019C13.9956 28.9251 15.1513 27.3305 16.3535 25.8489C17.1533 24.8641 17.9854 23.9076 18.8486 22.9793L19.6859 22.0883L21.3708 20.3935C22.2276 19.5589 23.1089 18.7462 24.0147 17.9553L24.0859 17.895C24.7304 17.3339 25.3762 16.7998 26.0206 16.2914C26.2911 15.7008 26.1915 15.2257 25.723 14.8649ZM13.0302 30.548C13.0263 30.5493 13.0237 30.5518 13.0224 30.5544C13.025 30.5518 13.0276 30.5493 13.0302 30.548ZM13.0548 30.4722C13.0548 30.471 13.0535 30.4684 13.0522 30.4671C13.0522 30.4684 13.0535 30.471 13.0548 30.4722ZM13.0483 30.4671C13.047 30.4671 13.047 30.4658 13.0457 30.4671C13.047 30.4658 13.0483 30.4671 13.0483 30.4671ZM10.9674 29.1357C10.9661 29.137 10.9648 29.1382 10.9648 29.1408C10.9648 29.1395 10.9648 29.1395 10.9661 29.1382C10.9661 29.137 10.9674 29.1357 10.9674 29.1357ZM10.9622 29.1716C10.9622 29.1729 10.9635 29.1742 10.9648 29.1755C10.9635 29.1742 10.9635 29.1729 10.9622 29.1716ZM10.9609 29.1639C10.9609 29.1665 10.9609 29.1678 10.9609 29.1703C10.9609 29.1691 10.9609 29.1665 10.9609 29.1639ZM10.9661 29.1768C10.9687 29.1793 10.9712 29.1806 10.9751 29.1806H10.9738C10.97 29.1806 10.9674 29.1781 10.9661 29.1768ZM13.0276 30.5814L13.0289 30.5827C13.0289 30.5827 13.0289 30.5814 13.0276 30.5814ZM14.7164 24.5457C14.7152 24.5431 14.7126 24.5405 14.7113 24.5393C14.7126 24.5418 14.7139 24.5431 14.7164 24.5457ZM14.7229 24.5624C14.7229 24.5598 14.7216 24.5559 14.7203 24.5534C14.7216 24.5559 14.7216 24.5585 14.7229 24.5624ZM14.2997 24.2876C14.301 24.2876 14.301 24.2889 14.301 24.2889C14.2997 24.2876 14.2984 24.2863 14.2959 24.2863C14.2972 24.2876 14.2984 24.2876 14.2997 24.2876ZM14.6841 24.5264C14.6854 24.5264 14.6867 24.5277 14.6893 24.5277C14.6854 24.5264 14.6802 24.5264 14.6763 24.5264C14.6776 24.5251 14.6802 24.5251 14.6841 24.5264ZM14.7035 24.5341C14.7009 24.5328 14.6983 24.5316 14.6957 24.5303C14.6996 24.5316 14.7022 24.5328 14.7035 24.5341ZM18.5729 20.9237C18.5717 20.9237 18.5691 20.9225 18.5678 20.9225C18.5691 20.9225 18.5704 20.9225 18.5729 20.9237ZM18.5665 20.9225C18.5639 20.9225 18.5613 20.9225 18.5587 20.9237C18.5613 20.9225 18.5639 20.9212 18.5665 20.9225ZM18.5522 20.9289C18.5509 20.9315 18.5497 20.934 18.5497 20.9366C18.5497 20.9327 18.5509 20.9315 18.5522 20.9289ZM19.6548 22.0613V22.0626C19.6548 22.0626 19.6548 22.0626 19.6548 22.0613ZM19.6561 22.0652C19.6561 22.0652 19.6574 22.0664 19.6587 22.0664C19.6574 22.0652 19.6561 22.0652 19.6561 22.0652Z" fill="url(#paint2_linear_113_31701)"/>
<path d="M32.6926 18.1168C32.0675 18.9912 31.4295 19.8373 30.7773 20.6551C30.7941 20.6577 30.8045 20.668 30.8096 20.6898C31.0516 21.8273 31.0659 22.9662 30.851 24.1063C30.7035 24.8471 30.4641 25.5533 30.1328 26.226C29.7497 26.9925 29.2619 27.6871 28.6678 28.3086L28.0195 28.9184C27.4747 29.3806 26.8781 29.7709 26.2284 30.0868C24.8114 30.7634 23.3128 31.0356 21.7326 30.9021C21.3534 30.8661 20.9807 30.8071 20.6119 30.7236C19.6866 30.5272 18.4067 29.9173 18.9839 28.7156C18.4274 29.138 17.88 29.5501 17.3378 29.9545C17.1346 30.106 16.9961 30.2254 16.9249 30.3127C16.5095 30.8122 16.5768 31.5787 17.0181 32.0191C17.1204 32.1218 17.2718 32.2232 17.4737 32.3246C19.3061 33.2426 21.259 33.6304 23.3322 33.4892C24.4451 33.4044 25.5192 33.1618 26.5571 32.7625C26.9635 32.6045 27.3556 32.4248 27.7361 32.2232C28.3948 31.8753 29.0095 31.4644 29.5815 30.9945L30.3295 30.3217C30.8277 29.83 31.2742 29.2985 31.6689 28.7284C32.1413 28.0453 32.5295 27.3199 32.8349 26.5522C33.1416 25.7715 33.3591 24.9678 33.4859 24.1397C33.7861 22.0597 33.5221 20.053 32.6926 18.1168ZM26.3591 30.115C26.3578 30.1137 26.3565 30.1112 26.3552 30.1099C26.3565 30.1112 26.3578 30.1125 26.3591 30.115ZM26.3527 30.106C26.3514 30.1048 26.3501 30.1048 26.3488 30.1035C26.3501 30.1048 26.3514 30.106 26.3527 30.106ZM26.3449 30.1022C26.3436 30.1022 26.3423 30.1022 26.341 30.1022C26.3423 30.1009 26.3436 30.1009 26.3449 30.1022ZM26.2556 30.1086L26.2569 30.1073C26.2556 30.1086 26.2556 30.1086 26.2556 30.1086ZM26.2582 30.1035C26.2582 30.1022 26.2582 30.1009 26.2582 30.0983C26.2582 30.0996 26.2595 30.0996 26.2595 30.1009C26.2582 30.1022 26.2582 30.1022 26.2582 30.1035ZM26.2569 30.097C26.2556 30.0945 26.2543 30.0932 26.2517 30.0932C26.253 30.0932 26.2543 30.0945 26.2569 30.097ZM26.3345 30.1009C26.3319 30.1009 26.3281 30.1022 26.3255 30.1035C26.3281 30.1009 26.3307 30.1009 26.3345 30.1009ZM29.8791 29.6194C29.8791 29.6181 29.8804 29.6156 29.8804 29.6143C29.8804 29.6156 29.8804 29.6169 29.8791 29.6194ZM29.8817 29.6053C29.8817 29.604 29.8817 29.6015 29.8817 29.6002C29.8817 29.6015 29.8817 29.6027 29.8817 29.6053ZM29.8791 29.5925C29.8779 29.5899 29.8766 29.5873 29.8753 29.5848C29.8753 29.5861 29.8766 29.5861 29.8779 29.5873C29.8779 29.5886 29.8779 29.5899 29.8791 29.5925ZM29.8714 29.5809C29.8688 29.5783 29.8675 29.5771 29.8649 29.5745C29.8675 29.5758 29.8701 29.5783 29.8714 29.5809ZM29.861 29.5719C29.8584 29.5706 29.8559 29.5694 29.852 29.5681C29.8546 29.5694 29.8584 29.5706 29.861 29.5719ZM29.8481 29.5668C29.8429 29.5668 29.839 29.5668 29.8339 29.5668C29.8377 29.5668 29.8429 29.5668 29.8481 29.5668ZM28.8206 28.2084C28.8193 28.2071 28.8167 28.2058 28.8128 28.2058C28.8167 28.2046 28.8193 28.2058 28.8206 28.2084ZM30.9403 23.9599C30.939 23.9586 30.9377 23.9586 30.9377 23.9574C30.939 23.9574 30.9403 23.9586 30.9403 23.9599Z" fill="url(#paint3_linear_113_31701)"/>
<path fill-rule="evenodd" clip-rule="evenodd" d="M14.8507 31.9345L16.4243 31.9653C16.4399 31.9653 16.445 31.973 16.4373 31.9872L15.644 33.5317L15.6051 33.6152L14.7096 35.3472C14.7044 35.3561 14.6941 35.3587 14.685 35.3549C14.6824 35.3536 14.6785 35.351 14.6773 35.3472L14.3591 34.7263C14.352 34.7203 14.3431 34.7195 14.3328 34.7242C13.8902 34.9078 13.4528 35.049 13.0206 35.1466C12.6569 35.0785 12.4084 34.9026 12.2726 34.6189C12.0111 34.0694 12.1043 33.2361 12.2596 32.6699C12.5676 32.6057 12.864 32.5223 13.1487 32.4183C13.1616 32.4144 13.1616 32.3977 13.1487 32.3695C13.1494 32.3691 13.15 32.3688 13.1507 32.3684L12.9211 31.9204C12.9121 31.9037 12.9172 31.896 12.9367 31.896L14.8507 31.9345Z" fill="#827E75"/>
</g>
<rect width="45" height="45" rx="22.5" fill="#FEF153"/>
<g clip-path="url(#clip2_113_31701)">
<path d="M20.5273 13.3877C15.3215 13.3877 11.1006 17.6307 11.1006 22.8651C11.1006 26.9252 13.6405 30.3887 17.2096 31.7378C19.2946 30.5932 21.4864 29.1807 23.6619 27.5727C22.4172 29.0202 20.5081 30.6077 18.1861 32.0474C18.9345 32.2399 19.7189 32.3424 20.5273 32.3424C25.7331 32.3424 29.954 28.0994 29.954 22.8651C29.954 17.6307 25.7331 13.3877 20.5273 13.3877Z" fill="#1F1814"/>
<path d="M35.7761 11.7462C34.5175 10.0761 30.0235 11.2291 24.5855 14.31C24.8508 14.4373 25.1094 14.5773 25.3603 14.7288C28.9727 12.9325 31.8246 12.3816 32.7045 13.5497C34.1106 15.416 29.9527 20.9641 23.4176 25.9421C16.8818 30.92 10.4439 33.4421 9.03774 31.5753C8.23353 30.5085 9.249 28.2379 11.4864 25.5589C11.3988 25.2621 11.3256 24.9585 11.2673 24.6502C7.33449 28.7738 5.34196 32.449 6.52787 34.0226C8.27254 36.3384 16.2349 33.2285 24.3112 27.077C32.3882 20.9255 37.5207 14.0614 35.7761 11.7462Z" fill="#1F1814"/>
<path d="M31.9462 27.5859C31.9474 29.2084 33.2552 30.5232 34.869 30.5244C33.2552 30.5256 31.9474 31.8404 31.9462 33.4629C31.945 31.8404 30.6373 30.5256 29.0234 30.5244C30.6373 30.5232 31.945 29.2084 31.9462 27.5859Z" fill="#1F1814"/>
<path d="M12.6802 9.66016C12.6808 10.8018 13.6008 11.7267 14.7363 11.7274C13.6008 11.728 12.6808 12.6529 12.6802 13.7945C12.6796 12.6529 11.7595 11.728 10.624 11.7274C11.7595 11.7267 12.6796 10.8018 12.6802 9.66016Z" fill="#1F1814"/>
<path d="M30.5278 31.7805C28.138 34.2266 24.8113 35.7441 21.1311 35.7441C18.6428 35.7441 16.316 35.0503 14.3307 33.8447C13.9688 34.0028 13.6123 34.1512 13.263 34.2876C13.2156 34.3063 13.1694 34.3232 13.1226 34.3413C15.7116 36.4344 19.0005 37.6876 22.5817 37.6876C26.1628 37.6876 29.3341 36.4797 31.901 34.4535C31.7545 33.4066 31.2552 32.4738 30.5278 31.7799V31.7805Z" fill="#1F1814"/>
<path d="M32.8096 28.6302C33.4457 29.513 34.388 30.158 35.4803 30.4084C36.8805 28.1047 37.6877 25.3973 37.6877 22.5004C37.6877 19.9747 37.0737 17.5931 35.9886 15.4976C35.5715 16.3568 34.9773 17.3053 34.2067 18.3359C34.0759 18.5109 33.9403 18.6877 33.801 18.8651C34.1281 20.0205 34.304 21.24 34.304 22.5004C34.304 24.7125 33.7638 26.7977 32.8102 28.6302H32.8096Z" fill="#1F1814"/>
<path d="M32.0044 34.3701C33.2965 33.3323 34.4158 32.0863 35.3107 30.6816C33.5996 31.1444 32.2883 32.5847 32.0044 34.3701Z" fill="#1F1814"/>
<path d="M11.9518 13.0023C11.7676 12.7694 11.5533 12.5612 11.3144 12.3838C8.927 15.0701 7.47461 18.6143 7.47461 22.5001C7.47461 24.1619 7.74108 25.7602 8.23141 27.2566C8.36465 27.081 8.50208 26.9048 8.64372 26.7275C8.199 25.4 7.95834 23.9784 7.95834 22.5001C7.95834 18.7742 9.48935 15.4086 11.9524 13.0023H11.9518Z" fill="#1F1814"/>
<path d="M22.5809 7.3125C19.1264 7.3125 15.9437 8.47884 13.3984 10.4404C13.6349 10.7421 13.9212 11.0022 14.2453 11.208C16.2486 9.97041 18.6066 9.25661 21.1303 9.25661C23.9306 9.25661 26.5263 10.1357 28.6605 11.6333C28.7883 11.5814 28.915 11.5302 29.041 11.4813C30.1123 11.0631 31.0822 10.7639 31.9458 10.5834C29.3717 8.53556 26.1188 7.3125 22.5809 7.3125Z" fill="#1F1814"/>
</g>
<g clip-path="url(#clip3_113_31701)">
<path d="M62.4969 33.2813V17.5641H57.0874V13.9058H71.8247V17.5641H66.4152V33.2813H62.4969Z" fill="#1F1814"/>
<path d="M78.7841 33.4999C77.3026 33.4999 76.0063 33.1719 74.8951 32.5058C73.784 31.8398 72.9263 30.9351 72.3122 29.7819C71.6981 28.6287 71.396 27.3165 71.396 25.8352C71.396 24.354 71.6884 23.0417 72.2732 21.8786C72.858 20.7155 73.6865 19.8108 74.7392 19.1547C75.7918 18.4986 76.981 18.1705 78.3065 18.1705C79.6321 18.1705 80.7238 18.4887 81.7472 19.115C82.7706 19.7413 83.5796 20.626 84.1742 21.7693C84.7687 22.9125 85.0709 24.2844 85.0709 25.8949C85.0709 26.0639 85.0709 26.2528 85.0514 26.4615C85.0319 26.6703 85.0221 26.8691 85.0026 27.058H74.4468V24.5429H83.024L81.5522 25.2885C81.5717 24.5131 81.4353 23.837 81.1624 23.2704C80.8895 22.6938 80.5093 22.2464 80.022 21.9283C79.5346 21.6102 78.9791 21.4412 78.326 21.4412C77.673 21.4412 77.1174 21.6003 76.6203 21.9283C76.133 22.2564 75.7431 22.7037 75.4702 23.2803C75.1973 23.8569 75.0608 24.5528 75.0608 25.3382V26.0042C75.0608 26.8294 75.2265 27.5551 75.5482 28.1615C75.8698 28.7679 76.3084 29.2352 76.8737 29.5632C77.4391 29.8913 78.1116 30.0503 78.9011 30.0503C79.5736 30.0503 80.1779 29.931 80.7043 29.6924C81.2306 29.4539 81.7082 29.096 82.1371 28.6089L84.1449 31.1041C83.5504 31.8795 82.7998 32.476 81.8934 32.8935C80.9869 33.3111 79.9538 33.5198 78.7744 33.5198L78.7841 33.4999Z" fill="#1F1814"/>
<path d="M87.5757 33.2812V18.3892H91.1723V22.6242L90.6654 21.3816C91.0553 20.3278 91.6694 19.5325 92.5271 18.9857C93.3848 18.4389 94.418 18.1705 95.6461 18.1705V22.1868C95.4999 22.147 95.3634 22.1172 95.227 22.1073C95.0905 22.0874 94.9541 22.0774 94.8274 22.0774C93.765 22.0774 92.917 22.4154 92.2932 23.1014C91.6694 23.7873 91.3477 24.8312 91.3477 26.2528V33.2812H87.5757Z" fill="#1F1814"/>
<path d="M114.546 18.1706C115.579 18.1706 116.495 18.4092 117.284 18.8764C118.074 19.3437 118.707 20.0694 119.156 21.0337C119.604 21.998 119.828 23.2406 119.828 24.7517V33.2813H116.056V25.4178C116.056 24.2149 115.842 23.3301 115.413 22.7634C114.984 22.1968 114.39 21.9085 113.61 21.9085C113.045 21.9085 112.547 22.0477 112.109 22.336C111.67 22.6243 111.339 23.0418 111.105 23.6085C110.871 24.1751 110.754 24.9008 110.754 25.8055V33.2813H106.982V25.4178C106.982 24.2149 106.768 23.3301 106.339 22.7634C105.91 22.1968 105.296 21.9085 104.487 21.9085C103.941 21.9085 103.444 22.0477 103.015 22.336C102.576 22.6243 102.245 23.0418 102.001 23.6085C101.758 24.1751 101.641 24.9008 101.641 25.8055V33.2813H97.8687V18.3893H101.465V22.4254L100.793 21.2623C101.231 20.2483 101.865 19.4729 102.703 18.946C103.541 18.4191 104.487 18.1606 105.53 18.1606C106.719 18.1606 107.771 18.5086 108.668 19.1945C109.575 19.8904 110.169 20.9442 110.452 22.3658L109.126 21.9483C109.565 20.805 110.257 19.8904 111.202 19.1945C112.148 18.4986 113.259 18.1606 114.516 18.1606L114.546 18.1706Z" fill="#1F1814"/>
<path d="M125.13 16.3117C124.419 16.3117 123.853 16.083 123.415 15.6158C122.976 15.1485 122.762 14.5819 122.762 13.896C122.762 13.21 122.976 12.6434 123.415 12.1761C123.853 11.7089 124.419 11.4802 125.13 11.4802C125.842 11.4802 126.388 11.6989 126.836 12.1264C127.275 12.5638 127.499 13.1205 127.499 13.7965C127.499 14.5123 127.284 15.1088 126.846 15.586C126.407 16.0532 125.842 16.2918 125.13 16.2918V16.3117ZM123.249 33.2814V18.3894H127.021V33.2814H123.249Z" fill="#1F1814"/>
<path d="M130.784 33.2813V13.9058H138.104C139.614 13.9058 140.92 14.1841 142.022 14.7508C143.113 15.3174 143.961 16.1227 144.556 17.1764C145.151 18.2302 145.453 19.4729 145.453 20.9143C145.453 22.3558 145.151 23.6184 144.556 24.6622C143.961 25.706 143.113 26.5113 142.022 27.0879C140.93 27.6645 139.624 27.9428 138.104 27.9428H132.928L134.712 25.9247V33.2912H130.774L130.784 33.2813ZM134.721 26.4218L132.938 24.2944H137.889C139.078 24.2944 139.985 23.9961 140.599 23.4096C141.213 22.8231 141.515 21.988 141.515 20.9143C141.515 19.8407 141.213 19.0156 140.599 18.439C139.985 17.8624 139.088 17.5641 137.889 17.5641H132.938L134.721 15.4367V26.4218Z" fill="#1F1814"/>
<path d="M151.847 33.5C150.852 33.5 149.985 33.3012 149.264 32.9035C148.542 32.5059 147.977 31.9691 147.587 31.2831C147.197 30.5972 146.993 29.8317 146.993 28.9867C146.993 28.1417 147.178 27.3464 147.558 26.6803C147.938 26.0143 148.533 25.4874 149.361 25.1195C150.19 24.7517 151.262 24.5628 152.597 24.5628H156.028V27.0481H152.987C152.1 27.0481 151.496 27.2171 151.164 27.5452C150.833 27.8733 150.667 28.2908 150.667 28.7879C150.667 29.3446 150.852 29.782 151.233 30.1001C151.613 30.4182 152.12 30.5872 152.763 30.5872C153.406 30.5872 153.981 30.4182 154.488 30.0902C154.995 29.7621 155.356 29.2551 155.56 28.5692L156.145 30.5872C155.872 31.5118 155.375 32.2275 154.644 32.7345C153.923 33.2415 152.987 33.5 151.837 33.5H151.847ZM155.814 33.2813V30.3785L155.57 29.7422V24.5429C155.57 23.6184 155.326 22.9026 154.829 22.3857C154.342 21.8687 153.582 21.6103 152.568 21.6103C151.876 21.6103 151.194 21.7296 150.531 21.988C149.858 22.2366 149.283 22.5746 148.806 23.0021L147.48 19.9799C148.192 19.3934 149.04 18.946 150.043 18.6378C151.038 18.3297 152.061 18.1805 153.084 18.1805C155.063 18.1805 156.603 18.7174 157.695 19.7811C158.786 20.8547 159.342 22.5249 159.342 24.7915V33.2913H155.814V33.2813Z" fill="#1F1814"/>
<path d="M167.121 33.4999C166.009 33.4999 164.947 33.3508 163.933 33.0427C162.92 32.7345 162.101 32.3567 161.497 31.8895L162.725 28.8176C163.339 29.2252 164.05 29.5632 164.859 29.8316C165.668 30.1 166.477 30.2293 167.267 30.2293C168.134 30.2293 168.748 30.11 169.119 29.8714C169.479 29.6328 169.664 29.2948 169.664 28.8773C169.664 28.5293 169.518 28.2609 169.245 28.0919C168.963 27.913 168.592 27.7837 168.134 27.6943C167.676 27.6048 167.16 27.5054 166.604 27.4159C166.039 27.3264 165.483 27.1972 164.927 27.0282C164.372 26.8592 163.855 26.6305 163.378 26.3224C162.9 26.0142 162.52 25.5967 162.237 25.0598C161.955 24.523 161.818 23.837 161.818 22.9821C161.818 22.0377 162.062 21.2026 162.539 20.4769C163.027 19.7512 163.709 19.1845 164.596 18.7769C165.483 18.3694 166.555 18.1705 167.813 18.1705C168.719 18.1705 169.616 18.2898 170.532 18.5185C171.438 18.7471 172.208 19.0652 172.842 19.4728L171.565 22.5447C170.951 22.1371 170.327 21.8488 169.694 21.6897C169.06 21.5307 168.446 21.4412 167.871 21.4412C167.004 21.4412 166.37 21.5704 165.99 21.8289C165.6 22.0874 165.405 22.4154 165.405 22.823C165.405 23.1909 165.551 23.4692 165.844 23.668C166.136 23.8669 166.516 24.0061 166.984 24.0955C167.452 24.185 167.969 24.2844 168.534 24.3739C169.099 24.4633 169.655 24.5926 170.201 24.7616C170.746 24.9306 171.263 25.1592 171.731 25.4674C172.208 25.7756 172.589 26.1931 172.871 26.73C173.154 27.2668 173.29 27.9527 173.29 28.8077C173.29 29.7123 173.047 30.5176 172.569 31.2333C172.082 31.9392 171.39 32.5058 170.483 32.9035C169.577 33.3011 168.466 33.5099 167.16 33.5099L167.121 33.4999Z" fill="#1F1814"/>
<path d="M179.947 33.5001C178.836 33.5001 177.773 33.351 176.759 33.0428C175.746 32.7346 174.927 32.3568 174.323 31.8896L175.551 28.8177C176.165 29.2253 176.876 29.5633 177.685 29.8317C178.494 30.1002 179.303 30.2294 180.093 30.2294C180.96 30.2294 181.574 30.1101 181.945 29.8715C182.305 29.6329 182.491 29.2949 182.491 28.8774C182.491 28.5294 182.344 28.261 182.072 28.092C181.789 27.9131 181.418 27.7839 180.96 27.6944C180.502 27.6049 179.986 27.5055 179.43 27.416C178.865 27.3266 178.309 27.1973 177.754 27.0283C177.198 26.8593 176.681 26.6307 176.204 26.3225C175.726 26.0143 175.346 25.5968 175.064 25.0599C174.781 24.5231 174.644 23.8372 174.644 22.9822C174.644 22.0378 174.888 21.2027 175.366 20.477C175.853 19.7513 176.535 19.1847 177.422 18.7771C178.309 18.3695 179.381 18.1707 180.639 18.1707C181.545 18.1707 182.442 18.2899 183.358 18.5186C184.265 18.7472 185.035 19.0654 185.668 19.473L184.391 22.5448C183.777 22.1372 183.153 21.8489 182.52 21.6899C181.886 21.5308 181.272 21.4413 180.697 21.4413C179.83 21.4413 179.196 21.5706 178.816 21.829C178.426 22.0875 178.231 22.4156 178.231 22.8232C178.231 23.191 178.377 23.4693 178.67 23.6682C178.962 23.867 179.342 24.0062 179.81 24.0956C180.278 24.1851 180.795 24.2845 181.36 24.374C181.925 24.4635 182.481 24.5927 183.027 24.7617C183.573 24.9307 184.089 25.1594 184.557 25.4675C185.035 25.7757 185.415 26.1932 185.697 26.7301C185.98 27.2669 186.116 27.9529 186.116 28.8078C186.116 29.7125 185.873 30.5177 185.395 31.2335C184.908 31.9393 184.216 32.5059 183.309 32.9036C182.403 33.3012 181.292 33.51 179.986 33.51L179.947 33.5001Z" fill="#1F1814"/>
</g>
</g>
<defs>
<linearGradient id="paint0_linear_113_31701" x1="26.0059" y1="12.5653" x2="12.5644" y2="25.4224" gradientUnits="userSpaceOnUse">
<stop stop-color="#1A130F"/>
<stop offset="1" stop-color="#605B50"/>
</linearGradient>
<linearGradient id="paint1_linear_113_31701" x1="34.6118" y1="10.3707" x2="20.0023" y2="29.0649" gradientUnits="userSpaceOnUse">
<stop stop-color="#1A130F"/>
<stop offset="1" stop-color="#605B50"/>
</linearGradient>
<linearGradient id="paint2_linear_113_31701" x1="25.4227" y1="14.903" x2="10.8123" y2="33.6043" gradientUnits="userSpaceOnUse">
<stop stop-color="#605B50"/>
<stop offset="1" stop-color="#1A130F"/>
</linearGradient>
<linearGradient id="paint3_linear_113_31701" x1="32.8399" y1="18.5736" x2="23.4257" y2="35.4186" gradientUnits="userSpaceOnUse">
<stop stop-color="#605B50"/>
<stop offset="1" stop-color="#1A130F"/>
</linearGradient>
<clipPath id="clip0_113_31701">
<rect width="186" height="45" fill="white"/>
</clipPath>
<clipPath id="clip1_113_31701">
<rect width="25.7143" height="25.7143" fill="white" transform="translate(9.6416 9.64307)"/>
</clipPath>
<clipPath id="clip2_113_31701">
<rect width="31.5" height="30.375" fill="white" transform="translate(6.1875 7.3125)"/>
</clipPath>
<clipPath id="clip3_113_31701">
<rect width="129" height="22" fill="white" transform="translate(57.0874 11.5)"/>
</clipPath>
</defs>
</svg>
