<svg width="106" height="40" viewBox="0 0 106 40" fill="none" xmlns="http://www.w3.org/2000/svg">
<path d="M90.9043 14.4163L93.9336 13.929V17.0762H97.5728V19.5939H93.9336V23.3502C93.9336 23.9865 94.042 24.4941 94.2589 24.8731C94.4893 25.2521 94.9433 25.4416 95.621 25.4416C95.9463 25.4416 96.2784 25.4145 96.6172 25.3604C96.9696 25.2927 97.2881 25.2047 97.5728 25.0964L97.9997 27.4518C97.6338 27.6007 97.2272 27.7293 96.7799 27.8375C96.3326 27.9458 95.7837 28 95.1331 28C94.3063 28 93.6218 27.8917 93.0797 27.6751C92.5375 27.445 92.1038 27.1337 91.7785 26.7411C91.4532 26.335 91.2228 25.8477 91.0873 25.2792C90.9653 24.7107 90.9043 24.0812 90.9043 23.3909V14.4163Z" fill="#37352F"/>
<path d="M88.8437 27.9593C87.9627 27.9458 87.2443 27.8511 86.6886 27.6751C86.1465 27.4991 85.7127 27.2555 85.3874 26.9441C85.0757 26.6192 84.8589 26.2335 84.7369 25.7868C84.6284 25.3265 84.5742 24.8121 84.5742 24.2436V12.4873L87.6035 12V23.6345C87.6035 23.9052 87.6238 24.1489 87.6645 24.3654C87.7051 24.582 87.7797 24.7648 87.8881 24.9137C88.0101 25.0626 88.1795 25.1844 88.3964 25.2792C88.6133 25.3739 88.9047 25.4348 89.2706 25.4619L88.8437 27.9593Z" fill="#37352F"/>
<path d="M82.5778 27.3909C82.0628 27.5398 81.3986 27.6751 80.5854 27.797C79.7722 27.9323 78.9183 28 78.0237 28C77.1156 28 76.3566 27.8782 75.7467 27.6345C75.1503 27.3909 74.6759 27.0525 74.3235 26.6193C73.9711 26.1726 73.7204 25.6447 73.5713 25.0355C73.4222 24.4264 73.3477 23.7564 73.3477 23.0254V17.0762H76.3769V22.6599C76.3769 23.6345 76.5057 24.3384 76.7632 24.7716C77.0207 25.2047 77.5019 25.4213 78.2067 25.4213C78.4236 25.4213 78.654 25.4146 78.8979 25.401C79.1419 25.3739 79.3588 25.3469 79.5485 25.3198V17.0762H82.5778V27.3909Z" fill="#37352F"/>
<path d="M67.1452 25.6445C67.4434 25.6445 67.728 25.6377 67.9991 25.6242C68.2702 25.6107 68.487 25.5904 68.6497 25.5633V23.2689C68.5277 23.2418 68.3447 23.2147 68.1008 23.1877C67.8568 23.1606 67.6332 23.1471 67.4299 23.1471C67.1452 23.1471 66.8741 23.1674 66.6166 23.208C66.3727 23.235 66.1558 23.296 65.966 23.3907C65.7763 23.4855 65.6272 23.6141 65.5188 23.7765C65.4103 23.9389 65.3561 24.142 65.3561 24.3856C65.3561 24.8594 65.512 25.191 65.8237 25.3806C66.149 25.5565 66.5895 25.6445 67.1452 25.6445ZM66.9013 16.7917C67.7958 16.7917 68.5413 16.8933 69.1376 17.0963C69.734 17.2994 70.2084 17.5904 70.5608 17.9694C70.9267 18.3484 71.1843 18.8087 71.3334 19.3501C71.4824 19.8916 71.557 20.4939 71.557 21.1572V27.4516C71.1233 27.5464 70.5201 27.6547 69.7476 27.7765C68.975 27.9119 68.0398 27.9795 66.9419 27.9795C66.2507 27.9795 65.6204 27.9186 65.0512 27.7968C64.4954 27.675 64.0143 27.4787 63.6077 27.208C63.2011 26.9237 62.8893 26.5582 62.6725 26.1115C62.4556 25.6648 62.3472 25.1166 62.3472 24.4669C62.3472 23.8442 62.4692 23.3163 62.7131 22.8831C62.9706 22.4499 63.3095 22.1048 63.7297 21.8476C64.1498 21.5904 64.631 21.4076 65.1731 21.2993C65.7153 21.1775 66.2778 21.1166 66.8606 21.1166C67.2537 21.1166 67.5993 21.1369 67.8975 21.1775C68.2092 21.2046 68.4599 21.2452 68.6497 21.2993V21.0151C68.6497 20.5007 68.4938 20.0878 68.1821 19.7765C67.8704 19.4652 67.3282 19.3095 66.5556 19.3095C66.0406 19.3095 65.5323 19.3501 65.0308 19.4313C64.5293 19.499 64.0956 19.6005 63.7297 19.7359L63.3434 17.2994C63.5196 17.2452 63.7364 17.1911 63.994 17.1369C64.265 17.0692 64.5564 17.0151 64.8682 16.9745C65.1799 16.9203 65.5052 16.8797 65.8441 16.8527C66.1965 16.8121 66.5489 16.7917 66.9013 16.7917Z" fill="#37352F"/>
<path d="M53.6113 27.7563C53.0556 26.5787 52.5066 25.3536 51.9645 24.0812C51.4223 22.8088 50.9073 21.5499 50.4194 20.3046C49.9314 19.0592 49.4774 17.868 49.0572 16.731C48.6506 15.5939 48.2982 14.5787 48 13.6853H51.4969C51.768 14.4975 52.0594 15.3773 52.3711 16.3249C52.6964 17.2589 53.0217 18.1929 53.347 19.1269C53.6858 20.0609 54.0111 20.9543 54.3229 21.8071C54.6346 22.6599 54.926 23.3976 55.1971 24.0203C55.4546 23.3976 55.7392 22.6599 56.051 21.8071C56.3763 20.9543 56.7016 20.0609 57.0268 19.1269C57.3657 18.1929 57.691 17.2589 58.0027 16.3249C58.328 15.3773 58.6262 14.4975 58.8973 13.6853H62.2722C61.9604 14.5787 61.6013 15.5939 61.1946 16.731C60.788 17.868 60.3408 19.0592 59.8528 20.3046C59.3649 21.5499 58.8498 22.8088 58.3077 24.0812C57.7655 25.3536 57.2166 26.5787 56.6609 27.7563H53.6113Z" fill="#37352F"/>
<rect x="8" y="4" width="32" height="32" rx="7.31429" fill="url(#paint0_linear_95_8480)"/>
<path d="M33.8819 19.9749C33.8819 25.4217 29.4567 29.8374 23.9976 29.8374C18.5385 29.8374 14.1133 25.4217 14.1133 19.9749C14.1133 14.5281 18.5385 10.1123 23.9976 10.1123C29.4567 10.1123 33.8819 14.5281 33.8819 19.9749Z" fill="url(#paint1_linear_95_8480)"/>
<path d="M33.8819 19.9749C33.8819 25.4217 29.4567 29.8374 23.9976 29.8374C18.5385 29.8374 14.1133 25.4217 14.1133 19.9749C14.1133 14.5281 18.5385 10.1123 23.9976 10.1123C29.4567 10.1123 33.8819 14.5281 33.8819 19.9749Z" fill="url(#paint2_linear_95_8480)" fill-opacity="0.3"/>
<path d="M33.8819 19.9749C33.8819 25.4217 29.4567 29.8374 23.9976 29.8374C18.5385 29.8374 14.1133 25.4217 14.1133 19.9749C14.1133 14.5281 18.5385 10.1123 23.9976 10.1123C29.4567 10.1123 33.8819 14.5281 33.8819 19.9749Z" fill="#FFEB3B"/>
<path d="M33.8819 19.9749C33.8819 25.4217 29.4567 29.8374 23.9976 29.8374C18.5385 29.8374 14.1133 25.4217 14.1133 19.9749C14.1133 14.5281 18.5385 10.1123 23.9976 10.1123C29.4567 10.1123 33.8819 14.5281 33.8819 19.9749Z" stroke="#6A7178" stroke-width="0.114286"/>
<path fill-rule="evenodd" clip-rule="evenodd" d="M13.6001 19.9748C13.6001 14.245 18.2552 9.6001 23.9976 9.6001C29.74 9.6001 34.3951 14.245 34.3951 19.9748C34.3951 25.7046 29.74 30.3496 23.9976 30.3496C18.2552 30.3496 13.6001 25.7046 13.6001 19.9748ZM32.9358 19.9748C32.9358 15.0492 28.934 11.0562 23.9976 11.0562C19.0612 11.0562 15.0594 15.0492 15.0594 19.9748C15.0594 24.9005 19.0612 28.8935 23.9976 28.8935C28.934 28.8935 32.9358 24.9005 32.9358 19.9748Z" fill="#37352F"/>
<circle cx="23.9928" cy="19.973" r="6.57143" stroke="#37352F" stroke-width="0.0685714"/>
<path fill-rule="evenodd" clip-rule="evenodd" d="M23.9898 27.2478C28.0196 27.2478 31.2863 23.9882 31.2863 19.9673C31.2863 15.9464 28.0196 12.6868 23.9898 12.6868C19.9601 12.6868 16.6934 15.9464 16.6934 19.9673C16.6934 23.9882 19.9601 27.2478 23.9898 27.2478Z" stroke="#37352F" stroke-width="0.685714" stroke-linejoin="round" stroke-dasharray="0.34 1.83"/>
<circle cx="23.9929" cy="19.8649" r="4.74921" fill="url(#paint3_linear_95_8480)"/>
<circle cx="23.9929" cy="19.8649" r="4.74921" fill="url(#paint4_linear_95_8480)" fill-opacity="0.3"/>
<circle cx="23.9929" cy="19.8649" r="4.74921" fill="#37352F"/>
<path fill-rule="evenodd" clip-rule="evenodd" d="M24.8855 21.5204C25.4439 21.2074 25.8212 20.6099 25.8212 19.9243C25.8212 18.9144 25.0025 18.0957 23.9926 18.0957C22.9827 18.0957 22.1641 18.9144 22.1641 19.9243C22.1641 20.6099 22.5414 21.2074 23.0997 21.5204L22.6781 24.4299C23.0956 24.5499 23.5366 24.6142 23.9927 24.6142C24.4487 24.6142 24.8898 24.5499 25.3072 24.4299L24.8855 21.5204Z" fill="url(#paint5_linear_95_8480)"/>
<path fill-rule="evenodd" clip-rule="evenodd" d="M24.8855 21.5204C25.4439 21.2074 25.8212 20.6099 25.8212 19.9243C25.8212 18.9144 25.0025 18.0957 23.9926 18.0957C22.9827 18.0957 22.1641 18.9144 22.1641 19.9243C22.1641 20.6099 22.5414 21.2074 23.0997 21.5204L22.6781 24.4299C23.0956 24.5499 23.5366 24.6142 23.9927 24.6142C24.4487 24.6142 24.8898 24.5499 25.3072 24.4299L24.8855 21.5204Z" fill="url(#paint6_linear_95_8480)" fill-opacity="0.3"/>
<path fill-rule="evenodd" clip-rule="evenodd" d="M24.8855 21.5204C25.4439 21.2074 25.8212 20.6099 25.8212 19.9243C25.8212 18.9144 25.0025 18.0957 23.9926 18.0957C22.9827 18.0957 22.1641 18.9144 22.1641 19.9243C22.1641 20.6099 22.5414 21.2074 23.0997 21.5204L22.6781 24.4299C23.0956 24.5499 23.5366 24.6142 23.9927 24.6142C24.4487 24.6142 24.8898 24.5499 25.3072 24.4299L24.8855 21.5204Z" fill="url(#paint7_linear_95_8480)"/>
<path fill-rule="evenodd" clip-rule="evenodd" d="M24.8855 21.5204C25.4439 21.2074 25.8212 20.6099 25.8212 19.9243C25.8212 18.9144 25.0025 18.0957 23.9926 18.0957C22.9827 18.0957 22.1641 18.9144 22.1641 19.9243C22.1641 20.6099 22.5414 21.2074 23.0997 21.5204L22.6781 24.4299C23.0956 24.5499 23.5366 24.6142 23.9927 24.6142C24.4487 24.6142 24.8898 24.5499 25.3072 24.4299L24.8855 21.5204Z" fill="url(#paint8_linear_95_8480)" fill-opacity="0.3"/>
<rect x="8" y="4" width="32" height="32" rx="7.31429" fill="url(#paint9_linear_95_8480)"/>
<rect x="8" y="4" width="32" height="32" rx="8" fill="url(#paint10_linear_95_8480)"/>
<circle cx="23.9999" cy="19.9999" r="11.6571" fill="url(#paint11_linear_95_8480)"/>
<circle cx="24.0002" cy="19.9997" r="6.87621" fill="url(#paint12_linear_95_8480)"/>
<path fill-rule="evenodd" clip-rule="evenodd" d="M24.7477 21.068C24.7246 20.8576 24.8521 20.6633 25.0363 20.5589C25.6747 20.1973 26.1056 19.5118 26.1056 18.7256C26.1056 17.5628 25.1629 16.6201 24 16.6201C22.8372 16.6201 21.8945 17.5628 21.8945 18.7256C21.8945 19.491 22.3029 20.161 22.9137 20.5296C23.0908 20.6365 23.2113 20.8278 23.1879 21.0333L22.9783 22.871C22.9473 23.1422 23.1595 23.38 23.4325 23.38H24.4914C24.7636 23.38 24.9755 23.1435 24.9458 22.8729L24.7477 21.068Z" fill="#3B3530"/>
<circle cx="24.0173" cy="20.0173" r="9.61739" transform="rotate(-180 24.0173 20.0173)" stroke="#CECECE" stroke-width="0.457143" stroke-dasharray="0.23 0.91"/>
<defs>
<linearGradient id="paint0_linear_95_8480" x1="38.8" y1="36" x2="8" y2="4" gradientUnits="userSpaceOnUse">
<stop stop-color="#FFEB3B"/>
<stop offset="1" stop-color="#FFF68D"/>
</linearGradient>
<linearGradient id="paint1_linear_95_8480" x1="14.0562" y1="18.1419" x2="34.0526" y2="18.6845" gradientUnits="userSpaceOnUse">
<stop stop-color="#FEFBE4"/>
<stop offset="0.214425" stop-color="#F9FDC2"/>
<stop offset="0.531482" stop-color="#FEFFB7"/>
<stop offset="0.837529" stop-color="#F0FFB4"/>
<stop offset="1" stop-color="#F3FEC2"/>
</linearGradient>
<linearGradient id="paint2_linear_95_8480" x1="23.9976" y1="10.0552" x2="23.9976" y2="29.8946" gradientUnits="userSpaceOnUse">
<stop stop-color="#FDFFCB"/>
<stop offset="1" stop-color="#ECFF87"/>
</linearGradient>
<linearGradient id="paint3_linear_95_8480" x1="20.8" y1="16.6287" x2="28.5992" y2="19.3259" gradientUnits="userSpaceOnUse">
<stop stop-color="#FEFBE4"/>
<stop offset="0.214425" stop-color="#F9FDC2"/>
<stop offset="0.531482" stop-color="#FEFFB7"/>
<stop offset="0.837529" stop-color="#F8FFA6"/>
<stop offset="1" stop-color="#F0FFAF"/>
</linearGradient>
<linearGradient id="paint4_linear_95_8480" x1="23.9929" y1="15.1157" x2="23.9929" y2="24.6141" gradientUnits="userSpaceOnUse">
<stop stop-color="#FDFFCB"/>
<stop offset="1" stop-color="#ECFF87"/>
</linearGradient>
<linearGradient id="paint5_linear_95_8480" x1="22.7633" y1="19.134" x2="26.0034" y2="19.7627" gradientUnits="userSpaceOnUse">
<stop stop-color="#FEFBE4"/>
<stop offset="0.214425" stop-color="#F9FDC2"/>
<stop offset="0.531482" stop-color="#FEFFB7"/>
<stop offset="0.837529" stop-color="#F8FFA6"/>
<stop offset="1" stop-color="#F0FFAF"/>
</linearGradient>
<linearGradient id="paint6_linear_95_8480" x1="23.9926" y1="18.0957" x2="23.9926" y2="24.6142" gradientUnits="userSpaceOnUse">
<stop stop-color="#FDFFCB"/>
<stop offset="1" stop-color="#ECFF87"/>
</linearGradient>
<linearGradient id="paint7_linear_95_8480" x1="22.7633" y1="19.134" x2="26.0034" y2="19.7627" gradientUnits="userSpaceOnUse">
<stop stop-color="#FEFBE4"/>
<stop offset="0.214425" stop-color="#F9FDC2"/>
<stop offset="0.531482" stop-color="#FEFFB7"/>
<stop offset="0.837529" stop-color="#F8FFA6"/>
<stop offset="1" stop-color="#F0FFAF"/>
</linearGradient>
<linearGradient id="paint8_linear_95_8480" x1="23.9926" y1="18.0957" x2="23.9926" y2="24.6142" gradientUnits="userSpaceOnUse">
<stop stop-color="#FDFFCB"/>
<stop offset="1" stop-color="#ECFF87"/>
</linearGradient>
<linearGradient id="paint9_linear_95_8480" x1="38.8" y1="36" x2="8" y2="4" gradientUnits="userSpaceOnUse">
<stop stop-color="#FFEB3B"/>
<stop offset="1" stop-color="#FFF68D"/>
</linearGradient>
<linearGradient id="paint10_linear_95_8480" x1="38.8" y1="36" x2="11.0769" y2="5.84615" gradientUnits="userSpaceOnUse">
<stop stop-color="#FFE03B"/>
<stop offset="1" stop-color="#FFF68D"/>
</linearGradient>
<linearGradient id="paint11_linear_95_8480" x1="23.9999" y1="8.34277" x2="23.9999" y2="31.6571" gradientUnits="userSpaceOnUse">
<stop stop-color="#313131"/>
<stop offset="1" stop-color="#414141"/>
</linearGradient>
<linearGradient id="paint12_linear_95_8480" x1="24.0002" y1="13.1235" x2="24.2769" y2="26.8747" gradientUnits="userSpaceOnUse">
<stop stop-color="#FFF485"/>
<stop offset="1" stop-color="#FFE449"/>
</linearGradient>
</defs>
</svg>
