<svg width="120" height="120" viewBox="0 0 120 120" fill="none" xmlns="http://www.w3.org/2000/svg">
<path d="M46.1172 106.625L48.7969 97.625H51.4062L47.4453 109H45.7266L46.1172 106.625ZM43.6484 97.625L46.3203 106.625L46.7266 109H44.9922L41.0547 97.625H43.6484ZM56.5312 107.094V103.328C56.5312 103.057 56.487 102.826 56.3984 102.633C56.3099 102.435 56.1719 102.281 55.9844 102.172C55.8021 102.062 55.5651 102.008 55.2734 102.008C55.0234 102.008 54.8073 102.052 54.625 102.141C54.4427 102.224 54.3021 102.346 54.2031 102.508C54.1042 102.664 54.0547 102.849 54.0547 103.062H51.8047C51.8047 102.703 51.888 102.362 52.0547 102.039C52.2214 101.716 52.4635 101.432 52.7812 101.188C53.099 100.938 53.4766 100.742 53.9141 100.602C54.3568 100.461 54.8516 100.391 55.3984 100.391C56.0547 100.391 56.638 100.5 57.1484 100.719C57.6589 100.938 58.0599 101.266 58.3516 101.703C58.6484 102.141 58.7969 102.688 58.7969 103.344V106.961C58.7969 107.424 58.8255 107.805 58.8828 108.102C58.9401 108.393 59.0234 108.648 59.1328 108.867V109H56.8594C56.75 108.771 56.6667 108.484 56.6094 108.141C56.5573 107.792 56.5312 107.443 56.5312 107.094ZM56.8281 103.852L56.8438 105.125H55.5859C55.2891 105.125 55.0312 105.159 54.8125 105.227C54.5938 105.294 54.4141 105.391 54.2734 105.516C54.1328 105.635 54.0286 105.776 53.9609 105.938C53.8984 106.099 53.8672 106.276 53.8672 106.469C53.8672 106.661 53.9115 106.836 54 106.992C54.0885 107.143 54.2161 107.263 54.3828 107.352C54.5495 107.435 54.7448 107.477 54.9688 107.477C55.3073 107.477 55.6016 107.409 55.8516 107.273C56.1016 107.138 56.2943 106.971 56.4297 106.773C56.5703 106.576 56.6432 106.388 56.6484 106.211L57.2422 107.164C57.1589 107.378 57.0443 107.599 56.8984 107.828C56.7578 108.057 56.5781 108.273 56.3594 108.477C56.1406 108.674 55.8776 108.839 55.5703 108.969C55.263 109.094 54.8984 109.156 54.4766 109.156C53.9401 109.156 53.4531 109.049 53.0156 108.836C52.5833 108.617 52.2396 108.318 51.9844 107.938C51.7344 107.552 51.6094 107.115 51.6094 106.625C51.6094 106.182 51.6927 105.789 51.8594 105.445C52.026 105.102 52.2708 104.812 52.5938 104.578C52.9219 104.339 53.3307 104.159 53.8203 104.039C54.3099 103.914 54.8776 103.852 55.5234 103.852H56.8281ZM65.5312 106.977V100.547H67.7812V109H65.6641L65.5312 106.977ZM65.7812 105.242L66.4453 105.227C66.4453 105.789 66.3802 106.312 66.25 106.797C66.1198 107.276 65.9245 107.693 65.6641 108.047C65.4036 108.396 65.0755 108.669 64.6797 108.867C64.2839 109.06 63.8177 109.156 63.2812 109.156C62.8698 109.156 62.4896 109.099 62.1406 108.984C61.7969 108.865 61.5 108.68 61.25 108.43C61.0052 108.174 60.8125 107.849 60.6719 107.453C60.5365 107.052 60.4688 106.57 60.4688 106.008V100.547H62.7188V106.023C62.7188 106.273 62.7474 106.484 62.8047 106.656C62.8672 106.828 62.9531 106.969 63.0625 107.078C63.1719 107.188 63.2995 107.266 63.4453 107.312C63.5964 107.359 63.763 107.383 63.9453 107.383C64.4089 107.383 64.7734 107.289 65.0391 107.102C65.3099 106.914 65.5 106.659 65.6094 106.336C65.724 106.008 65.7812 105.643 65.7812 105.242ZM71.875 97V109H69.6172V97H71.875ZM77.875 100.547V102.141H72.9531V100.547H77.875ZM74.1719 98.4609H76.4219V106.453C76.4219 106.698 76.4531 106.885 76.5156 107.016C76.5833 107.146 76.6823 107.237 76.8125 107.289C76.9427 107.336 77.1068 107.359 77.3047 107.359C77.4453 107.359 77.5703 107.354 77.6797 107.344C77.7943 107.328 77.8906 107.312 77.9688 107.297L77.9766 108.953C77.7839 109.016 77.5755 109.065 77.3516 109.102C77.1276 109.138 76.8802 109.156 76.6094 109.156C76.1146 109.156 75.6823 109.076 75.3125 108.914C74.9479 108.747 74.6667 108.482 74.4688 108.117C74.2708 107.753 74.1719 107.273 74.1719 106.68V98.4609Z" fill="#1F1814"/>
<rect x="24" y="8" width="72" height="72" rx="16" fill="url(#paint0_linear_190_1678)"/>
<g filter="url(#filter0_dii_190_1678)">
<path d="M59.9988 69.1993C74.3424 69.1993 85.9702 57.5715 85.9702 43.2279C85.9702 28.8842 74.3424 17.2564 59.9988 17.2564C45.6551 17.2564 34.0273 28.8842 34.0273 43.2279C34.0273 57.5715 45.6551 69.1993 59.9988 69.1993Z" fill="url(#paint1_linear_190_1678)"/>
</g>
<path d="M60.0003 65.5998C72.3557 65.5998 82.3718 55.5838 82.3718 43.2284C82.3718 30.873 72.3557 20.8569 60.0003 20.8569C47.6449 20.8569 37.6289 30.873 37.6289 43.2284C37.6289 55.5838 47.6449 65.5998 60.0003 65.5998Z" fill="url(#paint2_linear_190_1678)"/>
<g filter="url(#filter1_d_190_1678)">
<g filter="url(#filter2_d_190_1678)">
<path d="M59.9976 59.2344C68.8371 59.2344 76.003 52.0685 76.003 43.229C76.003 34.3894 68.8371 27.2235 59.9976 27.2235C51.1581 27.2235 43.9922 34.3894 43.9922 43.229C43.9922 52.0685 51.1581 59.2344 59.9976 59.2344Z" fill="url(#paint3_linear_190_1678)"/>
</g>
<path d="M60 61.2285C69.9411 61.2285 78 53.1696 78 43.2285C78 33.2873 69.9411 25.2285 60 25.2285C50.0589 25.2285 42 33.2873 42 43.2285C42 53.1696 50.0589 61.2285 60 61.2285Z" fill="url(#paint4_linear_190_1678)"/>
<path d="M59.9988 54.6619C66.3128 54.6619 71.4313 49.5434 71.4313 43.2295C71.4313 36.9155 66.3128 31.797 59.9988 31.797C53.6849 31.797 48.5664 36.9155 48.5664 43.2295C48.5664 49.5434 53.6849 54.6619 59.9988 54.6619Z" fill="url(#paint5_linear_190_1678)"/>
<path fill-rule="evenodd" clip-rule="evenodd" d="M62.0688 45.7146C62.0168 45.2412 62.3024 44.803 62.7219 44.5774C64.4275 43.6602 65.5871 41.8587 65.5871 39.7864C65.5871 36.7842 63.1532 34.3503 60.151 34.3503C57.1487 34.3503 54.7148 36.7842 54.7148 39.7864C54.7148 41.8043 55.8143 43.5654 57.4469 44.5034C57.8505 44.7352 58.1206 45.1668 58.0678 45.6292L57.4942 50.658C57.4246 51.2683 57.9019 51.8031 58.5162 51.8031H61.5894C62.2019 51.8031 62.6786 51.2712 62.6118 50.6623L62.0688 45.7146Z" fill="#1B1611"/>
</g>
<defs>
<filter id="filter0_dii_190_1678" x="30.9416" y="16.6939" width="58.1128" height="58.6848" filterUnits="userSpaceOnUse" color-interpolation-filters="sRGB">
<feFlood flood-opacity="0" result="BackgroundImageFix"/>
<feColorMatrix in="SourceAlpha" type="matrix" values="0 0 0 0 0 0 0 0 0 0 0 0 0 0 0 0 0 0 127 0" result="hardAlpha"/>
<feOffset dy="3.09375"/>
<feGaussianBlur stdDeviation="1.54286"/>
<feComposite in2="hardAlpha" operator="out"/>
<feColorMatrix type="matrix" values="0 0 0 0 0.609814 0 0 0 0 0.365889 0 0 0 0 0 0 0 0 0.28 0"/>
<feBlend mode="normal" in2="BackgroundImageFix" result="effect1_dropShadow_190_1678"/>
<feBlend mode="normal" in="SourceGraphic" in2="effect1_dropShadow_190_1678" result="shape"/>
<feColorMatrix in="SourceAlpha" type="matrix" values="0 0 0 0 0 0 0 0 0 0 0 0 0 0 0 0 0 0 127 0" result="hardAlpha"/>
<feOffset dy="0.5625"/>
<feGaussianBlur stdDeviation="0.203906"/>
<feComposite in2="hardAlpha" operator="arithmetic" k2="-1" k3="1"/>
<feColorMatrix type="matrix" values="0 0 0 0 1 0 0 0 0 1 0 0 0 0 1 0 0 0 1 0"/>
<feBlend mode="normal" in2="shape" result="effect2_innerShadow_190_1678"/>
<feColorMatrix in="SourceAlpha" type="matrix" values="0 0 0 0 0 0 0 0 0 0 0 0 0 0 0 0 0 0 127 0" result="hardAlpha"/>
<feOffset dy="-0.84375"/>
<feGaussianBlur stdDeviation="0.28125"/>
<feComposite in2="hardAlpha" operator="arithmetic" k2="-1" k3="1"/>
<feColorMatrix type="matrix" values="0 0 0 0 1 0 0 0 0 0.992157 0 0 0 0 0.92549 0 0 0 1 0"/>
<feBlend mode="normal" in2="effect2_innerShadow_190_1678" result="effect3_innerShadow_190_1678"/>
</filter>
<filter id="filter1_d_190_1678" x="36.8571" y="25.2285" width="46.2857" height="46.2857" filterUnits="userSpaceOnUse" color-interpolation-filters="sRGB">
<feFlood flood-opacity="0" result="BackgroundImageFix"/>
<feColorMatrix in="SourceAlpha" type="matrix" values="0 0 0 0 0 0 0 0 0 0 0 0 0 0 0 0 0 0 127 0" result="hardAlpha"/>
<feOffset dy="5.14286"/>
<feGaussianBlur stdDeviation="2.57143"/>
<feComposite in2="hardAlpha" operator="out"/>
<feColorMatrix type="matrix" values="0 0 0 0 0 0 0 0 0 0 0 0 0 0 0 0 0 0 0.3 0"/>
<feBlend mode="normal" in2="BackgroundImageFix" result="effect1_dropShadow_190_1678"/>
<feBlend mode="normal" in="SourceGraphic" in2="effect1_dropShadow_190_1678" result="shape"/>
</filter>
<filter id="filter2_d_190_1678" x="41.1797" y="25.8173" width="37.6367" height="37.6358" filterUnits="userSpaceOnUse" color-interpolation-filters="sRGB">
<feFlood flood-opacity="0" result="BackgroundImageFix"/>
<feColorMatrix in="SourceAlpha" type="matrix" values="0 0 0 0 0 0 0 0 0 0 0 0 0 0 0 0 0 0 127 0" result="hardAlpha"/>
<feOffset dy="1.40625"/>
<feGaussianBlur stdDeviation="1.40625"/>
<feColorMatrix type="matrix" values="0 0 0 0 0.354733 0 0 0 0 0.0763732 0 0 0 0 0.0589757 0 0 0 1 0"/>
<feBlend mode="normal" in2="BackgroundImageFix" result="effect1_dropShadow_190_1678"/>
<feBlend mode="normal" in="SourceGraphic" in2="effect1_dropShadow_190_1678" result="shape"/>
</filter>
<linearGradient id="paint0_linear_190_1678" x1="66.6857" y1="80" x2="48.5571" y2="8" gradientUnits="userSpaceOnUse">
<stop stop-color="#FFC120"/>
<stop offset="1" stop-color="#FFF686"/>
</linearGradient>
<linearGradient id="paint1_linear_190_1678" x1="59.9988" y1="17.2564" x2="59.9988" y2="69.1993" gradientUnits="userSpaceOnUse">
<stop stop-color="#FFFEEE"/>
<stop offset="1" stop-color="#FFF9E8"/>
</linearGradient>
<linearGradient id="paint2_linear_190_1678" x1="60.0003" y1="20.8569" x2="60.0003" y2="65.5998" gradientUnits="userSpaceOnUse">
<stop stop-color="#191919"/>
<stop offset="1" stop-color="#535353"/>
</linearGradient>
<linearGradient id="paint3_linear_190_1678" x1="59.9976" y1="27.2235" x2="60.6416" y2="59.2315" gradientUnits="userSpaceOnUse">
<stop stop-color="#FFF485"/>
<stop offset="1" stop-color="#FFE449"/>
</linearGradient>
<linearGradient id="paint4_linear_190_1678" x1="60" y1="25.2285" x2="60.7242" y2="61.2252" gradientUnits="userSpaceOnUse">
<stop stop-color="#FFF27F"/>
<stop offset="1" stop-color="#FFC222"/>
</linearGradient>
<linearGradient id="paint5_linear_190_1678" x1="59.9988" y1="31.797" x2="60.4588" y2="54.6598" gradientUnits="userSpaceOnUse">
<stop stop-color="#FFC324"/>
<stop offset="1" stop-color="#FFFAC4"/>
</linearGradient>
</defs>
</svg>
