<svg width="139" height="44" viewBox="0 0 139 44" fill="none" xmlns="http://www.w3.org/2000/svg">
<rect width="44" height="44" rx="10.0571" fill="url(#paint0_linear_404_14070)"/>
<g filter="url(#filter0_dii_404_14070)">
<path d="M22.0001 37.3996C30.7656 37.3996 37.8715 30.2937 37.8715 21.5282C37.8715 12.7626 30.7656 5.65674 22.0001 5.65674C13.2345 5.65674 6.12866 12.7626 6.12866 21.5282C6.12866 30.2937 13.2345 37.3996 22.0001 37.3996Z" fill="url(#paint1_linear_404_14070)"/>
</g>
<path d="M22 35.1998C29.5506 35.1998 35.6715 29.0789 35.6715 21.5284C35.6715 13.9778 29.5506 7.85693 22 7.85693C14.4495 7.85693 8.32861 13.9778 8.32861 21.5284C8.32861 29.0789 14.4495 35.1998 22 35.1998Z" fill="url(#paint2_linear_404_14070)"/>
<g filter="url(#filter1_d_404_14070)">
<g filter="url(#filter2_d_404_14070)">
<path d="M21.9991 31.31C27.401 31.31 31.7802 26.9308 31.7802 21.5289C31.7802 16.1269 27.401 11.7478 21.9991 11.7478C16.5972 11.7478 12.218 16.1269 12.218 21.5289C12.218 26.9308 16.5972 31.31 21.9991 31.31Z" fill="url(#paint3_linear_404_14070)"/>
</g>
<path d="M22 32.5286C28.0751 32.5286 33 27.6037 33 21.5286C33 15.4534 28.0751 10.5286 22 10.5286C15.9249 10.5286 11 15.4534 11 21.5286C11 27.6037 15.9249 32.5286 22 32.5286Z" fill="url(#paint4_linear_404_14070)"/>
<path d="M21.9999 28.5157C25.8584 28.5157 28.9864 25.3877 28.9864 21.5292C28.9864 17.6707 25.8584 14.5427 21.9999 14.5427C18.1414 14.5427 15.0134 17.6707 15.0134 21.5292C15.0134 25.3877 18.1414 28.5157 21.9999 28.5157Z" fill="url(#paint5_linear_404_14070)"/>
<path fill-rule="evenodd" clip-rule="evenodd" d="M23.2662 23.0478C23.2345 22.7585 23.409 22.4907 23.6653 22.3528C24.7076 21.7923 25.4161 20.6914 25.4161 19.4251C25.4161 17.5904 23.9288 16.103 22.094 16.103C20.2593 16.103 18.772 17.5904 18.772 19.4251C18.772 20.6583 19.4439 21.7346 20.4417 22.3077C20.6883 22.4494 20.8534 22.7132 20.8212 22.9958L20.4707 26.0688C20.4281 26.4418 20.7198 26.7686 21.0952 26.7686H22.9733C23.3476 26.7686 23.6389 26.4435 23.5981 26.0715L23.2662 23.0478Z" fill="#1B1611"/>
</g>
<path d="M74.4531 28.25L79.8125 10.25H85.0312L77.1094 33H73.6719L74.4531 28.25ZM69.5156 10.25L74.8594 28.25L75.6719 33H72.2031L64.3281 10.25H69.5156ZM95.2812 29.1875V21.6562C95.2812 21.1146 95.1927 20.651 95.0156 20.2656C94.8385 19.8698 94.5625 19.5625 94.1875 19.3438C93.8229 19.125 93.349 19.0156 92.7656 19.0156C92.2656 19.0156 91.8333 19.1042 91.4688 19.2812C91.1042 19.4479 90.8229 19.6927 90.625 20.0156C90.4271 20.3281 90.3281 20.6979 90.3281 21.125H85.8281C85.8281 20.4062 85.9948 19.724 86.3281 19.0781C86.6615 18.4323 87.1458 17.8646 87.7812 17.375C88.4167 16.875 89.1719 16.4844 90.0469 16.2031C90.9323 15.9219 91.9219 15.7812 93.0156 15.7812C94.3281 15.7812 95.4948 16 96.5156 16.4375C97.5365 16.875 98.3385 17.5312 98.9219 18.4062C99.5156 19.2812 99.8125 20.375 99.8125 21.6875V28.9219C99.8125 29.849 99.8698 30.6094 99.9844 31.2031C100.099 31.7865 100.266 32.2969 100.484 32.7344V33H95.9375C95.7188 32.5417 95.5521 31.9688 95.4375 31.2812C95.3333 30.5833 95.2812 29.8854 95.2812 29.1875ZM95.875 22.7031L95.9062 25.25H93.3906C92.7969 25.25 92.2812 25.3177 91.8438 25.4531C91.4062 25.5885 91.0469 25.7812 90.7656 26.0312C90.4844 26.2708 90.276 26.5521 90.1406 26.875C90.0156 27.1979 89.9531 27.5521 89.9531 27.9375C89.9531 28.3229 90.0417 28.6719 90.2188 28.9844C90.3958 29.2865 90.651 29.526 90.9844 29.7031C91.3177 29.8698 91.7083 29.9531 92.1562 29.9531C92.8333 29.9531 93.4219 29.8177 93.9219 29.5469C94.4219 29.276 94.8073 28.9427 95.0781 28.5469C95.3594 28.151 95.5052 27.776 95.5156 27.4219L96.7031 29.3281C96.5365 29.7552 96.3073 30.1979 96.0156 30.6562C95.7344 31.1146 95.375 31.5469 94.9375 31.9531C94.5 32.349 93.974 32.6771 93.3594 32.9375C92.7448 33.1875 92.0156 33.3125 91.1719 33.3125C90.099 33.3125 89.125 33.099 88.25 32.6719C87.3854 32.2344 86.6979 31.6354 86.1875 30.875C85.6875 30.1042 85.4375 29.2292 85.4375 28.25C85.4375 27.3646 85.6042 26.5781 85.9375 25.8906C86.2708 25.2031 86.7604 24.625 87.4062 24.1562C88.0625 23.6771 88.8802 23.3177 89.8594 23.0781C90.8385 22.8281 91.974 22.7031 93.2656 22.7031H95.875ZM113.281 28.9531V16.0938H117.781V33H113.547L113.281 28.9531ZM113.781 25.4844L115.109 25.4531C115.109 26.5781 114.979 27.625 114.719 28.5938C114.458 29.5521 114.068 30.3854 113.547 31.0938C113.026 31.7917 112.37 32.3385 111.578 32.7344C110.786 33.1198 109.854 33.3125 108.781 33.3125C107.958 33.3125 107.198 33.1979 106.5 32.9688C105.812 32.7292 105.219 32.3594 104.719 31.8594C104.229 31.349 103.844 30.6979 103.562 29.9062C103.292 29.1042 103.156 28.1406 103.156 27.0156V16.0938H107.656V27.0469C107.656 27.5469 107.714 27.9688 107.828 28.3125C107.953 28.6562 108.125 28.9375 108.344 29.1562C108.562 29.375 108.818 29.5312 109.109 29.625C109.411 29.7188 109.745 29.7656 110.109 29.7656C111.036 29.7656 111.766 29.5781 112.297 29.2031C112.839 28.8281 113.219 28.3177 113.438 27.6719C113.667 27.0156 113.781 26.2865 113.781 25.4844ZM125.969 9V33H121.453V9H125.969ZM137.969 16.0938V19.2812H128.125V16.0938H137.969ZM130.562 11.9219H135.062V27.9062C135.062 28.3958 135.125 28.7708 135.25 29.0312C135.385 29.2917 135.583 29.474 135.844 29.5781C136.104 29.6719 136.432 29.7188 136.828 29.7188C137.109 29.7188 137.359 29.7083 137.578 29.6875C137.807 29.6562 138 29.625 138.156 29.5938L138.172 32.9062C137.786 33.0312 137.37 33.1302 136.922 33.2031C136.474 33.276 135.979 33.3125 135.438 33.3125C134.448 33.3125 133.583 33.151 132.844 32.8281C132.115 32.4948 131.552 31.9635 131.156 31.2344C130.76 30.5052 130.562 29.5469 130.562 28.3594V11.9219Z" fill="#1F1F1F"/>
<defs>
<filter id="filter0_dii_404_14070" x="4.24295" y="5.31299" width="35.5143" height="35.863" filterUnits="userSpaceOnUse" color-interpolation-filters="sRGB">
<feFlood flood-opacity="0" result="BackgroundImageFix"/>
<feColorMatrix in="SourceAlpha" type="matrix" values="0 0 0 0 0 0 0 0 0 0 0 0 0 0 0 0 0 0 127 0" result="hardAlpha"/>
<feOffset dy="1.89063"/>
<feGaussianBlur stdDeviation="0.942857"/>
<feComposite in2="hardAlpha" operator="out"/>
<feColorMatrix type="matrix" values="0 0 0 0 0.609814 0 0 0 0 0.365889 0 0 0 0 0 0 0 0 0.28 0"/>
<feBlend mode="normal" in2="BackgroundImageFix" result="effect1_dropShadow_404_14070"/>
<feBlend mode="normal" in="SourceGraphic" in2="effect1_dropShadow_404_14070" result="shape"/>
<feColorMatrix in="SourceAlpha" type="matrix" values="0 0 0 0 0 0 0 0 0 0 0 0 0 0 0 0 0 0 127 0" result="hardAlpha"/>
<feOffset dy="0.34375"/>
<feGaussianBlur stdDeviation="0.124609"/>
<feComposite in2="hardAlpha" operator="arithmetic" k2="-1" k3="1"/>
<feColorMatrix type="matrix" values="0 0 0 0 1 0 0 0 0 1 0 0 0 0 1 0 0 0 1 0"/>
<feBlend mode="normal" in2="shape" result="effect2_innerShadow_404_14070"/>
<feColorMatrix in="SourceAlpha" type="matrix" values="0 0 0 0 0 0 0 0 0 0 0 0 0 0 0 0 0 0 127 0" result="hardAlpha"/>
<feOffset dy="-0.515625"/>
<feGaussianBlur stdDeviation="0.171875"/>
<feComposite in2="hardAlpha" operator="arithmetic" k2="-1" k3="1"/>
<feColorMatrix type="matrix" values="0 0 0 0 1 0 0 0 0 0.992157 0 0 0 0 0.92549 0 0 0 1 0"/>
<feBlend mode="normal" in2="effect2_innerShadow_404_14070" result="effect3_innerShadow_404_14070"/>
</filter>
<filter id="filter1_d_404_14070" x="7.85714" y="10.5286" width="28.2857" height="28.2857" filterUnits="userSpaceOnUse" color-interpolation-filters="sRGB">
<feFlood flood-opacity="0" result="BackgroundImageFix"/>
<feColorMatrix in="SourceAlpha" type="matrix" values="0 0 0 0 0 0 0 0 0 0 0 0 0 0 0 0 0 0 127 0" result="hardAlpha"/>
<feOffset dy="3.14286"/>
<feGaussianBlur stdDeviation="1.57143"/>
<feComposite in2="hardAlpha" operator="out"/>
<feColorMatrix type="matrix" values="0 0 0 0 0 0 0 0 0 0 0 0 0 0 0 0 0 0 0.3 0"/>
<feBlend mode="normal" in2="BackgroundImageFix" result="effect1_dropShadow_404_14070"/>
<feBlend mode="normal" in="SourceGraphic" in2="effect1_dropShadow_404_14070" result="shape"/>
</filter>
<filter id="filter2_d_404_14070" x="10.4993" y="10.8884" width="22.9998" height="22.9998" filterUnits="userSpaceOnUse" color-interpolation-filters="sRGB">
<feFlood flood-opacity="0" result="BackgroundImageFix"/>
<feColorMatrix in="SourceAlpha" type="matrix" values="0 0 0 0 0 0 0 0 0 0 0 0 0 0 0 0 0 0 127 0" result="hardAlpha"/>
<feOffset dy="0.859375"/>
<feGaussianBlur stdDeviation="0.859375"/>
<feColorMatrix type="matrix" values="0 0 0 0 0.354733 0 0 0 0 0.0763732 0 0 0 0 0.0589757 0 0 0 1 0"/>
<feBlend mode="normal" in2="BackgroundImageFix" result="effect1_dropShadow_404_14070"/>
<feBlend mode="normal" in="SourceGraphic" in2="effect1_dropShadow_404_14070" result="shape"/>
</filter>
<linearGradient id="paint0_linear_404_14070" x1="26.0857" y1="44" x2="15.0071" y2="1.50587e-06" gradientUnits="userSpaceOnUse">
<stop stop-color="#FFC120"/>
<stop offset="1" stop-color="#FFF686"/>
</linearGradient>
<linearGradient id="paint1_linear_404_14070" x1="22.0001" y1="5.65674" x2="22.0001" y2="37.3996" gradientUnits="userSpaceOnUse">
<stop stop-color="#FFFEEE"/>
<stop offset="1" stop-color="#FFF9E8"/>
</linearGradient>
<linearGradient id="paint2_linear_404_14070" x1="22" y1="7.85693" x2="22" y2="35.1998" gradientUnits="userSpaceOnUse">
<stop stop-color="#191919"/>
<stop offset="1" stop-color="#535353"/>
</linearGradient>
<linearGradient id="paint3_linear_404_14070" x1="21.9991" y1="11.7478" x2="22.3926" y2="31.3082" gradientUnits="userSpaceOnUse">
<stop stop-color="#FFF485"/>
<stop offset="1" stop-color="#FFE449"/>
</linearGradient>
<linearGradient id="paint4_linear_404_14070" x1="22" y1="10.5286" x2="22.4426" y2="32.5266" gradientUnits="userSpaceOnUse">
<stop stop-color="#FFF27F"/>
<stop offset="1" stop-color="#FFC222"/>
</linearGradient>
<linearGradient id="paint5_linear_404_14070" x1="21.9999" y1="14.5427" x2="22.281" y2="28.5144" gradientUnits="userSpaceOnUse">
<stop stop-color="#FFC324"/>
<stop offset="1" stop-color="#FFFAC4"/>
</linearGradient>
</defs>
</svg>
