<svg width="320" height="320" viewBox="0 0 320 320" fill="none" xmlns="http://www.w3.org/2000/svg">
<path d="M81.0949 216.167C80.5604 216.167 80.0413 215.958 79.6617 215.555L73.0999 208.745C72.6661 208.296 72.054 208.033 71.4265 208.033L6.98582 207.955C3.40664 207.955 0.501465 205.042 0.501465 201.471V177.036C0.501465 173.457 3.41439 170.552 6.99357 170.552H75.7107C79.7857 170.552 83.1015 173.868 83.1015 177.943V214.176C83.1015 214.997 82.6134 215.725 81.8542 216.028C81.5985 216.121 81.3429 216.167 81.0949 216.167ZM6.99357 172.101C4.26657 172.101 2.05089 174.317 2.05089 177.036V201.471C2.05089 204.198 4.26657 206.406 6.99357 206.406L71.4343 206.483C72.4801 206.483 73.495 206.917 74.2232 207.668L80.7773 214.478C80.971 214.672 81.1879 214.618 81.2654 214.587C81.3506 214.556 81.5443 214.447 81.5443 214.168V177.935C81.5443 174.72 78.9258 172.093 75.7029 172.093H6.99357V172.101Z" fill="white" fill-opacity="0.2"/>
<path d="M65.0122 185H48.503C48.0769 185 47.7283 184.652 47.7283 184.226C47.7283 183.799 48.0769 183.451 48.503 183.451H65.0122C65.4383 183.451 65.7869 183.799 65.7869 184.226C65.7869 184.652 65.446 185 65.0122 185Z" fill="white" fill-opacity="0.4"/>
<path d="M38.4544 185H13.1755C12.7494 185 12.4008 184.652 12.4008 184.226C12.4008 183.799 12.7494 183.451 13.1755 183.451H38.4466C38.8727 183.451 39.2214 183.799 39.2214 184.226C39.2291 184.652 38.8805 185 38.4544 185Z" fill="white" fill-opacity="0.4"/>
<path d="M65.012 190.88H23.4331C23.007 190.88 22.6584 190.532 22.6584 190.106C22.6584 189.679 23.007 189.331 23.4331 189.331H65.012C65.4381 189.331 65.7867 189.679 65.7867 190.106C65.7867 190.532 65.4459 190.88 65.012 190.88Z" fill="white" fill-opacity="0.4"/>
<path d="M65.0117 196.76H37.4628C37.0367 196.76 36.6881 196.412 36.6881 195.986C36.6881 195.56 37.0367 195.211 37.4628 195.211H65.0117C65.4378 195.211 65.7864 195.56 65.7864 195.986C65.7864 196.42 65.4455 196.76 65.0117 196.76Z" fill="white" fill-opacity="0.4"/>
<path d="M81.3134 94.4165L80.1465 263.338L238.751 264.042L239.918 95.1299C239.975 81.9084 229.253 71.1504 215.967 71.0933L105.493 70.5892C92.1982 70.5321 81.3708 81.195 81.3134 94.4165Z" fill="#0D0D0D"/>
<path d="M194.396 80.5099L215.812 80.605C225.109 80.643 232.627 88.1765 232.579 97.4315L231.441 264.012H87.4805L88.6378 96.7942C88.6761 87.5296 96.261 80.0628 105.568 80.1009L124.315 80.1865L131.852 80.2245C134.721 80.234 137.036 82.6691 137.026 85.6558L137.007 89.5176C136.988 92.5044 139.312 94.9394 142.182 94.9489L183.932 95.1392C186.802 95.1487 189.145 92.7422 189.155 89.7554L189.174 85.8936C189.184 82.9069 191.527 80.5004 194.396 80.5099Z" fill="#0D0D0D"/>
<circle cx="115" cy="130" r="13" fill="#272727" fill-opacity="0.5"/>
<rect x="136" y="119" width="28" height="8" rx="1" fill="#1A1A1A"/>
<rect x="136" y="133" width="83" height="8" rx="1" fill="#1A1A1A"/>
<g opacity="0.8">
<circle cx="115" cy="178" r="13" fill="#272727" fill-opacity="0.5"/>
<rect x="136" y="167" width="28" height="8" rx="1" fill="#1A1A1A"/>
<rect x="136" y="181" width="83" height="8" rx="1" fill="#1A1A1A"/>
</g>
<g opacity="0.6">
<circle cx="115" cy="226" r="13" fill="#272727" fill-opacity="0.5"/>
<rect x="136" y="215" width="28" height="8" rx="1" fill="#1A1A1A"/>
<rect x="136" y="229" width="83" height="8" rx="1" fill="#1A1A1A"/>
</g>
<path d="M80.1465 263.338L81.3134 94.4165C81.3708 81.195 92.1982 70.5321 105.493 70.5892L215.967 71.0933C229.253 71.1504 239.975 81.9084 239.918 95.1299L238.751 221.436" stroke="white" stroke-opacity="0.5" stroke-width="1.06515"/>
<path d="M87.4805 264.012L88.6378 96.7942C88.6761 87.5296 96.261 80.0628 105.568 80.1009L124.315 80.1865L131.852 80.2245C134.721 80.234 137.036 82.6691 137.026 85.6558L137.007 89.5176C136.988 92.5044 139.312 94.9394 142.182 94.9489L183.932 95.1392C186.802 95.1487 189.145 92.7422 189.155 89.7554L189.174 85.8936C189.184 82.9069 191.527 80.5004 194.396 80.5099L215.812 80.605C225.109 80.643 232.627 88.1765 232.579 97.4315L231.441 221.406" stroke="white" stroke-opacity="0.5" stroke-width="1.06515"/>
<path d="M80.2692 50.7116C85.5636 45.4172 85.5636 36.8333 80.2692 31.5389C74.9749 26.2445 66.391 26.2445 61.0966 31.5389C55.8023 36.8333 55.8023 45.4172 61.0966 50.7116C66.391 56.006 74.9749 56.006 80.2692 50.7116Z" fill="#EE5050"/>
<path d="M69.9297 35.7583H71.4338V43.7328H69.9297V35.7583ZM69.9297 44.9794H71.4338V46.4835H69.9297V44.9794Z" fill="white"/>
<path d="M242.23 279.946H185.474C183.194 279.946 181.335 278.086 181.335 275.806V241.378C181.335 238.633 183.571 236.398 186.315 236.398H227.03C227.436 236.398 227.768 236.73 227.768 237.135C227.768 237.541 227.436 237.873 227.03 237.873H186.315C184.382 237.873 182.811 239.445 182.811 241.378V275.806C182.811 277.275 184.006 278.47 185.474 278.47H242.23C243.698 278.47 244.893 277.275 244.893 275.806V242.278C244.893 239.851 242.916 237.873 240.488 237.873H232.623C232.217 237.873 231.885 237.541 231.885 237.135C231.885 236.73 232.217 236.398 232.623 236.398H240.488C243.735 236.398 246.369 239.039 246.369 242.278V275.806C246.369 278.094 244.51 279.946 242.23 279.946Z" fill="#272727"/>
<path d="M184.036 278.942C183.829 278.942 183.63 278.861 183.482 278.699C183.209 278.396 183.239 277.931 183.541 277.658L206.725 257.035C207.027 256.762 207.499 256.792 207.765 257.094C208.038 257.397 208.009 257.862 207.706 258.135L184.523 278.758C184.383 278.876 184.205 278.942 184.036 278.942Z" fill="#272727"/>
<path d="M243.44 279.51C243.263 279.51 243.094 279.451 242.953 279.326L219.8 258.806C219.497 258.533 219.468 258.068 219.733 257.766C220.006 257.456 220.471 257.434 220.774 257.699L243.927 278.219C244.23 278.492 244.259 278.957 243.986 279.259C243.846 279.429 243.64 279.51 243.44 279.51Z" fill="#272727"/>
<path d="M213.86 262.709C213.093 262.709 212.325 262.466 211.669 261.986L182.31 240.411C181.978 240.168 181.911 239.71 182.155 239.378C182.398 239.054 182.856 238.98 183.188 239.223L212.547 260.798C213.329 261.374 214.384 261.374 215.166 260.806L243.898 239.858C244.23 239.615 244.688 239.688 244.931 240.02C245.175 240.352 245.101 240.81 244.769 241.053L216.037 262.001C215.388 262.473 214.62 262.709 213.86 262.709Z" fill="#272727"/>
<path d="M242.732 231.793C243.344 232.244 244.171 232.244 244.783 231.801L269.199 213.996C268.254 212.831 266.815 212.085 265.199 212.085H221.408C220.058 212.085 218.855 212.72 218.08 213.701C218.11 213.716 218.139 213.723 218.162 213.738L242.732 231.793Z" fill="white"/>
<path d="M245.653 232.989C245.085 233.402 244.421 233.609 243.764 233.609C243.1 233.609 242.429 233.402 241.861 232.981L238.134 230.244L219.297 247.001C219.282 247.015 219.268 247.015 219.253 247.03C219.659 247.2 220.101 247.296 220.574 247.296H266.955C267.22 247.296 267.471 247.259 267.715 247.2L248.966 230.576L245.653 232.989Z" fill="white"/>
<path d="M236.909 229.351L217.379 215C217.238 215.421 217.157 215.871 217.157 216.336V243.902C217.157 244.809 217.519 245.636 218.102 246.241C218.139 246.115 218.198 245.997 218.301 245.901L236.909 229.351Z" fill="white"/>
<path d="M268.999 246.381C269.043 246.418 269.066 246.469 269.095 246.514C269.848 245.886 270.342 244.957 270.342 243.902V217.228C270.342 216.535 270.202 215.871 269.951 215.266L250.169 229.683L268.999 246.381Z" fill="white"/>
<path d="M303.647 125.693H217.45C212.873 125.693 209.159 129.407 209.159 133.984V166.475V179.433C209.159 180.813 210.844 181.496 211.797 180.501L220.022 171.964C220.753 171.199 221.764 170.772 222.824 170.772L303.647 170.682C307.608 170.682 310.813 167.477 310.813 163.517V132.867C310.813 128.898 307.608 125.693 303.647 125.693Z" fill="#272727"/>
<path d="M251.576 142.694H230.869C230.417 142.694 230.047 142.325 230.047 141.873C230.047 141.421 230.417 141.051 230.869 141.051H251.576C252.028 141.051 252.397 141.421 252.397 141.873C252.397 142.325 252.028 142.694 251.576 142.694Z" fill="white" fill-opacity="0.3"/>
<path d="M295.883 142.694H264.181C263.729 142.694 263.359 142.325 263.359 141.873C263.359 141.421 263.729 141.051 264.181 141.051H295.883C296.335 141.051 296.704 141.421 296.704 141.873C296.704 142.325 296.343 142.694 295.883 142.694Z" fill="white" fill-opacity="0.3"/>
<path d="M283.022 150.073H230.86C230.408 150.073 230.039 149.704 230.039 149.252C230.039 148.8 230.408 148.43 230.86 148.43H283.022C283.474 148.43 283.844 148.8 283.844 149.252C283.844 149.704 283.474 150.073 283.022 150.073Z" fill="white" fill-opacity="0.3"/>
<path d="M265.421 157.452H230.86C230.408 157.452 230.039 157.082 230.039 156.631C230.039 156.179 230.408 155.809 230.86 155.809H265.421C265.873 155.809 266.243 156.179 266.243 156.631C266.243 157.082 265.882 157.452 265.421 157.452Z" fill="white" fill-opacity="0.3"/>
<path d="M308.218 135.796C313.21 135.796 317.256 131.75 317.256 126.758C317.256 121.767 313.21 117.72 308.218 117.72C303.227 117.72 299.18 121.767 299.18 126.758C299.18 131.75 303.227 135.796 308.218 135.796Z" fill="#2482F1"/>
<path d="M309.256 130.98H308.011V123.467L306.748 124.241V122.955L308.011 122.111H309.256V130.98Z" fill="white"/>
<path d="M105.724 175.496H59.2989C57.821 175.496 56.3913 176.106 55.3632 177.167L43.8133 189.15C42.4639 190.548 40.1025 189.6 40.1025 187.656V169.472V123.866C40.1025 117.441 45.3072 112.22 51.7489 112.22H107.555C112.792 112.22 117.033 116.461 117.033 121.698V164.187C117.033 170.436 111.972 175.496 105.724 175.496Z" fill="#FEF153"/>
<path d="M64.6194 145.264C64.6194 147.464 62.8363 149.231 60.6517 149.231C58.4509 149.231 56.6839 147.448 56.6839 145.264C56.6839 143.063 58.467 141.296 60.6517 141.296C62.8363 141.296 64.6194 143.079 64.6194 145.264Z" fill="#0D0D0D"/>
<path d="M83.2318 145.264C83.2318 147.464 81.4487 149.232 79.264 149.232C77.0633 149.232 75.2962 147.448 75.2962 145.264C75.2962 143.063 77.0793 141.296 79.264 141.296C81.4487 141.296 83.2318 143.079 83.2318 145.264Z" fill="#0D0D0D"/>
<path d="M98.3316 149.231C100.523 149.231 102.299 147.455 102.299 145.264C102.299 143.072 100.523 141.296 98.3316 141.296C96.1403 141.296 94.3639 143.072 94.3639 145.264C94.3639 147.455 96.1403 149.231 98.3316 149.231Z" fill="#0D0D0D"/>
<path d="M203.328 126.779H225.053C225.745 126.779 226.414 127.065 226.895 127.561L232.3 133.169C232.931 133.823 234.036 133.379 234.036 132.469V123.96V102.619C234.036 99.6117 231.601 97.1686 228.586 97.1686H202.471C200.021 97.1686 198.036 99.1531 198.036 101.604V121.487C198.036 124.411 200.404 126.779 203.328 126.779Z" fill="#ACF878"/>
<path d="M222.565 112.632C222.565 113.661 223.399 114.488 224.421 114.488C225.451 114.488 226.278 113.654 226.278 112.632C226.278 111.602 225.444 110.775 224.421 110.775C223.399 110.775 222.565 111.609 222.565 112.632Z" fill="#0D0D0D"/>
<path d="M213.854 112.632C213.854 113.661 214.688 114.488 215.711 114.488C216.741 114.488 217.568 113.654 217.568 112.632C217.568 111.602 216.733 110.775 215.711 110.775C214.688 110.775 213.854 111.609 213.854 112.632Z" fill="#0D0D0D"/>
<path d="M206.787 114.488C205.762 114.488 204.931 113.657 204.931 112.632C204.931 111.606 205.762 110.775 206.787 110.775C207.813 110.775 208.644 111.606 208.644 112.632C208.644 113.657 207.813 114.488 206.787 114.488Z" fill="#0D0D0D"/>
<path d="M82.0679 286.389C96.9796 286.389 109.068 274.301 109.068 259.389C109.068 244.478 96.9795 232.389 82.0679 232.389C67.1562 232.389 55.0679 244.478 55.0679 259.389C55.0679 274.301 67.1562 286.389 82.0679 286.389Z" fill="#4F2FF7"/>
<path d="M82.0655 274.206C79.0825 274.206 76.5825 271.977 76.235 269.02L76.1249 268.071H88.0061L87.8959 269.02C87.5569 271.977 85.0485 274.206 82.0655 274.206ZM78.1418 269.766C78.7265 271.384 80.2774 272.511 82.0655 272.511C83.8536 272.511 85.4044 271.384 85.9891 269.766H78.1418Z" fill="white"/>
<path d="M92.4972 264.155H71.6415V254.579C71.6415 249.054 76.133 244.562 81.6499 244.562H82.4804C87.9972 244.562 92.4972 249.054 92.4972 254.579V264.155ZM73.3364 262.461H90.8023V254.579C90.8023 249.995 87.0735 246.257 82.4804 246.257H81.6499C77.0652 246.257 73.3364 249.986 73.3364 254.579V262.461Z" fill="white"/>
<path d="M91.65 269.766H72.4807C70.5316 269.766 68.9469 268.181 68.9469 266.232V265.986C68.9469 264.037 70.5316 262.461 72.4807 262.461H91.65C93.5991 262.461 95.1838 264.045 95.1838 265.986V266.232C95.1838 268.181 93.5991 269.766 91.65 269.766ZM72.4892 264.155C71.4723 264.155 70.6503 264.977 70.6503 265.986V266.232C70.6503 267.24 71.4723 268.071 72.4892 268.071H91.6584C92.6669 268.071 93.4974 267.249 93.4974 266.232V265.986C93.4974 264.977 92.6754 264.155 91.6584 264.155H72.4892Z" fill="white"/>
</svg>
