<svg width="375" height="503" viewBox="0 0 375 503" fill="none" xmlns="http://www.w3.org/2000/svg">
<path d="M0 0H375V420.5C375 420.5 273 414.5 178 469.5C83 524.5 0 493.5 0 493.5V0Z" fill="url(#paint0_linear_815_398)"/>
<path opacity="0.1" d="M12.0228 372.539C9.65872 370.873 9.78884 367.327 12.2686 365.839L40.8593 348.684C44.5924 346.445 49.2953 346.617 52.8542 349.125L85.9772 372.461C88.3413 374.127 88.2112 377.673 85.7314 379.161L57.1407 396.316C53.4076 398.555 48.7047 398.383 45.1458 395.875L12.0228 372.539Z" fill="url(#paint1_linear_815_398)"/>
<path opacity="0.2" d="M331.5 276.5C331.5 300.479 315.257 322.446 288.442 338.499C261.658 354.534 224.559 364.5 183.5 364.5C142.441 364.5 105.342 354.534 78.558 338.499C51.7434 322.446 35.5 300.479 35.5 276.5C35.5 252.521 51.7434 230.554 78.558 214.501C105.342 198.466 142.441 188.5 183.5 188.5C224.559 188.5 261.658 198.466 288.442 214.501C315.257 230.554 331.5 252.521 331.5 276.5Z" stroke="white" stroke-width="3"/>
<path opacity="0.4" d="M402.5 283.5C402.5 318.511 378.327 350.479 338.657 373.777C299.023 397.054 244.17 411.5 183.5 411.5C122.83 411.5 67.9771 397.054 28.3426 373.777C-11.3271 350.479 -35.5 318.511 -35.5 283.5C-35.5 248.489 -11.3271 216.521 28.3426 193.223C67.9771 169.946 122.83 155.5 183.5 155.5C244.17 155.5 299.023 169.946 338.657 193.223C378.327 216.521 402.5 248.489 402.5 283.5Z" stroke="url(#paint2_linear_815_398)" stroke-width="3"/>
<path opacity="0.4" d="M487.5 292.5C487.5 340.479 453.937 384.199 399.062 416.007C344.225 447.792 268.369 467.5 184.5 467.5C100.631 467.5 24.7751 447.792 -30.0618 416.007C-84.9372 384.199 -118.5 340.479 -118.5 292.5C-118.5 244.521 -84.9372 200.801 -30.0618 168.993C24.7751 137.208 100.631 117.5 184.5 117.5C268.369 117.5 344.225 137.208 399.062 168.993C453.937 200.801 487.5 244.521 487.5 292.5Z" stroke="url(#paint3_linear_815_398)" stroke-width="3"/>
<path d="M269.865 61.9424C273.228 51.2346 283.082 43.8932 294.305 43.7351L339.446 43.0994C343.588 43.041 347.235 45.818 348.281 49.8267L349.5 54.5L326.949 94.8538C323.211 101.544 316.501 106.047 308.893 106.971L267.5 112L262.017 108.262C258.741 106.028 257.313 101.913 258.501 98.1291L269.865 61.9424Z" fill="#376BE0"/>
<path d="M274.035 67.9915C277.296 57.254 287.079 49.8209 298.298 49.5559L341.189 48.5425C347.938 48.383 352.454 55.435 349.485 61.498L331.284 98.6667C327.412 106.574 319.52 111.727 310.723 112.091L272.67 113.668C266.477 113.924 261.884 107.99 263.686 102.06L274.035 67.9915Z" fill="url(#paint4_linear_815_398)"/>
<path d="M242.481 307.366C244.816 298.367 253.045 292.164 262.339 292.396L283.434 292.923C284.998 292.962 286.395 293.908 287.011 295.346L289 299.987L278.668 316.147C274.519 322.635 267.509 326.738 259.821 327.179L242.479 328.173C239.771 328.328 237.697 325.8 238.379 323.175L242.481 307.366Z" fill="url(#paint5_linear_815_398)"/>
<path d="M245.987 311.329C248.32 302.341 256.532 296.141 265.815 296.359L285.747 296.827C288.666 296.895 290.531 299.967 289.244 302.588L281.739 317.88C277.923 325.655 270.214 330.771 261.567 331.266L245.979 332.159C243.271 332.315 241.197 329.787 241.879 327.161L245.987 311.329Z" fill="url(#paint6_linear_815_398)"/>
<path d="M86.8538 178.312C80.5443 171.155 80.1689 160.537 85.9573 152.952L103.539 129.915C104.438 128.737 105.914 128.152 107.376 128.396L111 129L129.751 159.148C133.866 165.765 133.764 174.17 129.489 180.684L115.5 202L112.013 203.162C110.49 203.67 108.81 203.217 107.748 202.013L86.8538 178.312Z" fill="#3261CA"/>
<path d="M90.6995 177.25C84.4669 170.114 84.0964 159.584 89.812 152.028L106.233 130.32C107.856 128.173 111.094 128.21 112.667 130.394L132.001 157.211C137.069 164.24 137.033 173.734 131.913 180.725L117.453 200.469C115.939 202.536 112.898 202.666 111.213 200.736L90.6995 177.25Z" fill="url(#paint7_linear_815_398)"/>
<path fill-rule="evenodd" clip-rule="evenodd" d="M105 155.5L102 174.5L111 187L126 165L116 150L105 155.5ZM105 172.5L115 166.5L116 154L107 158.5L105 172.5Z" fill="#F3FAFE"/>
<path d="M313 159L331.187 169.5V190.5L313 201L294.813 190.5V169.5L313 159Z" fill="url(#paint8_linear_815_398)"/>
<path d="M282 100L300 76.5L302.5 91.5L306 89.5L304.5 77.5L317 63L321 97L282 100Z" fill="#F3FAFE"/>
<path opacity="0.5" d="M129.023 410.039C126.659 408.373 126.789 404.827 129.269 403.339L157.859 386.184C161.592 383.945 166.295 384.117 169.854 386.625L202.977 409.961C205.341 411.627 205.211 415.173 202.731 416.661L174.141 433.816C170.408 436.055 165.705 435.883 162.146 433.375L129.023 410.039Z" fill="#4ED4E3"/>
<path opacity="0.1" d="M129.023 413.039C126.659 411.373 126.789 407.827 129.269 406.339L157.859 389.184C161.592 386.945 166.295 387.117 169.854 389.625L202.977 412.961C205.341 414.627 205.211 418.173 202.731 419.661L174.141 436.816C170.408 439.055 165.705 438.883 162.146 436.375L129.023 413.039Z" fill="#4ED4E3"/>
<path opacity="0.1" d="M129.023 428.039C126.659 426.373 126.789 422.827 129.269 421.339L157.859 404.184C161.592 401.945 166.295 402.117 169.854 404.625L202.977 427.961C205.341 429.627 205.211 433.173 202.731 434.661L174.141 451.816C170.408 454.055 165.705 453.883 162.146 451.375L129.023 428.039Z" fill="url(#paint9_linear_815_398)"/>
<path d="M9.02275 359.539C6.65872 357.873 6.78884 354.327 9.26858 352.839L37.8593 335.684C41.5924 333.445 46.2953 333.617 49.8542 336.125L82.9772 359.461C85.3413 361.127 85.2112 364.673 82.7314 366.161L54.1407 383.316C50.4076 385.555 45.7047 385.383 42.1458 382.875L9.02275 359.539Z" fill="white" fill-opacity="0.11"/>
<path d="M131.523 411.8C129.159 410.135 129.289 406.588 131.769 405.1L158.295 389.184C162.028 386.945 166.731 387.117 170.29 389.625L200.913 411.2C203.277 412.865 203.147 416.412 200.667 417.9L174.141 433.816C170.408 436.055 165.705 435.883 162.146 433.375L131.523 411.8Z" fill="#4ED4E3"/>
<path d="M11.5227 361.3C9.15871 359.635 9.28884 356.088 11.7686 354.6L38.2949 338.684C42.028 336.445 46.7309 336.617 50.2898 339.125L80.9128 360.7C83.2769 362.365 83.1467 365.912 80.667 367.4L54.1407 383.316C50.4076 385.555 45.7047 385.383 42.1458 382.875L11.5227 361.3Z" fill="white" fill-opacity="0.19"/>
<path d="M28.4529 359.846C27.5262 359.236 27.56 357.865 28.5157 357.301L43.1796 348.65C44.2924 347.993 45.6764 348.003 46.7797 348.675L62.508 358.262C63.4544 358.839 63.4699 360.207 62.5368 360.806L47.9182 370.176C46.7539 370.923 45.2594 370.914 44.1044 370.153L28.4529 359.846Z" stroke="white"/>
<path d="M37.5 357L35.5 358.5L45.5 366L55.5 359.5L45.5 352.5L40.5 356L45.5 360L47 359" stroke="white"/>
<path d="M234.688 252.552C234.688 287.801 211.029 320.494 181.844 320.494C147.53 320.494 129 287.801 129 252.552C129 217.302 149.589 185.982 184.589 188.727C213.774 188.727 234.688 217.302 234.688 252.552Z" fill="url(#paint10_linear_815_398)"/>
<path d="M229.198 231.795C227.825 235.227 225.204 237.972 220.276 237.972C214.786 237.972 211.354 233.834 211.354 230.423C211.354 227.011 215.349 225.619 220.276 225.619C225.204 225.619 230.727 227.972 229.198 231.795Z" fill="#334B8B"/>
<path fill-rule="evenodd" clip-rule="evenodd" d="M212.727 224.932C217.989 206.86 226.316 168.931 217.531 161.794C206.55 152.872 194.197 176.206 192.138 189.245C192.131 189.291 192.124 189.336 192.117 189.38C189.678 188.95 187.166 188.727 184.589 188.727C182.036 188.527 179.56 188.508 177.163 188.658C179.866 176.115 189.693 151.748 208.609 150.127C232.629 148.068 240.865 171.402 236.747 193.363C233.453 210.932 229.884 225.847 228.512 231.109C225.826 241.403 208.731 238.658 212.727 224.932Z" fill="#F5FDFF"/>
<path fill-rule="evenodd" clip-rule="evenodd" d="M212.727 224.932C217.989 206.86 226.316 168.931 217.531 161.794C206.55 152.872 194.197 176.206 192.138 189.245C192.131 189.291 192.124 189.336 192.117 189.38C189.678 188.95 187.166 188.727 184.589 188.727C182.036 188.527 179.56 188.508 177.163 188.658C179.866 176.115 189.693 151.748 208.609 150.127C232.629 148.068 240.865 171.402 236.747 193.363C233.453 210.932 229.884 225.847 228.512 231.109C225.826 241.403 208.731 238.658 212.727 224.932Z" fill="url(#paint11_linear_815_398)"/>
<g filter="url(#filter0_d_815_398)">
<ellipse cx="170.177" cy="252.384" rx="41.1772" ry="63.8247" fill="url(#paint12_linear_815_398)"/>
</g>
<path fill-rule="evenodd" clip-rule="evenodd" d="M168.805 309.346C188.514 309.346 204.492 284.458 204.492 253.756C204.492 223.055 188.514 198.167 168.805 198.167C149.095 198.167 133.118 223.055 133.118 253.756C133.118 284.458 149.095 309.346 168.805 309.346ZM167.432 301.11C184.109 301.11 197.629 279.909 197.629 253.756C197.629 227.604 184.109 206.403 167.432 206.403C150.755 206.403 137.235 227.604 137.235 253.756C137.235 279.909 150.755 301.11 167.432 301.11Z" fill="url(#paint13_linear_815_398)"/>
<path d="M168.154 223.565C168.457 222.605 169.655 222.286 170.395 222.969L177.087 229.146C177.477 229.506 177.624 230.06 177.465 230.567L162.592 277.772C162.29 278.731 161.091 279.05 160.352 278.368L153.66 272.19C153.269 271.83 153.122 271.276 153.282 270.769L168.154 223.565Z" fill="#0C1F95"/>
<g filter="url(#filter1_f_815_398)">
<path d="M204.492 161.794C200.374 164.768 191.727 174.284 190.08 188.559" stroke="#0E4CC6" stroke-width="1.37257"/>
</g>
<defs>
<filter id="filter0_d_815_398" x="126.255" y="187.187" width="87.8448" height="133.14" filterUnits="userSpaceOnUse" color-interpolation-filters="sRGB">
<feFlood flood-opacity="0" result="BackgroundImageFix"/>
<feColorMatrix in="SourceAlpha" type="matrix" values="0 0 0 0 0 0 0 0 0 0 0 0 0 0 0 0 0 0 127 0" result="hardAlpha"/>
<feOffset dy="1.37257"/>
<feGaussianBlur stdDeviation="1.37257"/>
<feComposite in2="hardAlpha" operator="out"/>
<feColorMatrix type="matrix" values="0 0 0 0 0.0470588 0 0 0 0 0.121569 0 0 0 0 0.584314 0 0 0 0.38 0"/>
<feBlend mode="normal" in2="BackgroundImageFix" result="effect1_dropShadow_815_398"/>
<feBlend mode="normal" in="SourceGraphic" in2="effect1_dropShadow_815_398" result="shape"/>
</filter>
<filter id="filter1_f_815_398" x="183.907" y="155.747" width="26.4762" height="38.3808" filterUnits="userSpaceOnUse" color-interpolation-filters="sRGB">
<feFlood flood-opacity="0" result="BackgroundImageFix"/>
<feBlend mode="normal" in="SourceGraphic" in2="BackgroundImageFix" result="shape"/>
<feGaussianBlur stdDeviation="2.74515" result="effect1_foregroundBlur_815_398"/>
</filter>
<linearGradient id="paint0_linear_815_398" x1="187.5" y1="43" x2="187.5" y2="502.205" gradientUnits="userSpaceOnUse">
<stop stop-color="#2787FF"/>
<stop offset="1" stop-color="#4553E7"/>
</linearGradient>
<linearGradient id="paint1_linear_815_398" x1="91" y1="372.5" x2="17.5" y2="365" gradientUnits="userSpaceOnUse">
<stop stop-color="white"/>
<stop offset="1" stop-color="white" stop-opacity="0"/>
</linearGradient>
<linearGradient id="paint2_linear_815_398" x1="183.5" y1="154" x2="184.013" y2="537" gradientUnits="userSpaceOnUse">
<stop stop-color="white" stop-opacity="0.37"/>
<stop offset="1" stop-color="white" stop-opacity="0"/>
</linearGradient>
<linearGradient id="paint3_linear_815_398" x1="184.5" y1="116" x2="185" y2="494.5" gradientUnits="userSpaceOnUse">
<stop stop-color="white" stop-opacity="0.32"/>
<stop offset="1" stop-color="white" stop-opacity="0"/>
</linearGradient>
<linearGradient id="paint4_linear_815_398" x1="308" y1="48.1926" x2="308" y2="114.193" gradientUnits="userSpaceOnUse">
<stop stop-color="#99ABF7"/>
<stop offset="0.9999" stop-color="#4ECFE6"/>
<stop offset="1" stop-color="#D9D9D9" stop-opacity="0"/>
</linearGradient>
<linearGradient id="paint5_linear_815_398" x1="262.75" y1="292" x2="262.75" y2="328.487" gradientUnits="userSpaceOnUse">
<stop stop-color="#175EC9"/>
<stop offset="1" stop-color="#175EC9" stop-opacity="0"/>
</linearGradient>
<linearGradient id="paint6_linear_815_398" x1="266.25" y1="295.987" x2="266.25" y2="332.474" gradientUnits="userSpaceOnUse">
<stop stop-color="#70D5ED"/>
<stop offset="1" stop-color="#70D5ED" stop-opacity="0"/>
</linearGradient>
<linearGradient id="paint7_linear_815_398" x1="110.25" y1="126" x2="110.25" y2="204.5" gradientUnits="userSpaceOnUse">
<stop stop-color="#A8FDFB"/>
<stop offset="1" stop-color="#31AFF5"/>
</linearGradient>
<linearGradient id="paint8_linear_815_398" x1="313" y1="159" x2="313" y2="201" gradientUnits="userSpaceOnUse">
<stop stop-color="white" stop-opacity="0.43"/>
<stop offset="1" stop-color="white" stop-opacity="0"/>
</linearGradient>
<linearGradient id="paint9_linear_815_398" x1="208" y1="428" x2="134.5" y2="420.5" gradientUnits="userSpaceOnUse">
<stop stop-color="white"/>
<stop offset="1" stop-color="white" stop-opacity="0"/>
</linearGradient>
<linearGradient id="paint10_linear_815_398" x1="181.844" y1="188.559" x2="181.844" y2="320.494" gradientUnits="userSpaceOnUse">
<stop stop-color="#ECFCFF"/>
<stop offset="0.355931" stop-color="#B5D0F0"/>
<stop offset="1" stop-color="#5699FB"/>
</linearGradient>
<linearGradient id="paint11_linear_815_398" x1="177.04" y1="174.147" x2="194.884" y2="184.441" gradientUnits="userSpaceOnUse">
<stop stop-color="#B6CAFC"/>
<stop offset="1" stop-color="#A6C8F2" stop-opacity="0"/>
</linearGradient>
<linearGradient id="paint12_linear_815_398" x1="170.177" y1="188.559" x2="170.177" y2="316.209" gradientUnits="userSpaceOnUse">
<stop stop-color="#F7FFFF"/>
<stop offset="1" stop-color="#C5D9FE"/>
</linearGradient>
<linearGradient id="paint13_linear_815_398" x1="168.805" y1="211.953" x2="168.805" y2="309.346" gradientUnits="userSpaceOnUse">
<stop stop-color="#2787FF"/>
<stop offset="1" stop-color="#0000D6"/>
</linearGradient>
</defs>
</svg>
