<svg width="320" height="320" viewBox="0 0 320 320" fill="none" xmlns="http://www.w3.org/2000/svg">
<path d="M191.5 305.5C196.194 300.806 196.194 293.195 191.5 288.5C186.806 283.806 179.194 283.806 174.5 288.5C169.806 293.195 169.806 300.806 174.5 305.5C179.194 310.195 186.806 310.195 191.5 305.5Z" fill="#4F2FF7"/>
<path d="M175.872 295.566C175.946 295.159 176.054 294.764 176.195 294.384C176.905 292.472 178.417 290.949 180.319 290.221C180.699 290.075 181.091 289.963 181.491 289.885C181.93 289.8 182.383 289.753 182.847 289.753C184.48 289.753 185.985 290.31 187.185 291.24C187.505 291.488 187.804 291.762 188.077 292.06C189.233 293.323 189.94 295.004 189.94 296.847C189.94 297.147 189.919 297.443 189.883 297.734C189.832 298.139 189.748 298.534 189.632 298.916C189.009 300.955 187.489 302.606 185.535 303.41C185.161 303.564 184.774 303.685 184.379 303.772C183.885 303.881 183.373 303.94 182.847 303.94C181.152 303.94 179.595 303.342 178.373 302.347C178.058 302.089 177.765 301.805 177.498 301.498C176.413 300.252 175.753 298.625 175.753 296.847C175.753 296.409 175.795 295.982 175.872 295.566ZM177.475 294.384H182.723L182.164 293.416L180.92 291.26C179.391 291.789 178.146 292.927 177.475 294.384ZM183.436 297.734L184.047 296.676L183.406 295.566H182.288L181.647 296.676L182.258 297.734H183.436ZM182.847 290.936C182.602 290.936 182.361 290.952 182.124 290.981L182.847 292.234L183.529 293.416L184.088 294.384L184.729 295.494L185.37 294.384L186.588 292.274C185.568 291.438 184.265 290.936 182.847 290.936ZM188.758 296.847C188.758 295.446 188.268 294.159 187.451 293.145L186.735 294.384L186.053 295.566L185.412 296.676L184.801 297.734H188.691C188.736 297.44 188.758 297.144 188.758 296.847ZM188.384 298.916H182.94L183.529 299.936L184.937 302.375C186.525 301.773 187.787 300.506 188.384 298.916ZM182.847 302.758C183.15 302.758 183.453 302.735 183.753 302.689L182.847 301.119L182.164 299.936L181.575 298.916L180.965 297.858L180.354 298.916L178.974 301.307C180.012 302.21 181.366 302.758 182.847 302.758ZM178.13 300.404L178.989 298.916L179.672 297.734L180.282 296.676L180.923 295.566H177.077C176.986 295.979 176.936 296.407 176.936 296.847C176.936 298.181 177.381 299.414 178.13 300.404Z" fill="white"/>
<path d="M94.8031 258.763L95.9035 99.4695C95.9576 87.0015 106.168 76.9464 118.705 77.0002L222.883 77.4756C235.411 77.5294 245.522 87.6742 245.468 100.142V214.207" stroke="#868686" stroke-width="1.06515"/>
<path d="M86.3161 259L87.4594 99.4988C87.5156 87.0145 98.1239 76.9463 111.15 77.0002H117.435" stroke="#868686" stroke-width="1.06515"/>
<circle cx="112.72" cy="124.15" r="6.06846" stroke="#868686" stroke-width="1.06515"/>
<path d="M110.834 129.808C112.557 128.49 113.663 126.445 113.663 124.15C113.663 121.855 112.557 119.811 110.834 118.492" stroke="#868686" stroke-width="1.06515"/>
<path d="M110.834 172.244C112.557 170.925 113.663 168.881 113.663 166.586C113.663 164.29 112.557 162.246 110.834 160.927" stroke="#868686" stroke-width="1.06515"/>
<path d="M110.834 214.679C112.557 213.36 113.663 211.316 113.663 209.021C113.663 206.726 112.557 204.681 110.834 203.363" stroke="#868686" stroke-width="1.06515"/>
<circle cx="112.72" cy="166.586" r="6.06846" stroke="#868686" stroke-width="1.06515"/>
<path d="M160.342 175.073C141.672 175.073 126.475 189.733 125.937 208.018C125.921 208.57 126.37 209.021 126.922 209.021H193.762C194.314 209.021 194.763 208.57 194.747 208.018C194.209 189.733 179.011 175.073 160.342 175.073Z" fill="#1A1A1A"/>
<ellipse cx="159.803" cy="147.275" rx="19.8031" ry="20.2746" fill="#1A1A1A"/>
<ellipse cx="211.736" cy="167.057" rx="15.0881" ry="15.5596" fill="#272727" fill-opacity="0.5"/>
<path d="M234.368 209.021C234.368 198.084 224.047 189.218 211.317 189.218C205.744 189.218 200.633 190.916 196.648 193.744C199.288 198.497 199.948 205.909 199.948 209.021H234.368Z" fill="#272727" fill-opacity="0.5"/>
<circle cx="112.72" cy="209.021" r="6.06846" stroke="#868686" stroke-width="1.06515"/>
<path d="M109.891 124.02C109.891 126.696 102.081 128.865 92.4456 128.865C82.8107 128.865 75 126.696 75 124.02C75 121.894 79.9298 120.088 86.7876 119.435" stroke="#868686" stroke-width="1.06515"/>
<path d="M109.891 165.971C109.891 168.914 102.081 171.301 92.4456 171.301C82.8107 171.301 75 168.914 75 165.971C75 163.632 79.9298 161.645 86.7876 160.927" stroke="#868686" stroke-width="1.06515"/>
<path d="M109.891 208.406C109.891 211.349 102.081 213.736 92.4456 213.736C82.8107 213.736 75 211.349 75 208.406C75 206.067 79.9298 204.081 86.7876 203.363" stroke="#868686" stroke-width="1.06515"/>
<path d="M54 249.114C54 246.842 55.842 245 58.1143 245H121.886C124.158 245 126 246.842 126 249.114V275.577C126 277.849 124.158 279.691 121.886 279.691H61.513H58.1143C55.842 279.691 54 277.849 54 275.577V249.114Z" fill="#272727"/>
<path d="M79.5273 266.6H101.127" stroke="#686868" stroke-linecap="round"/>
<path d="M79.5273 258.745H118.145" stroke="#686868" stroke-linecap="round"/>
<path d="M67.4182 263.327C64.7169 263.327 62.4652 265.139 61.9603 267.542C61.8435 268.098 62.315 268.564 62.8831 268.564H71.9532C72.5213 268.564 72.9928 268.098 72.876 267.542C72.3711 265.139 70.1195 263.327 67.4182 263.327Z" fill="#686868"/>
<circle cx="67.0909" cy="258.746" r="3.27273" fill="#686868"/>
<path d="M68.4939 154C68.0927 154 67.7031 153.835 67.4181 153.517L62.4928 148.143C62.1671 147.788 61.7077 147.58 61.2367 147.58L12.8672 147.519C10.1806 147.519 8 145.22 8 142.401V123.118C8 120.293 10.1865 118 12.873 118H64.4524C67.5112 118 70 120.617 70 123.833V152.429C70 153.077 69.6337 153.651 69.0638 153.89C68.8719 153.963 68.68 154 68.4939 154ZM12.873 119.223C10.8261 119.223 9.16301 120.971 9.16301 123.118V142.401C9.16301 144.554 10.8261 146.296 12.873 146.296L61.2425 146.357C62.0276 146.357 62.7893 146.7 63.336 147.293L68.2555 152.667C68.4009 152.82 68.5637 152.777 68.6218 152.753C68.6858 152.728 68.8312 152.643 68.8312 152.423V123.827C68.8312 121.289 66.8657 119.217 64.4466 119.217H38.6598H12.873V119.223Z" fill="#272727"/>
<path d="M18 128H60" stroke="#686868" stroke-width="1.5" stroke-linecap="round"/>
<path d="M33 137H60" stroke="#686868" stroke-width="1.5" stroke-linecap="round"/>
<path d="M190.943 262.452C191.461 262.452 191.964 262.239 192.331 261.828L198.687 254.894C199.107 254.436 199.7 254.168 200.307 254.168L262.72 254.089C266.186 254.089 269 251.123 269 247.486V222.603C269 218.958 266.179 216 262.712 216H196.158C192.211 216 189 219.377 189 223.526V260.424C189 261.26 189.473 262.002 190.208 262.31C190.456 262.404 190.703 262.452 190.943 262.452Z" fill="#272727"/>
<path d="M206 229H251" stroke="#686868" stroke-width="1.5" stroke-linecap="round"/>
<path d="M206 241H236" stroke="#686868" stroke-width="1.5" stroke-linecap="round"/>
<path d="M264 283C276.15 283 286 273.15 286 261C286 248.85 276.15 239 264 239C251.85 239 242 248.85 242 261C242 273.15 251.85 283 264 283Z" fill="#EE5050"/>
<path d="M264 258.875C266.062 258.875 267.75 257.188 267.75 255.125C267.75 253.062 266.062 251.375 264 251.375C261.938 251.375 260.25 253.062 260.25 255.125C260.25 257.188 261.938 258.875 264 258.875ZM269.25 265.625V263.375C269.25 262.962 269.587 262.625 270 262.625C270.413 262.625 270.75 262.962 270.75 263.375V265.625H273C273.413 265.625 273.75 265.962 273.75 266.375C273.75 266.788 273.413 267.125 273 267.125H270.75V269.375C270.75 269.788 270.413 270.125 270 270.125C269.587 270.125 269.25 269.788 269.25 269.375V267.125H267C266.587 267.125 266.25 266.788 266.25 266.375C266.25 265.962 266.587 265.625 267 265.625H269.25ZM268.875 259.888C269.1 260.038 269.25 260.263 269.25 260.525C269.25 260.938 268.913 261.275 268.5 261.275C268.35 261.275 268.238 261.237 268.125 261.162C267.113 260.637 265.988 260.375 264.75 260.375H263.25C259.125 260.375 255.75 263.75 255.75 267.875C255.75 268.288 256.087 268.625 256.5 268.625H265.5C265.913 268.625 266.25 268.962 266.25 269.375C266.25 269.788 265.913 270.125 265.5 270.125H256.5C255.263 270.125 254.25 269.112 254.25 267.875C254.25 263.788 256.987 260.337 260.737 259.25C259.537 258.275 258.75 256.812 258.75 255.125C258.75 252.238 261.113 249.875 264 249.875C266.887 249.875 269.25 252.238 269.25 255.125C269.25 256.775 268.463 258.275 267.263 259.25C267.825 259.4 268.387 259.625 268.875 259.888Z" fill="white"/>
<g filter="url(#filter0_d_579_9930)">
<path fill-rule="evenodd" clip-rule="evenodd" d="M66.8955 42.336L54.5714 50.4994V69.917L66.8955 78.0804C68.225 78.961 70 78.0077 70 76.413V44.0033C70 42.4086 68.225 41.4553 66.8955 42.336ZM45 50.5653C43.8954 50.5653 43 51.4607 43 52.5653V67.851C43 68.9556 43.8954 69.851 45 69.851H53.2857V50.5653H45Z" fill="white"/>
</g>
<path d="M76 54.4915L82 48.4915" stroke="white"/>
<path d="M82 72.4915L76 66.4915" stroke="white"/>
<path d="M78 60.4915H86" stroke="white"/>
<path d="M217 70C217 65.5817 220.582 62 225 62H307C311.418 62 315 65.5817 315 70V107C315 111.418 311.418 115 307 115H227.226H225C220.582 115 217 111.418 217 107V70Z" fill="#FEF153"/>
<path d="M258 95H291" stroke="black" stroke-width="1.6" stroke-linecap="round"/>
<path d="M258 83H303" stroke="black" stroke-width="1.6" stroke-linecap="round"/>
<path d="M237.5 90C233.165 90 229.587 93.0549 229.065 97.0023C228.993 97.5499 229.448 98 230 98H245C245.552 98 246.007 97.5499 245.935 97.0023C245.413 93.0549 241.835 90 237.5 90Z" fill="#1A1A1A"/>
<circle cx="237" cy="83" r="5" fill="#1A1A1A"/>
<path d="M43 232C43 228.686 45.6863 226 49 226H64C67.3137 226 70 228.686 70 232V247C70 250.314 67.3137 253 64 253C59 253 54 253 49 253C45.6863 253 43 250.314 43 247V232Z" fill="#ACF878"/>
<path d="M49.9594 239.9L53.7253 244.262L63.4989 236.01" stroke="black" stroke-width="1.8" stroke-linecap="round" stroke-linejoin="round"/>
<defs>
<filter id="filter0_d_579_9930" x="39" y="42" width="35" height="44.4164" filterUnits="userSpaceOnUse" color-interpolation-filters="sRGB">
<feFlood flood-opacity="0" result="BackgroundImageFix"/>
<feColorMatrix in="SourceAlpha" type="matrix" values="0 0 0 0 0 0 0 0 0 0 0 0 0 0 0 0 0 0 127 0" result="hardAlpha"/>
<feOffset dy="4"/>
<feGaussianBlur stdDeviation="2"/>
<feComposite in2="hardAlpha" operator="out"/>
<feColorMatrix type="matrix" values="0 0 0 0 0 0 0 0 0 0 0 0 0 0 0 0 0 0 0.25 0"/>
<feBlend mode="normal" in2="BackgroundImageFix" result="effect1_dropShadow_579_9930"/>
<feBlend mode="normal" in="SourceGraphic" in2="effect1_dropShadow_579_9930" result="shape"/>
</filter>
</defs>
</svg>
