<svg width="320" height="320" viewBox="0 0 320 320" fill="none" xmlns="http://www.w3.org/2000/svg">
<path d="M81 262.749L82.1669 93.8275C82.2243 80.606 93.0517 69.9432 106.347 70.0002L216.821 70.5044C230.106 70.5614 240.829 81.3194 240.771 94.5409V211.5" stroke="white" stroke-opacity="0.5" stroke-width="1.06515"/>
<path d="M88 263.423L89.1573 96.2052C89.1956 86.9407 96.7805 79.4738 106.087 79.5119L124.834 79.5975L132.371 79.6355C135.241 79.645 137.556 82.0801 137.546 85.0668L137.527 88.9286C137.508 91.9154 139.832 94.3504 142.701 94.3599L184.452 94.5502C187.321 94.5597 189.665 92.1532 189.674 89.1664L189.694 85.3046C189.703 82.3179 192.046 79.9114 194.916 79.9209L216.332 80.016C225.629 80.054 233.147 87.5875 233.099 96.8425V210" stroke="white" stroke-opacity="0.5" stroke-width="1.06515"/>
<path d="M265.5 72.9998C277.374 72.9998 287 63.374 287 51.4999C287 39.6258 277.374 30 265.5 30C253.626 30 244 39.6258 244 51.4999C244 63.374 253.626 72.9998 265.5 72.9998Z" fill="#2482F1"/>
<path d="M255.622 46.1807C255.622 46.8121 255.753 47.4366 256.007 48.0147C256.261 48.5927 256.632 49.1117 257.097 49.5387C257.562 49.9657 258.111 50.2914 258.709 50.4952C259.306 50.699 259.94 50.7764 260.569 50.7225C261.659 50.6304 262.862 50.7945 263.557 51.6382L270.802 60.4343C271.03 60.7129 271.315 60.9405 271.637 61.1025C271.958 61.2646 272.311 61.3574 272.67 61.3751C273.03 61.3929 273.39 61.335 273.726 61.2054C274.062 61.0757 274.368 60.8771 274.622 60.6223C274.877 60.3676 275.076 60.0623 275.205 59.7261C275.335 59.3899 275.393 59.0304 275.375 58.6705C275.358 58.3106 275.265 57.9585 275.103 57.6367C274.941 57.3149 274.713 57.0305 274.434 56.802L265.638 49.5577C264.794 48.8629 264.63 47.6595 264.722 46.5696C264.79 45.7777 264.65 44.9818 264.315 44.2608C263.981 43.5398 263.463 42.9189 262.815 42.4596C262.166 42.0003 261.408 41.7186 260.617 41.6425C259.826 41.5664 259.028 41.6985 258.304 42.0257L261.622 45.344C261.494 45.8992 261.212 46.4071 260.809 46.8101C260.407 47.213 259.899 47.4947 259.343 47.6231L256.025 44.3048C255.766 44.8771 255.622 45.5122 255.622 46.1807Z" stroke="white" stroke-linecap="round" stroke-linejoin="round"/>
<path d="M272.723 58.7154H272.715V58.7242H272.723V58.7154Z" stroke="white" stroke-linecap="round" stroke-linejoin="round"/>
<path d="M200.275 180.062C197.381 178.037 193.775 176.706 189.481 176.268C182.175 175.531 175.931 177.606 170.943 182.375H121.368C120.705 182.375 120.069 182.111 119.601 181.642C119.132 181.174 118.868 180.538 118.868 179.875V166.125C118.868 164.75 119.987 163.625 121.368 163.625H197.781C199.156 163.625 200.281 164.75 200.281 166.125V179.875L200.275 180.062ZM186.743 182.375H186.562H186.75H186.743ZM150.25 191.75C148.85 193.568 147.881 195.812 147.375 198.487C146.493 203.068 147.181 207.118 149.356 210.5H121.375C120.712 210.5 120.076 210.236 119.607 209.767C119.138 209.299 118.875 208.663 118.875 208V194.25C118.875 192.875 119.993 191.75 121.375 191.75H150.25ZM171.412 191.75H191.537C192.912 191.75 194.037 192.875 194.037 194.25V208C194.037 208.663 193.774 209.299 193.305 209.767C192.836 210.236 192.2 210.5 191.537 210.5H158.118C154.031 207.831 152.593 204.393 153.5 199.662C154.65 193.662 159.312 191.243 168.893 192.412L170.825 192.643L171.406 191.75H171.412ZM121.375 135.5H197.787C199.162 135.5 200.287 136.625 200.287 138V151.75C200.287 152.413 200.024 153.049 199.555 153.517C199.086 153.986 198.45 154.25 197.787 154.25H121.368C120.705 154.25 120.069 153.986 119.601 153.517C119.132 153.049 118.868 152.413 118.868 151.75V138C118.868 136.625 119.987 135.5 121.368 135.5H121.375ZM128.25 141.75C127.421 141.75 126.626 142.079 126.04 142.665C125.454 143.251 125.125 144.046 125.125 144.875C125.125 145.703 125.454 146.498 126.04 147.084C126.626 147.67 127.421 148 128.25 148H140.75C141.578 148 142.373 147.67 142.959 147.084C143.545 146.498 143.875 145.703 143.875 144.875C143.875 144.046 143.545 143.251 142.959 142.665C142.373 142.079 141.578 141.75 140.75 141.75H128.25ZM128.25 169.887C127.421 169.887 126.626 170.216 126.04 170.802C125.454 171.388 125.125 172.183 125.125 173.012C125.125 173.841 125.454 174.636 126.04 175.222C126.626 175.808 127.421 176.137 128.25 176.137H140.75C141.578 176.137 142.373 175.808 142.959 175.222C143.545 174.636 143.875 173.841 143.875 173.012C143.875 172.183 143.545 171.388 142.959 170.802C142.373 170.216 141.578 169.887 140.75 169.887H128.25ZM128.25 198C127.421 198 126.626 198.329 126.04 198.915C125.454 199.501 125.125 200.296 125.125 201.125C125.125 201.953 125.454 202.748 126.04 203.334C126.626 203.92 127.421 204.25 128.25 204.25H140.75C141.578 204.25 142.373 203.92 142.959 203.334C143.545 202.748 143.875 201.953 143.875 201.125C143.875 200.296 143.545 199.501 142.959 198.915C142.373 198.329 141.578 198 140.75 198H128.25Z" fill="#1A1A1A"/>
<path d="M188.043 212.718C191.895 212.718 195.589 211.193 198.319 208.475C201.048 205.758 202.589 202.07 202.606 198.218C202.637 189.731 198.081 183.418 188.856 182.487C181.643 181.762 176.131 184.512 171.887 191.018L170.825 192.643L168.887 192.412C159.306 191.243 154.65 193.662 153.5 199.662C152.531 204.743 154.256 208.331 159.062 211.081C160.951 212.157 163.088 212.721 165.262 212.718H188.043Z" fill="#1A1A1A"/>
<path d="M172 142.464V135.535C173.358 135.253 174.864 134.998 176.487 134.774C176.892 133.187 177.516 131.691 178.331 130.316C177.333 128.999 176.447 127.751 175.701 126.601L180.601 121.701C181.751 122.447 182.999 123.333 184.316 124.331C185.689 123.517 187.183 122.894 188.768 122.488C188.994 120.851 189.25 119.341 189.536 118H196.464C196.75 119.341 197.006 120.851 197.232 122.488C198.817 122.894 200.311 123.517 201.684 124.331C203.001 123.333 204.249 122.447 205.399 121.701L210.299 126.601C209.553 127.751 208.667 128.999 207.669 130.316C208.483 131.689 209.106 133.183 209.512 134.768C211.149 134.994 212.659 135.25 214 135.535V142.464C212.659 142.75 211.149 143.006 209.512 143.232C209.106 144.817 208.483 146.311 207.669 147.684C208.667 149.001 209.553 150.249 210.299 151.399L205.399 156.299C204.249 155.553 203.001 154.667 201.684 153.669C200.311 154.483 198.817 155.106 197.232 155.512C197.006 157.149 196.75 158.659 196.464 160H189.535C189.25 158.659 188.994 157.149 188.768 155.512C187.18 155.106 185.685 154.481 184.311 153.665C183.005 154.654 181.76 155.539 180.6 156.299L175.701 151.399C176.461 150.239 177.346 148.995 178.335 147.689C177.518 146.313 176.892 144.815 176.486 143.226C174.864 143.001 173.358 142.747 172 142.464ZM193 149.5C198.799 149.5 203.5 144.799 203.5 139C203.5 133.201 198.799 128.5 193 128.5C187.201 128.5 182.5 133.201 182.5 139C182.5 144.799 187.201 149.5 193 149.5Z" fill="white"/>
<rect x="66" y="251" width="47.5" height="25" rx="12.5" fill="#4F2FF7"/>
<rect x="68.5" y="253.5" width="20" height="20" rx="10" fill="white"/>
<path d="M255.51 194.177C252.843 194.177 250.059 192.467 249 191.612V216H310.162V185C310.109 186.513 307.534 189.701 304.259 189.934C300.984 190.167 299.019 186.727 296.319 186.875C293.62 187.023 293.302 192.993 288.221 193.388C284.035 193.713 282.588 189.934 279.805 190.329C275.25 190.975 275.518 193.881 271.548 194.177C267.578 194.473 266.308 192.401 263.609 192.302C260.909 192.204 258.845 194.177 255.51 194.177Z" fill="url(#paint0_linear_579_10074)" fill-opacity="0.12"/>
<path d="M249 191.703C250.059 192.558 252.843 194.177 255.51 194.177C258.845 194.177 260.909 192.204 263.609 192.302C266.308 192.401 267.578 194.473 271.548 194.177C275.518 193.881 276.259 190.63 279.805 190.329C283.351 190.027 284.035 193.713 288.221 193.388C293.302 192.993 293.62 187.023 296.319 186.875C299.019 186.727 300.984 190.167 304.259 189.934C307.534 189.701 310.109 186.513 310.162 185" stroke="#FEF153" stroke-width="0.6" stroke-linecap="round"/>
<rect x="296.338" y="186.676" width="0" height="30.1622" fill="url(#paint1_linear_579_10074)" fill-opacity="0.4" stroke="url(#paint2_linear_579_10074)" stroke-width="0.6"/>
<circle cx="296.338" cy="187.095" r="1.75676" fill="white" stroke="#1E1E1E"/>
<path d="M249 179V213C249 215.209 250.791 217 253 217H310" stroke="#3D3D3D"/>
<circle cx="233.158" cy="234.158" r="23" transform="rotate(-33.2822 233.158 234.158)" stroke="white" stroke-opacity="0.1" stroke-width="12"/>
<path d="M220.536 214.93C231.155 207.959 245.414 210.917 252.385 221.536C259.356 232.155 256.398 246.414 245.779 253.385C242.448 255.572 238.759 256.781 235.049 257.084" stroke="#ACF878" stroke-width="12"/>
<rect x="21" y="101" width="89" height="35" rx="8" fill="#FEF153"/>
<path d="M37 118.5H94" stroke="black" stroke-width="1.6" stroke-linecap="round"/>
<circle cx="80.5" cy="118.5" r="5" fill="black" stroke="black"/>
<path d="M47 216V286C47 288.209 48.7909 290 51 290H146C148.209 290 150 288.209 150 286V234.5" stroke="#3D3D3D"/>
<rect x="33" y="213" width="27" height="27" rx="3.27273" fill="#272727"/>
<rect x="140" y="228" width="17" height="17" rx="2" fill="#272727"/>
<defs>
<linearGradient id="paint0_linear_579_10074" x1="279.675" y1="190.73" x2="279.58" y2="216" gradientUnits="userSpaceOnUse">
<stop stop-color="#FEF153"/>
<stop offset="1" stop-color="#0D0D0D"/>
</linearGradient>
<linearGradient id="paint1_linear_579_10074" x1="296.838" y1="186.676" x2="296.838" y2="216.838" gradientUnits="userSpaceOnUse">
<stop stop-color="#FEF153"/>
<stop offset="1" stop-color="#121212" stop-opacity="0.8"/>
</linearGradient>
<linearGradient id="paint2_linear_579_10074" x1="296.838" y1="186.676" x2="296.838" y2="216.838" gradientUnits="userSpaceOnUse">
<stop stop-color="white" stop-opacity="0.54"/>
<stop offset="1" stop-color="white" stop-opacity="0"/>
</linearGradient>
</defs>
</svg>
