<svg width="320" height="320" viewBox="0 0 320 320" fill="none" xmlns="http://www.w3.org/2000/svg">
<path d="M231.895 222.594C238.129 211.349 242 198.803 242 185.572V96.0944C242 90.7229 238.43 86.0057 233.261 84.546L169.196 66.4555C163.51 64.8499 157.49 64.8499 151.804 66.4555L87.739 84.546C82.5696 86.0057 79 90.7229 79 96.0944V185.572C79 202.416 85.2726 218.148 94.7077 231.5" stroke="white" stroke-opacity="0.5" stroke-width="1.06515"/>
<path d="M256.354 111C256.714 111 257.065 110.812 257.321 110.45L261.748 104.329C262.04 103.925 262.453 103.689 262.877 103.689L306.352 103.619C308.767 103.619 310.727 101.001 310.727 97.7906V75.8283C310.727 72.6112 308.762 70 306.347 70H259.986C257.237 70 255 72.9803 255 76.643V109.21C255 109.949 255.329 110.603 255.842 110.875C256.014 110.958 256.186 111 256.354 111ZM306.347 71.3927C308.187 71.3927 309.682 73.3842 309.682 75.8283V97.7906C309.682 100.242 308.187 102.226 306.347 102.226L262.871 102.296C262.166 102.296 261.481 102.686 260.99 103.361L256.568 109.482C256.437 109.656 256.291 109.607 256.239 109.579C256.181 109.552 256.051 109.454 256.051 109.203V76.636C256.051 73.7463 257.817 71.3857 259.992 71.3857H306.347V71.3927Z" fill="#3D3D3D"/>
<path d="M267.204 82.9869H278.342C278.63 82.9869 278.865 82.6736 278.865 82.2906C278.865 81.9076 278.63 81.5942 278.342 81.5942H267.204C266.917 81.5942 266.681 81.9076 266.681 82.2906C266.681 82.6736 266.911 82.9869 267.204 82.9869Z" fill="white" fill-opacity="0.4"/>
<path d="M285.122 82.9869H302.176C302.464 82.9869 302.699 82.6736 302.699 82.2906C302.699 81.9076 302.464 81.5942 302.176 81.5942H285.127C284.839 81.5942 284.604 81.9076 284.604 82.2906C284.599 82.6736 284.834 82.9869 285.122 82.9869Z" fill="white" fill-opacity="0.4"/>
<path d="M267.204 88.2719H295.256C295.543 88.2719 295.779 87.9586 295.779 87.5756C295.779 87.1926 295.543 86.8793 295.256 86.8793H267.204C266.917 86.8793 266.682 87.1926 266.682 87.5756C266.682 87.9586 266.912 88.2719 267.204 88.2719Z" fill="white" fill-opacity="0.4"/>
<path d="M267.205 93.5568H285.791C286.078 93.5568 286.313 93.2435 286.313 92.8605C286.313 92.4775 286.078 92.1642 285.791 92.1642H267.205C266.917 92.1642 266.682 92.4775 266.682 92.8605C266.682 93.2505 266.912 93.5568 267.205 93.5568Z" fill="white" fill-opacity="0.4"/>
<path d="M222.106 222C229.335 210.692 234 197.696 234 183.873V100.849C234 97.27 231.622 94.1262 228.178 93.1516L169.213 76.4657C163.516 74.8535 157.484 74.8535 151.787 76.4657L92.8217 93.1516C89.3776 94.1262 87 97.27 87 100.849V183.873C87 202.435 95.411 219.504 107.148 233" stroke="white" stroke-opacity="0.5" stroke-width="1.06515"/>
<path fill-rule="evenodd" clip-rule="evenodd" d="M136.917 141.415C136.917 128.483 147.359 118 160.24 118C173.122 118 183.564 128.483 183.564 141.415V152H175.87V141.415C175.87 132.75 168.872 125.725 160.24 125.725C151.609 125.725 144.611 132.75 144.611 141.415V152H136.917L136.917 141.415Z" fill="#1A1A1A"/>
<path fill-rule="evenodd" clip-rule="evenodd" d="M162.633 180.907C164.617 179.925 165.983 177.869 165.983 175.49C165.983 172.16 163.304 169.46 160 169.46C156.696 169.46 154.017 172.16 154.017 175.49C154.017 177.869 155.383 179.926 157.368 180.907L154.017 192.485H165.983L162.633 180.907Z" fill="#0D0D0D"/>
<rect x="47.5" y="245.5" width="59.6667" height="37" rx="3.5" fill="#0D0D0D" stroke="#3D3D3D"/>
<path d="M68.7198 260.999H55.5237C55.2356 260.999 55 260.699 55 260.333C55 259.966 55.2356 259.666 55.5237 259.666H68.7198C69.0078 259.666 69.2435 259.966 69.2435 260.333C69.2435 260.699 69.0078 260.999 68.7198 260.999Z" fill="white" fill-opacity="0.3"/>
<path d="M98.566 254.666H56.1007C55.4953 254.666 55 254.366 55 254C55 253.633 55.4953 253.333 56.1007 253.333H98.566C99.1713 253.333 99.6667 253.633 99.6667 254C99.6667 254.366 99.1824 254.666 98.566 254.666Z" fill="white" fill-opacity="0.3"/>
<path d="M75.5815 274H55.52C55.234 274 55 273.7 55 273.333C55 272.967 55.234 272.667 55.52 272.667H75.5815C75.8675 272.667 76.1014 272.967 76.1014 273.333C76.1014 273.7 75.8727 274 75.5815 274Z" fill="white" fill-opacity="0.3"/>
<rect x="13" y="79" width="91" height="57" rx="6" fill="#272727"/>
<rect x="23" y="91" width="16" height="18" rx="2" fill="#2482F1"/>
<path d="M49 94H94" stroke="#686868" stroke-width="1.6" stroke-linecap="round"/>
<path d="M49 106H79" stroke="#686868" stroke-width="1.6" stroke-linecap="round"/>
<path d="M23 124L94 124" stroke="#686868" stroke-width="1.6" stroke-linecap="round"/>
<path d="M235 130C249.912 130 262 117.912 262 103C262 88.0883 249.912 76 235 76C220.088 76 208 88.0883 208 103C208 117.912 220.088 130 235 130Z" fill="#ACF878"/>
<path fill-rule="evenodd" clip-rule="evenodd" d="M247.212 90.3982C247.738 90.9292 247.738 91.7901 247.212 92.3211L245.822 93.7235L248.603 96.5141C248.857 96.7693 249 97.1162 249 97.478C249 97.8399 248.857 98.1868 248.603 98.442L244.335 102.725C243.809 103.252 242.96 103.252 242.434 102.725L239.659 99.9405L236.501 103.127C237.927 105.081 238.42 107.601 237.788 109.988C237.045 112.796 234.861 114.985 232.07 115.729C229.279 116.473 226.304 115.66 224.273 113.594L224.263 113.584C221.208 110.409 221.252 105.36 224.362 102.238C227.129 99.4614 231.415 99.1237 234.551 101.248L245.306 90.3982C245.833 89.8673 246.686 89.8673 247.212 90.3982ZM233.78 104.101C231.676 102.062 228.33 102.091 226.263 104.166C224.2 106.236 224.17 109.578 226.192 111.685C227.542 113.054 229.522 113.596 231.381 113.1C233.243 112.604 234.692 111.147 235.184 109.287C235.671 107.447 235.15 105.486 233.814 104.133C233.802 104.122 233.791 104.112 233.78 104.101ZM241.637 98.0899L243.994 95.7248L245.741 97.478L243.384 99.8431L241.637 98.0899Z" fill="black"/>
<rect x="166" y="212" width="125.485" height="41" rx="8" fill="#FEF153"/>
<path fill-rule="evenodd" clip-rule="evenodd" d="M275.844 225.525C274.59 224.823 273.145 224.424 271.606 224.424C266.803 224.424 262.909 228.317 262.909 233.121C262.909 237.924 266.803 241.818 271.606 241.818C276.409 241.818 280.303 237.924 280.303 233.121C280.303 231.292 279.739 229.595 278.774 228.194L271.606 233.121L275.844 225.525Z" fill="#0D0D0D"/>
<path d="M185.525 234.909L185.633 232.511L183.611 233.812L182.991 232.733L185.139 231.636L182.991 230.54L183.611 229.46L185.633 230.761L185.525 228.364H186.758L186.65 230.761L188.673 229.46L189.292 230.54L187.145 231.636L189.292 232.733L188.673 233.812L186.65 232.511L186.758 234.909H185.525ZM193.869 234.909L193.977 232.511L191.954 233.812L191.335 232.733L193.483 231.636L191.335 230.54L191.954 229.46L193.977 230.761L193.869 228.364H195.102L194.994 230.761L197.017 229.46L197.636 230.54L195.488 231.636L197.636 232.733L197.017 233.812L194.994 232.511L195.102 234.909H193.869ZM202.213 234.909L202.321 232.511L200.298 233.812L199.679 232.733L201.827 231.636L199.679 230.54L200.298 229.46L202.321 230.761L202.213 228.364H203.446L203.338 230.761L205.361 229.46L205.98 230.54L203.832 231.636L205.98 232.733L205.361 233.812L203.338 232.511L203.446 234.909H202.213ZM210.557 234.909L210.665 232.511L208.642 233.812L208.023 232.733L210.17 231.636L208.023 230.54L208.642 229.46L210.665 230.761L210.557 228.364H211.79L211.682 230.761L213.704 229.46L214.324 230.54L212.176 231.636L214.324 232.733L213.704 233.812L211.682 232.511L211.79 234.909H210.557ZM218.9 234.909L219.008 232.511L216.986 233.812L216.366 232.733L218.514 231.636L216.366 230.54L216.986 229.46L219.008 230.761L218.9 228.364H220.133L220.025 230.761L222.048 229.46L222.667 230.54L220.52 231.636L222.667 232.733L222.048 233.812L220.025 232.511L220.133 234.909H218.9ZM227.244 234.909L227.352 232.511L225.329 233.812L224.71 232.733L226.858 231.636L224.71 230.54L225.329 229.46L227.352 230.761L227.244 228.364H228.477L228.369 230.761L230.392 229.46L231.011 230.54L228.863 231.636L231.011 232.733L230.392 233.812L228.369 232.511L228.477 234.909H227.244Z" fill="black"/>
<path fill-rule="evenodd" clip-rule="evenodd" d="M129 159C126.791 159 125 160.791 125 163V196C125 198.209 126.791 200 129 200H191C193.209 200 195 198.209 195 196V163C195 160.791 193.209 159 191 159H129ZM164.6 173.838C164.6 175.746 163.504 177.396 161.912 178.184L164.6 187.473H155L157.688 178.184C156.096 177.396 155 175.746 155 173.838C155 171.166 157.149 169 159.8 169C162.451 169 164.6 171.166 164.6 173.838Z" fill="#1A1A1A"/>
<path d="M105.759 56.7591C111.053 51.4647 111.053 42.8808 105.759 37.5864C100.465 32.292 91.8807 32.292 86.5864 37.5864C81.292 42.8808 81.292 51.4647 86.5864 56.7591C91.8807 62.0535 100.465 62.0535 105.759 56.7591Z" fill="#EE5050"/>
<path d="M103.334 45.1557C103.588 45.3884 103.617 45.7982 103.4 46.0706C102.898 46.7003 102.321 47.266 101.681 47.755L102.994 49.163C103.226 49.4212 103.219 49.8317 102.979 50.0808C102.925 50.1382 102.86 50.184 102.788 50.2153C102.715 50.2466 102.638 50.2628 102.559 50.2628C102.48 50.2628 102.402 50.2466 102.33 50.2153C102.258 50.184 102.193 50.1382 102.139 50.0808L100.621 48.4532C99.9333 48.843 99.1971 49.1397 98.4316 49.3357L99.1334 51.4015C99.2472 51.7386 99.0854 52.1106 98.7716 52.2335C98.4574 52.3561 98.1105 52.1826 97.9963 51.8455L97.2218 49.559C96.5878 49.6302 95.9479 49.6327 95.3134 49.5666L94.5392 51.8455C94.425 52.1822 94.0781 52.3561 93.7639 52.2335C93.4501 52.111 93.2883 51.7386 93.4025 51.4015L94.0992 49.3542C93.3272 49.1621 92.5841 48.8683 91.8894 48.4804L90.3967 50.0804C90.3416 50.1392 90.2748 50.1859 90.2005 50.2172C90.1263 50.2486 90.0463 50.2641 89.9657 50.2626C89.8852 50.2611 89.8058 50.2427 89.7328 50.2087C89.6597 50.1746 89.5947 50.1256 89.5418 50.0648C89.4323 49.9401 89.372 49.7798 89.372 49.6139C89.372 49.448 89.4323 49.2877 89.5418 49.163L90.8239 47.7877C90.2006 47.3172 89.636 46.7734 89.1425 46.1681C88.9272 45.8942 88.9596 45.4848 89.2145 45.2539C89.4628 45.0292 89.8319 45.0546 90.0508 45.3117C91.6101 47.2237 93.8636 48.319 96.2316 48.3157C98.6661 48.3157 100.928 47.1739 102.481 45.2273C102.698 44.9546 103.08 44.923 103.334 45.1557Z" fill="white"/>
<path fill-rule="evenodd" clip-rule="evenodd" d="M89 229C87.3431 229 86 230.343 86 232V233.231H110.538V232C110.538 230.343 109.195 229 107.538 229H89ZM118.538 234.923H86V259C86 260.657 87.3431 262 89 262H118.538C120.195 262 121.538 260.657 121.538 259V255.231H112C109.791 255.231 108 253.44 108 251.231V245.692C108 243.483 109.791 241.692 112 241.692H121.538V237.923C121.538 236.266 120.195 234.923 118.538 234.923ZM109.692 245.56C109.692 244.359 110.709 243.385 111.964 243.385H121.806C123.06 243.385 124.077 244.359 124.077 245.56V251.363C124.077 252.564 123.06 253.538 121.806 253.538H111.964C110.709 253.538 109.692 252.564 109.692 251.363V245.56Z" fill="white"/>
</svg>
