<svg width="19" height="19" viewBox="0 0 19 19" fill="none" xmlns="http://www.w3.org/2000/svg">
<path d="M13.75 1.5C13.5511 1.5 13.3603 1.42098 13.2197 1.28033C13.079 1.13968 13 0.948913 13 0.75C13 0.551088 13.079 0.360322 13.2197 0.21967C13.3603 0.0790178 13.5511 0 13.75 0H17.25C17.7141 6.21601e-09 18.1593 0.184375 18.4874 0.512563C18.8156 0.840752 19 1.28587 19 1.75V5.25C19 5.44891 18.921 5.63968 18.7803 5.78033C18.6397 5.92098 18.4489 6 18.25 6C18.0511 6 17.8603 5.92098 17.7197 5.78033C17.579 5.63968 17.5 5.44891 17.5 5.25V1.75C17.5 1.6837 17.4737 1.62011 17.4268 1.57322C17.3799 1.52634 17.3163 1.5 17.25 1.5H13.75ZM17.5 13.75C17.5 13.5511 17.579 13.3603 17.7197 13.2197C17.8603 13.079 18.0511 13 18.25 13C18.4489 13 18.6397 13.079 18.7803 13.2197C18.921 13.3603 19 13.5511 19 13.75V17.25C19 17.7141 18.8156 18.1593 18.4874 18.4874C18.1593 18.8156 17.7141 19 17.25 19H13.75C13.5511 19 13.3603 18.921 13.2197 18.7803C13.079 18.6397 13 18.4489 13 18.25C13 18.0511 13.079 17.8603 13.2197 17.7197C13.3603 17.579 13.5511 17.5 13.75 17.5H17.25C17.3163 17.5 17.3799 17.4737 17.4268 17.4268C17.4737 17.3799 17.5 17.3163 17.5 17.25V13.75ZM5.25 17.5C5.44891 17.5 5.63968 17.579 5.78033 17.7197C5.92098 17.8603 6 18.0511 6 18.25C6 18.4489 5.92098 18.6397 5.78033 18.7803C5.63968 18.921 5.44891 19 5.25 19H1.75C1.28587 19 0.840752 18.8156 0.512563 18.4874C0.184375 18.1593 6.21601e-09 17.7141 0 17.25V13.75C0 13.5511 0.0790178 13.3603 0.21967 13.2197C0.360322 13.079 0.551088 13 0.75 13C0.948913 13 1.13968 13.079 1.28033 13.2197C1.42098 13.3603 1.5 13.5511 1.5 13.75V17.25C1.5 17.3163 1.52634 17.3799 1.57322 17.4268C1.62011 17.4737 1.6837 17.5 1.75 17.5H5.25ZM1.5 5.25C1.5 5.44891 1.42098 5.63968 1.28033 5.78033C1.13968 5.92098 0.948913 6 0.75 6C0.551088 6 0.360322 5.92098 0.21967 5.78033C0.0790178 5.63968 0 5.44891 0 5.25V1.75C6.21601e-09 1.28587 0.184375 0.840752 0.512563 0.512563C0.840752 0.184375 1.28587 6.21601e-09 1.75 0H5.25C5.44891 0 5.63968 0.0790178 5.78033 0.21967C5.92098 0.360322 6 0.551088 6 0.75C6 0.948913 5.92098 1.13968 5.78033 1.28033C5.63968 1.42098 5.44891 1.5 5.25 1.5H1.75C1.6837 1.5 1.62011 1.52634 1.57322 1.57322C1.52634 1.62011 1.5 1.6837 1.5 1.75V5.25ZM16.25 8.75C16.4489 8.75 16.6397 8.82902 16.7803 8.96967C16.921 9.11032 17 9.30109 17 9.5C17 9.69891 16.921 9.88968 16.7803 10.0303C16.6397 10.171 16.4489 10.25 16.25 10.25H2.75C2.55109 10.25 2.36032 10.171 2.21967 10.0303C2.07902 9.88968 2 9.69891 2 9.5C2 9.30109 2.07902 9.11032 2.21967 8.96967C2.36032 8.82902 2.55109 8.75 2.75 8.75H16.25Z" fill="#ADADAD"/>
</svg>
